<?xml version="1.0" encoding="utf-8"?>
<!-- Generator: Adobe Illustrator 18.0.0, SVG Export Plug-In . SVG Version: 6.00 Build 0)  -->
<!DOCTYPE svg PUBLIC "-//W3C//DTD SVG 1.1//EN" "http://www.w3.org/Graphics/SVG/1.1/DTD/svg11.dtd">
<svg version="1.1" id="Слой_1" xmlns="http://www.w3.org/2000/svg" xmlns:xlink="http://www.w3.org/1999/xlink" x="0px" y="0px"
	 viewBox="0 0 50 50" enable-background="new 0 0 50 50" xml:space="preserve">
<g>
	<g id="XMLID_1_">
		<g>
			<path fill="#B74F45" d="M24.5,28.9c3,0,5.4-2.4,5.4-5.4H19C19,26.5,21.5,28.9,24.5,28.9z M29.6,21.9c-0.7-2.2-2.7-3.8-5.2-3.8
				c-2.5,0-4.5,1.6-5.2,3.8H29.6z M25.9,16.1c2.8,0.5,5.1,2.8,5.7,5.7c1,5.1-3.4,9.4-8.5,8.5c-2.8-0.5-5.1-2.8-5.7-5.7
				C16.4,19.6,20.8,15.2,25.9,16.1z"/>
			<path fill="#B74F45" d="M21.5,47.4c-10.4-1.2-18.3-9-19.4-19.4C0.5,13.5,13,1,27.4,2.6c10.4,1.2,18.3,9,19.4,19.4
				C48.4,36.5,35.9,48.9,21.5,47.4z M3.7,27.7c1.1,9.7,8.3,17,18,18c13.4,1.5,24.9-10.1,23.4-23.4c-1.1-9.7-8.3-16.9-18-18
				C13.8,2.8,2.2,14.3,3.7,27.7z"/>
			<path fill="#B74F45" d="M13.6,22.8c0,6.2,10.8,14.4,10.8,14.4S35,29.6,35,23.8c0-5.8-4.3-11.3-10.7-11.3
				C17.9,12.5,13.6,16.7,13.6,22.8z M24.4,39.5c0,0-12.3-9.4-12.3-16.5c0-7,4.9-11.9,12.3-11.9c7.3,0,12.2,6.3,12.2,12.9
				C36.6,30.7,24.4,39.5,24.4,39.5z"/>
		</g>
		<g>
		</g>
	</g>
</g>
</svg>
