<?xml version="1.0" encoding="utf-8"?>
<!-- Generator: Adobe Illustrator 18.0.0, SVG Export Plug-In . SVG Version: 6.00 Build 0)  -->
<!DOCTYPE svg PUBLIC "-//W3C//DTD SVG 1.1//EN" "http://www.w3.org/Graphics/SVG/1.1/DTD/svg11.dtd">
<svg version="1.1" id="Слой_1" xmlns="http://www.w3.org/2000/svg" xmlns:xlink="http://www.w3.org/1999/xlink" x="0px" y="0px"
	 viewBox="0 0 215 215" enable-background="new 0 0 215 215" xml:space="preserve">
<path fill="none" stroke="#0D0F0F" stroke-miterlimit="10" d="M35.5,46.6"/>
<linearGradient id="SVGID_1_" gradientUnits="userSpaceOnUse" x1="2.8032" y1="74.252" x2="211.4877" y2="74.252">
	<stop  offset="0" style="stop-color:#FFFFFF"/>
	<stop  offset="1" style="stop-color:#5FA297"/>
</linearGradient>
<path fill="url(#SVGID_1_)" d="M121.6,108.6h1.6v0.2v2.2v5.5h-0.6l-2.4,1.8l0.3,0.2l2.2,1.2v1.2v22.1h-5.7L117,143
	c-6.4-6.3-14.4-17.1-20.7-19c-8.9-2.7-45-2.9-59,0.5c-14,3.4-27.5,20.8-27.5,20.8c-4.5-11.7-7-24.3-7-37.6
	C2.8,50,49.5,3.3,107.2,3.3c56.9,0,103.2,45.5,104.3,102.2h-7.9v-0.2v-6.1h-1V84.6h1v-2.2h-2.7v-1.9h-7.7V69.3
	c0,0-1.3-10.9-11.3-12.5v0v-6.1c0,0-0.2-2.4-1.9-2.9l-0.7-4.3l-0.5,4.3c-1.8,0.4-2.1,2.9-2.1,2.9v6.1v0c-10,1.6-11.3,12.5-11.3,12.5
	v11.2h-6.4v1.9h-2.8v2.2h1.1v14.6h-1v2.4h-0.2h-3.8v-7.9v-1h0.6V91h-0.6c0,0-0.8-3.6-4.4-3.6c-3.6,0-4.4,3.6-4.4,3.6H143v1.6h0.5v1
	v11.9h-21.9v3V108.6z"/>
<rect x="199.3" y="142.9" fill="#7A6150" width="3.8" height="0.1"/>
<polygon fill="#7A6150" points="202.6,84.6 202.6,99.1 200.9,99.1 200.9,85.9 200.9,84.6 "/>
<rect x="197.6" y="142.9" fill="#A4A794" width="1.7" height="0.1"/>
<rect x="197.6" y="123.6" fill="#BFBCB2" width="1.7" height="19.2"/>
<linearGradient id="SVGID_2_" gradientUnits="userSpaceOnUse" x1="120.7907" y1="70.0438" x2="120.7907" y2="235.5063">
	<stop  offset="0" style="stop-color:#FFFFFF"/>
	<stop  offset="1" style="stop-color:#5FA297"/>
</linearGradient>
<path fill="url(#SVGID_2_)" d="M159.6,158.6h38.7c-17.9,31.8-52,53.4-91.1,53.4c-24,0-46.2-8.1-63.8-21.8c0,0,0.9-2.2,0.3-5.4
	c0.9,2.8,0.2,3.7,0.2,3.7h71.1h0c0.8,7,6.8,12.4,14,12.4c7,0,12.7-5,13.9-11.7h13.4c0,0,6.7,0.8,6.7-4.1c0-4.7-6.2-4.2-6.7-4.2
	l0-0.2c0,0,5.2-7.1,5.2-13.3C161.5,164.6,160.8,161.5,159.6,158.6z"/>
<polygon fill="#A09C91" points="198.2,84.6 198.2,84.6 196.5,84.6 196.5,86 195.3,86 195.3,99.1 194.3,99.1 194.3,84.6 "/>
<rect x="191.9" y="142.9" fill="#7A6150" width="3.8" height="0.1"/>
<rect x="191.3" y="86" fill="#BFBCB2" width="1.2" height="13.1"/>
<polygon fill="#A4A794" points="191.9,143 191.9,143.1 190.2,143.1 190.2,142.9 191.9,142.9 "/>
<rect x="190.2" y="123.7" fill="#BFBCB2" width="1.7" height="19.1"/>
<rect x="189" y="73" fill="#797B7E" width="2.6" height="5.7"/>
<rect x="185" y="142.9" fill="#A4A794" width="3.8" height="0.2"/>
<rect x="186.6" y="85.9" fill="#BFBCB2" width="1.2" height="13.2"/>
<rect x="183.3" y="142.9" fill="#A4A794" width="1.7" height="0.2"/>
<rect x="183.3" y="123.7" fill="#BFBCB2" width="1.7" height="19.1"/>
<rect x="182.2" y="73" fill="#797B7E" width="2.6" height="5.7"/>
<rect x="182.4" y="85.9" fill="#BFBCB2" width="1.2" height="13.2"/>
<path fill="#3E4849" d="M181.6,106.3L160,116.6h-3.1c0,0,22.8-11.1,23.1-11.2L181.6,106.3z"/>
<rect x="177.6" y="142.9" fill="#7A6150" width="3.8" height="0.1"/>
<rect x="177.7" y="85.9" fill="#BFBCB2" width="1.2" height="13.2"/>
<rect x="175.2" y="73" fill="#797B7E" width="2.6" height="5.7"/>
<polygon fill="#A4A794" points="177.6,143 177.6,143.1 175.9,143.1 175.9,142.9 177.6,142.9 "/>
<polygon fill="#A09C91" points="177.6,120.7 177.6,123.7 175.9,123.7 175.9,142.9 174.3,142.9 174.3,120.7 "/>
<rect x="170.6" y="142.9" fill="#7A6150" width="3.8" height="0.1"/>
<rect x="173" y="85.9" fill="#BFBCB2" width="1.2" height="13.2"/>
<rect x="168.4" y="73" fill="#797B7E" width="2.6" height="5.7"/>
<polygon fill="#A4A794" points="170.6,143 170.6,143.1 168.9,143.1 168.9,142.9 170.6,142.9 "/>
<rect x="168.9" y="123.7" fill="#BFBCB2" width="1.7" height="19.1"/>
<rect x="168.9" y="85.9" fill="#BFBCB2" width="1.2" height="13.2"/>
<polygon fill="#7A6150" points="166.9,142.9 166.9,143 163.2,143 163.2,143 163.2,142.9 "/>
<rect x="164.1" y="85.9" fill="#BFBCB2" width="1.2" height="13.2"/>
<rect x="161.5" y="142.9" fill="#BFBCB2" width="1.7" height="0.1"/>
<rect x="161.5" y="123.6" fill="#BFBCB2" width="1.7" height="19.2"/>
<polygon fill="#7A6150" points="163,84.6 163,99.1 161.3,99.1 161.3,85.9 161.3,84.6 "/>
<path fill="#CEBE6D" d="M159.6,158.6c1.3,2.8,1.9,5.9,1.9,9c0,0-5.9,1.4-8.5-4.8c-1.1-2.6-0.7-4.6,0.2-6.1c1.2-2.1,3.3-3.1,3.3-3.1
	C157.7,155.2,158.8,156.9,159.6,158.6z"/>
<rect x="156.2" y="142.9" fill="#7A6150" width="3.8" height="0.1"/>
<path fill="#797B7E" d="M150.4,105.2v0.2h-3.9v-0.2v-5.5c0,0,0.2-1.8,1-2.2c0.1,0,0.3,0,0.4,0c2.7,0,2.5,2.4,2.5,2.4V105.2z"/>
<path fill="#797B7E" d="M136.6,132.8l0,10.1h-3.2v-10c0,0,0.3-2,1.3-2.1c0,0,0.1,0,0.1,0C136.6,130.6,136.6,132.8,136.6,132.8z"/>
<path fill="#313032" d="M129.3,179.5c3.9,0,7,3.2,7,7c0,3.9-3.2,7-7,7c-3.9,0-7-3.2-7-7C122.2,182.7,125.4,179.5,129.3,179.5z
	 M134.9,186.2c0-2.9-2.4-5.3-5.3-5.3c-2.9,0-5.3,2.4-5.3,5.3c0,2.9,2.4,5.3,5.3,5.3C132.5,191.5,134.9,189.2,134.9,186.2z"/>
<circle fill="#FFFFFF" cx="129.6" cy="186.2" r="5.3"/>
<path fill="#DBD3C3" d="M116.1,181.1h0.2c0,0-0.6,0.9-1,2.2C115.5,182.5,115.8,181.8,116.1,181.1z"/>
<linearGradient id="SVGID_3_" gradientUnits="userSpaceOnUse" x1="115.1538" y1="71.2325" x2="115.1538" y2="234.9857">
	<stop  offset="0" style="stop-color:#FFFFFF"/>
	<stop  offset="1" style="stop-color:#5FA297"/>
</linearGradient>
<path fill="url(#SVGID_3_)" d="M115.3,183.2c-0.2,0.6-0.3,1.2-0.4,1.9C115,184.4,115.2,183.8,115.3,183.2z"/>
<path fill="#DBD3C3" d="M115,185.1C115,185.2,115,185.2,115,185.1c-0.1,2.3,0,3.4,0,3.4h0c-0.1-0.5-0.1-1.1-0.1-1.7
	C114.9,186.3,114.9,185.7,115,185.1z"/>
<path fill="#DBD3C3" d="M43.7,184.8C43.7,184.8,43.7,184.8,43.7,184.8c-0.9-2.8-1.4-3.8-1.4-3.8h0.1
	C43.1,182.4,43.5,183.7,43.7,184.8z"/>
<g>
	<path fill="#C9C9C5" d="M118.7,133.2c-7.1-0.1-14.4-0.1-21.5-0.2c-30.9-0.3-58.8-0.6-58.8-0.6c-3.2,0-4-3.1-4-3.1v-108
		c0,0-0.3-3.5,2.9-3.5c3.1,0,142.6,0,142.6,0s2.5,0.7,2.5,3.3c0,2.7,0,109.2,0,109.2s-0.1,3.4-3.4,3.4
		C177.5,133.8,149.4,133.5,118.7,133.2z M177.4,114.9V70.3V24.9h-41h-97v90h6.5h86.6H177.4z"/>
	<polygon fill="#899397" points="177.4,70.3 177.4,114.9 132.5,114.9 177,70.3 	"/>
	<polygon fill="#4F5A5D" points="177.4,24.9 177.4,70.3 177,70.3 132.5,114.9 45.9,114.9 136.4,24.9 	"/>
	<polygon fill="#899397" points="136.4,24.9 45.9,114.9 39.4,114.9 39.4,24.9 	"/>
	<polygon fill="#C9C9C5" points="132.5,144.6 132.5,151.4 82.3,151.4 82.3,144.6 92,144.6 123.7,144.6 	"/>
	<path fill="#989899" d="M118.7,133.2l5.1,11.4H92l5.2-11.6C104.3,133.1,111.5,133.2,118.7,133.2z"/>
	<g>
		<path fill="#E3DABC" d="M142.7,115.4l34.3,0.1c0,0,1.4-0.4,1.4-2.2c0-1.7-0.4-73.4-0.4-73.4l-29.1,17.4c0,0,0.4,3.8-0.6,7.4
			c-0.9,3.6-1.5,6.5-3.6,11.4s-8.8,16.7-8.8,16.7l-1.9,3L142.7,115.4z"/>
		<path fill="#FFFFFF" d="M177.9,32.8v7.2l-29.3,17.4c-0.2-2.5-0.7-4.5-1.5-6.3L177.9,32.8z"/>
		<path fill="#E3DABC" d="M177.9,24.5v8.4l-30.8,18.3c-4-8.9-14.1-10.2-16.5-10.2c-2.1,0-10.5,0.7-15.3,6.9L106,24.5H177.9z"/>
		<path fill="#FFFFFF" d="M144.6,59.5c0,0.1,0,0.3,0,0.4l-20.1,11.9l-0.3,0.6c-4.8-2.3-8.2-7.2-8.2-12.9c0-2.2,0.5-4.4,1.4-6.2h0
			l4.8,12.7l21-12.4C144.1,55.3,144.6,57.3,144.6,59.5z"/>
		<path fill="#E3DABC" d="M124.5,71.8l20.1-11.9c-0.2,7.7-6.5,13.9-14.2,13.9c-2.2,0-4.2-0.5-6.1-1.4L124.5,71.8z"/>
		<path fill="#E3DABC" d="M143.2,53.4l-21,12.4l-4.8-12.7h0c2.3-4.8,7.2-8.1,12.8-8.1C136,45.1,141,48.5,143.2,53.4z"/>
		<path fill="#FFFFFF" d="M142.5,115.3v0.2h-7.1l-3.3-6.9c2.3-0.4,4.4-1.7,5.7-3.5L142.5,115.3z"/>
		<path fill="#CDC4A8" d="M139.4,100.1c0,1.9-0.6,3.6-1.6,5l-4.2-9.2c0.6-0.9,1.2-1.9,1.9-3C137.9,94.5,139.4,97.1,139.4,100.1z"/>
		<path fill="#E4E4E2" d="M133.6,95.9l4.2,9.2c-1.3,1.9-3.3,3.2-5.7,3.5L125,93.7c0.2-0.2,0.4-0.3,0.6-0.5c2.9,4.2,5,6.9,5,6.9
			S131.8,98.5,133.6,95.9z"/>
		<path fill="#E3DABC" d="M132.1,108.6l3.3,6.9H68.3L43.6,24.5h54.6l13.5,35.1c0,9.4,5.7,20.7,10.8,29l2.5,5.2
			c-1.7,1.6-2.8,3.9-2.8,6.4c0,4.8,3.8,8.6,8.6,8.6C131.2,108.7,131.7,108.7,132.1,108.6z"/>
		<path fill="#CDC4A8" d="M125,93.7l7.1,14.9c-0.4,0.1-0.9,0.1-1.3,0.1c-4.7,0-8.6-3.9-8.6-8.6C122.2,97.6,123.3,95.3,125,93.7z"/>
		<path fill="#FFFFFF" d="M125.6,93.2c-0.2,0.1-0.4,0.3-0.6,0.5l-2.5-5.2C123.6,90.2,124.6,91.8,125.6,93.2z"/>
		<path fill="#FFFFFF" d="M106,24.5l9.3,23.4c-2.1,2.7-3.5,6.5-3.5,11.7L98.2,24.5H106z"/>
		<polygon fill="#FFFFFF" points="43.6,24.5 68.3,115.5 58.2,115.5 39.3,40.9 39.3,24.5 		"/>
		<polygon fill="#E3DABC" points="39.3,40.9 58.2,115.5 39.3,115.5 		"/>
		<g>
			<path fill="#DF8756" d="M144.6,59.9c0-0.1,0-0.3,0-0.4c0-2.2-0.5-4.2-1.3-6c-2.3-4.9-7.2-8.3-12.9-8.3c-5.6,0-10.5,3.3-12.8,8.1
				c-0.9,1.9-1.4,4-1.4,6.2c0,5.7,3.3,10.7,8.2,12.9c1.8,0.9,3.9,1.4,6.1,1.4C138,73.8,144.3,67.6,144.6,59.9z M147.1,51.1
				c0.8,1.8,1.3,3.9,1.5,6.3c0.1,0.7,0.1,1.3,0.1,2.1c0,10.9-7.8,25-13.2,33.4c-1.4-0.9-3-1.4-4.8-1.4c-2,0-3.8,0.7-5.2,1.8
				c-1-1.4-2-3-3.1-4.7c-5.1-8.3-10.8-19.5-10.8-29c0-5.2,1.4-9,3.5-11.7c4.8-6.3,13.2-6.9,15.3-6.9C133,40.9,143.1,42.2,147.1,51.1
				z"/>
			<path fill="#DF8756" d="M135.5,92.9c-0.7,1.1-1.4,2.1-1.9,3c-1.8,2.6-3,4.2-3,4.2s-2.2-2.7-5-6.9c1.4-1.1,3.2-1.8,5.2-1.8
				C132.6,91.5,134.2,92,135.5,92.9z"/>
			<path fill="#D46144" d="M148.8,57.5c-0.2-2.5-0.7-4.5-1.5-6.3c-4-8.9-14-10.2-16.5-10.2v4.2c5.6,0.1,10.4,3.5,12.6,8.3
				c0.9,1.8,1.3,3.9,1.3,6c0,0.1,0,0.3,0,0.4c-0.2,7.6-6.3,13.7-13.9,13.9v17.7c0,0,0.1,0,0.1,0c1.8,0,3.4,0.5,4.8,1.4
				c5.4-8.4,13.2-22.5,13.2-33.4C148.9,58.8,148.8,58.1,148.8,57.5z"/>
			<path fill="#D46144" d="M131,91.5c-0.1,0-0.1,0-0.2,0v8.6c0,0,0,0,0,0s1.2-1.6,3-4.2c0.6-0.9,1.2-1.9,1.9-3
				C134.4,92,132.8,91.5,131,91.5z"/>
		</g>
	</g>
	<path opacity="0.1" fill="#0D0F0F" d="M177.9,24.5l0.8,91l-139.8,0l0.3-91c-0.6-0.1-1.2,0.2-1.7,0l-0.2,92.5l142.8-0.2l-0.6-92.3
		H177.9z"/>
	<path opacity="0.1" fill="#0D0F0F" d="M33.5,124.4l0.2,4.8c0,0,0.9,2.6,3.7,2.7s142.3,1.4,142.3,1.4s2.7-0.5,2.7-4
		c0-2.9,0.2-6.2,0.2-6.2s-0.7,6.8-5.6,6.8s-135.9,0-138.5,0S33.5,127.3,33.5,124.4z"/>
	<polygon opacity="0.2" fill="#0D0F0F" points="118.6,132.8 97.1,132.6 95.7,136 120,136 	"/>
</g>
<path fill="#0D0F0F" d="M122.8,120.4"/>
<g>
	<g id="XMLID_71_">
		<g>
			<path fill="#9C9788" d="M211.5,107.6c0,0.3,0,0.6,0,1h-21l-6.1-3.1l0-0.1h19.1h7.9C211.5,106.2,211.5,106.9,211.5,107.6z"/>
			<path fill="#BFBCB2" d="M211.3,111h0.2c-0.1,1.8-0.2,3.7-0.3,5.5h-5l0,0l-10.9-5.5H211.3z"/>
			<path fill="#9C9788" d="M206.1,116.5h5c-0.1,0.7-0.1,1.3-0.2,2l-0.1,0h-4.7h0v-1.8L206.1,116.5L206.1,116.5L206.1,116.5z"/>
			<path fill="#9B988F" d="M206.1,119.6h4.7c-0.1,0.4-0.1,0.8-0.1,1.2h-4.6l0-0.1L206.1,119.6L206.1,119.6z"/>
			<path fill="#8F917E" d="M210.9,118.4L210.9,118.4c0,0.4,0,0.8,0,1.2h-4.7h0v-1.2h0H210.9z"/>
			<path fill="#BFBCB2" d="M206.1,120.8h4.6c-1,7.6-2.8,15-5.3,22.1h-2.3v-22.2h3L206.1,120.8z"/>
			<polygon fill="#7A6150" points="203.1,120.7 203.1,142.9 199.3,142.9 199.3,123.6 199.3,120.7 			"/>
			<path fill="#A4A794" d="M153.5,150.9c-0.8-0.6-1.7-1.2-2.6-1.6l0.1-0.2h51.6l0.3,0.1c-1.4,3.2-3,6.3-4.6,9.3h-38.7
				c-0.8-1.8-1.8-3.4-3.2-4.9C155.5,152.7,154.6,151.8,153.5,150.9z"/>
			<rect x="199.7" y="85.9" fill="#BFBCB2" width="1.2" height="13.2"/>
			<polygon fill="#9C9788" points="200.9,82.3 159.1,82.3 159.1,80.4 165.5,80.4 193.2,80.4 200.9,80.4 			"/>
			<polygon fill="#9B988F" points="198.2,84.6 200.9,84.6 200.9,85.9 199.7,85.9 199.7,99.1 198.2,99.1 198.2,84.6 			"/>
			<polygon fill="#BFBCB2" points="199.3,142.9 203.1,142.9 203.1,143 199.3,143 197.6,143 197.6,142.9 197.6,123.6 199.3,123.6 			
				"/>
			<polygon fill="#7A6150" points="198.2,84.6 198.2,99.1 196.5,99.1 196.5,86 196.5,84.6 			"/>
			<polygon fill="#9B9991" points="195.7,120.7 199.3,120.7 199.3,123.6 197.6,123.6 197.6,142.9 195.7,142.9 			"/>
			<rect x="195.3" y="86" fill="#BFBCB2" width="1.2" height="13.1"/>
			<polygon fill="#7A6150" points="195.7,120.7 195.7,142.9 191.9,142.9 191.9,123.7 191.9,120.7 			"/>
			<polygon fill="#9B988F" points="198.2,84.6 198.2,84.6 196.5,84.6 196.5,86 195.3,86 195.3,99.1 194.3,99.1 194.3,84.6 			"/>
			<polygon fill="#BFBCB2" points="159.1,99.1 160.1,99.1 161.3,99.1 163,99.1 164.1,99.1 165.4,99.1 167.1,99.1 168.9,99.1 
				170.1,99.1 171.8,99.1 173,99.1 174.3,99.1 176,99.1 177.7,99.1 178.9,99.1 179,99.1 180.7,99.1 182.4,99.1 183.6,99.1 
				185.4,99.1 186.6,99.1 187.8,99.1 189.5,99.1 191.3,99.1 191.3,99.2 192.5,99.2 192.5,99.1 194.3,99.1 195.3,99.1 195.3,99.2 
				196.5,99.2 198.2,99.2 198.2,99.1 199.7,99.1 200.9,99.1 202.6,99.1 203.6,99.1 203.6,105.2 203.6,105.4 184.5,105.4 
				184.4,105.5 179.7,103.1 175,105.4 156.3,105.4 156.3,101.5 156.3,99.1 157.4,99.1 			"/>
			<path fill="#9B988F" d="M195.2,111l-4.7-2.4h21c0,0.8,0,1.6-0.1,2.4h-0.2H195.2z"/>
			<polygon fill="#7A6150" points="192.5,84.6 194.3,84.6 194.3,99.1 192.5,99.1 192.5,86 			"/>
			<polygon fill="#BFBCB2" points="191.3,99.1 191.3,86 192.5,86 192.5,99.1 192.5,99.2 191.3,99.2 			"/>
			<rect x="189" y="73" fill="#797B7E" width="2.6" height="5.7"/>
			<polygon fill="#9B988F" points="189.5,84.6 192.5,84.6 192.5,86 191.3,86 191.3,99.1 189.5,99.1 			"/>
			<polygon fill="#9B9991" points="190.2,123.7 190.2,142.9 188.8,142.9 188.8,120.7 191.9,120.7 191.9,123.7 			"/>
			<polygon fill="#7A6150" points="189.5,84.6 189.5,99.1 187.8,99.1 187.8,85.9 187.8,84.6 			"/>
			<polygon fill="#65676A" points="191.6,71.7 191.6,73 189,73 189,78.7 188.4,78.7 188.4,71.7 			"/>
			<polygon fill="#7A6150" points="188.8,120.7 188.8,142.9 185,142.9 185,123.7 185,120.7 			"/>
			<rect x="186.6" y="85.9" fill="#BFBCB2" width="1.2" height="13.2"/>
			<polygon fill="#9B988F" points="187.8,84.6 187.8,85.9 186.6,85.9 186.6,99.1 185.4,99.1 185.4,84.6 			"/>
			<polygon fill="#7A6150" points="183.6,85.9 183.6,84.6 185.4,84.6 185.4,99.1 183.6,99.1 			"/>
			<rect x="182.3" y="73" fill="#797B7E" width="2.6" height="5.7"/>
			<rect x="182.4" y="85.9" fill="#BFBCB2" width="1.2" height="13.2"/>
			<polygon fill="#9B9991" points="183.3,123.7 183.3,142.9 181.3,142.9 181.3,120.7 185,120.7 185,123.7 			"/>
			<polygon fill="#9B988F" points="183.6,84.6 183.6,85.9 182.4,85.9 182.4,99.1 180.7,99.1 180.7,84.6 			"/>
			<polygon fill="#65676A" points="184.8,71.7 184.8,73 182.3,73 182.3,78.7 181.6,78.7 181.6,71.7 			"/>
			<polygon fill="#7A6150" points="181.3,120.7 181.3,142.9 177.6,142.9 177.6,123.7 177.6,120.7 			"/>
			<rect x="179" y="84.6" fill="#7A6150" width="1.7" height="14.6"/>
			<path fill="#C6B95C" d="M178.9,56.6c0.1,0,0.3,0,0.4,0c0.9,0,1.8,0.1,2.6,0.2c10,1.6,11.3,12.5,11.3,12.5H169
				C169,69.3,169.6,57,178.9,56.6z"/>
			<path fill="#C6B95C" d="M181.9,50.7h-3.6c0,0,0.1-3,1.1-3c0.2,0,0.4,0,0.6,0.1C181.7,48.3,181.9,50.7,181.9,50.7z"/>
			<path fill="#C6B95C" d="M179.4,47.7c-0.2,0-0.4,0-0.5,0.1l0.5-4.3l0.7,4.3C179.8,47.8,179.6,47.7,179.4,47.7z"/>
			<rect x="177.7" y="85.9" fill="#BFBCB2" width="1.2" height="13.2"/>
			<path fill="#BFBCB2" d="M176.8,56.8v-6.1h1.5h3.6v6.1c-0.8-0.1-1.6-0.2-2.6-0.2c-0.2,0-0.3,0-0.4,0
				C178.2,56.6,177.5,56.7,176.8,56.8z"/>
			<path fill="#B1A150" d="M179.4,47.7c-1,0-1.1,3-1.1,3h-1.5c0,0,0.3-2.5,2.1-2.9C179,47.8,179.2,47.7,179.4,47.7z"/>
			<rect x="175.2" y="73" fill="#797B7E" width="2.6" height="5.7"/>
			<polygon fill="#9B988F" points="176,99.1 176,84.6 179,84.6 179,99.1 178.9,99.1 178.9,85.9 177.7,85.9 177.7,99.1 			"/>
			<rect x="175.9" y="123.7" fill="#BFBCB2" width="1.7" height="19.1"/>
			<polygon fill="#7A6150" points="176,84.6 176,99.1 174.3,99.1 174.3,85.9 174.3,84.6 			"/>
			<path fill="#A4A794" d="M132.7,142.9h0.8h3.2h1.9h17.8v0.1h3.8v-0.1h1.4v0.1h1.7v0h3.8v-0.1h1.9v0.2h1.7V143h3.8v-0.1h1.6v0.2
				h1.7V143h3.8v-0.1h2v0.2h1.7h3.8v-0.2h1.4v0.2h1.7V143h3.8v-0.1h1.9v0.1h1.7h3.8v-0.1h2.3c-0.5,1.5-1.1,2.9-1.7,4.3h-61l0,0.2
				c-1.1-0.1-1.9,0-1.9,0s-10.8,0.2-17.1,0c-1.8-0.1-4.2-1.9-6.8-4.4l0.1-0.1h5.7h8.1H132.7z"/>
			<polygon fill="#65676A" points="175.2,73 175.2,78.7 174.6,78.7 174.6,71.7 177.8,71.7 177.8,73 			"/>
			<polygon fill="#7A6150" points="174.3,120.7 174.3,142.9 170.6,142.9 170.6,123.7 170.6,120.7 			"/>
			<rect x="173" y="85.9" fill="#BFBCB2" width="1.2" height="13.2"/>
			<polygon fill="#9B988F" points="174.3,84.6 174.3,85.9 173,85.9 173,99.1 171.8,99.1 171.8,84.6 			"/>
			<polygon fill="#7A6150" points="170.1,85.9 170.1,84.6 171.8,84.6 171.8,99.1 170.1,99.1 			"/>
			<polygon fill="#797B7E" points="171,73 171,78.7 170.9,78.7 168.4,78.7 168.4,73 170.9,73 			"/>
			<polygon fill="#BFBCB2" points="170.6,143 170.6,143.1 168.9,143.1 168.9,142.9 168.9,123.7 170.6,123.7 170.6,142.9 
				174.3,142.9 174.3,143 			"/>
			<path fill="#B1A150" d="M178.9,56.6c-9.3,0.4-10,12.7-10,12.7h-3.4c0,0,1.3-10.9,11.3-12.5C177.5,56.7,178.2,56.6,178.9,56.6z"/>
			<rect x="168.9" y="85.9" fill="#BFBCB2" width="1.2" height="13.2"/>
			<polygon fill="#9B9991" points="166.9,142.9 166.9,120.7 170.6,120.7 170.6,123.7 168.9,123.7 168.9,142.9 			"/>
			<polygon fill="#9B988F" points="170.1,84.6 170.1,85.9 168.9,85.9 168.9,99.1 167.1,99.1 167.1,84.6 			"/>
			<polygon fill="#65676A" points="168.4,73 168.4,78.7 167.8,78.7 167.8,71.7 170.9,71.7 170.9,73 			"/>
			<path fill="#BFBCB2" d="M191.6,73v-1.3h-3.2v7h0.6h2.6V73z M182.3,78.7h2.6V73v-1.3h-3.2v7H182.3z M175.2,78.7h2.6V73v-1.3h-3.2
				v7H175.2z M170.9,71.7h-3.2v7h0.6h2.6h0V73h0V71.7z M193.2,80.4h-27.7V69.3h3.4h24.3V80.4z"/>
			<polygon fill="#7A6150" points="165.4,85.9 165.4,84.6 167.1,84.6 167.1,99.1 165.4,99.1 			"/>
			<polygon fill="#7A6150" points="166.9,120.7 166.9,142.9 163.2,142.9 163.2,123.6 163.2,120.7 			"/>
			<rect x="164.1" y="85.9" fill="#BFBCB2" width="1.2" height="13.2"/>
			<polygon fill="#9B988F" points="165.4,84.6 165.4,85.9 164.1,85.9 164.1,99.1 163,99.1 163,84.6 			"/>
			<polygon fill="#BFBCB2" points="163.7,111.1 152.6,116.6 152.6,116.5 123.2,116.5 123.2,111 163.6,111 			"/>
			<polygon fill="#9B988F" points="163.6,111 123.2,111 123.2,108.8 123.2,108.6 168.6,108.6 163.7,111.1 			"/>
			<polygon fill="#BFBCB2" points="166.9,143 163.2,143 163.2,143 161.5,143 161.5,142.9 161.5,123.6 163.2,123.6 163.2,142.9 
				166.9,142.9 			"/>
			<polygon fill="#7A6150" points="163,84.6 163,99.1 161.3,99.1 161.3,85.9 161.3,84.6 			"/>
			<polygon fill="#9B9991" points="160,120.7 163.2,120.7 163.2,123.6 161.5,123.6 161.5,142.9 160,142.9 			"/>
			<rect x="160.1" y="85.9" fill="#BFBCB2" width="1.2" height="13.2"/>
			<polygon fill="#9B988F" points="159.1,84.6 161.3,84.6 161.3,85.9 160.1,85.9 160.1,99.1 159.1,99.1 			"/>
			<rect x="156.3" y="120.7" fill="#7A6150" width="3.8" height="22.2"/>
			<rect x="157.4" y="84.6" fill="#7A6150" width="1.7" height="14.6"/>
			<polygon fill="#8F917E" points="156.3,82.3 159.1,82.3 200.9,82.3 203.6,82.3 203.6,84.6 202.6,84.6 200.9,84.6 198.2,84.6 
				194.3,84.6 192.5,84.6 189.5,84.6 187.8,84.6 185.4,84.6 183.6,84.6 180.7,84.6 179,84.6 176,84.6 174.3,84.6 171.8,84.6 
				170.1,84.6 167.1,84.6 165.4,84.6 163,84.6 161.3,84.6 159.1,84.6 157.4,84.6 156.3,84.6 			"/>
			<polygon fill="#C9C9C5" points="156.3,101.5 156.3,105.4 152.3,105.4 152.3,101.5 156.1,101.5 			"/>
			<polygon fill="#BFBCB2" points="156.3,120.7 156.3,142.9 138.5,142.9 138.5,129 130.9,129 130.9,142.9 122.8,142.9 122.8,120.8 
				152.6,120.8 152.6,120.7 			"/>
			<polygon fill="#9B9991" points="152.6,116.6 163.7,111.1 168.6,108.6 175,105.4 179.7,103.1 184.4,105.5 190.5,108.6 195.2,111 
				206.1,116.5 206.1,116.5 206.1,116.6 206.1,118.4 206.1,119.6 206.1,120.7 203.1,120.7 199.3,120.7 195.7,120.7 191.9,120.7 
				188.8,120.7 185,120.7 181.3,120.7 177.6,120.7 177.6,123.7 175.9,123.7 175.9,142.9 174.3,142.9 174.3,120.7 170.6,120.7 
				166.9,120.7 163.2,120.7 160,120.7 156.3,120.7 152.6,120.7 152.6,119.6 152.6,118.4 152.6,116.6 			"/>
			<polygon fill="#9B988F" points="152.6,120.8 122.8,120.8 122.8,119.6 152.6,119.6 152.6,120.7 			"/>
			<rect x="143.5" y="92.5" fill="#A09C91" width="8.8" height="1"/>
			<path fill="#C6B95C" d="M152.3,91h-6.9c0,0,0.6-3.4,2.3-3.6c0.1,0,0.1,0,0.2,0C151.5,87.4,152.3,91,152.3,91z"/>
			<path fill="#797B7E" d="M147.9,97.5c2.6,0,2.5,2.4,2.5,2.4v5.4v0.2h-3.9v-0.2v-5.5c0,0,0.2-1.8,1-2.2
				C147.6,97.5,147.8,97.5,147.9,97.5z"/>
			<path fill="#65676A" d="M145.3,99.7c0,0,0-2,2.2-2.2c-0.9,0.4-1,2.2-1,2.2v5.5v0.2h-1.2V99.7z"/>
			<path fill="#707163" d="M150.9,149.3c-3.1-1.5-6.3-1.9-8.2-1.9l0-0.2h61c-0.3,0.7-0.6,1.4-0.9,2.1l-0.3-0.1H151L150.9,149.3z"/>
			<path fill="#B1A150" d="M147.7,87.4c-1.7,0.2-2.3,3.6-2.3,3.6h-1.9C143.5,91,144.3,87.5,147.7,87.4z"/>
			<polygon fill="#A4A794" points="145.4,91 152.3,91 153,91 153,92.5 152.3,92.5 152.3,92.5 143.5,92.5 143.5,92.5 143,92.5 
				143,91 143.5,91 			"/>
			<path fill="#BFBCB2" d="M145.3,99.7v5.7h-1.8V93.6h8.8v7.9v3.9h-1.9v-0.2v-5.4c0,0,0.1-2.4-2.5-2.4c-0.2,0-0.3,0-0.4,0
				C145.2,97.7,145.3,99.7,145.3,99.7z"/>
			<polygon fill="#9C9788" points="145.3,105.4 146.5,105.4 150.4,105.4 152.3,105.4 156.3,105.4 175,105.4 168.6,108.6 
				123.2,108.6 121.7,108.6 121.7,108.4 121.7,105.4 143.5,105.4 			"/>
			<path fill="#797B7E" d="M133.5,132.8c0,0,0.3-2,1.3-2.1c0,0,0.1,0,0.1,0c1.8-0.1,1.8,2.1,1.8,2.1l0,10.1h-3.2V132.8z"/>
			<path fill="#65676A" d="M132.7,132.8c0,0,0-2,2.1-2.1c-1,0.1-1.3,2.1-1.3,2.1v10.1h-0.8V132.8z"/>
			<path fill="#6D7E70" d="M134.7,130.7c-2.1,0.1-2.1,2.1-2.1,2.1v10.1h-1.7V129h7.5v13.8h-1.9l0-10.1
				C136.6,132.8,136.6,130.6,134.7,130.7C134.8,130.7,134.8,130.7,134.7,130.7z"/>
			<polygon fill="#8F917E" points="152.6,119.6 122.8,119.6 120.6,118.4 152.6,118.4 			"/>
			<polygon fill="#9C9788" points="123.2,116.5 152.6,116.5 152.6,116.6 152.6,116.6 152.6,118.4 120.6,118.4 120.3,118.3 
				122.6,116.5 			"/>
		</g>
		<g>
		</g>
	</g>
</g>
<g id="XMLID_69_">
	<g>
		<path fill="#515D5F" d="M168.6,108.6l6.3-3.2l4.7-2.3l4.8,2.4l6.1,3.1l4.7,2.4l10.9,5.5l0,0l0,0.1H160l21.5-10.3l-1.6-0.9
			c-0.3,0-22.4,10.8-23.1,11.1c0,0,0,0,0,0h-4.3l0.1,0l11-5.5L168.6,108.6z"/>
		<path fill="#303839" d="M156.9,116.6c0.7-0.3,22.8-11.1,23.1-11.1l1.6,0.9L160,116.6v0L156.9,116.6L156.9,116.6z"/>
	</g>
	<g>
	</g>
</g>
<g id="XMLID_70_">
	<g>
		<polygon fill="#7A6150" points="206.1,119.6 206.1,120.7 203.1,120.7 199.3,120.7 195.7,120.7 191.9,120.7 188.8,120.7 185,120.7 
			181.3,120.7 177.6,120.7 174.3,120.7 170.6,120.7 166.9,120.7 163.2,120.7 160,120.7 156.3,120.7 152.6,120.7 152.6,119.6 
			152.6,118.4 152.6,116.6 156.9,116.6 160,116.6 206.1,116.6 206.1,118.4 		"/>
	</g>
	<g>
	</g>
</g>
<g>
	<path fill="#6C9166" d="M152.9,162.8c2.7,6.2,8.5,4.8,8.5,4.8c0,6.2-5.2,13.3-5.2,13.3l0,0.2c0,0,0,0,0,0h-14.5
		c-2.2-4.9-7.1-8.3-12.8-8.3c-5.7,0-10.6,3.4-12.8,8.3H42.4c-0.7-1.3-1.6-2.6-2.9-3.9c-6.5-6.7-13.4-3.9-13.4-3.9
		c-4.2-5.1-7.8-10.7-11-16.6l0.1,0H153l0.1,0.1C152.3,158.2,151.8,160.2,152.9,162.8z"/>
	<path fill="#DBD3C3" d="M156.3,181.1c0.5-0.1,6.7-0.5,6.7,4.2c0,4.9-6.7,4.1-6.7,4.1h-13.4c0.1-0.8,0.2-1.6,0.2-2.4
		c0-2.1-0.5-4.1-1.3-5.8L156.3,181.1C156.3,181.1,156.3,181.1,156.3,181.1z"/>
	<path fill="#8FB189" d="M123.8,147.4c6.3,0.2,17.1,0,17.1,0s0.7-0.1,1.9,0c1.9,0.1,5.1,0.5,8.2,2c0.9,0.4,1.8,1,2.6,1.6
		c1.1,0.8,2,1.7,2.9,2.7c0,0-2.1,1-3.3,3.1l-0.1-0.1H15.1l-0.1,0c-2-3.7-3.7-7.5-5.3-11.5c0,0,13.5-17.4,27.5-20.8
		c14-3.4,50.1-3.1,59-0.5c6.3,1.9,14.3,12.8,20.7,19C119.6,145.6,122,147.3,123.8,147.4z M92.5,129c-2.1-0.6-4.5-1.1-7-1.4
		c-2.9-0.4-6-0.5-9-0.6c-8.8-0.2-16.6,0.7-16.6,0.7v23.9h5.4h10h6.9h14.2h18.9c0,0-5.1-9.2-12.1-15.9c-2.3-2.2-4.9-4.2-7.5-5.5
		C94.6,129.7,93.6,129.3,92.5,129z M49.7,127.6c-2.7,0.1-6.4,0.4-10.3,1.3c-2.6,0.6-5.2,1.4-7.9,2.5c-11.1,4.7-16.9,19.5-16.9,19.5
		l14.7,0l10.3,0l15,0v-23.2C54.7,127.7,52.8,127.5,49.7,127.6z"/>
	<path fill="#424143" d="M142.8,189.3c-1.2,6.6-6.9,11.7-13.9,11.7c-7.2,0-13.2-5.4-14-12.4c0,0-0.1-1.2,0-3.3c0,0,0-0.1,0-0.1
		c0,0,0,0,0,0c0.1-0.6,0.2-1.3,0.4-1.9c0.4-1.3,1-2.2,1-2.2h-0.2c2.2-4.9,7.1-8.3,12.8-8.3c5.7,0,10.6,3.4,12.8,8.3
		c0.8,1.8,1.3,3.8,1.3,5.8C143,187.7,143,188.6,142.8,189.3z M136.3,186.6c0-3.9-3.2-7-7-7c-3.9,0-7,3.2-7,7c0,3.9,3.2,7,7,7
		C133.2,193.6,136.3,190.5,136.3,186.6z"/>
	<path fill="#DBD3C3" d="M42.4,181.1h73.8c-0.3,0.7-0.6,1.4-0.8,2.2c-0.2,0.6-0.3,1.2-0.4,1.9c0,0,0,0,0,0c-0.1,0.6-0.1,1.2-0.1,1.8
		c0,0.6,0,1.1,0.1,1.7H43.9c0,0,0.7-0.9-0.2-3.7C43.5,183.7,43.1,182.4,42.4,181.1z"/>
	<path fill="#262F39" d="M115.2,151.5H96.3v-0.1l6.7-15.8C110.1,142.3,115.2,151.5,115.2,151.5z"/>
	<path fill="#4F5A5D" d="M103,135.6l-6.7,15.8v0.1H82.1v-0.1L92.5,129c1.1,0.3,2.1,0.7,3,1.1C98.1,131.4,100.7,133.4,103,135.6z"/>
	<path fill="#262F39" d="M92.5,129l-10.4,22.4v0.1h-6.9v-0.1l10.2-23.8C88,127.9,90.4,128.3,92.5,129z"/>
	<path fill="#4F5A5D" d="M85.4,127.6l-10.2,23.8v0.1h-10v-0.1L76.4,127C79.4,127,82.5,127.2,85.4,127.6z"/>
	<path fill="#262F39" d="M76.4,127l-11.2,24.4v0.1h-5.4v-23.9C59.8,127.7,67.6,126.8,76.4,127z"/>
	<path fill="#262F39" d="M54.7,127.7v23.2l-15,0l10-23.2C52.8,127.5,54.7,127.7,54.7,127.7z"/>
	<path fill="#4F5A5D" d="M49.7,127.6l-10,23.2l-10.3,0v0l10-22C43.3,128.1,47,127.8,49.7,127.6z"/>
	<path fill="#424143" d="M43.7,184.8c0.6,3.2-0.3,5.4-0.3,5.4c-6.4-5-12.2-10.7-17.3-17c0,0,6.9-2.8,13.4,3.9
		c1.3,1.3,2.3,2.7,2.9,3.9h-0.1C42.3,181.1,42.8,182,43.7,184.8C43.7,184.8,43.7,184.8,43.7,184.8z"/>
	<path fill="#262F39" d="M39.4,129l-10,22v0l-14.7,0c0,0,5.7-14.9,16.9-19.5C34.2,130.3,36.8,129.5,39.4,129z"/>
	<path opacity="0.3" fill="#FFFFFF" d="M58.4,176c0,0,0,4,3.8,4s50.3,0,50.3,0s2.5,0.2,2.5-3.6s0-15.4,0-15.4s0-2.9-2.3-2.9
		c-2.3,0-51.4,0-51.4,0s-2.6,0.8-2.6,3C58.7,163.2,58.4,176,58.4,176z"/>
	<g>
		<circle fill="#7C4444" cx="100.6" cy="170.6" r="0.6"/>
		<path fill="#4E8192" d="M70.6,173c0,0,0.3-0.3,0.3-0.3c0.1-0.1,0.1,0,0.1,0c-0.1-0.1,0.3,0.3,0.3,0.3S70.9,173.3,70.6,173z"/>
		<path fill="#7C4444" d="M73.7,172.4c-0.3-0.3,0-0.6,0-0.6s0.2,0.2,0.2,0.2c0,0,0,0.1,0,0.1C73.9,172.1,73.7,172.4,73.7,172.4z"/>
		<path fill="#4E8192" d="M73.5,171.8c-0.1,0.1-0.2,0.2-0.2,0.2c0,0-0.1,0.1,0,0.1c0,0,0.2,0.2,0.2,0.2
			C73.3,172.1,73.5,171.9,73.5,171.8z"/>
		<path fill="#7C4444" d="M73.6,167.2c0.3,0.3,0,0.6,0,0.6l-0.3-0.3L73.6,167.2z"/>
		<path fill="#4E8192" d="M73.7,167.1c0.4,0.4,0,0.7,0,0.7l0.3-0.3L73.7,167.1z"/>
		<path fill="#4E8192" d="M76.8,168.6c0.3,0.3,0,0.6,0,0.6s-0.2-0.2-0.2-0.2c0,0,0-0.1,0-0.1C76.6,168.7,76.8,168.6,76.8,168.6z"/>
		<path fill="#7C4444" d="M68.7,168.6c-0.3,0.3,0,0.6,0,0.6l0.3-0.3L68.7,168.6z"/>
		<path fill="#7C4444" d="M72.1,165.7c-0.3-0.3-0.6,0-0.6,0l0.3,0.3L72.1,165.7z"/>
		<path fill="#4E8192" d="M73.4,169.9L73.4,169.9c-0.2,0.2-0.3,0.2-0.3,0.1l-0.1-0.1c-0.1-0.1-0.1-0.2,0-0.3l0.1-0.1
			c0.1-0.1,0.2-0.1,0.3,0l0.1,0.1C73.5,169.7,73.5,169.8,73.4,169.9z"/>
		<path fill="#4E8192" d="M73.9,170.4L73.9,170.4c-0.2,0.2-0.3,0.2-0.3,0.1l-0.1-0.1c-0.1-0.1-0.1-0.2,0-0.3l0.1-0.1
			c0.1-0.1,0.2-0.1,0.3,0l0.1,0.1C73.9,170.2,73.9,170.3,73.9,170.4z"/>
		<path fill="#4E8192" d="M74.3,169.9L74.3,169.9c-0.2,0.2-0.3,0.2-0.3,0.1l-0.1-0.1c-0.1-0.1-0.1-0.2,0-0.3l0.1-0.1
			c0.1-0.1,0.2-0.1,0.3,0l0.1,0.1C74.4,169.7,74.4,169.8,74.3,169.9z"/>
		<path fill="#4E8192" d="M73.9,169.4L73.9,169.4c-0.2,0.2-0.3,0.2-0.3,0.1l-0.1-0.1c-0.1-0.1-0.1-0.2,0-0.3l0.1-0.1
			c0.1-0.1,0.2-0.1,0.3,0l0.1,0.1C73.9,169.3,73.9,169.4,73.9,169.4z"/>
		<path fill="#4E8192" d="M74.3,169L74.3,169c-0.2,0.2-0.3,0.2-0.3,0.1l-0.1-0.1c-0.1-0.1-0.1-0.2,0-0.3l0.1-0.1
			c0.1-0.1,0.2-0.1,0.3,0l0.1,0.1C74.4,168.8,74.4,168.9,74.3,169z"/>
		<path fill="#4E8192" d="M74.8,168.5L74.8,168.5c-0.2,0.2-0.3,0.2-0.3,0.1l-0.1-0.1c-0.1-0.1-0.1-0.2,0-0.3l0.1-0.1
			c0.1-0.1,0.2-0.1,0.3,0l0.1,0.1C74.9,168.3,74.9,168.4,74.8,168.5z"/>
		<path fill="#4E8192" d="M74.3,168L74.3,168c-0.2,0.2-0.3,0.2-0.3,0.1l-0.1-0.1c-0.1-0.1-0.1-0.2,0-0.3l0.1-0.1
			c0.1-0.1,0.2-0.1,0.3,0l0.1,0.1C74.4,167.9,74.4,168,74.3,168z"/>
		<path fill="#4E8192" d="M73.9,168.5L73.9,168.5c-0.2,0.2-0.3,0.2-0.3,0.1l-0.1-0.1c-0.1-0.1-0.1-0.2,0-0.3l0.1-0.1
			c0.1-0.1,0.2-0.1,0.3,0l0.1,0.1C73.9,168.3,73.9,168.4,73.9,168.5z"/>
		<path fill="#4E8192" d="M73.4,169L73.4,169c-0.2,0.2-0.3,0.2-0.3,0.1L73,169c-0.1-0.1-0.1-0.2,0-0.3l0.1-0.1
			c0.1-0.1,0.2-0.1,0.3,0l0.1,0.1C73.5,168.8,73.5,168.9,73.4,169z"/>
		<path fill="#4E8192" d="M72.9,169.4L72.9,169.4c-0.2,0.2-0.3,0.2-0.3,0.1l-0.1-0.1c-0.1-0.1-0.1-0.2,0-0.3l0.1-0.1
			c0.1-0.1,0.2-0.1,0.3,0l0.1,0.1C73,169.2,73,169.4,72.9,169.4z"/>
		<path fill="#4E8192" d="M72.5,169.9L72.5,169.9c-0.2,0.2-0.3,0.2-0.3,0.1l-0.1-0.1c-0.1-0.1-0.1-0.2,0-0.3l0.1-0.1
			c0.1-0.1,0.2-0.1,0.3,0l0.1,0.1C72.6,169.7,72.6,169.8,72.5,169.9z"/>
		<path fill="#4E8192" d="M72,170.4L72,170.4c-0.2,0.2-0.3,0.2-0.3,0.1l-0.1-0.1c-0.1-0.1-0.1-0.2,0-0.3l0.1-0.1
			c0.1-0.1,0.2-0.1,0.3,0l0.1,0.1C72.1,170.2,72.1,170.3,72,170.4z"/>
		<path fill="#7C4444" d="M72.5,170.8L72.5,170.8c-0.2,0.2-0.3,0.2-0.3,0.1l-0.1-0.1c-0.1-0.1-0.1-0.2,0-0.3l0.1-0.1
			c0.1-0.1,0.2-0.1,0.3,0l0.1,0.1C72.6,170.6,72.6,170.7,72.5,170.8z"/>
		<path fill="#4E8192" d="M73,170.4L73,170.4c-0.2,0.2-0.3,0.2-0.3,0.1l-0.1-0.1c-0.1-0.1-0.1-0.2,0-0.3l0.1-0.1
			c0.1-0.1,0.2-0.1,0.3,0l0.1,0.1C73,170.2,73,170.3,73,170.4z"/>
		<path fill="#4E8192" d="M73.4,170.8L73.4,170.8c-0.2,0.2-0.3,0.2-0.3,0.1l-0.1-0.1c-0.1-0.1-0.1-0.2,0-0.3l0.1-0.1
			c0.1-0.1,0.2-0.1,0.3,0l0.1,0.1C73.5,170.6,73.5,170.7,73.4,170.8z"/>
		<path fill="#4E8192" d="M73,171.3L73,171.3c-0.2,0.2-0.3,0.2-0.3,0.1l-0.1-0.1c-0.1-0.1-0.1-0.2,0-0.3l0.1-0.1
			c0.1-0.1,0.2-0.1,0.3,0L73,171C73,171.1,73,171.2,73,171.3z"/>
		<path fill="#4E8192" d="M73.4,171.7L73.4,171.7c-0.2,0.2-0.3,0.2-0.3,0.1l-0.1-0.1c-0.1-0.1-0.1-0.2,0-0.3l0.1-0.1
			c0.1-0.1,0.2-0.1,0.3,0l0.1,0.1C73.5,171.5,73.5,171.7,73.4,171.7z"/>
		<path fill="#4E8192" d="M72.9,172.2L72.9,172.2c-0.2,0.2-0.3,0.2-0.3,0.1l-0.1-0.1c-0.1-0.1-0.1-0.2,0-0.3l0.1-0.1
			c0.1-0.1,0.2-0.1,0.3,0l0.1,0.1C73,172,73,172.1,72.9,172.2z"/>
		<path fill="#4E8192" d="M73.4,172.7L73.4,172.7c-0.2,0.2-0.3,0.2-0.3,0.1l-0.1-0.1c-0.1-0.1-0.1-0.2,0-0.3l0.1-0.1
			c0.1-0.1,0.2-0.1,0.3,0l0.1,0.1C73.5,172.5,73.5,172.6,73.4,172.7z"/>
		<path fill="#4E8192" d="M72.9,173.1L72.9,173.1c-0.2,0.2-0.3,0.2-0.3,0.1l-0.1-0.1c-0.1-0.1-0.1-0.2,0-0.3l0.1-0.1
			c0.1-0.1,0.2-0.1,0.3,0l0.1,0.1C73,172.9,73,173,72.9,173.1z"/>
		<path fill="#4E8192" d="M72.5,172.7L72.5,172.7c-0.2,0.2-0.3,0.2-0.3,0.1l-0.1-0.1c-0.1-0.1-0.1-0.2,0-0.3l0.1-0.1
			c0.1-0.1,0.2-0.1,0.3,0l0.1,0.1C72.6,172.5,72.6,172.6,72.5,172.7z"/>
		<path fill="#4E8192" d="M72.5,171.7L72.5,171.7c-0.2,0.2-0.3,0.2-0.3,0.1l-0.1-0.1c-0.1-0.1-0.1-0.2,0-0.3l0.1-0.1
			c0.1-0.1,0.2-0.1,0.3,0l0.1,0.1C72.6,171.5,72.6,171.7,72.5,171.7z"/>
		<path fill="#4E8192" d="M72,172.2L72,172.2c-0.2,0.2-0.3,0.2-0.3,0.1l-0.1-0.1c-0.1-0.1-0.1-0.2,0-0.3l0.1-0.1
			c0.1-0.1,0.2-0.1,0.3,0l0.1,0.1C72.1,172,72.1,172.1,72,172.2z"/>
		<path fill="#4E8192" d="M71.6,172.7L71.6,172.7c-0.2,0.2-0.3,0.2-0.3,0.1l-0.1-0.1c-0.1-0.1-0.1-0.2,0-0.3l0.1-0.1
			c0.1-0.1,0.2-0.1,0.3,0l0.1,0.1C71.7,172.5,71.7,172.6,71.6,172.7z"/>
		<path fill="#4E8192" d="M71.1,172.2L71.1,172.2c-0.2,0.2-0.3,0.2-0.3,0.1l-0.1-0.1c-0.1-0.1-0.1-0.2,0-0.3l0.1-0.1
			c0.1-0.1,0.2-0.1,0.3,0l0.1,0.1C71.2,172,71.2,172.1,71.1,172.2z"/>
		<path fill="#4E8192" d="M70.5,172.2c0,0,0.3,0.3,0.3,0.3c0.1,0.1,0,0.1,0,0.1c0.1-0.1-0.3,0.3-0.3,0.3S70.1,172.5,70.5,172.2z"/>
		<path fill="#4E8192" d="M69.2,172.5c0,0,0.3-0.3,0.3-0.3c0.1-0.1,0.1,0,0.1,0c-0.1-0.1,0.3,0.3,0.3,0.3S69.5,172.9,69.2,172.5z"/>
		<path fill="#4E8192" d="M69.1,171.7c0,0,0.3,0.3,0.3,0.3c0.1,0.1,0,0.1,0,0.1c0.1-0.1-0.3,0.3-0.3,0.3S68.7,172.1,69.1,171.7z"/>
		<path fill="#4E8192" d="M67.8,172.1c0,0,0.3-0.3,0.3-0.3c0.1-0.1,0.1,0,0.1,0c-0.1-0.1,0.3,0.3,0.3,0.3S68.1,172.4,67.8,172.1z"/>
		<path fill="#4E8192" d="M67.7,171.3c0,0,0.3,0.3,0.3,0.3c0.1,0.1,0,0.1,0,0.1c0.1-0.1-0.3,0.3-0.3,0.3S67.3,171.6,67.7,171.3z"/>
		<path fill="#4E8192" d="M72,173.4c0,0,0.3-0.3,0.3-0.3c0.1-0.1,0.1,0,0.1,0c-0.1-0.1,0.3,0.3,0.3,0.3S72.3,173.8,72,173.4z"/>
		<path fill="#4E8192" d="M71.9,172.6c0,0,0.3,0.3,0.3,0.3c0.1,0.1,0,0.1,0,0.1c0.1-0.1-0.3,0.3-0.3,0.3S71.5,173,71.9,172.6z"/>
		<path fill="#4E8192" d="M71.6,171.7L71.6,171.7c-0.2,0.2-0.3,0.2-0.3,0.1l-0.1-0.1c-0.1-0.1-0.1-0.2,0-0.3l0.1-0.1
			c0.1-0.1,0.2-0.1,0.3,0l0.1,0.1C71.6,171.5,71.6,171.7,71.6,171.7z"/>
		<path fill="#4E8192" d="M70.7,171.7L70.7,171.7c-0.2,0.2-0.3,0.2-0.3,0.1l-0.1-0.1c-0.1-0.1-0.1-0.2,0-0.3l0.1-0.1
			c0.1-0.1,0.2-0.1,0.3,0l0.1,0.1C70.7,171.5,70.7,171.6,70.7,171.7z"/>
		<path fill="#4E8192" d="M70.2,172.2L70.2,172.2c-0.2,0.2-0.3,0.2-0.3,0.1l-0.1-0.1c-0.1-0.1-0.1-0.2,0-0.3l0.1-0.1
			c0.1-0.1,0.2-0.1,0.3,0l0.1,0.1C70.3,172,70.3,172.1,70.2,172.2z"/>
		<path fill="#4E8192" d="M69.7,171.7L69.7,171.7c-0.2,0.2-0.3,0.2-0.3,0.1l-0.1-0.1c-0.1-0.1-0.1-0.2,0-0.3l0.1-0.1
			c0.1-0.1,0.2-0.1,0.3,0l0.1,0.1C69.8,171.5,69.8,171.7,69.7,171.7z"/>
		<path fill="#4E8192" d="M70.2,171.3L70.2,171.3c-0.2,0.2-0.3,0.2-0.3,0.1l-0.1-0.1c-0.1-0.1-0.1-0.2,0-0.3l0.1-0.1
			c0.1-0.1,0.2-0.1,0.3,0l0.1,0.1C70.3,171.1,70.3,171.2,70.2,171.3z"/>
		<path fill="#4E8192" d="M72,171.3L72,171.3c-0.2,0.2-0.3,0.2-0.3,0.1l-0.1-0.1c-0.1-0.1-0.1-0.2,0-0.3l0.1-0.1
			c0.1-0.1,0.2-0.1,0.3,0L72,171C72.1,171.1,72.1,171.2,72,171.3z"/>
		<path fill="#4E8192" d="M72.5,170.8L72.5,170.8c-0.2,0.2-0.3,0.2-0.3,0.1l-0.1-0.1c-0.1-0.1-0.1-0.2,0-0.3l0.1-0.1
			c0.1-0.1,0.2-0.1,0.3,0l0.1,0.1C72.6,170.6,72.6,170.7,72.5,170.8z"/>
		<path fill="#4E8192" d="M71.1,171.3L71.1,171.3c-0.2,0.2-0.3,0.2-0.3,0.1l-0.1-0.1c-0.1-0.1-0.1-0.2,0-0.3l0.1-0.1
			c0.1-0.1,0.2-0.1,0.3,0l0.1,0.1C71.2,171.1,71.2,171.2,71.1,171.3z"/>
		<path fill="#4E8192" d="M71.6,170.8L71.6,170.8c-0.2,0.2-0.3,0.2-0.3,0.1l-0.1-0.1c-0.1-0.1-0.1-0.2,0-0.3l0.1-0.1
			c0.1-0.1,0.2-0.1,0.3,0l0.1,0.1C71.6,170.6,71.6,170.7,71.6,170.8z"/>
		<path fill="#4E8192" d="M70.6,170.8L70.6,170.8c-0.2,0.2-0.3,0.2-0.3,0.1l-0.1-0.1c-0.1-0.1-0.1-0.2,0-0.3l0.1-0.1
			c0.1-0.1,0.2-0.1,0.3,0l0.1,0.1C70.7,170.6,70.7,170.7,70.6,170.8z"/>
		<path fill="#4E8192" d="M71.1,170.4L71.1,170.4c-0.2,0.2-0.3,0.2-0.3,0.1l-0.1-0.1c-0.1-0.1-0.1-0.2,0-0.3l0.1-0.1
			c0.1-0.1,0.2-0.1,0.3,0l0.1,0.1C71.2,170.2,71.2,170.3,71.1,170.4z"/>
		<path fill="#4E8192" d="M70.2,170.4L70.2,170.4c-0.2,0.2-0.3,0.2-0.3,0.1l-0.1-0.1c-0.1-0.1-0.1-0.2,0-0.3l0.1-0.1
			c0.1-0.1,0.2-0.1,0.3,0l0.1,0.1C70.3,170.2,70.3,170.3,70.2,170.4z"/>
		<path fill="#4E8192" d="M70.7,169.9L70.7,169.9c-0.2,0.2-0.3,0.2-0.3,0.1l-0.1-0.1c-0.1-0.1-0.1-0.2,0-0.3l0.1-0.1
			c0.1-0.1,0.2-0.1,0.3,0l0.1,0.1C70.7,169.7,70.7,169.8,70.7,169.9z"/>
		<path fill="#4E8192" d="M69.7,169.9L69.7,169.9c-0.2,0.2-0.3,0.2-0.3,0.1l-0.1-0.1c-0.1-0.1-0.1-0.2,0-0.3l0.1-0.1
			c0.1-0.1,0.2-0.1,0.3,0l0.1,0.1C69.8,169.7,69.8,169.8,69.7,169.9z"/>
		<path fill="#4E8192" d="M70.2,169.4L70.2,169.4c-0.2,0.2-0.3,0.2-0.3,0.1l-0.1-0.1c-0.1-0.1-0.1-0.2,0-0.3l0.1-0.1
			c0.1-0.1,0.2-0.1,0.3,0l0.1,0.1C70.3,169.2,70.3,169.4,70.2,169.4z"/>
		<path fill="#4E8192" d="M68.4,171.3L68.4,171.3c-0.2,0.2-0.3,0.2-0.3,0.1l-0.1-0.1c-0.1-0.1-0.1-0.2,0-0.3l0.1-0.1
			c0.1-0.1,0.2-0.1,0.3,0l0.1,0.1C68.4,171.1,68.4,171.2,68.4,171.3z"/>
		<path fill="#4E8192" d="M68.8,170.8L68.8,170.8c-0.2,0.2-0.3,0.2-0.3,0.1l-0.1-0.1c-0.1-0.1-0.1-0.2,0-0.3l0.1-0.1
			c0.1-0.1,0.2-0.1,0.3,0l0.1,0.1C68.9,170.6,68.9,170.7,68.8,170.8z"/>
		<path fill="#4E8192" d="M69.3,170.4L69.3,170.4c-0.2,0.2-0.3,0.2-0.3,0.1l-0.1-0.1c-0.1-0.1-0.1-0.2,0-0.3l0.1-0.1
			c0.1-0.1,0.2-0.1,0.3,0l0.1,0.1C69.4,170.2,69.4,170.3,69.3,170.4z"/>
		<path fill="#4E8192" d="M70.6,169L70.6,169c-0.2,0.2-0.3,0.2-0.3,0.1l-0.1-0.1c-0.1-0.1-0.1-0.2,0-0.3l0.1-0.1
			c0.1-0.1,0.2-0.1,0.3,0l0.1,0.1C70.7,168.8,70.7,168.9,70.6,169z"/>
		<path fill="#4E8192" d="M71.6,168.1L71.6,168.1c-0.2,0.2-0.3,0.2-0.3,0.1l-0.1-0.1c-0.1-0.1-0.1-0.2,0-0.3l0.1-0.1
			c0.1-0.1,0.2-0.1,0.3,0l0.1,0.1C71.7,167.9,71.7,168,71.6,168.1z"/>
		<path fill="#4E8192" d="M72,167.6L72,167.6c-0.2,0.2-0.3,0.2-0.3,0.1l-0.1-0.1c-0.1-0.1-0.1-0.2,0-0.3l0.1-0.1
			c0.1-0.1,0.2-0.1,0.3,0l0.1,0.1C72.1,167.4,72.1,167.5,72,167.6z"/>
		<path fill="#4E8192" d="M71.1,168.5L71.1,168.5c-0.2,0.2-0.3,0.2-0.3,0.1l-0.1-0.1c-0.1-0.1-0.1-0.2,0-0.3l0.1-0.1
			c0.1-0.1,0.2-0.1,0.3,0l0.1,0.1C71.2,168.3,71.2,168.4,71.1,168.5z"/>
		<path fill="#4E8192" d="M74.3,166.2L74.3,166.2c-0.2,0.2-0.3,0.2-0.3,0.1l-0.1-0.1c-0.1-0.1-0.1-0.2,0-0.3l0.1-0.1
			c0.1-0.1,0.2-0.1,0.3,0l0.1,0.1C74.4,166,74.4,166.1,74.3,166.2z"/>
		<path fill="#4E8192" d="M74.8,166.7L74.8,166.7c-0.2,0.2-0.3,0.2-0.3,0.1l-0.1-0.1c-0.1-0.1-0.1-0.2,0-0.3l0.1-0.1
			c0.1-0.1,0.2-0.1,0.3,0l0.1,0.1C74.9,166.5,74.9,166.6,74.8,166.7z"/>
		<path fill="#4E8192" d="M75.2,167.1L75.2,167.1c-0.2,0.2-0.3,0.2-0.3,0.1l-0.1-0.1c-0.1-0.1-0.1-0.2,0-0.3l0.1-0.1
			c0.1-0.1,0.2-0.1,0.3,0l0.1,0.1C75.3,166.9,75.3,167.1,75.2,167.1z"/>
		<path fill="#4E8192" d="M73.9,166.7L73.9,166.7c-0.2,0.2-0.3,0.2-0.3,0.1l-0.1-0.1c-0.1-0.1-0.1-0.2,0-0.3l0.1-0.1
			c0.1-0.1,0.2-0.1,0.3,0l0.1,0.1C73.9,166.5,73.9,166.6,73.9,166.7z"/>
		<path fill="#4E8192" d="M74.3,167.1L74.3,167.1c-0.2,0.2-0.3,0.2-0.3,0.1l-0.1-0.1c-0.1-0.1-0.1-0.2,0-0.3l0.1-0.1
			c0.1-0.1,0.2-0.1,0.3,0l0.1,0.1C74.4,166.9,74.4,167.1,74.3,167.1z"/>
		<path fill="#4E8192" d="M74.8,167.6L74.8,167.6c-0.2,0.2-0.3,0.2-0.3,0.1l-0.1-0.1c-0.1-0.1-0.1-0.2,0-0.3l0.1-0.1
			c0.1-0.1,0.2-0.1,0.3,0l0.1,0.1C74.9,167.4,74.9,167.5,74.8,167.6z"/>
		<path fill="#4E8192" d="M75.3,168.1L75.3,168.1c-0.2,0.2-0.3,0.2-0.3,0.1l-0.1-0.1c-0.1-0.1-0.1-0.2,0-0.3l0.1-0.1
			c0.1-0.1,0.2-0.1,0.3,0l0.1,0.1C75.3,167.9,75.3,168,75.3,168.1z"/>
		<path fill="#4E8192" d="M75.7,168.5L75.7,168.5c-0.2,0.2-0.3,0.2-0.3,0.1l-0.1-0.1c-0.1-0.1-0.1-0.2,0-0.3l0.1-0.1
			c0.1-0.1,0.2-0.1,0.3,0l0.1,0.1C75.8,168.3,75.8,168.4,75.7,168.5z"/>
		<path fill="#4E8192" d="M76.2,169L76.2,169c-0.2,0.2-0.3,0.2-0.3,0.1l-0.1-0.1c-0.1-0.1-0.1-0.2,0-0.3l0.1-0.1
			c0.1-0.1,0.2-0.1,0.3,0l0.1,0.1C76.2,168.8,76.2,168.9,76.2,169z"/>
		<path fill="#4E8192" d="M75.7,167.6L75.7,167.6c-0.2,0.2-0.3,0.2-0.3,0.1l-0.1-0.1c-0.1-0.1-0.1-0.2,0-0.3l0.1-0.1
			c0.1-0.1,0.2-0.1,0.3,0l0.1,0.1C75.8,167.4,75.8,167.5,75.7,167.6z"/>
		<path fill="#4E8192" d="M76.2,168.1L76.2,168.1c-0.2,0.2-0.3,0.2-0.3,0.1l-0.1-0.1c-0.1-0.1-0.1-0.2,0-0.3l0.1-0.1
			c0.1-0.1,0.2-0.1,0.3,0l0.1,0.1C76.2,167.9,76.2,168,76.2,168.1z"/>
		<path fill="#4E8192" d="M76.6,168.5L76.6,168.5c-0.2,0.2-0.3,0.2-0.3,0.1l-0.1-0.1c-0.1-0.1-0.1-0.2,0-0.3l0.1-0.1
			c0.1-0.1,0.2-0.1,0.3,0l0.1,0.1C76.7,168.3,76.7,168.4,76.6,168.5z"/>
		<path fill="#4E8192" d="M76.6,169.4L76.6,169.4c-0.2,0.2-0.3,0.2-0.3,0.1l-0.1-0.1c-0.1-0.1-0.1-0.2,0-0.3l0.1-0.1
			c0.1-0.1,0.2-0.1,0.3,0l0.1,0.1C76.7,169.2,76.7,169.4,76.6,169.4z"/>
		<path fill="#4E8192" d="M73.4,165.7c0.3-0.3,0.6,0,0.6,0s-0.2,0.2-0.2,0.2c0,0-0.1,0-0.1,0C73.6,165.9,73.4,165.7,73.4,165.7z"/>
		<path fill="#4E8192" d="M73.4,166.2L73.4,166.2c-0.2,0.2-0.3,0.2-0.3,0.1l-0.1-0.1c-0.1-0.1-0.1-0.2,0-0.3l0.1-0.1
			c0.1-0.1,0.2-0.1,0.3,0l0.1,0.1C73.5,166,73.5,166.1,73.4,166.2z"/>
		<path fill="#4E8192" d="M75,165.6L75,165.6c-0.2,0.2-0.3,0.2-0.3,0.1l-0.1-0.1c-0.1-0.1-0.1-0.2,0-0.3l0.1-0.1
			c0.1-0.1,0.2-0.1,0.3,0l0.1,0.1C75.1,165.4,75.1,165.6,75,165.6z"/>
		<path fill="#4E8192" d="M75.5,166.1L75.5,166.1c-0.2,0.2-0.3,0.2-0.3,0.1l-0.1-0.1c-0.1-0.1-0.1-0.2,0-0.3l0.1-0.1
			c0.1-0.1,0.2-0.1,0.3,0l0.1,0.1C75.5,165.9,75.5,166,75.5,166.1z"/>
		<path fill="#4E8192" d="M75.9,166.6L75.9,166.6c-0.2,0.2-0.3,0.2-0.3,0.1l-0.1-0.1c-0.1-0.1-0.1-0.2,0-0.3l0.1-0.1
			c0.1-0.1,0.2-0.1,0.3,0l0.1,0.1C76,166.4,76,166.5,75.9,166.6z"/>
		<path fill="#4E8192" d="M76.4,167L76.4,167c-0.2,0.2-0.3,0.2-0.3,0.1L76,167c-0.1-0.1-0.1-0.2,0-0.3l0.1-0.1
			c0.1-0.1,0.2-0.1,0.3,0l0.1,0.1C76.5,166.8,76.5,167,76.4,167z"/>
		<path fill="#4E8192" d="M76.9,167.5L76.9,167.5c-0.2,0.2-0.3,0.2-0.3,0.1l-0.1-0.1c-0.1-0.1-0.1-0.2,0-0.3l0.1-0.1
			c0.1-0.1,0.2-0.1,0.3,0l0.1,0.1C76.9,167.3,76.9,167.4,76.9,167.5z"/>
		<path fill="#4E8192" d="M77.3,167.9L77.3,167.9c-0.2,0.2-0.3,0.2-0.3,0.1l-0.1-0.1c-0.1-0.1-0.1-0.2,0-0.3l0.1-0.1
			c0.1-0.1,0.2-0.1,0.3,0l0.1,0.1C77.4,167.8,77.4,167.9,77.3,167.9z"/>
		<path fill="#4E8192" d="M75.5,165.2L75.5,165.2c-0.2,0.2-0.3,0.2-0.3,0.1l-0.1-0.1c-0.1-0.1-0.1-0.2,0-0.3l0.1-0.1
			c0.1-0.1,0.2-0.1,0.3,0l0.1,0.1C75.6,165,75.6,165.1,75.5,165.2z"/>
		<path fill="#4E8192" d="M75.9,165.6L75.9,165.6c-0.2,0.2-0.3,0.2-0.3,0.1l-0.1-0.1c-0.1-0.1-0.1-0.2,0-0.3l0.1-0.1
			c0.1-0.1,0.2-0.1,0.3,0l0.1,0.1C76,165.4,76,165.6,75.9,165.6z"/>
		<path fill="#4E8192" d="M76.4,166.1L76.4,166.1c-0.2,0.2-0.3,0.2-0.3,0.1l-0.1-0.1c-0.1-0.1-0.1-0.2,0-0.3l0.1-0.1
			c0.1-0.1,0.2-0.1,0.3,0l0.1,0.1C76.5,165.9,76.5,166,76.4,166.1z"/>
		<path fill="#4E8192" d="M76.9,166.6L76.9,166.6c-0.2,0.2-0.3,0.2-0.3,0.1l-0.1-0.1c-0.1-0.1-0.1-0.2,0-0.3l0.1-0.1
			c0.1-0.1,0.2-0.1,0.3,0l0.1,0.1C76.9,166.4,76.9,166.5,76.9,166.6z"/>
		<path fill="#4E8192" d="M77.3,167L77.3,167c-0.2,0.2-0.3,0.2-0.3,0.1l-0.1-0.1c-0.1-0.1-0.1-0.2,0-0.3l0.1-0.1
			c0.1-0.1,0.2-0.1,0.3,0l0.1,0.1C77.4,166.8,77.4,166.9,77.3,167z"/>
		<path fill="#4E8192" d="M77.8,167.5L77.8,167.5c-0.2,0.2-0.3,0.2-0.3,0.1l-0.1-0.1c-0.1-0.1-0.1-0.2,0-0.3l0.1-0.1
			c0.1-0.1,0.2-0.1,0.3,0l0.1,0.1C77.9,167.3,77.9,167.4,77.8,167.5z"/>
		<path fill="#7C4444" d="M74.9,173c0,0-0.3-0.3-0.3-0.3c-0.1-0.1-0.1,0-0.1,0c0.1-0.1-0.3,0.3-0.3,0.3S74.6,173.3,74.9,173z"/>
		<path fill="#7C4444" d="M75,172.2c0,0-0.3,0.3-0.3,0.3c-0.1,0.1,0,0.1,0,0.1c-0.1-0.1,0.3,0.3,0.3,0.3S75.3,172.5,75,172.2z"/>
		<path fill="#7C4444" d="M76.3,172.5c0,0-0.3-0.3-0.3-0.3c-0.1-0.1-0.1,0-0.1,0c0.1-0.1-0.3,0.3-0.3,0.3S76,172.9,76.3,172.5z"/>
		<path fill="#7C4444" d="M76.4,171.7c0,0-0.3,0.3-0.3,0.3c-0.1,0.1,0,0.1,0,0.1c-0.1-0.1,0.3,0.3,0.3,0.3S76.7,172.1,76.4,171.7z"
			/>
		<path fill="#7C4444" d="M77.7,172c0,0-0.3-0.3-0.3-0.3c-0.1-0.1-0.1,0-0.1,0c0.1-0.1-0.3,0.3-0.3,0.3S77.4,172.4,77.7,172z"/>
		<path fill="#7C4444" d="M77.8,171.2c0,0-0.3,0.3-0.3,0.3c-0.1,0.1,0,0.1,0,0.1c-0.1-0.1,0.3,0.3,0.3,0.3S78.1,171.6,77.8,171.2z"
			/>
		<path fill="#7C4444" d="M73.5,173.4c0,0-0.3-0.3-0.3-0.3c-0.1-0.1-0.1,0-0.1,0c0.1-0.1-0.3,0.3-0.3,0.3S73.2,173.8,73.5,173.4z"/>
		<path fill="#7C4444" d="M73.6,172.6c0,0-0.3,0.3-0.3,0.3c-0.1,0.1,0,0.1,0,0.1c-0.1-0.1,0.3,0.3,0.3,0.3S74,173,73.6,172.6z"/>
		<path fill="#7C4444" d="M74.3,172.6L74.3,172.6c-0.2,0.2-0.3,0.2-0.3,0.1l-0.1-0.1c-0.1-0.1-0.1-0.2,0-0.3l0.1-0.1
			c0.1-0.1,0.2-0.1,0.3,0l0.1,0.1C74.4,172.5,74.4,172.6,74.3,172.6z"/>
		<path fill="#7C4444" d="M74.8,172.2L74.8,172.2c-0.2,0.2-0.3,0.2-0.3,0.1l-0.1-0.1c-0.1-0.1-0.1-0.2,0-0.3l0.1-0.1
			c0.1-0.1,0.2-0.1,0.3,0l0.1,0.1C74.9,172,74.9,172.1,74.8,172.2z"/>
		<path fill="#7C4444" d="M75.2,171.7L75.2,171.7c-0.2,0.2-0.3,0.2-0.3,0.1l-0.1-0.1c-0.1-0.1-0.1-0.2,0-0.3l0.1-0.1
			c0.1-0.1,0.2-0.1,0.3,0l0.1,0.1C75.3,171.5,75.3,171.7,75.2,171.7z"/>
		<path fill="#7C4444" d="M75.7,171.3L75.7,171.3c-0.2,0.2-0.3,0.2-0.3,0.1l-0.1-0.1c-0.1-0.1-0.1-0.2,0-0.3l0.1-0.1
			c0.1-0.1,0.2-0.1,0.3,0l0.1,0.1C75.8,171.1,75.8,171.2,75.7,171.3z"/>
		<path fill="#7C4444" d="M75.7,172.2L75.7,172.2c-0.2,0.2-0.3,0.2-0.3,0.1l-0.1-0.1c-0.1-0.1-0.1-0.2,0-0.3l0.1-0.1
			c0.1-0.1,0.2-0.1,0.3,0l0.1,0.1C75.8,172,75.8,172.1,75.7,172.2z"/>
		<path fill="#7C4444" d="M76.2,171.7L76.2,171.7c-0.2,0.2-0.3,0.2-0.3,0.1l-0.1-0.1c-0.1-0.1-0.1-0.2,0-0.3l0.1-0.1
			c0.1-0.1,0.2-0.1,0.3,0l0.1,0.1C76.2,171.5,76.2,171.7,76.2,171.7z"/>
		<path fill="#7C4444" d="M74.4,171.7c-0.3-0.3-0.6,0-0.6,0s0.2,0.2,0.2,0.2c0,0,0.1,0,0.1,0C74.2,171.9,74.4,171.7,74.4,171.7z"/>
		<path fill="#4E8192" d="M73.9,171.5c0.1-0.1,0.2-0.2,0.2-0.2c0,0,0.1-0.1,0.1,0c0,0,0.2,0.2,0.2,0.2
			C74.1,171.3,73.9,171.4,73.9,171.5z"/>
		<path fill="#7C4444" d="M74.2,171c-0.3-0.3,0-0.6,0-0.6s0.2,0.2,0.2,0.2c0,0,0,0.1,0,0.1C74.4,170.8,74.2,171,74.2,171z"/>
		<path fill="#4E8192" d="M74,170.4c-0.1,0.1-0.2,0.2-0.2,0.2c0,0-0.1,0.1,0,0.1c0,0,0.2,0.2,0.2,0.2
			C73.8,170.7,73.9,170.5,74,170.4z"/>
		<path fill="#7C4444" d="M74.9,170.3c-0.3-0.3-0.6,0-0.6,0s0.2,0.2,0.2,0.2c0,0,0.1,0,0.1,0C74.6,170.5,74.9,170.3,74.9,170.3z"/>
		<path fill="#4E8192" d="M74.3,170.1c0.1-0.1,0.2-0.2,0.2-0.2c0,0,0.1-0.1,0.1,0c0,0,0.2,0.2,0.2,0.2
			C74.6,169.9,74.4,170,74.3,170.1z"/>
		<path fill="#7C4444" d="M74.6,169.6c-0.3-0.3,0-0.6,0-0.6s0.2,0.2,0.2,0.2c0,0,0,0.1,0,0.1C74.9,169.4,74.6,169.6,74.6,169.6z"/>
		<path fill="#4E8192" d="M74.5,169.1c-0.1,0.1-0.2,0.2-0.2,0.2c0,0-0.1,0.1,0,0.1c0,0,0.2,0.2,0.2,0.2
			C74.3,169.3,74.4,169.1,74.5,169.1z"/>
		<path fill="#7C4444" d="M75.3,168.9c-0.3-0.3-0.6,0-0.6,0s0.2,0.2,0.2,0.2c0,0,0.1,0,0.1,0C75.1,169.1,75.3,168.9,75.3,168.9z"/>
		<path fill="#4E8192" d="M74.8,168.7c0.1-0.1,0.2-0.2,0.2-0.2c0,0,0.1-0.1,0.1,0c0,0,0.2,0.2,0.2,0.2
			C75.1,168.5,74.9,168.7,74.8,168.7z"/>
		<path fill="#7C4444" d="M71.6,169.7c-0.3,0.3-0.6,0-0.6,0s0.2-0.2,0.2-0.2c0,0,0.1,0,0.1,0C71.4,169.5,71.6,169.7,71.6,169.7z"/>
		<path fill="#4E8192" d="M71.1,169.9c0.1,0.1,0.2,0.2,0.2,0.2c0,0,0.1,0.1,0.1,0c0,0,0.2-0.2,0.2-0.2
			C71.4,170.1,71.2,170,71.1,169.9z"/>
		<path fill="#7C4444" d="M70.9,169c-0.3,0.3,0,0.6,0,0.6s0.2-0.2,0.2-0.2c0,0,0-0.1,0-0.1C71.2,169.2,70.9,169,70.9,169z"/>
		<path fill="#4E8192" d="M70.8,169.6c-0.1-0.1-0.2-0.2-0.2-0.2c0,0-0.1-0.1,0-0.1c0,0,0.2-0.2,0.2-0.2
			C70.6,169.3,70.7,169.5,70.8,169.6z"/>
		<path fill="#7C4444" d="M72,169.4L72,169.4c-0.2,0.2-0.3,0.2-0.3,0.1l-0.1-0.1c-0.1-0.1-0.1-0.2,0-0.3l0.1-0.1
			c0.1-0.1,0.2-0.1,0.3,0l0.1,0.1C72.1,169.2,72.1,169.4,72,169.4z"/>
		<path fill="#7C4444" d="M74.8,171.3L74.8,171.3c-0.2,0.2-0.3,0.2-0.3,0.1l-0.1-0.1c-0.1-0.1-0.1-0.2,0-0.3l0.1-0.1
			c0.1-0.1,0.2-0.1,0.3,0l0.1,0.1C74.9,171.1,74.9,171.2,74.8,171.3z"/>
		<path fill="#7C4444" d="M75.2,170.8L75.2,170.8c-0.2,0.2-0.3,0.2-0.3,0.1l-0.1-0.1c-0.1-0.1-0.1-0.2,0-0.3l0.1-0.1
			c0.1-0.1,0.2-0.1,0.3,0l0.1,0.1C75.3,170.6,75.3,170.7,75.2,170.8z"/>
		<path fill="#7C4444" d="M76.2,170.8L76.2,170.8c-0.2,0.2-0.3,0.2-0.3,0.1l-0.1-0.1c-0.1-0.1-0.1-0.2,0-0.3l0.1-0.1
			c0.1-0.1,0.2-0.1,0.3,0l0.1,0.1C76.2,170.6,76.2,170.7,76.2,170.8z"/>
		<path fill="#7C4444" d="M76.6,170.3L76.6,170.3c-0.2,0.2-0.3,0.2-0.3,0.1l-0.1-0.1c-0.1-0.1-0.1-0.2,0-0.3l0.1-0.1
			c0.1-0.1,0.2-0.1,0.3,0l0.1,0.1C76.7,170.1,76.7,170.3,76.6,170.3z"/>
		<path fill="#7C4444" d="M76.6,171.3L76.6,171.3c-0.2,0.2-0.3,0.2-0.3,0.1l-0.1-0.1c-0.1-0.1-0.1-0.2,0-0.3l0.1-0.1
			c0.1-0.1,0.2-0.1,0.3,0l0.1,0.1C76.7,171.1,76.7,171.2,76.6,171.3z"/>
		<path fill="#7C4444" d="M77.1,170.8L77.1,170.8c-0.2,0.2-0.3,0.2-0.3,0.1l-0.1-0.1c-0.1-0.1-0.1-0.2,0-0.3l0.1-0.1
			c0.1-0.1,0.2-0.1,0.3,0l0.1,0.1C77.2,170.6,77.2,170.7,77.1,170.8z"/>
		<path fill="#7C4444" d="M77.1,171.7L77.1,171.7c-0.2,0.2-0.3,0.2-0.3,0.1l-0.1-0.1c-0.1-0.1-0.1-0.2,0-0.3l0.1-0.1
			c0.1-0.1,0.2-0.1,0.3,0l0.1,0.1C77.2,171.5,77.2,171.7,77.1,171.7z"/>
		<path fill="#7C4444" d="M77.6,171.3L77.6,171.3c-0.2,0.2-0.3,0.2-0.3,0.1l-0.1-0.1c-0.1-0.1-0.1-0.2,0-0.3l0.1-0.1
			c0.1-0.1,0.2-0.1,0.3,0l0.1,0.1C77.6,171.1,77.6,171.2,77.6,171.3z"/>
		<path fill="#7C4444" d="M75.7,170.4L75.7,170.4c-0.2,0.2-0.3,0.2-0.3,0.1l-0.1-0.1c-0.1-0.1-0.1-0.2,0-0.3l0.1-0.1
			c0.1-0.1,0.2-0.1,0.3,0l0.1,0.1C75.8,170.2,75.8,170.3,75.7,170.4z"/>
		<path fill="#7C4444" d="M76.2,169.9L76.2,169.9c-0.2,0.2-0.3,0.2-0.3,0.1l-0.1-0.1c-0.1-0.1-0.1-0.2,0-0.3l0.1-0.1
			c0.1-0.1,0.2-0.1,0.3,0l0.1,0.1C76.2,169.7,76.2,169.8,76.2,169.9z"/>
		<path fill="#7C4444" d="M75.2,169.9L75.2,169.9c-0.2,0.2-0.3,0.2-0.3,0.1l-0.1-0.1c-0.1-0.1-0.1-0.2,0-0.3l0.1-0.1
			c0.1-0.1,0.2-0.1,0.3,0l0.1,0.1C75.3,169.7,75.3,169.8,75.2,169.9z"/>
		<path fill="#7C4444" d="M75.7,169.4L75.7,169.4c-0.2,0.2-0.3,0.2-0.3,0.1l-0.1-0.1c-0.1-0.1-0.1-0.2,0-0.3l0.1-0.1
			c0.1-0.1,0.2-0.1,0.3,0l0.1,0.1C75.8,169.2,75.8,169.4,75.7,169.4z"/>
		<path fill="#7C4444" d="M72.5,169L72.5,169c-0.2,0.2-0.3,0.2-0.3,0.1l-0.1-0.1c-0.1-0.1-0.1-0.2,0-0.3l0.1-0.1
			c0.1-0.1,0.2-0.1,0.3,0l0.1,0.1C72.6,168.8,72.6,168.9,72.5,169z"/>
		<path fill="#7C4444" d="M72.9,168.5L72.9,168.5c-0.2,0.2-0.3,0.2-0.3,0.1l-0.1-0.1c-0.1-0.1-0.1-0.2,0-0.3l0.1-0.1
			c0.1-0.1,0.2-0.1,0.3,0l0.1,0.1C73,168.3,73,168.4,72.9,168.5z"/>
		<path fill="#7C4444" d="M73.4,168L73.4,168c-0.2,0.2-0.3,0.2-0.3,0.1L73,168c-0.1-0.1-0.1-0.2,0-0.3l0.1-0.1
			c0.1-0.1,0.2-0.1,0.3,0l0.1,0.1C73.5,167.9,73.5,168,73.4,168z"/>
		<path fill="#7C4444" d="M71.6,169L71.6,169c-0.2,0.2-0.3,0.2-0.3,0.1l-0.1-0.1c-0.1-0.1-0.1-0.2,0-0.3l0.1-0.1
			c0.1-0.1,0.2-0.1,0.3,0l0.1,0.1C71.6,168.8,71.6,168.9,71.6,169z"/>
		<path fill="#7C4444" d="M72,168.5L72,168.5c-0.2,0.2-0.3,0.2-0.3,0.1l-0.1-0.1c-0.1-0.1-0.1-0.2,0-0.3l0.1-0.1
			c0.1-0.1,0.2-0.1,0.3,0l0.1,0.1C72.1,168.3,72.1,168.5,72,168.5z"/>
		<path fill="#7C4444" d="M72.5,168.1L72.5,168.1c-0.2,0.2-0.3,0.2-0.3,0.1l-0.1-0.1c-0.1-0.1-0.1-0.2,0-0.3l0.1-0.1
			c0.1-0.1,0.2-0.1,0.3,0l0.1,0.1C72.6,167.9,72.6,168,72.5,168.1z"/>
		<path fill="#7C4444" d="M73,167.6L73,167.6c-0.2,0.2-0.3,0.2-0.3,0.1l-0.1-0.1c-0.1-0.1-0.1-0.2,0-0.3l0.1-0.1
			c0.1-0.1,0.2-0.1,0.3,0l0.1,0.1C73,167.4,73,167.5,73,167.6z"/>
		<path fill="#7C4444" d="M73.4,167.1L73.4,167.1c-0.2,0.2-0.3,0.2-0.3,0.1l-0.1-0.1c-0.1-0.1-0.1-0.2,0-0.3l0.1-0.1
			c0.1-0.1,0.2-0.1,0.3,0l0.1,0.1C73.5,166.9,73.5,167.1,73.4,167.1z"/>
		<path fill="#7C4444" d="M72.5,167.1L72.5,167.1c-0.2,0.2-0.3,0.2-0.3,0.1l-0.1-0.1c-0.1-0.1-0.1-0.2,0-0.3l0.1-0.1
			c0.1-0.1,0.2-0.1,0.3,0l0.1,0.1C72.6,167,72.6,167.1,72.5,167.1z"/>
		<path fill="#7C4444" d="M73,166.7L73,166.7c-0.2,0.2-0.3,0.2-0.3,0.1l-0.1-0.1c-0.1-0.1-0.1-0.2,0-0.3l0.1-0.1
			c0.1-0.1,0.2-0.1,0.3,0l0.1,0.1C73,166.5,73,166.6,73,166.7z"/>
		<path fill="#7C4444" d="M72.1,166.7L72.1,166.7c-0.2,0.2-0.3,0.2-0.3,0.1l-0.1-0.1c-0.1-0.1-0.1-0.2,0-0.3l0.1-0.1
			c0.1-0.1,0.2-0.1,0.3,0l0.1,0.1C72.1,166.5,72.1,166.6,72.1,166.7z"/>
		<path fill="#7C4444" d="M72.5,166.2L72.5,166.2c-0.2,0.2-0.3,0.2-0.3,0.1l-0.1-0.1c-0.1-0.1-0.1-0.2,0-0.3l0.1-0.1
			c0.1-0.1,0.2-0.1,0.3,0l0.1,0.1C72.6,166,72.6,166.2,72.5,166.2z"/>
		<path fill="#7C4444" d="M71.6,166.2L71.6,166.2c-0.2,0.2-0.3,0.2-0.3,0.1l-0.1-0.1c-0.1-0.1-0.1-0.2,0-0.3l0.1-0.1
			c0.1-0.1,0.2-0.1,0.3,0l0.1,0.1C71.7,166,71.7,166.2,71.6,166.2z"/>
		<path fill="#7C4444" d="M71.6,167.2L71.6,167.2c-0.2,0.2-0.3,0.2-0.3,0.1l-0.1-0.1c-0.1-0.1-0.1-0.2,0-0.3l0.1-0.1
			c0.1-0.1,0.2-0.1,0.3,0l0.1,0.1C71.7,167,71.7,167.1,71.6,167.2z"/>
		<path fill="#7C4444" d="M71.1,166.7L71.1,166.7c-0.2,0.2-0.3,0.2-0.3,0.1l-0.1-0.1c-0.1-0.1-0.1-0.2,0-0.3l0.1-0.1
			c0.1-0.1,0.2-0.1,0.3,0l0.1,0.1C71.2,166.5,71.2,166.6,71.1,166.7z"/>
		<path fill="#7C4444" d="M71.1,167.6L71.1,167.6c-0.2,0.2-0.3,0.2-0.3,0.1l-0.1-0.1c-0.1-0.1-0.1-0.2,0-0.3l0.1-0.1
			c0.1-0.1,0.2-0.1,0.3,0l0.1,0.1C71.2,167.4,71.2,167.6,71.1,167.6z"/>
		<path fill="#7C4444" d="M70.7,167.2L70.7,167.2c-0.2,0.2-0.3,0.2-0.3,0.1l-0.1-0.1c-0.1-0.1-0.1-0.2,0-0.3l0.1-0.1
			c0.1-0.1,0.2-0.1,0.3,0l0.1,0.1C70.7,167,70.7,167.1,70.7,167.2z"/>
		<path fill="#7C4444" d="M70.7,168.1L70.7,168.1c-0.2,0.2-0.3,0.2-0.3,0.1l-0.1-0.1c-0.1-0.1-0.1-0.2,0-0.3l0.1-0.1
			c0.1-0.1,0.2-0.1,0.3,0l0.1,0.1C70.7,167.9,70.7,168,70.7,168.1z"/>
		<path fill="#7C4444" d="M70.2,167.6L70.2,167.6c-0.2,0.2-0.3,0.2-0.3,0.1l-0.1-0.1c-0.1-0.1-0.1-0.2,0-0.3l0.1-0.1
			c0.1-0.1,0.2-0.1,0.3,0l0.1,0.1C70.3,167.4,70.3,167.5,70.2,167.6z"/>
		<path fill="#7C4444" d="M70.2,168.5L70.2,168.5c-0.2,0.2-0.3,0.2-0.3,0.1l-0.1-0.1c-0.1-0.1-0.1-0.2,0-0.3l0.1-0.1
			c0.1-0.1,0.2-0.1,0.3,0l0.1,0.1C70.3,168.3,70.3,168.5,70.2,168.5z"/>
		<path fill="#7C4444" d="M69.8,168.1L69.8,168.1c-0.2,0.2-0.3,0.2-0.3,0.1l-0.1-0.1c-0.1-0.1-0.1-0.2,0-0.3l0.1-0.1
			c0.1-0.1,0.2-0.1,0.3,0l0.1,0.1C69.8,167.9,69.8,168,69.8,168.1z"/>
		<path fill="#7C4444" d="M69.8,169L69.8,169c-0.2,0.2-0.3,0.2-0.3,0.1l-0.1-0.1c-0.1-0.1-0.1-0.2,0-0.3l0.1-0.1
			c0.1-0.1,0.2-0.1,0.3,0l0.1,0.1C69.8,168.8,69.8,168.9,69.8,169z"/>
		<path fill="#7C4444" d="M69.3,168.5L69.3,168.5c-0.2,0.2-0.3,0.2-0.3,0.1l-0.1-0.1c-0.1-0.1-0.1-0.2,0-0.3l0.1-0.1
			c0.1-0.1,0.2-0.1,0.3,0l0.1,0.1C69.4,168.3,69.4,168.5,69.3,168.5z"/>
		<path fill="#7C4444" d="M69.3,169.4L69.3,169.4c-0.2,0.2-0.3,0.2-0.3,0.1l-0.1-0.1c-0.1-0.1-0.1-0.2,0-0.3l0.1-0.1
			c0.1-0.1,0.2-0.1,0.3,0l0.1,0.1C69.4,169.3,69.4,169.4,69.3,169.4z"/>
		<path fill="#7C4444" d="M70.5,165.6L70.5,165.6c0.2,0.2,0.3,0.2,0.3,0.1l0.1-0.1c0.1-0.1,0.1-0.2,0-0.3l-0.1-0.1
			c-0.1-0.1-0.2-0.1-0.3,0l-0.1,0.1C70.5,165.4,70.5,165.5,70.5,165.6z"/>
		<path fill="#7C4444" d="M70.1,166L70.1,166c0.2,0.2,0.3,0.2,0.3,0.1l0.1-0.1c0.1-0.1,0.1-0.2,0-0.3l-0.1-0.1
			c-0.1-0.1-0.2-0.1-0.3,0l-0.1,0.1C70,165.8,70,166,70.1,166z"/>
		<path fill="#7C4444" d="M69.6,166.5L69.6,166.5c0.2,0.2,0.3,0.2,0.3,0.1l0.1-0.1c0.1-0.1,0.1-0.2,0-0.3l-0.1-0.1
			c-0.1-0.1-0.2-0.1-0.3,0l-0.1,0.1C69.5,166.3,69.5,166.4,69.6,166.5z"/>
		<path fill="#7C4444" d="M69.1,167L69.1,167c0.2,0.2,0.3,0.2,0.3,0.1l0.1-0.1c0.1-0.1,0.1-0.2,0-0.3l-0.1-0.1
			c-0.1-0.1-0.2-0.1-0.3,0l-0.1,0.1C69.1,166.8,69.1,166.9,69.1,167z"/>
		<path fill="#7C4444" d="M68.7,167.4L68.7,167.4c0.2,0.2,0.3,0.2,0.3,0.1l0.1-0.1c0.1-0.1,0.1-0.2,0-0.3l-0.1-0.1
			c-0.1-0.1-0.2-0.1-0.3,0l-0.1,0.1C68.6,167.2,68.6,167.4,68.7,167.4z"/>
		<path fill="#7C4444" d="M68.2,167.9L68.2,167.9c0.2,0.2,0.3,0.2,0.3,0.1l0.1-0.1c0.1-0.1,0.1-0.2,0-0.3l-0.1-0.1
			c-0.1-0.1-0.2-0.1-0.3,0l-0.1,0.1C68.2,167.7,68.2,167.8,68.2,167.9z"/>
		<path fill="#7C4444" d="M70.1,165.1L70.1,165.1c0.2,0.2,0.3,0.2,0.3,0.1l0.1-0.1c0.1-0.1,0.1-0.2,0-0.3l-0.1-0.1
			c-0.1-0.1-0.2-0.1-0.3,0l-0.1,0.1C70,164.9,70,165,70.1,165.1z"/>
		<path fill="#7C4444" d="M69.6,165.6L69.6,165.6c0.2,0.2,0.3,0.2,0.3,0.1l0.1-0.1c0.1-0.1,0.1-0.2,0-0.3l-0.1-0.1
			c-0.1-0.1-0.2-0.1-0.3,0l-0.1,0.1C69.5,165.4,69.5,165.5,69.6,165.6z"/>
		<path fill="#7C4444" d="M69.1,166L69.1,166c0.2,0.2,0.3,0.2,0.3,0.1l0.1-0.1c0.1-0.1,0.1-0.2,0-0.3l-0.1-0.1
			c-0.1-0.1-0.2-0.1-0.3,0l-0.1,0.1C69.1,165.8,69.1,166,69.1,166z"/>
		<path fill="#7C4444" d="M68.7,166.5L68.7,166.5c0.2,0.2,0.3,0.2,0.3,0.1l0.1-0.1c0.1-0.1,0.1-0.2,0-0.3l-0.1-0.1
			c-0.1-0.1-0.2-0.1-0.3,0l-0.1,0.1C68.6,166.3,68.6,166.4,68.7,166.5z"/>
		<path fill="#7C4444" d="M68.2,167L68.2,167c0.2,0.2,0.3,0.2,0.3,0.1l0.1-0.1c0.1-0.1,0.1-0.2,0-0.3l-0.1-0.1
			c-0.1-0.1-0.2-0.1-0.3,0l-0.1,0.1C68.1,166.8,68.1,166.9,68.2,167z"/>
		<path fill="#7C4444" d="M67.8,167.4L67.8,167.4c0.2,0.2,0.3,0.2,0.3,0.1l0.1-0.1c0.1-0.1,0.1-0.2,0-0.3l-0.1-0.1
			c-0.1-0.1-0.2-0.1-0.3,0l-0.1,0.1C67.7,167.2,67.7,167.3,67.8,167.4z"/>
		<path opacity="0.9" fill="#7C4444" d="M77.1,174.2v1.3h1.3c0,0,1.3,0,1.3-1.3c0-1.3,0-1.3,0-1.3h-1.3v1c0,0,0,0.2-0.3,0.2
			C77.8,174.2,77.1,174.2,77.1,174.2z"/>
		<path opacity="0.85" fill="#4E8192" d="M68.1,174.2v1.3h-1.3c0,0-1.3,0-1.3-1.3c0-1.3,0-1.3,0-1.3h1.3v1c0,0,0,0.2,0.3,0.2
			C67.4,174.2,68.1,174.2,68.1,174.2z"/>
		<path opacity="0.85" fill="#4E8192" d="M77,164v-1.3h1.3c0,0,1.3,0,1.3,1.3c0,1.3,0,1.3,0,1.3h-1.3v-1c0,0,0-0.2-0.3-0.2
			C77.8,164,77,164,77,164z"/>
		<path opacity="0.9" fill="#7C4444" d="M68.1,164v-1.3h-1.3c0,0-1.3,0-1.3,1.3c0,1.3,0,1.3,0,1.3h1.3v-1c0,0,0-0.2,0.3-0.2
			C67.4,164,68.1,164,68.1,164z"/>
		<path fill="#4E8192" d="M73.9,171.3L73.9,171.3c-0.2,0.2-0.3,0.2-0.3,0.1l-0.1-0.1c-0.1-0.1-0.1-0.2,0-0.3l0.1-0.1
			c0.1-0.1,0.2-0.1,0.3,0l0.1,0.1C73.9,171.1,73.9,171.2,73.9,171.3z"/>
		<path fill="#4E8192" d="M68.8,171.7L68.8,171.7c-0.2,0.2-0.3,0.2-0.3,0.1l-0.1-0.1c-0.1-0.1-0.1-0.2,0-0.3l0.1-0.1
			c0.1-0.1,0.2-0.1,0.3,0l0.1,0.1C68.9,171.5,68.9,171.7,68.8,171.7z"/>
		<path fill="#4E8192" d="M69.3,171.3L69.3,171.3c-0.2,0.2-0.3,0.2-0.3,0.1l-0.1-0.1c-0.1-0.1-0.1-0.2,0-0.3l0.1-0.1
			c0.1-0.1,0.2-0.1,0.3,0l0.1,0.1C69.4,171.1,69.4,171.2,69.3,171.3z"/>
		<path fill="#4E8192" d="M69.7,170.8L69.7,170.8c-0.2,0.2-0.3,0.2-0.3,0.1l-0.1-0.1c-0.1-0.1-0.1-0.2,0-0.3l0.1-0.1
			c0.1-0.1,0.2-0.1,0.3,0l0.1,0.1C69.8,170.6,69.8,170.7,69.7,170.8z"/>
		<path fill="#3A3B4C" d="M85.4,166.6h0.9v5.4c0,0.9-0.7,1.3-1.4,1.3c-0.9,0-1.3-0.5-1.3-1.2c0,0,0-0.3,0.1-0.5c0.3,0,0.5,0,0.8,0
			c-0.1,0.1-0.1,0.3-0.1,0.4c0,0.3,0.2,0.5,0.5,0.5c0.3,0,0.5-0.2,0.5-0.5V166.6z M85.2,165.6c0,0.3,0.3,0.6,0.6,0.6
			s0.6-0.3,0.6-0.6s-0.3-0.6-0.6-0.6S85.2,165.2,85.2,165.6z"/>
		<g>
			<path fill="#3A3B4C" d="M90.3,170.6c-0.2,0.2-0.4,0.4-0.6,0.5c-0.3,0.1-0.5,0.2-0.8,0.2c-0.2,0-0.3,0-0.5-0.1
				c-0.2,0-0.3-0.1-0.5-0.2s-0.3-0.2-0.3-0.4c-0.1-0.2-0.1-0.4-0.1-0.6c0-0.4,0.2-0.8,0.5-1.1c0.3-0.3,0.8-0.4,1.4-0.4
				c0.1,0,0.2,0,0.3,0c0.1,0,0.2,0,0.3,0c0.1,0,0.2,0,0.3,0c0.1,0,0.1,0,0.2,0v-0.2c0-0.3-0.1-0.5-0.3-0.7c-0.2-0.1-0.4-0.2-0.8-0.2
				c-0.3,0-0.6,0-0.8,0.1c-0.2,0.1-0.3,0.2-0.5,0.3l-0.4-0.5c0.1-0.1,0.2-0.1,0.3-0.2c0.1-0.1,0.2-0.1,0.4-0.2
				c0.1-0.1,0.3-0.1,0.5-0.1c0.2,0,0.4,0,0.6,0c0.5,0,1,0.1,1.3,0.4c0.3,0.3,0.5,0.6,0.5,1.1v2.4c0,0.1,0,0.3,0,0.4h-0.8L90.3,170.6
				z M90.3,169.1c0,0-0.1,0-0.1,0c-0.1,0-0.1,0-0.2,0c-0.1,0-0.2,0-0.3,0c-0.1,0-0.2,0-0.3,0c-0.2,0-0.4,0-0.6,0.1
				c-0.1,0.1-0.3,0.1-0.3,0.2c-0.1,0.1-0.1,0.2-0.2,0.3c0,0.1,0,0.2,0,0.3c0,0.2,0.1,0.4,0.2,0.5c0.2,0.1,0.4,0.2,0.6,0.2
				c0.2,0,0.3,0,0.4-0.1c0.1-0.1,0.3-0.1,0.4-0.2c0.1-0.1,0.2-0.2,0.3-0.3c0.1-0.1,0.1-0.2,0.1-0.4V169.1z"/>
			<path fill="#3A3B4C" d="M92.5,167.6h-0.8v-0.7h0.8v-1.4h0.8v1.4h1.2v0.7h-1.2v2.1c0,0.3,0.1,0.6,0.2,0.7c0.1,0.1,0.3,0.2,0.4,0.2
				c0.2,0,0.3,0,0.4-0.1c0.1,0,0.2-0.1,0.3-0.2l0.4,0.5c-0.2,0.2-0.4,0.3-0.5,0.4c-0.2,0.1-0.4,0.1-0.7,0.1c-0.4,0-0.8-0.1-1-0.4
				c-0.2-0.2-0.3-0.6-0.3-1.1V167.6z"/>
			<path fill="#3A3B4C" d="M98.2,170.6c-0.2,0.2-0.4,0.4-0.6,0.5c-0.3,0.1-0.5,0.2-0.8,0.2c-0.2,0-0.3,0-0.5-0.1
				c-0.2,0-0.3-0.1-0.5-0.2c-0.1-0.1-0.3-0.2-0.3-0.4c-0.1-0.2-0.1-0.4-0.1-0.6c0-0.4,0.2-0.8,0.5-1.1c0.3-0.3,0.8-0.4,1.4-0.4
				c0.1,0,0.2,0,0.3,0c0.1,0,0.2,0,0.3,0c0.1,0,0.2,0,0.3,0c0.1,0,0.1,0,0.2,0v-0.2c0-0.3-0.1-0.5-0.3-0.7c-0.2-0.1-0.4-0.2-0.8-0.2
				c-0.3,0-0.6,0-0.8,0.1c-0.2,0.1-0.3,0.2-0.5,0.3l-0.4-0.5c0.1-0.1,0.2-0.1,0.3-0.2c0.1-0.1,0.2-0.1,0.4-0.2
				c0.1-0.1,0.3-0.1,0.5-0.1c0.2,0,0.4,0,0.6,0c0.5,0,1,0.1,1.3,0.4c0.3,0.3,0.5,0.6,0.5,1.1v2.4c0,0.1,0,0.3,0,0.4h-0.8L98.2,170.6
				z M98.2,169.1c0,0-0.1,0-0.1,0c-0.1,0-0.1,0-0.2,0c-0.1,0-0.2,0-0.3,0c-0.1,0-0.2,0-0.3,0c-0.2,0-0.4,0-0.6,0.1
				c-0.1,0.1-0.3,0.1-0.3,0.2c-0.1,0.1-0.1,0.2-0.2,0.3s0,0.2,0,0.3c0,0.2,0.1,0.4,0.2,0.5c0.2,0.1,0.4,0.2,0.6,0.2
				c0.2,0,0.3,0,0.4-0.1c0.1-0.1,0.3-0.1,0.4-0.2c0.1-0.1,0.2-0.2,0.3-0.3c0.1-0.1,0.1-0.2,0.1-0.4V169.1z"/>
		</g>
		<path fill="#7C4444" d="M102.2,171.1v-3.8c0-0.1,0-0.3,0-0.4h0.8l0,0.7c0-0.1,0.1-0.2,0.2-0.2c0.1-0.1,0.2-0.2,0.3-0.2
			c0.1-0.1,0.2-0.1,0.4-0.2c0.1-0.1,0.3-0.1,0.5-0.1c0.1,0,0.2,0,0.2,0c0.1,0,0.1,0,0.2,0.1l-0.2,0.8c-0.1,0-0.2-0.1-0.4-0.1
			c-0.2,0-0.3,0-0.5,0.1c-0.1,0.1-0.3,0.2-0.4,0.3c-0.1,0.1-0.2,0.3-0.3,0.4s-0.1,0.3-0.1,0.5v2.2H102.2z"/>
		<path fill="#7C4444" d="M105.5,166.9h0.8v2.5c0,0.4,0.1,0.7,0.2,0.9c0.2,0.2,0.4,0.3,0.7,0.3c0.2,0,0.4,0,0.6-0.1
			c0.2-0.1,0.3-0.2,0.4-0.4c0.1-0.2,0.2-0.3,0.2-0.5c0-0.2,0.1-0.4,0.1-0.6v-1.9h0.8v3.8c0,0.1,0,0.3,0,0.4h-0.8l0-0.6
			c-0.1,0.1-0.1,0.2-0.2,0.2c-0.1,0.1-0.2,0.2-0.3,0.2c-0.1,0.1-0.2,0.1-0.4,0.2c-0.2,0-0.3,0.1-0.5,0.1c-0.5,0-0.9-0.2-1.2-0.5
			c-0.3-0.3-0.4-0.7-0.4-1.3V166.9z"/>
	</g>
</g>
</svg>
