<?xml version="1.0" encoding="utf-8"?>
<!-- Generator: Adobe Illustrator 18.0.0, SVG Export Plug-In . SVG Version: 6.00 Build 0)  -->
<!DOCTYPE svg PUBLIC "-//W3C//DTD SVG 1.1//EN" "http://www.w3.org/Graphics/SVG/1.1/DTD/svg11.dtd">
<svg version="1.1" id="Слой_1" xmlns="http://www.w3.org/2000/svg" xmlns:xlink="http://www.w3.org/1999/xlink" x="0px" y="0px"
	 viewBox="0 0 215 215" enable-background="new 0 0 215 215" xml:space="preserve">
<g id="XMLID_66_">
	<g>
		<linearGradient id="SVGID_1_" gradientUnits="userSpaceOnUse" x1="107.262" y1="55.9983" x2="107.262" y2="303.6226">
			<stop  offset="0" style="stop-color:#FFFFFF"/>
			<stop  offset="1" style="stop-color:#5FA297"/>
		</linearGradient>
		<circle fill="url(#SVGID_1_)" cx="107.3" cy="107.7" r="104.2"/>
	</g>
	<g>
	</g>
</g>
<g id="XMLID_68_">
	<g>
		<rect x="146.6" y="71.1" fill="#262D2F" width="8.7" height="4.6"/>
		<path fill="#D7D7D9" d="M107.5,12.1c34.1,0,61.7,27.6,61.7,61.7s-27.6,61.7-61.7,61.7c-34.1,0-61.7-27.6-61.7-61.7
			S73.4,12.1,107.5,12.1z M164,73.6c0-31.1-25.2-56.3-56.3-56.3S51.4,42.5,51.4,73.6s25.2,56.3,56.3,56.3S164,104.7,164,73.6z"/>
		<polygon fill="#262D2F" points="147.9,48 150.1,51.8 146.2,54 144,50.2 		"/>
		<polygon fill="#262D2F" points="150.1,94.9 147.9,98.8 144,96.5 146.2,92.7 		"/>
		<path fill="#495255" d="M107.5,124.2c0.1,0,0.3,0,0.4,0c28.1,0,50.8-22.8,50.8-50.8S136,22.6,107.9,22.6c-0.1,0-0.3,0-0.4,0
			c-27.9,0.2-50.4,22.9-50.4,50.8S79.6,124,107.5,124.2z M107.7,17.3c31.1,0,56.3,25.2,56.3,56.3s-25.2,56.3-56.3,56.3
			s-56.3-25.2-56.3-56.3S76.6,17.3,107.7,17.3z"/>
		<polygon fill="#262D2F" points="133.5,33.7 131.2,37.5 127.4,35.2 129.7,31.4 		"/>
		<polygon fill="#262D2F" points="131.2,109.2 133.5,113 129.7,115.3 127.4,111.5 		"/>
		<path fill="#6B3D3F" d="M109.9,69.6c1.4,0.7,2.4,2.2,2.4,3.9c0,2.4-2,4.3-4.3,4.3c-0.2,0-0.3,0-0.5,0c-2.2-0.2-3.8-2.1-3.8-4.3
			c0-0.2,0-0.4,0-0.6c0.1-1.1,0.7-2.1,1.5-2.8c0.8-0.6,1.7-1,2.8-1C108.7,69.2,109.4,69.3,109.9,69.6z"/>
		<polygon fill="#262D2F" points="109.7,112.3 109.7,121 107.5,121 105.1,121 105.1,112.3 107.5,112.3 		"/>
		<polygon fill="#262D2F" points="107.5,34.5 105.1,34.5 105.1,25.8 107.5,25.8 109.7,25.8 109.7,34.5 		"/>
		<path fill="#D8D8D8" d="M107.9,22.6c28.1,0,50.8,22.8,50.8,50.8s-22.8,50.8-50.8,50.8c-0.1,0-0.3,0-0.4,0V121h2.2v-8.7h-2.2
			c0-3.2,0-33.9,0-34.4l0,0c0.2,0,0.3,0,0.5,0c2.4,0,4.3-1.9,4.3-4.3c0-1.7-1-3.2-2.4-3.9v-20h-2.4V34.5h2.2v-8.7h-2.2V23l0-0.4
			C107.7,22.6,107.8,22.6,107.9,22.6z M155.3,75.7v-4.6h-8.7v4.6H155.3z M150.1,51.8l-2.2-3.8l-3.8,2.2l2.2,3.8L150.1,51.8z
			 M147.9,98.8l2.2-3.8l-3.9-2.2l-2.2,3.8L147.9,98.8z M131.2,37.5l2.3-3.8l-3.8-2.3l-2.3,3.8L131.2,37.5z M133.5,113l-2.3-3.8
			l-3.8,2.3l2.3,3.8L133.5,113z"/>
		<path fill="#814645" d="M108,69.2c-1,0-2,0.4-2.8,1l-0.2-0.4V68V49.6h2.4h2.4v20C109.4,69.3,108.7,69.2,108,69.2z"/>
		<path fill="#994C4A" d="M105.1,69.8l0.2,0.4c-0.8,0.7-1.4,1.6-1.5,2.8l0,0L78.9,55.6L105.1,68V69.8z"/>
		<path fill="#FFFFFF" d="M103.7,72.9L103.7,72.9c0,0.2,0,0.4,0,0.6c0,2.2,1.7,4.1,3.8,4.3l0,0c0,0.6,0,31.2,0,34.4h-2.4v8.7h2.4
			v3.3c-27.9-0.2-50.4-22.9-50.4-50.8s22.5-50.6,50.4-50.8l0,0.4v2.8h-2.4v8.7h2.4v15.1h-2.4V68L78.9,55.6L103.7,72.9z M87.8,35.2
			l-2.3-3.8l-3.8,2.3l2.3,3.8L87.8,35.2z M85.5,115.3l2.3-3.8l-3.8-2.3l-2.3,3.8L85.5,115.3z M69.2,54l2.2-3.8L67.6,48l-2.2,3.8
			L69.2,54z M71.4,96.5l-2.2-3.8l-3.8,2.2l2.2,3.8L71.4,96.5z M68.8,75.7v-4.6h-8.7v4.6H68.8z"/>
		<polygon fill="#262D2F" points="85.5,31.4 87.8,35.2 84,37.5 81.7,33.7 		"/>
		<polygon fill="#262D2F" points="87.8,111.5 85.5,115.3 81.7,113 84,109.2 		"/>
		<polygon fill="#262D2F" points="71.4,50.2 69.2,54 65.3,51.8 67.6,48 		"/>
		<polygon fill="#262D2F" points="69.2,92.7 71.4,96.5 67.6,98.8 65.3,94.9 		"/>
		<rect x="60.1" y="71.1" fill="#262D2F" width="8.7" height="4.6"/>
	</g>
	<g>
	</g>
</g>
<path opacity="0.1" fill="#262D2F" d="M78.9,55.6l-21,26.7c0,0,2.6,13,8,19.8c5.5,8.4,14.5,14.1,14.5,14.1l31-39.9
	c0,0-2.5,2.9-5.9,0.8c-2-1.3-1.8-4.1-1.8-4.1L78.9,55.6z"/>
<polygon opacity="0.1" fill="#262D2F" points="105,49.6 94.3,62.9 105,68 "/>
<g id="XMLID_67_">
	<g>
		<path fill="#E0AA46" d="M89.3,161.4v5c0,0-1.8,2.7-6.8,2.7c-5,0-7.3-1.7-7.3-1.7l-0.2-6c0,1.8,3.2,3.3,7.1,3.3
			C86,164.7,89.2,163.2,89.3,161.4L89.3,161.4z"/>
		<path fill="#E0AA46" d="M88.1,161.2c0,1.3-2.7,2.4-5.9,2.4c-3.3,0-5.9-1.1-5.9-2.4c0-1.3,2.7-2.4,5.9-2.4
			C85.4,158.8,88.1,159.9,88.1,161.2z"/>
		<path fill="#E9C947" d="M76.2,161.2c0,1.3,2.7,2.4,5.9,2.4c3.3,0,5.9-1.1,5.9-2.4c0-1.3-2.7-2.4-5.9-2.4
			C78.9,158.8,76.2,159.9,76.2,161.2z M82.1,158.1c3.9,0,7.1,1.5,7.1,3.3c0,1.8-3.2,3.3-7.1,3.3c-3.9,0-7.1-1.5-7.1-3.3
			C74.9,159.6,78.1,158.1,82.1,158.1z"/>
		<path fill="#E0AA46" d="M76.7,180.5v5c0,0-1.8,2.7-6.8,2.7c-5,0-7.3-1.7-7.3-1.7l-0.2-6c0,1.8,3.2,3.3,7.1,3.3
			C73.5,183.7,76.7,182.3,76.7,180.5L76.7,180.5z"/>
		<path fill="#E0AA46" d="M75.5,180.2c0,1.3-2.7,2.4-5.9,2.4c-3.3,0-5.9-1.1-5.9-2.4c0-1.3,2.7-2.4,5.9-2.4
			C72.9,177.9,75.5,178.9,75.5,180.2z"/>
		<path fill="#E0AC47" d="M71.5,168.5c0,0,0.1,2.4-6.9,2.4s-6.7-2.2-6.7-2.2s0-1.3,0-3.3c0.6,0.3,2.9,1.6,7.2,1.6
			c5,0,6.3-2.2,6.3-2.2V168.5z"/>
		<path fill="#E9C947" d="M71.5,160.9v3.9c0,0-1.4,2.2-6.3,2.2c-4.3,0-6.7-1.3-7.2-1.6c0-1.1,0-2.4,0-3.9c0.6,0.4,2.9,1.6,7.2,1.6
			C70.2,163.1,71.5,160.9,71.5,160.9z"/>
		<path fill="#E0AC47" d="M71.5,157v3.9c0,0-1.4,2.2-6.3,2.2c-4.3,0-6.6-1.3-7.2-1.6c0-1.2,0-2.5,0-3.9c0.6,0.3,2.9,1.6,7.2,1.6
			C70.2,159.2,71.5,157,71.5,157z"/>
		<path fill="#E9C947" d="M71.5,153.1v3.9c0,0-1.4,2.2-6.3,2.2c-4.3,0-6.7-1.3-7.2-1.6c0-1.3,0-2.6,0-3.9c0.5,0.3,2.9,1.7,7.2,1.7
			C70.2,155.3,71.5,153.1,71.5,153.1z"/>
		<path fill="#E0AC47" d="M71.5,149.2v3.9c0,0-1.4,2.2-6.3,2.2c-4.3,0-6.7-1.3-7.2-1.7c0-1.3,0-2.6,0-3.9c0.4,0.3,2.8,1.7,7.3,1.7
			C70.2,151.4,71.5,149.2,71.5,149.2z"/>
		<path fill="#E9C947" d="M71.5,145.3v3.9c0,0-1.4,2.2-6.3,2.2c-4.5,0-6.8-1.4-7.3-1.7v0c0-1.4,0-2.7-0.1-3.9c0,0,2.4,1.7,7.3,1.7
			C70.2,147.5,71.5,145.3,71.5,145.3z"/>
		<path fill="#E0AA46" d="M70.8,139.6c0,1.3-2.7,2.4-5.9,2.4c-3.3,0-5.9-1.1-5.9-2.4c0-1.3,2.7-2.4,5.9-2.4
			C68.1,137.2,70.8,138.3,70.8,139.6z"/>
		<path fill="#E9C947" d="M69.6,182.6c3.3,0,5.9-1.1,5.9-2.4c0-1.3-2.7-2.4-5.9-2.4c-3.3,0-5.9,1.1-5.9,2.4
			C63.7,181.5,66.3,182.6,69.6,182.6z M69.5,177.2c3.9,0,7.1,1.5,7.1,3.3c0,1.8-3.2,3.3-7.1,3.3c-3.9,0-7.1-1.5-7.1-3.3
			C62.4,178.6,65.6,177.2,69.5,177.2z"/>
		<path fill="#E9C947" d="M58.9,139.6c0,1.3,2.7,2.4,5.9,2.4c3.3,0,5.9-1.1,5.9-2.4c0-1.3-2.7-2.4-5.9-2.4
			C61.6,137.2,58.9,138.3,58.9,139.6z M57.6,139.8c0-1.8,3.2-3.3,7.1-3.3c3.9,0,7.1,1.5,7.1,3.3c0,0.4-0.1,0.7-0.4,1
			c-0.9,1.3-3.6,2.3-6.8,2.3c-3.8,0-6.9-1.4-7.1-3.1C57.6,139.9,57.6,139.9,57.6,139.8z"/>
		<path fill="#E0AC47" d="M57.8,145.1c-0.1-2.5-0.2-4.3-0.3-5.1l0.1,0c0.2,1.7,3.3,3.1,7.1,3.1c3.2,0,5.8-0.9,6.8-2.3v4.5
			c0,0-1.4,2.2-6.3,2.2c-5,0-7.3-1.7-7.3-1.7C57.9,145.6,57.8,145.3,57.8,145.1z"/>
		<path fill="#E0AA46" d="M58.1,170.9v5c0,0-1.8,2.7-6.8,2.7S44,177,44,177l-0.2-6c0,1.8,3.2,3.3,7.1,3.3
			C54.9,174.2,58.1,172.8,58.1,170.9L58.1,170.9z"/>
		<path fill="#E0AA46" d="M56.9,170.7c0,1.3-2.7,2.4-5.9,2.4c-3.3,0-5.9-1.1-5.9-2.4c0-1.3,2.7-2.4,5.9-2.4
			C54.3,168.3,56.9,169.4,56.9,170.7z"/>
		<path fill="#E0AA46" d="M44,150.9c3.9,0,7.1-1.5,7.1-3.3l-0.1,5.5l-0.2,0c0,0-1.4,2.2-6.3,2.2s-7.3-1.7-7.3-1.7h-0.1l-0.1-6
			C36.9,149.4,40.1,150.9,44,150.9z"/>
		<path fill="#E9C947" d="M51,153.1l-0.1,3.9l-0.2,0c0,0-1.4,2.2-6.3,2.2s-7.3-1.7-7.3-1.7H37l0-3.9h0.1c0,0,2.4,1.7,7.3,1.7
			s6.3-2.2,6.3-2.2L51,153.1z"/>
		<path fill="#E0AA46" d="M50.9,157l-0.1,3.9h-0.1c0,0-1.4,2.2-6.3,2.2s-7.3-1.7-7.3-1.7h0l-0.1-3.9h0.1c0,0,2.4,1.7,7.3,1.7
			s6.3-2.2,6.3-2.2L50.9,157z"/>
		<path fill="#E9C947" d="M50.9,160.9l-0.1,3.9c0,0-1.4,2.2-6.3,2.2s-7.3-1.7-7.3-1.7l0-3.9h0c0,0,2.4,1.7,7.3,1.7
			S50.8,160.9,50.9,160.9L50.9,160.9z"/>
		<path fill="#E0AA46" d="M50,147.3c0,1.3-2.7,2.4-5.9,2.4c-3.3,0-5.9-1.1-5.9-2.4c0-1.3,2.7-2.4,5.9-2.4C47.4,145,50,146,50,147.3z
			"/>
		<path fill="#E9C947" d="M51,173.1c3.3,0,5.9-1.1,5.9-2.4c0-1.3-2.7-2.4-5.9-2.4c-3.3,0-5.9,1.1-5.9,2.4
			C45.1,172,47.7,173.1,51,173.1z M50.9,167.7c3.9,0,7.1,1.5,7.1,3.3c0,1.8-3.2,3.3-7.1,3.3c-3.9,0-7.1-1.5-7.1-3.3
			C43.8,169.1,47,167.7,50.9,167.7z"/>
		<path fill="#E9C947" d="M44.1,149.7c3.3,0,5.9-1.1,5.9-2.4c0-1.3-2.7-2.4-5.9-2.4c-3.3,0-5.9,1.1-5.9,2.4
			C38.2,148.7,40.8,149.7,44.1,149.7z M44,144.3c3.9,0,7.1,1.5,7.1,3.3c0,1.8-3.2,3.3-7.1,3.3c-3.9,0-7.1-1.5-7.1-3.3
			C36.9,145.8,40.1,144.3,44,144.3z"/>
	</g>
	<g>
	</g>
</g>
<g>
	<path fill="#E0AC47" d="M167.3,181.8c0,0,0.1,2.4-6.9,2.4c-7,0-6.7-2.2-6.7-2.2s0-1.3,0-3.3c0.6,0.3,2.9,1.6,7.2,1.6
		c5,0,6.3-2.2,6.3-2.2V181.8z"/>
	<path fill="#E9C947" d="M167.3,174.2v3.9c0,0-1.4,2.2-6.3,2.2c-4.3,0-6.7-1.3-7.2-1.6c0-1.1,0-2.4,0-3.9c0.6,0.4,2.9,1.6,7.2,1.6
		C165.9,176.5,167.3,174.2,167.3,174.2z"/>
	<path fill="#E0AC47" d="M167.3,170.3v3.9c0,0-1.4,2.2-6.3,2.2c-4.3,0-6.6-1.3-7.2-1.6c0-1.2,0-2.5,0-3.9c0.6,0.3,2.9,1.6,7.2,1.6
		C165.9,172.6,167.3,170.3,167.3,170.3z"/>
	<path fill="#E9C947" d="M167.3,166.5v3.9c0,0-1.4,2.2-6.3,2.2c-4.3,0-6.7-1.3-7.2-1.6c0-1.3,0-2.6,0-3.9c0.5,0.3,2.9,1.7,7.2,1.7
		C165.9,168.7,167.3,166.5,167.3,166.5z"/>
	<path fill="#E0AC47" d="M167.3,162.6v3.9c0,0-1.4,2.2-6.3,2.2c-4.3,0-6.7-1.3-7.2-1.7c0-1.3,0-2.6,0-3.9c0.4,0.3,2.8,1.7,7.3,1.7
		C165.9,164.8,167.3,162.6,167.3,162.6z"/>
	<path fill="#E9C947" d="M167.3,158.7v3.9c0,0-1.4,2.2-6.3,2.2c-4.5,0-6.8-1.4-7.3-1.7v0c0-1.4,0-2.7-0.1-3.9c0,0,2.4,1.7,7.3,1.7
		C165.9,160.9,167.3,158.7,167.3,158.7z"/>
	<path fill="#E0AA46" d="M166.5,152.9c0,1.3-2.7,2.4-5.9,2.4c-3.3,0-5.9-1.1-5.9-2.4c0-1.3,2.7-2.4,5.9-2.4
		C163.8,150.6,166.5,151.6,166.5,152.9z"/>
	<path fill="#E9C947" d="M160.6,150.6c-3.3,0-5.9,1.1-5.9,2.4c0,1.3,2.7,2.4,5.9,2.4c3.3,0,5.9-1.1,5.9-2.4
		C166.5,151.6,163.8,150.6,160.6,150.6z M167.3,154.2c-0.9,1.3-3.6,2.3-6.8,2.3c-3.8,0-6.9-1.4-7.1-3.1c0-0.1,0-0.1,0-0.2
		c0-1.8,3.2-3.3,7.1-3.3c3.9,0,7.1,1.5,7.1,3.3C167.6,153.5,167.5,153.9,167.3,154.2z"/>
	<path fill="#E0AC47" d="M153.4,153.3c0.2,1.7,3.3,3.1,7.1,3.1c3.2,0,5.8-0.9,6.8-2.3v4.5c0,0-1.4,2.2-6.3,2.2c-5,0-7.3-1.7-7.3-1.7
		c0-0.2,0-0.5,0-0.7c-0.1-2.5-0.2-4.3-0.3-5.1L153.4,153.3z"/>
	<path fill="#E0AA46" d="M146.9,160.9l-0.1,5.5l-0.2,0c0,0-1.4,2.2-6.3,2.2s-7.3-1.7-7.3-1.7h-0.1l-0.1-6c0,1.8,3.2,3.3,7.1,3.3
		C143.7,164.2,146.9,162.7,146.9,160.9z"/>
	<path fill="#E9C947" d="M146.7,166.5l-0.1,3.9l-0.2,0c0,0-1.4,2.2-6.3,2.2s-7.3-1.7-7.3-1.7h-0.1l0-3.9h0.1c0,0,2.4,1.7,7.3,1.7
		s6.3-2.2,6.3-2.2L146.7,166.5z"/>
	<path fill="#E0AA46" d="M146.7,170.3l-0.1,3.9h-0.1c0,0-1.4,2.2-6.3,2.2s-7.3-1.7-7.3-1.7h0l-0.1-3.9h0.1c0,0,2.4,1.7,7.3,1.7
		s6.3-2.2,6.3-2.2L146.7,170.3z"/>
	<path fill="#E9C947" d="M146.6,174.2l-0.1,3.9c0,0-1.4,2.2-6.3,2.2s-7.3-1.7-7.3-1.7l0-3.9h0c0,0,2.4,1.7,7.3,1.7
		S146.5,174.2,146.6,174.2L146.6,174.2z"/>
	<path fill="#E0AA46" d="M145.7,160.7c0,1.3-2.7,2.4-5.9,2.4c-3.3,0-5.9-1.1-5.9-2.4c0-1.3,2.7-2.4,5.9-2.4
		C143.1,158.3,145.7,159.4,145.7,160.7z"/>
	<path fill="#E9C947" d="M139.8,163.1c3.3,0,5.9-1.1,5.9-2.4c0-1.3-2.7-2.4-5.9-2.4c-3.3,0-5.9,1.1-5.9,2.4
		C133.9,162,136.5,163.1,139.8,163.1z M139.7,157.7c3.9,0,7.1,1.5,7.1,3.3c0,1.8-3.2,3.3-7.1,3.3c-3.9,0-7.1-1.5-7.1-3.3
		C132.6,159.1,135.8,157.7,139.7,157.7z"/>
</g>
<g>
	<g>
		<g id="XMLID_12_">
			<g>
				<path fill="#667480" d="M146.3,114.8v75.2H70.7l0.1-6.2H77v-8h-6l0.9-45.2H77v-8h-5l0.1-6.8L146.3,114.8z M137.7,146.5
					c0-2.8-2.3-5.1-5.1-5.1c-2.8,0-5.1,2.3-5.1,5.1c0,2.1,1.2,3.9,3,4.7v16.8c-1.8,0.8-3,2.6-3,4.7c0,2.8,2.3,5.1,5.1,5.1
					c2.8,0,5.1-2.3,5.1-5.1c0-2.1-1.3-3.9-3.1-4.7l0-16.7C136.4,150.4,137.7,148.6,137.7,146.5z M108.2,159.3c0-8.3-6.7-15-15-15
					s-15,6.7-15,15s6.7,15,15,15S108.2,167.6,108.2,159.3z"/>
				<path fill="#A5B3BB" d="M132.6,141.4c2.8,0,5.1,2.3,5.1,5.1c0,2.1-1.3,3.9-3.1,4.7v-4.6c0-0.6-0.2-1.1-0.6-1.4
					c-0.4-0.4-0.9-0.6-1.4-0.6c-1.1,0-2,0.9-2,2v4.5c-1.8-0.8-3-2.6-3-4.7C127.5,143.6,129.8,141.3,132.6,141.4z"/>
				<path fill="#A5B3BB" d="M134.5,167.8c1.8,0.8,3.1,2.6,3.1,4.7c0,2.8-2.3,5.1-5.1,5.1c-2.8,0-5.1-2.3-5.1-5.1
					c0-2.1,1.2-3.9,3-4.7v4.2c0,0.6,0.2,1.1,0.6,1.4c0.4,0.4,0.9,0.6,1.4,0.6c1.1,0,2-0.9,2-2V167.8z"/>
				<path fill="#BFC7CD" d="M134.5,146.6v4.6c-0.6,0.3-1.3,0.4-2,0.4c-0.7,0-1.4-0.2-2.1-0.4v-4.5c0-1.1,0.9-2,2-2
					c0.6,0,1.1,0.2,1.4,0.6C134.3,145.5,134.5,146,134.5,146.6z"/>
				<path fill="#BFC7CD" d="M134.5,151.2l0,16.7c-0.6-0.3-1.3-0.4-2-0.4c-0.7,0-1.4,0.2-2.1,0.4v-16.8c0.6,0.3,1.3,0.4,2.1,0.4
					C133.3,151.6,133.9,151.4,134.5,151.2z"/>
				<path fill="#BFC7CD" d="M134.5,167.8v4.2c0,1.1-0.9,2-2,2c-0.6,0-1.1-0.2-1.4-0.6c-0.4-0.4-0.6-0.9-0.6-1.4v-4.2
					c0.6-0.3,1.3-0.4,2.1-0.4C133.3,167.4,133.9,167.6,134.5,167.8z"/>
				<path fill="#BFC7CD" d="M93.5,147.8c6.3,0,11.4,5.1,11.4,11.4c0,6.3-5.1,11.4-11.4,11.4c-6.3,0-11.4-5.1-11.4-11.4
					C82.1,152.9,87.2,147.8,93.5,147.8z M100.3,159.4c0-3.8-3.1-6.9-6.9-6.9c-3.8,0-6.9,3.1-6.9,6.9c0,3.8,3.1,6.9,6.9,6.9
					C97.2,166.3,100.3,163.2,100.3,159.4z"/>
				<path fill="#A5B3BB" d="M93.2,144.3c8.3,0,15,6.7,15,15s-6.7,15-15,15s-15-6.7-15-15S84.9,144.3,93.2,144.3z M93.3,171.8
					c7,0,12.7-5.7,12.7-12.7c0-7-5.7-12.7-12.7-12.7c-7,0-12.7,5.7-12.7,12.7C80.6,166.2,86.3,171.8,93.3,171.8z"/>
				<polygon fill="#BFC7CD" points="93.1,153.3 94.4,155.9 91.9,155.9 				"/>
				<path fill="#404A52" d="M93.4,152.4c3.8,0,6.9,3.1,6.9,6.9c0,3.8-3.1,6.9-6.9,6.9c-3.8,0-6.9-3.1-6.9-6.9
					C86.4,155.5,89.5,152.4,93.4,152.4z M93.1,153.3l-1.2,2.6h2.5L93.1,153.3z"/>
				<path fill="#5D686E" d="M93.3,171.8c-7,0-12.7-5.7-12.7-12.7c0-7,5.7-12.7,12.7-12.7c7,0,12.7,5.7,12.7,12.7
					C106,166.2,100.3,171.8,93.3,171.8z M104.9,159.2c0-6.3-5.1-11.4-11.4-11.4c-6.3,0-11.4,5.1-11.4,11.4c0,6.3,5.1,11.4,11.4,11.4
					C99.8,170.6,104.9,165.5,104.9,159.2z"/>
				<polygon fill="#BFC7CD" points="76,123.6 77,130.6 71.9,130.6 72,123 				"/>
				<polygon fill="#BFC7CD" points="76,176.9 77,183.8 70.9,183.8 71,176.1 				"/>
				<polygon fill="#DDE7EA" points="76,176.9 71,176.1 71,175.9 77,175.9 77,183.8 				"/>
				<polygon fill="#DDE7EA" points="76,123.6 72,123 72,122.7 77,122.7 77,130.6 				"/>
				<polygon fill="#82919C" points="70.7,122.7 70.7,114.8 146.3,114.8 72.2,115.8 72,122.7 				"/>
				<polygon fill="#BFC7CD" points="72,123 71.9,130.6 70.7,130.6 70.7,122.8 				"/>
				<polygon fill="#82919C" points="71.9,130.6 71,175.9 70.7,175.9 70.7,130.6 				"/>
				<polygon fill="#BFC7CD" points="70.7,176 70.7,183.8 69.9,183.8 69.9,175.9 				"/>
				<polygon fill="#5D686E" points="70.7,130.6 70.7,175.9 69.9,175.9 69.9,174.5 69.9,132 69.9,130.6 				"/>
				<polygon fill="#BFC7CD" points="70.7,122.8 70.7,130.6 69.9,130.6 69.9,122.7 				"/>
				<polygon fill="#5D686E" points="69.9,114 147.3,114 147.3,191.3 69.9,191.3 69.9,185.1 69.9,183.8 70.7,183.8 70.7,190.1 
					146.3,190.1 146.3,114.8 70.7,114.8 70.7,122.7 69.9,122.7 69.9,121.4 				"/>
				<polygon fill="#DDE7EA" points="69,175.3 65.6,174.5 69.9,174.5 69.9,175.9 69.9,183.8 69.9,185.1 				"/>
				<polygon fill="#DDE7EA" points="69.9,132 69,122.2 65.6,121.4 69.9,121.4 69.9,122.7 69.9,130.6 				"/>
				<polygon fill="#BFC7CD" points="69,122.2 69.9,132 65.6,132 65.6,121.4 				"/>
				<polygon fill="#BFC7CD" points="69,175.3 69.9,185.1 65.6,185.1 65.6,174.5 				"/>
				<path fill="#667480" d="M63,195.5l1.7-85.8l87.7-1.2v87.1H63z M65.6,121.4V132h4.3v42.5h-4.3v10.6h4.3v6.2h77.4V114H69.9v7.4
					H65.6z"/>
				<polygon fill="#82919C" points="63,108.4 152.4,108.4 64.7,109.7 63,195.5 				"/>
			</g>
			<g>
			</g>
		</g>
	</g>
	<g>
		<path opacity="0.3" fill="#FFFFFF" d="M86.9,134.2c0,0,0,2.8,2.9,2.8s38.7,0,38.7,0s2.5,0.6,2.5-2.3c0-2.9,0-11.9,0-11.9
			s-0.6-4.8-2.4-4.8s-39.5,0-39.5,0s-2,1.8-2,3.5S86.9,134.2,86.9,134.2z"/>
		<g>
			<circle fill="#7C4444" cx="119.3" cy="130.2" r="0.5"/>
			<path fill="#4E8192" d="M96.2,132.1c0,0,0.2-0.2,0.2-0.2c0,0,0.1,0,0.1,0c-0.1-0.1,0.2,0.2,0.2,0.2S96.5,132.3,96.2,132.1z"/>
			<path fill="#7C4444" d="M98.6,131.6c-0.2-0.2,0-0.4,0-0.4s0.2,0.2,0.2,0.2c0,0,0,0.1,0,0.1C98.8,131.4,98.6,131.6,98.6,131.6z"/>
			<path fill="#4E8192" d="M98.5,131.2c-0.1,0-0.1,0.1-0.1,0.1c0,0,0,0.1,0,0.1c0,0,0.2,0.2,0.2,0.2
				C98.4,131.4,98.4,131.2,98.5,131.2z"/>
			<path fill="#7C4444" d="M98.6,127.6c0.2,0.2,0,0.4,0,0.4l-0.2-0.2L98.6,127.6z"/>
			<path fill="#4E8192" d="M98.6,127.5c0.3,0.3,0,0.5,0,0.5l0.3-0.3L98.6,127.5z"/>
			<path fill="#4E8192" d="M101,128.6c0.2,0.2,0,0.4,0,0.4s-0.2-0.2-0.2-0.2c0,0,0-0.1,0-0.1C100.9,128.8,101,128.6,101,128.6z"/>
			<path fill="#7C4444" d="M94.7,128.6c-0.2,0.2,0,0.4,0,0.4l0.2-0.2L94.7,128.6z"/>
			<path fill="#7C4444" d="M97.4,126.4c-0.2-0.2-0.4,0-0.4,0l0.2,0.2L97.4,126.4z"/>
			<path fill="#4E8192" d="M98.4,129.7l-0.1,0.1c0,0-0.1,0-0.1,0l-0.1-0.1c0,0,0-0.1,0-0.1l0.1-0.1c0,0,0.1,0,0.1,0l0.1,0.1
				C98.5,129.6,98.5,129.6,98.4,129.7z"/>
			<path fill="#4E8192" d="M98.8,130l-0.1,0.1c0,0-0.1,0-0.1,0l-0.1-0.1c0,0,0-0.1,0-0.1l0.1-0.1c0,0,0.1,0,0.1,0l0.1,0.1
				C98.8,129.9,98.8,130,98.8,130z"/>
			<path fill="#4E8192" d="M99.1,129.7l-0.1,0.1c0,0-0.1,0-0.1,0l-0.1-0.1c0,0,0-0.1,0-0.1l0.1-0.1c0,0,0.1,0,0.1,0l0.1,0.1
				C99.2,129.6,99.2,129.6,99.1,129.7z"/>
			<path fill="#4E8192" d="M98.8,129.3l-0.1,0.1c0,0-0.1,0-0.1,0l-0.1-0.1c0,0,0-0.1,0-0.1l0.1-0.1c0,0,0.1,0,0.1,0l0.1,0.1
				C98.8,129.2,98.8,129.3,98.8,129.3z"/>
			<path fill="#4E8192" d="M99.2,128.9l-0.1,0.1c0,0-0.1,0-0.1,0l-0.1-0.1c0,0,0-0.1,0-0.1l0.1-0.1c0,0,0.1,0,0.1,0l0.1,0.1
				C99.2,128.8,99.2,128.9,99.2,128.9z"/>
			<path fill="#4E8192" d="M99.5,128.6l-0.1,0.1c0,0-0.1,0-0.1,0l-0.1-0.1c0,0,0-0.1,0-0.1l0.1-0.1c0,0,0.1,0,0.1,0l0.1,0.1
				C99.5,128.5,99.5,128.5,99.5,128.6z"/>
			<path fill="#4E8192" d="M99.1,128.2l-0.1,0.1c0,0-0.1,0-0.1,0l-0.1-0.1c0,0,0-0.1,0-0.1l0.1-0.1c0,0,0.1,0,0.1,0l0.1,0.1
				C99.2,128.1,99.2,128.2,99.1,128.2z"/>
			<path fill="#4E8192" d="M98.8,128.6l-0.1,0.1c0,0-0.1,0-0.1,0l-0.1-0.1c0,0,0-0.1,0-0.1l0.1-0.1c0,0,0.1,0,0.1,0l0.1,0.1
				C98.8,128.5,98.8,128.5,98.8,128.6z"/>
			<path fill="#4E8192" d="M98.4,128.9l-0.1,0.1c0,0-0.1,0-0.1,0l-0.1-0.1c0,0,0-0.1,0-0.1l0.1-0.1c0,0,0.1,0,0.1,0l0.1,0.1
				C98.5,128.8,98.5,128.9,98.4,128.9z"/>
			<path fill="#4E8192" d="M98.1,129.3l-0.1,0.1c0,0-0.1,0-0.1,0l-0.1-0.1c0,0,0-0.1,0-0.1l0.1-0.1c0,0,0.1,0,0.1,0l0.1,0.1
				C98.1,129.2,98.1,129.3,98.1,129.3z"/>
			<path fill="#4E8192" d="M97.7,129.6l-0.1,0.1c0,0-0.1,0-0.1,0l-0.1-0.1c0,0,0-0.1,0-0.1l0.1-0.1c0,0,0.1,0,0.1,0l0.1,0.1
				C97.8,129.5,97.8,129.6,97.7,129.6z"/>
			<path fill="#4E8192" d="M97.4,130l-0.1,0.1c0,0-0.1,0-0.1,0L97,130c0,0,0-0.1,0-0.1l0.1-0.1c0,0,0.1,0,0.1,0l0.1,0.1
				C97.4,129.9,97.4,130,97.4,130z"/>
			<path fill="#7C4444" d="M97.7,130.4l-0.1,0.1c0,0-0.1,0-0.1,0l-0.1-0.1c0,0,0-0.1,0-0.1l0.1-0.1c0,0,0.1,0,0.1,0l0.1,0.1
				C97.8,130.3,97.8,130.3,97.7,130.4z"/>
			<path fill="#4E8192" d="M98.1,130l-0.1,0.1c0,0-0.1,0-0.1,0l-0.1-0.1c0,0,0-0.1,0-0.1l0.1-0.1c0,0,0.1,0,0.1,0l0.1,0.1
				C98.1,129.9,98.1,130,98.1,130z"/>
			<path fill="#4E8192" d="M98.4,130.4l-0.1,0.1c0,0-0.1,0-0.1,0l-0.1-0.1c0,0,0-0.1,0-0.1l0.1-0.1c0,0,0.1,0,0.1,0l0.1,0.1
				C98.5,130.3,98.5,130.3,98.4,130.4z"/>
			<path fill="#4E8192" d="M98.1,130.7l-0.1,0.1c0,0-0.1,0-0.1,0l-0.1-0.1c0,0,0-0.1,0-0.1l0.1-0.1c0,0,0.1,0,0.1,0l0.1,0.1
				C98.1,130.6,98.1,130.7,98.1,130.7z"/>
			<path fill="#4E8192" d="M98.4,131.1l-0.1,0.1c0,0-0.1,0-0.1,0l-0.1-0.1c0,0,0-0.1,0-0.1l0.1-0.1c0,0,0.1,0,0.1,0l0.1,0.1
				C98.5,131,98.5,131,98.4,131.1z"/>
			<path fill="#4E8192" d="M98.1,131.4l-0.1,0.1c0,0-0.1,0-0.1,0l-0.1-0.1c0,0,0-0.1,0-0.1l0.1-0.1c0,0,0.1,0,0.1,0l0.1,0.1
				C98.1,131.3,98.1,131.4,98.1,131.4z"/>
			<path fill="#4E8192" d="M98.4,131.8l-0.1,0.1c0,0-0.1,0-0.1,0l-0.1-0.1c0,0,0-0.1,0-0.1l0.1-0.1c0,0,0.1,0,0.1,0l0.1,0.1
				C98.5,131.7,98.5,131.7,98.4,131.8z"/>
			<path fill="#4E8192" d="M98.1,132.1l-0.1,0.1c0,0-0.1,0-0.1,0l-0.1-0.1c0,0,0-0.1,0-0.1l0.1-0.1c0,0,0.1,0,0.1,0l0.1,0.1
				C98.1,132,98.1,132.1,98.1,132.1z"/>
			<path fill="#4E8192" d="M97.7,131.8l-0.1,0.1c0,0-0.1,0-0.1,0l-0.1-0.1c0,0,0-0.1,0-0.1l0.1-0.1c0,0,0.1,0,0.1,0l0.1,0.1
				C97.8,131.7,97.8,131.7,97.7,131.8z"/>
			<path fill="#4E8192" d="M97.7,131.1l-0.1,0.1c0,0-0.1,0-0.1,0l-0.1-0.1c0,0,0-0.1,0-0.1l0.1-0.1c0,0,0.1,0,0.1,0l0.1,0.1
				C97.8,131,97.8,131,97.7,131.1z"/>
			<path fill="#4E8192" d="M97.4,131.4l-0.1,0.1c0,0-0.1,0-0.1,0l-0.1-0.1c0,0,0-0.1,0-0.1l0.1-0.1c0,0,0.1,0,0.1,0l0.1,0.1
				C97.4,131.3,97.4,131.4,97.4,131.4z"/>
			<path fill="#4E8192" d="M97,131.8l-0.1,0.1c0,0-0.1,0-0.1,0l-0.1-0.1c0,0,0-0.1,0-0.1l0.1-0.1c0,0,0.1,0,0.1,0l0.1,0.1
				C97.1,131.7,97.1,131.7,97,131.8z"/>
			<path fill="#4E8192" d="M96.7,131.4l-0.1,0.1c0,0-0.1,0-0.1,0l-0.1-0.1c0,0,0-0.1,0-0.1l0.1-0.1c0,0,0.1,0,0.1,0l0.1,0.1
				C96.7,131.3,96.7,131.4,96.7,131.4z"/>
			<path fill="#4E8192" d="M96.1,131.4c0,0,0.2,0.2,0.2,0.2c0,0,0,0.1,0,0.1c0.1-0.1-0.2,0.2-0.2,0.2S95.9,131.7,96.1,131.4z"/>
			<path fill="#4E8192" d="M95.2,131.7c0,0,0.2-0.2,0.2-0.2c0,0,0.1,0,0.1,0c-0.1-0.1,0.2,0.2,0.2,0.2S95.4,132,95.2,131.7z"/>
			<path fill="#4E8192" d="M95.1,131.1c0,0,0.2,0.2,0.2,0.2c0,0,0,0.1,0,0.1c0.1-0.1-0.2,0.2-0.2,0.2S94.8,131.3,95.1,131.1z"/>
			<path fill="#4E8192" d="M94.1,131.3c0,0,0.2-0.2,0.2-0.2c0,0,0.1,0,0.1,0c-0.1-0.1,0.2,0.2,0.2,0.2S94.3,131.6,94.1,131.3z"/>
			<path fill="#4E8192" d="M94,130.7c0,0,0.2,0.2,0.2,0.2c0,0,0,0.1,0,0.1c0.1-0.1-0.2,0.2-0.2,0.2S93.7,131,94,130.7z"/>
			<path fill="#4E8192" d="M97.3,132.4c0,0,0.2-0.2,0.2-0.2c0,0,0.1,0,0.1,0c-0.1-0.1,0.2,0.2,0.2,0.2S97.5,132.7,97.3,132.4z"/>
			<path fill="#4E8192" d="M97.2,131.8c0,0,0.2,0.2,0.2,0.2c0,0,0,0.1,0,0.1c0.1-0.1-0.2,0.2-0.2,0.2S96.9,132,97.2,131.8z"/>
			<path fill="#4E8192" d="M97,131.1l-0.1,0.1c0,0-0.1,0-0.1,0l-0.1-0.1c0,0,0-0.1,0-0.1l0.1-0.1c0,0,0.1,0,0.1,0l0.1,0.1
				C97.1,131,97.1,131,97,131.1z"/>
			<path fill="#4E8192" d="M96.3,131l-0.1,0.1c0,0-0.1,0-0.1,0l-0.1-0.1c0,0,0-0.1,0-0.1l0.1-0.1c0,0,0.1,0,0.1,0l0.1,0.1
				C96.4,130.9,96.4,131,96.3,131z"/>
			<path fill="#4E8192" d="M96,131.4l-0.1,0.1c0,0-0.1,0-0.1,0l-0.1-0.1c0,0,0-0.1,0-0.1l0.1-0.1c0,0,0.1,0,0.1,0l0.1,0.1
				C96,131.3,96,131.4,96,131.4z"/>
			<path fill="#4E8192" d="M95.6,131.1l-0.1,0.1c0,0-0.1,0-0.1,0l-0.1-0.1c0,0,0-0.1,0-0.1l0.1-0.1c0,0,0.1,0,0.1,0l0.1,0.1
				C95.6,131,95.6,131,95.6,131.1z"/>
			<path fill="#4E8192" d="M96,130.7l-0.1,0.1c0,0-0.1,0-0.1,0l-0.1-0.1c0,0,0-0.1,0-0.1l0.1-0.1c0,0,0.1,0,0.1,0l0.1,0.1
				C96,130.6,96,130.7,96,130.7z"/>
			<path fill="#4E8192" d="M97.4,130.7l-0.1,0.1c0,0-0.1,0-0.1,0l-0.1-0.1c0,0,0-0.1,0-0.1l0.1-0.1c0,0,0.1,0,0.1,0l0.1,0.1
				C97.4,130.6,97.4,130.7,97.4,130.7z"/>
			<path fill="#4E8192" d="M97.7,130.4l-0.1,0.1c0,0-0.1,0-0.1,0l-0.1-0.1c0,0,0-0.1,0-0.1l0.1-0.1c0,0,0.1,0,0.1,0l0.1,0.1
				C97.8,130.3,97.8,130.3,97.7,130.4z"/>
			<path fill="#4E8192" d="M96.7,130.7l-0.1,0.1c0,0-0.1,0-0.1,0l-0.1-0.1c0,0,0-0.1,0-0.1l0.1-0.1c0,0,0.1,0,0.1,0l0.1,0.1
				C96.7,130.6,96.7,130.7,96.7,130.7z"/>
			<path fill="#4E8192" d="M97,130.3l-0.1,0.1c0,0-0.1,0-0.1,0l-0.1-0.1c0,0,0-0.1,0-0.1l0.1-0.1c0,0,0.1,0,0.1,0l0.1,0.1
				C97.1,130.2,97.1,130.3,97,130.3z"/>
			<path fill="#4E8192" d="M96.3,130.3l-0.1,0.1c0,0-0.1,0-0.1,0l-0.1-0.1c0,0,0-0.1,0-0.1l0.1-0.1c0,0,0.1,0,0.1,0l0.1,0.1
				C96.4,130.2,96.4,130.3,96.3,130.3z"/>
			<path fill="#4E8192" d="M96.7,130l-0.1,0.1c0,0-0.1,0-0.1,0l-0.1-0.1c0,0,0-0.1,0-0.1l0.1-0.1c0,0,0.1,0,0.1,0l0.1,0.1
				C96.7,129.9,96.7,130,96.7,130z"/>
			<path fill="#4E8192" d="M96,130l-0.1,0.1c0,0-0.1,0-0.1,0l-0.1-0.1c0,0,0-0.1,0-0.1l0.1-0.1c0,0,0.1,0,0.1,0l0.1,0.1
				C96,129.9,96,130,96,130z"/>
			<path fill="#4E8192" d="M96.3,129.6l-0.1,0.1c0,0-0.1,0-0.1,0l-0.1-0.1c0,0,0-0.1,0-0.1l0.1-0.1c0,0,0.1,0,0.1,0l0.1,0.1
				C96.4,129.5,96.4,129.6,96.3,129.6z"/>
			<path fill="#4E8192" d="M95.6,129.6l-0.1,0.1c0,0-0.1,0-0.1,0l-0.1-0.1c0,0,0-0.1,0-0.1l0.1-0.1c0,0,0.1,0,0.1,0l0.1,0.1
				C95.6,129.5,95.6,129.6,95.6,129.6z"/>
			<path fill="#4E8192" d="M96,129.3l-0.1,0.1c0,0-0.1,0-0.1,0l-0.1-0.1c0,0,0-0.1,0-0.1l0.1-0.1c0,0,0.1,0,0.1,0l0.1,0.1
				C96,129.2,96,129.3,96,129.3z"/>
			<path fill="#4E8192" d="M94.6,130.7l-0.1,0.1c0,0-0.1,0-0.1,0l-0.1-0.1c0,0,0-0.1,0-0.1l0.1-0.1c0,0,0.1,0,0.1,0l0.1,0.1
				C94.6,130.6,94.6,130.7,94.6,130.7z"/>
			<path fill="#4E8192" d="M94.9,130.3l-0.1,0.1c0,0-0.1,0-0.1,0l-0.1-0.1c0,0,0-0.1,0-0.1l0.1-0.1c0,0,0.1,0,0.1,0l0.1,0.1
				C94.9,130.2,94.9,130.3,94.9,130.3z"/>
			<path fill="#4E8192" d="M95.3,130l-0.1,0.1c0,0-0.1,0-0.1,0l-0.1-0.1c0,0,0-0.1,0-0.1l0.1-0.1c0,0,0.1,0,0.1,0l0.1,0.1
				C95.3,129.9,95.3,130,95.3,130z"/>
			<path fill="#4E8192" d="M96.3,128.9l-0.1,0.1c0,0-0.1,0-0.1,0l-0.1-0.1c0,0,0-0.1,0-0.1l0.1-0.1c0,0,0.1,0,0.1,0l0.1,0.1
				C96.4,128.8,96.4,128.9,96.3,128.9z"/>
			<path fill="#4E8192" d="M97,128.2l-0.1,0.1c0,0-0.1,0-0.1,0l-0.1-0.1c0,0,0-0.1,0-0.1l0.1-0.1c0,0,0.1,0,0.1,0l0.1,0.1
				C97.1,128.1,97.1,128.2,97,128.2z"/>
			<path fill="#4E8192" d="M97.4,127.9l-0.1,0.1c0,0-0.1,0-0.1,0l-0.1-0.1c0,0,0-0.1,0-0.1l0.1-0.1c0,0,0.1,0,0.1,0l0.1,0.1
				C97.4,127.8,97.4,127.8,97.4,127.9z"/>
			<path fill="#4E8192" d="M96.7,128.6l-0.1,0.1c0,0-0.1,0-0.1,0l-0.1-0.1c0,0,0-0.1,0-0.1l0.1-0.1c0,0,0.1,0,0.1,0l0.1,0.1
				C96.7,128.5,96.7,128.5,96.7,128.6z"/>
			<path fill="#4E8192" d="M99.1,126.8l-0.1,0.1c0,0-0.1,0-0.1,0l-0.1-0.1c0,0,0-0.1,0-0.1l0.1-0.1c0,0,0.1,0,0.1,0l0.1,0.1
				C99.2,126.7,99.2,126.8,99.1,126.8z"/>
			<path fill="#4E8192" d="M99.5,127.2l-0.1,0.1c0,0-0.1,0-0.1,0l-0.1-0.1c0,0,0-0.1,0-0.1l0.1-0.1c0,0,0.1,0,0.1,0l0.1,0.1
				C99.5,127.1,99.5,127.1,99.5,127.2z"/>
			<path fill="#4E8192" d="M99.9,127.5l-0.1,0.1c0,0-0.1,0-0.1,0l-0.1-0.1c0,0,0-0.1,0-0.1l0.1-0.1c0,0,0.1,0,0.1,0l0.1,0.1
				C99.9,127.4,99.9,127.5,99.9,127.5z"/>
			<path fill="#4E8192" d="M98.8,127.2l-0.1,0.1c0,0-0.1,0-0.1,0l-0.1-0.1c0,0,0-0.1,0-0.1l0.1-0.1c0,0,0.1,0,0.1,0l0.1,0.1
				C98.8,127.1,98.8,127.1,98.8,127.2z"/>
			<path fill="#4E8192" d="M99.1,127.5l-0.1,0.1c0,0-0.1,0-0.1,0l-0.1-0.1c0,0,0-0.1,0-0.1l0.1-0.1c0,0,0.1,0,0.1,0l0.1,0.1
				C99.2,127.4,99.2,127.5,99.1,127.5z"/>
			<path fill="#4E8192" d="M99.5,127.9l-0.1,0.1c0,0-0.1,0-0.1,0l-0.1-0.1c0,0,0-0.1,0-0.1l0.1-0.1c0,0,0.1,0,0.1,0l0.1,0.1
				C99.5,127.8,99.5,127.8,99.5,127.9z"/>
			<path fill="#4E8192" d="M99.9,128.2l-0.1,0.1c0,0-0.1,0-0.1,0l-0.1-0.1c0,0,0-0.1,0-0.1l0.1-0.1c0,0,0.1,0,0.1,0l0.1,0.1
				C99.9,128.1,99.9,128.2,99.9,128.2z"/>
			<path fill="#4E8192" d="M100.2,128.6l-0.1,0.1c0,0-0.1,0-0.1,0l-0.1-0.1c0,0,0-0.1,0-0.1l0.1-0.1c0,0,0.1,0,0.1,0l0.1,0.1
				C100.2,128.5,100.2,128.5,100.2,128.6z"/>
			<path fill="#4E8192" d="M100.6,128.9l-0.1,0.1c0,0-0.1,0-0.1,0l-0.1-0.1c0,0,0-0.1,0-0.1l0.1-0.1c0,0,0.1,0,0.1,0l0.1,0.1
				C100.6,128.8,100.6,128.9,100.6,128.9z"/>
			<path fill="#4E8192" d="M100.2,127.9l-0.1,0.1c0,0-0.1,0-0.1,0l-0.1-0.1c0,0,0-0.1,0-0.1l0.1-0.1c0,0,0.1,0,0.1,0l0.1,0.1
				C100.3,127.8,100.3,127.8,100.2,127.9z"/>
			<path fill="#4E8192" d="M100.6,128.2l-0.1,0.1c0,0-0.1,0-0.1,0l-0.1-0.1c0,0,0-0.1,0-0.1l0.1-0.1c0,0,0.1,0,0.1,0l0.1,0.1
				C100.6,128.1,100.6,128.2,100.6,128.2z"/>
			<path fill="#4E8192" d="M100.9,128.6l-0.1,0.1c0,0-0.1,0-0.1,0l-0.1-0.1c0,0,0-0.1,0-0.1l0.1-0.1c0,0,0.1,0,0.1,0l0.1,0.1
				C101,128.5,101,128.5,100.9,128.6z"/>
			<path fill="#4E8192" d="M100.9,129.3l-0.1,0.1c0,0-0.1,0-0.1,0l-0.1-0.1c0,0,0-0.1,0-0.1l0.1-0.1c0,0,0.1,0,0.1,0l0.1,0.1
				C101,129.2,101,129.3,100.9,129.3z"/>
			<path fill="#4E8192" d="M98.4,126.4c0.2-0.2,0.4,0,0.4,0s-0.2,0.2-0.2,0.2c0,0-0.1,0-0.1,0C98.5,126.6,98.4,126.4,98.4,126.4z"/>
			<path fill="#4E8192" d="M98.4,126.8l-0.1,0.1c0,0-0.1,0-0.1,0l-0.1-0.1c0,0,0-0.1,0-0.1l0.1-0.1c0,0,0.1,0,0.1,0l0.1,0.1
				C98.5,126.7,98.5,126.8,98.4,126.8z"/>
			<path fill="#4E8192" d="M99.7,126.4l-0.1,0.1c0,0-0.1,0-0.1,0l-0.1-0.1c0,0,0-0.1,0-0.1l0.1-0.1c0,0,0.1,0,0.1,0l0.1,0.1
				C99.7,126.3,99.7,126.3,99.7,126.4z"/>
			<path fill="#4E8192" d="M100,126.7l-0.1,0.1c0,0-0.1,0-0.1,0l-0.1-0.1c0,0,0-0.1,0-0.1l0.1-0.1c0,0,0.1,0,0.1,0l0.1,0.1
				C100.1,126.6,100.1,126.7,100,126.7z"/>
			<path fill="#4E8192" d="M100.4,127.1l-0.1,0.1c0,0-0.1,0-0.1,0l-0.1-0.1c0,0,0-0.1,0-0.1l0.1-0.1c0,0,0.1,0,0.1,0l0.1,0.1
				C100.4,127,100.4,127,100.4,127.1z"/>
			<path fill="#4E8192" d="M100.7,127.4l-0.1,0.1c0,0-0.1,0-0.1,0l-0.1-0.1c0,0,0-0.1,0-0.1l0.1-0.1c0,0,0.1,0,0.1,0l0.1,0.1
				C100.8,127.3,100.8,127.4,100.7,127.4z"/>
			<path fill="#4E8192" d="M101.1,127.8l-0.1,0.1c0,0-0.1,0-0.1,0l-0.1-0.1c0,0,0-0.1,0-0.1l0.1-0.1c0,0,0.1,0,0.1,0l0.1,0.1
				C101.1,127.7,101.1,127.8,101.1,127.8z"/>
			<path fill="#4E8192" d="M101.4,128.1l-0.1,0.1c0,0-0.1,0-0.1,0l-0.1-0.1c0,0,0-0.1,0-0.1l0.1-0.1c0,0,0.1,0,0.1,0l0.1,0.1
				C101.5,128,101.5,128.1,101.4,128.1z"/>
			<path fill="#4E8192" d="M100,126l-0.1,0.1c0,0-0.1,0-0.1,0l-0.1-0.1c0,0,0-0.1,0-0.1l0.1-0.1c0,0,0.1,0,0.1,0l0.1,0.1
				C100.1,125.9,100.1,126,100,126z"/>
			<path fill="#4E8192" d="M100.4,126.4l-0.1,0.1c0,0-0.1,0-0.1,0l-0.1-0.1c0,0,0-0.1,0-0.1l0.1-0.1c0,0,0.1,0,0.1,0l0.1,0.1
				C100.4,126.3,100.4,126.3,100.4,126.4z"/>
			<path fill="#4E8192" d="M100.7,126.7l-0.1,0.1c0,0-0.1,0-0.1,0l-0.1-0.1c0,0,0-0.1,0-0.1l0.1-0.1c0,0,0.1,0,0.1,0l0.1,0.1
				C100.8,126.6,100.8,126.7,100.7,126.7z"/>
			<path fill="#4E8192" d="M101.1,127.1l-0.1,0.1c0,0-0.1,0-0.1,0l-0.1-0.1c0,0,0-0.1,0-0.1l0.1-0.1c0,0,0.1,0,0.1,0l0.1,0.1
				C101.1,127,101.1,127,101.1,127.1z"/>
			<path fill="#4E8192" d="M101.4,127.4l-0.1,0.1c0,0-0.1,0-0.1,0l-0.1-0.1c0,0,0-0.1,0-0.1l0.1-0.1c0,0,0.1,0,0.1,0l0.1,0.1
				C101.5,127.3,101.5,127.4,101.4,127.4z"/>
			<path fill="#4E8192" d="M101.8,127.8l-0.1,0.1c0,0-0.1,0-0.1,0l-0.1-0.1c0,0,0-0.1,0-0.1l0.1-0.1c0,0,0.1,0,0.1,0l0.1,0.1
				C101.8,127.7,101.8,127.7,101.8,127.8z"/>
			<path fill="#7C4444" d="M99.6,132c0,0-0.2-0.2-0.2-0.2c0,0-0.1,0-0.1,0c0.1-0.1-0.2,0.2-0.2,0.2S99.3,132.3,99.6,132z"/>
			<path fill="#7C4444" d="M99.6,131.4c0,0-0.2,0.2-0.2,0.2c0,0,0,0.1,0,0.1c-0.1-0.1,0.2,0.2,0.2,0.2S99.9,131.7,99.6,131.4z"/>
			<path fill="#7C4444" d="M100.6,131.7c0,0-0.2-0.2-0.2-0.2c0,0-0.1,0-0.1,0c0.1-0.1-0.2,0.2-0.2,0.2S100.4,132,100.6,131.7z"/>
			<path fill="#7C4444" d="M100.7,131.1c0,0-0.2,0.2-0.2,0.2c0,0,0,0.1,0,0.1c-0.1-0.1,0.2,0.2,0.2,0.2S101,131.3,100.7,131.1z"/>
			<path fill="#7C4444" d="M101.7,131.3c0,0-0.2-0.2-0.2-0.2c0,0-0.1,0-0.1,0c0.1-0.1-0.2,0.2-0.2,0.2S101.4,131.6,101.7,131.3z"/>
			<path fill="#7C4444" d="M101.8,130.7c0,0-0.2,0.2-0.2,0.2c0,0,0,0.1,0,0.1c-0.1-0.1,0.2,0.2,0.2,0.2S102,131,101.8,130.7z"/>
			<path fill="#7C4444" d="M98.5,132.4c0,0-0.2-0.2-0.2-0.2c0,0-0.1,0-0.1,0c0.1-0.1-0.2,0.2-0.2,0.2S98.2,132.7,98.5,132.4z"/>
			<path fill="#7C4444" d="M98.6,131.8c0,0-0.2,0.2-0.2,0.2c0,0,0,0.1,0,0.1c-0.1-0.1,0.2,0.2,0.2,0.2S98.8,132,98.6,131.8z"/>
			<path fill="#7C4444" d="M99.1,131.8l-0.1,0.1c0,0-0.1,0-0.1,0l-0.1-0.1c0,0,0-0.1,0-0.1l0.1-0.1c0,0,0.1,0,0.1,0l0.1,0.1
				C99.2,131.7,99.2,131.7,99.1,131.8z"/>
			<path fill="#7C4444" d="M99.5,131.4l-0.1,0.1c0,0-0.1,0-0.1,0l-0.1-0.1c0,0,0-0.1,0-0.1l0.1-0.1c0,0,0.1,0,0.1,0l0.1,0.1
				C99.5,131.3,99.5,131.4,99.5,131.4z"/>
			<path fill="#7C4444" d="M99.8,131.1l-0.1,0.1c0,0-0.1,0-0.1,0l-0.1-0.1c0,0,0-0.1,0-0.1l0.1-0.1c0,0,0.1,0,0.1,0l0.1,0.1
				C99.9,131,99.9,131,99.8,131.1z"/>
			<path fill="#7C4444" d="M100.2,130.7l-0.1,0.1c0,0-0.1,0-0.1,0l-0.1-0.1c0,0,0-0.1,0-0.1l0.1-0.1c0,0,0.1,0,0.1,0l0.1,0.1
				C100.2,130.6,100.2,130.7,100.2,130.7z"/>
			<path fill="#7C4444" d="M100.2,131.4l-0.1,0.1c0,0-0.1,0-0.1,0l-0.1-0.1c0,0,0-0.1,0-0.1l0.1-0.1c0,0,0.1,0,0.1,0l0.1,0.1
				C100.2,131.3,100.2,131.4,100.2,131.4z"/>
			<path fill="#7C4444" d="M100.6,131.1l-0.1,0.1c0,0-0.1,0-0.1,0l-0.1-0.1c0,0,0-0.1,0-0.1l0.1-0.1c0,0,0.1,0,0.1,0l0.1,0.1
				C100.6,131,100.6,131,100.6,131.1z"/>
			<path fill="#7C4444" d="M99.2,131c-0.2-0.2-0.4,0-0.4,0s0.2,0.2,0.2,0.2c0,0,0.1,0,0.1,0C99,131.2,99.2,131,99.2,131z"/>
			<path fill="#4E8192" d="M98.8,130.9c0-0.1,0.1-0.1,0.1-0.1c0,0,0.1,0,0.1,0c0,0,0.2,0.2,0.2,0.2C99,130.8,98.8,130.9,98.8,130.9z
				"/>
			<path fill="#7C4444" d="M99,130.5c-0.2-0.2,0-0.4,0-0.4s0.2,0.2,0.2,0.2c0,0,0,0.1,0,0.1C99.2,130.3,99,130.5,99,130.5z"/>
			<path fill="#4E8192" d="M98.9,130.1c-0.1,0-0.1,0.1-0.1,0.1c0,0,0,0.1,0,0.1c0,0,0.2,0.2,0.2,0.2
				C98.7,130.3,98.8,130.2,98.9,130.1z"/>
			<path fill="#7C4444" d="M99.5,130c-0.2-0.2-0.4,0-0.4,0s0.2,0.2,0.2,0.2c0,0,0.1,0,0.1,0C99.4,130.2,99.5,130,99.5,130z"/>
			<path fill="#4E8192" d="M99.1,129.9c0-0.1,0.1-0.1,0.1-0.1c0,0,0.1,0,0.1,0c0,0,0.2,0.2,0.2,0.2
				C99.3,129.7,99.2,129.8,99.1,129.9z"/>
			<path fill="#7C4444" d="M99.4,129.4c-0.2-0.2,0-0.4,0-0.4s0.2,0.2,0.2,0.2c0,0,0,0.1,0,0.1C99.5,129.3,99.4,129.4,99.4,129.4z"/>
			<path fill="#4E8192" d="M99.2,129c-0.1,0-0.1,0.1-0.1,0.1c0,0,0,0.1,0,0.1c0,0,0.2,0.2,0.2,0.2C99.1,129.2,99.2,129.1,99.2,129z"
				/>
			<path fill="#7C4444" d="M99.9,128.9c-0.2-0.2-0.4,0-0.4,0s0.2,0.2,0.2,0.2c0,0,0.1,0,0.1,0C99.7,129.1,99.9,128.9,99.9,128.9z"/>
			<path fill="#4E8192" d="M99.5,128.8c0-0.1,0.1-0.1,0.1-0.1c0,0,0.1,0,0.1,0c0,0,0.2,0.2,0.2,0.2
				C99.7,128.6,99.5,128.7,99.5,128.8z"/>
			<path fill="#7C4444" d="M97,129.5c-0.2,0.2-0.4,0-0.4,0s0.2-0.2,0.2-0.2c0,0,0.1,0,0.1,0C96.9,129.4,97,129.5,97,129.5z"/>
			<path fill="#4E8192" d="M96.6,129.7c0,0.1,0.1,0.1,0.1,0.1c0,0,0.1,0,0.1,0c0,0,0.2-0.2,0.2-0.2
				C96.8,129.8,96.7,129.7,96.6,129.7z"/>
			<path fill="#7C4444" d="M96.5,129c-0.2,0.2,0,0.4,0,0.4s0.2-0.2,0.2-0.2c0,0,0-0.1,0-0.1C96.7,129.2,96.5,129,96.5,129z"/>
			<path fill="#4E8192" d="M96.4,129.4c-0.1,0-0.1-0.1-0.1-0.1c0,0,0-0.1,0-0.1c0,0,0.2-0.2,0.2-0.2
				C96.2,129.2,96.3,129.4,96.4,129.4z"/>
			<path fill="#7C4444" d="M97.4,129.3l-0.1,0.1c0,0-0.1,0-0.1,0l-0.1-0.1c0,0,0-0.1,0-0.1l0.1-0.1c0,0,0.1,0,0.1,0l0.1,0.1
				C97.4,129.2,97.4,129.3,97.4,129.3z"/>
			<path fill="#7C4444" d="M99.5,130.7l-0.1,0.1c0,0-0.1,0-0.1,0l-0.1-0.1c0,0,0-0.1,0-0.1l0.1-0.1c0,0,0.1,0,0.1,0l0.1,0.1
				C99.5,130.6,99.5,130.7,99.5,130.7z"/>
			<path fill="#7C4444" d="M99.8,130.4l-0.1,0.1c0,0-0.1,0-0.1,0l-0.1-0.1c0,0,0-0.1,0-0.1l0.1-0.1c0,0,0.1,0,0.1,0l0.1,0.1
				C99.9,130.3,99.9,130.3,99.8,130.4z"/>
			<path fill="#7C4444" d="M100.6,130.3l-0.1,0.1c0,0-0.1,0-0.1,0l-0.1-0.1c0,0,0-0.1,0-0.1l0.1-0.1c0,0,0.1,0,0.1,0l0.1,0.1
				C100.6,130.2,100.6,130.3,100.6,130.3z"/>
			<path fill="#7C4444" d="M100.9,130l-0.1,0.1c0,0-0.1,0-0.1,0l-0.1-0.1c0,0,0-0.1,0-0.1l0.1-0.1c0,0,0.1,0,0.1,0l0.1,0.1
				C101,129.9,101,129.9,100.9,130z"/>
			<path fill="#7C4444" d="M100.9,130.7l-0.1,0.1c0,0-0.1,0-0.1,0l-0.1-0.1c0,0,0-0.1,0-0.1l0.1-0.1c0,0,0.1,0,0.1,0l0.1,0.1
				C101,130.6,101,130.7,100.9,130.7z"/>
			<path fill="#7C4444" d="M101.3,130.3l-0.1,0.1c0,0-0.1,0-0.1,0l-0.1-0.1c0,0,0-0.1,0-0.1l0.1-0.1c0,0,0.1,0,0.1,0l0.1,0.1
				C101.3,130.2,101.3,130.3,101.3,130.3z"/>
			<path fill="#7C4444" d="M101.3,131.1l-0.1,0.1c0,0-0.1,0-0.1,0l-0.1-0.1c0,0,0-0.1,0-0.1l0.1-0.1c0,0,0.1,0,0.1,0l0.1,0.1
				C101.3,131,101.3,131,101.3,131.1z"/>
			<path fill="#7C4444" d="M101.6,130.7l-0.1,0.1c0,0-0.1,0-0.1,0l-0.1-0.1c0,0,0-0.1,0-0.1l0.1-0.1c0,0,0.1,0,0.1,0l0.1,0.1
				C101.7,130.6,101.7,130.7,101.6,130.7z"/>
			<path fill="#7C4444" d="M100.2,130l-0.1,0.1c0,0-0.1,0-0.1,0l-0.1-0.1c0,0,0-0.1,0-0.1l0.1-0.1c0,0,0.1,0,0.1,0l0.1,0.1
				C100.2,129.9,100.2,130,100.2,130z"/>
			<path fill="#7C4444" d="M100.6,129.6l-0.1,0.1c0,0-0.1,0-0.1,0l-0.1-0.1c0,0,0-0.1,0-0.1l0.1-0.1c0,0,0.1,0,0.1,0l0.1,0.1
				C100.6,129.5,100.6,129.6,100.6,129.6z"/>
			<path fill="#7C4444" d="M99.9,129.6l-0.1,0.1c0,0-0.1,0-0.1,0l-0.1-0.1c0,0,0-0.1,0-0.1l0.1-0.1c0,0,0.1,0,0.1,0l0.1,0.1
				C99.9,129.5,99.9,129.6,99.9,129.6z"/>
			<path fill="#7C4444" d="M100.2,129.3l-0.1,0.1c0,0-0.1,0-0.1,0l-0.1-0.1c0,0,0-0.1,0-0.1l0.1-0.1c0,0,0.1,0,0.1,0l0.1,0.1
				C100.3,129.2,100.3,129.3,100.2,129.3z"/>
			<path fill="#7C4444" d="M97.7,128.9l-0.1,0.1c0,0-0.1,0-0.1,0l-0.1-0.1c0,0,0-0.1,0-0.1l0.1-0.1c0,0,0.1,0,0.1,0l0.1,0.1
				C97.8,128.8,97.8,128.9,97.7,128.9z"/>
			<path fill="#7C4444" d="M98.1,128.6l-0.1,0.1c0,0-0.1,0-0.1,0l-0.1-0.1c0,0,0-0.1,0-0.1l0.1-0.1c0,0,0.1,0,0.1,0l0.1,0.1
				C98.1,128.5,98.1,128.5,98.1,128.6z"/>
			<path fill="#7C4444" d="M98.4,128.2l-0.1,0.1c0,0-0.1,0-0.1,0l-0.1-0.1c0,0,0-0.1,0-0.1l0.1-0.1c0,0,0.1,0,0.1,0l0.1,0.1
				C98.5,128.1,98.5,128.2,98.4,128.2z"/>
			<path fill="#7C4444" d="M97,129l-0.1,0.1c0,0-0.1,0-0.1,0l-0.1-0.1c0,0,0-0.1,0-0.1l0.1-0.1c0,0,0.1,0,0.1,0l0.1,0.1
				C97.1,128.9,97.1,128.9,97,129z"/>
			<path fill="#7C4444" d="M97.4,128.6l-0.1,0.1c0,0-0.1,0-0.1,0l-0.1-0.1c0,0,0-0.1,0-0.1l0.1-0.1c0,0,0.1,0,0.1,0l0.1,0.1
				C97.4,128.5,97.4,128.6,97.4,128.6z"/>
			<path fill="#7C4444" d="M97.7,128.2l-0.1,0.1c0,0-0.1,0-0.1,0l-0.1-0.1c0,0,0-0.1,0-0.1l0.1-0.1c0,0,0.1,0,0.1,0l0.1,0.1
				C97.8,128.1,97.8,128.2,97.7,128.2z"/>
			<path fill="#7C4444" d="M98.1,127.9L98,128c0,0-0.1,0-0.1,0l-0.1-0.1c0,0,0-0.1,0-0.1l0.1-0.1c0,0,0.1,0,0.1,0l0.1,0.1
				C98.1,127.8,98.1,127.8,98.1,127.9z"/>
			<path fill="#7C4444" d="M98.4,127.5l-0.1,0.1c0,0-0.1,0-0.1,0l-0.1-0.1c0,0,0-0.1,0-0.1l0.1-0.1c0,0,0.1,0,0.1,0l0.1,0.1
				C98.5,127.4,98.5,127.5,98.4,127.5z"/>
			<path fill="#7C4444" d="M97.7,127.5l-0.1,0.1c0,0-0.1,0-0.1,0l-0.1-0.1c0,0,0-0.1,0-0.1l0.1-0.1c0,0,0.1,0,0.1,0l0.1,0.1
				C97.8,127.4,97.8,127.5,97.7,127.5z"/>
			<path fill="#7C4444" d="M98.1,127.2l-0.1,0.1c0,0-0.1,0-0.1,0l-0.1-0.1c0,0,0-0.1,0-0.1l0.1-0.1c0,0,0.1,0,0.1,0l0.1,0.1
				C98.1,127.1,98.1,127.1,98.1,127.2z"/>
			<path fill="#7C4444" d="M97.4,127.2l-0.1,0.1c0,0-0.1,0-0.1,0l-0.1-0.1c0,0,0-0.1,0-0.1l0.1-0.1c0,0,0.1,0,0.1,0l0.1,0.1
				C97.4,127.1,97.4,127.1,97.4,127.2z"/>
			<path fill="#7C4444" d="M97.7,126.8l-0.1,0.1c0,0-0.1,0-0.1,0l-0.1-0.1c0,0,0-0.1,0-0.1l0.1-0.1c0,0,0.1,0,0.1,0l0.1,0.1
				C97.8,126.7,97.8,126.8,97.7,126.8z"/>
			<path fill="#7C4444" d="M97,126.8l-0.1,0.1c0,0-0.1,0-0.1,0l-0.1-0.1c0,0,0-0.1,0-0.1l0.1-0.1c0,0,0.1,0,0.1,0l0.1,0.1
				C97.1,126.7,97.1,126.8,97,126.8z"/>
			<path fill="#7C4444" d="M97,127.5l-0.1,0.1c0,0-0.1,0-0.1,0l-0.1-0.1c0,0,0-0.1,0-0.1l0.1-0.1c0,0,0.1,0,0.1,0l0.1,0.1
				C97.1,127.4,97.1,127.5,97,127.5z"/>
			<path fill="#7C4444" d="M96.7,127.2l-0.1,0.1c0,0-0.1,0-0.1,0l-0.1-0.1c0,0,0-0.1,0-0.1l0.1-0.1c0,0,0.1,0,0.1,0l0.1,0.1
				C96.7,127.1,96.7,127.2,96.7,127.2z"/>
			<path fill="#7C4444" d="M96.7,127.9l-0.1,0.1c0,0-0.1,0-0.1,0l-0.1-0.1c0,0,0-0.1,0-0.1l0.1-0.1c0,0,0.1,0,0.1,0l0.1,0.1
				C96.7,127.8,96.7,127.9,96.7,127.9z"/>
			<path fill="#7C4444" d="M96.3,127.5l-0.1,0.1c0,0-0.1,0-0.1,0l-0.1-0.1c0,0,0-0.1,0-0.1l0.1-0.1c0,0,0.1,0,0.1,0l0.1,0.1
				C96.4,127.4,96.4,127.5,96.3,127.5z"/>
			<path fill="#7C4444" d="M96.3,128.2l-0.1,0.1c0,0-0.1,0-0.1,0l-0.1-0.1c0,0,0-0.1,0-0.1l0.1-0.1c0,0,0.1,0,0.1,0l0.1,0.1
				C96.4,128.1,96.4,128.2,96.3,128.2z"/>
			<path fill="#7C4444" d="M96,127.9l-0.1,0.1c0,0-0.1,0-0.1,0l-0.1-0.1c0,0,0-0.1,0-0.1l0.1-0.1c0,0,0.1,0,0.1,0l0.1,0.1
				C96,127.8,96,127.9,96,127.9z"/>
			<path fill="#7C4444" d="M96,128.6l-0.1,0.1c0,0-0.1,0-0.1,0l-0.1-0.1c0,0,0-0.1,0-0.1l0.1-0.1c0,0,0.1,0,0.1,0l0.1,0.1
				C96,128.5,96,128.6,96,128.6z"/>
			<path fill="#7C4444" d="M95.6,128.3l-0.1,0.1c0,0-0.1,0-0.1,0l-0.1-0.1c0,0,0-0.1,0-0.1l0.1-0.1c0,0,0.1,0,0.1,0l0.1,0.1
				C95.7,128.2,95.7,128.2,95.6,128.3z"/>
			<path fill="#7C4444" d="M95.6,129l-0.1,0.1c0,0-0.1,0-0.1,0l-0.1-0.1c0,0,0-0.1,0-0.1l0.1-0.1c0,0,0.1,0,0.1,0l0.1,0.1
				C95.7,128.9,95.7,128.9,95.6,129z"/>
			<path fill="#7C4444" d="M95.3,128.6l-0.1,0.1c0,0-0.1,0-0.1,0l-0.1-0.1c0,0,0-0.1,0-0.1l0.1-0.1c0,0,0.1,0,0.1,0l0.1,0.1
				C95.3,128.5,95.3,128.6,95.3,128.6z"/>
			<path fill="#7C4444" d="M95.3,129.3l-0.1,0.1c0,0-0.1,0-0.1,0l-0.1-0.1c0,0,0-0.1,0-0.1L95,129c0,0,0.1,0,0.1,0l0.1,0.1
				C95.3,129.2,95.3,129.3,95.3,129.3z"/>
			<path fill="#7C4444" d="M96.2,126.3l0.1,0.1c0,0,0.1,0,0.1,0l0.1-0.1c0,0,0-0.1,0-0.1l-0.1-0.1c0,0-0.1,0-0.1,0l-0.1,0.1
				C96.1,126.2,96.1,126.3,96.2,126.3z"/>
			<path fill="#7C4444" d="M95.8,126.7l0.1,0.1c0,0,0.1,0,0.1,0l0.1-0.1c0,0,0-0.1,0-0.1l-0.1-0.1c0,0-0.1,0-0.1,0l-0.1,0.1
				C95.8,126.6,95.8,126.6,95.8,126.7z"/>
			<path fill="#7C4444" d="M95.4,127l0.1,0.1c0,0,0.1,0,0.1,0l0.1-0.1c0,0,0-0.1,0-0.1l-0.1-0.1c0,0-0.1,0-0.1,0l-0.1,0.1
				C95.4,126.9,95.4,127,95.4,127z"/>
			<path fill="#7C4444" d="M95.1,127.4l0.1,0.1c0,0,0.1,0,0.1,0l0.1-0.1c0,0,0-0.1,0-0.1l-0.1-0.1c0,0-0.1,0-0.1,0l-0.1,0.1
				C95,127.3,95,127.4,95.1,127.4z"/>
			<path fill="#7C4444" d="M94.7,127.7l0.1,0.1c0,0,0.1,0,0.1,0l0.1-0.1c0,0,0-0.1,0-0.1l-0.1-0.1c0,0-0.1,0-0.1,0l-0.1,0.1
				C94.7,127.6,94.7,127.7,94.7,127.7z"/>
			<path fill="#7C4444" d="M94.4,128.1l0.1,0.1c0,0,0.1,0,0.1,0l0.1-0.1c0,0,0-0.1,0-0.1l-0.1-0.1c0,0-0.1,0-0.1,0l-0.1,0.1
				C94.3,128,94.3,128.1,94.4,128.1z"/>
			<path fill="#7C4444" d="M95.8,126l0.1,0.1c0,0,0.1,0,0.1,0l0.1-0.1c0,0,0-0.1,0-0.1l-0.1-0.1c0,0-0.1,0-0.1,0l-0.1,0.1
				C95.8,125.9,95.8,125.9,95.8,126z"/>
			<path fill="#7C4444" d="M95.4,126.3l0.1,0.1c0,0,0.1,0,0.1,0l0.1-0.1c0,0,0-0.1,0-0.1l-0.1-0.1c0,0-0.1,0-0.1,0l-0.1,0.1
				C95.4,126.2,95.4,126.3,95.4,126.3z"/>
			<path fill="#7C4444" d="M95.1,126.7l0.1,0.1c0,0,0.1,0,0.1,0l0.1-0.1c0,0,0-0.1,0-0.1l-0.1-0.1c0,0-0.1,0-0.1,0l-0.1,0.1
				C95.1,126.6,95.1,126.6,95.1,126.7z"/>
			<path fill="#7C4444" d="M94.7,127l0.1,0.1c0,0,0.1,0,0.1,0l0.1-0.1c0,0,0-0.1,0-0.1l-0.1-0.1c0,0-0.1,0-0.1,0l-0.1,0.1
				C94.7,126.9,94.7,127,94.7,127z"/>
			<path fill="#7C4444" d="M94.4,127.4l0.1,0.1c0,0,0.1,0,0.1,0l0.1-0.1c0,0,0-0.1,0-0.1l-0.1-0.1c0,0-0.1,0-0.1,0l-0.1,0.1
				C94.3,127.3,94.3,127.3,94.4,127.4z"/>
			<path fill="#7C4444" d="M94,127.7l0.1,0.1c0,0,0.1,0,0.1,0l0.1-0.1c0,0,0-0.1,0-0.1l-0.1-0.1c0,0-0.1,0-0.1,0l-0.1,0.1
				C94,127.6,94,127.7,94,127.7z"/>
			<path opacity="0.9" fill="#7C4444" d="M101.2,133v1h1c0,0,1,0,1-1c0-1,0-1,0-1h-1v0.8c0,0,0,0.2-0.2,0.2
				C101.8,133,101.2,133,101.2,133z"/>
			<path opacity="0.85" fill="#4E8192" d="M94.3,133v1h-1c0,0-1,0-1-1c0-1,0-1,0-1h1v0.8c0,0,0,0.2,0.2,0.2
				C93.8,133,94.3,133,94.3,133z"/>
			<path opacity="0.85" fill="#4E8192" d="M101.2,125.1v-1h1c0,0,1,0,1,1c0,1,0,1,0,1h-1v-0.8c0,0,0-0.2-0.2-0.2
				C101.8,125.1,101.2,125.1,101.2,125.1z"/>
			<path opacity="0.9" fill="#7C4444" d="M94.3,125.1v-1h-1c0,0-1,0-1,1c0,1,0,1,0,1h1v-0.8c0,0,0-0.2,0.2-0.2
				S94.3,125.1,94.3,125.1z"/>
			<path fill="#4E8192" d="M98.8,130.7l-0.1,0.1c0,0-0.1,0-0.1,0l-0.1-0.1c0,0,0-0.1,0-0.1l0.1-0.1c0,0,0.1,0,0.1,0l0.1,0.1
				C98.8,130.6,98.8,130.7,98.8,130.7z"/>
			<path fill="#4E8192" d="M94.9,131.1l-0.1,0.1c0,0-0.1,0-0.1,0l-0.1-0.1c0,0,0-0.1,0-0.1l0.1-0.1c0,0,0.1,0,0.1,0l0.1,0.1
				C94.9,131,94.9,131,94.9,131.1z"/>
			<path fill="#4E8192" d="M95.3,130.7l-0.1,0.1c0,0-0.1,0-0.1,0l-0.1-0.1c0,0,0-0.1,0-0.1l0.1-0.1c0,0,0.1,0,0.1,0l0.1,0.1
				C95.3,130.6,95.3,130.7,95.3,130.7z"/>
			<path fill="#4E8192" d="M95.6,130.4l-0.1,0.1c0,0-0.1,0-0.1,0l-0.1-0.1c0,0,0-0.1,0-0.1l0.1-0.1c0,0,0.1,0,0.1,0l0.1,0.1
				C95.6,130.3,95.6,130.3,95.6,130.4z"/>
			<path fill="#3A3B4C" d="M107.6,127.1h0.7v4.1c0,0.7-0.5,1-1.1,1c-0.7,0-1-0.4-1-0.9c0,0,0-0.2,0.1-0.4c0.2,0,0.4,0,0.6,0
				c0,0.1-0.1,0.2-0.1,0.3c0,0.3,0.2,0.4,0.4,0.4c0.2,0,0.4-0.1,0.4-0.4V127.1z M107.5,126.4c0,0.3,0.2,0.5,0.5,0.5
				c0.3,0,0.5-0.2,0.5-0.5s-0.2-0.5-0.5-0.5C107.7,125.9,107.5,126.1,107.5,126.4z"/>
			<g>
				<path fill="#3A3B4C" d="M111.4,130.2c-0.1,0.2-0.3,0.3-0.5,0.4c-0.2,0.1-0.4,0.1-0.6,0.1c-0.1,0-0.3,0-0.4-0.1
					c-0.1,0-0.3-0.1-0.4-0.2c-0.1-0.1-0.2-0.2-0.3-0.3c-0.1-0.1-0.1-0.3-0.1-0.5c0-0.3,0.1-0.6,0.4-0.8c0.2-0.2,0.6-0.3,1-0.3
					c0.1,0,0.2,0,0.2,0c0.1,0,0.2,0,0.2,0c0.1,0,0.1,0,0.2,0c0.1,0,0.1,0,0.1,0v-0.1c0-0.2-0.1-0.4-0.2-0.5
					c-0.1-0.1-0.3-0.2-0.6-0.2c-0.2,0-0.4,0-0.6,0.1c-0.1,0.1-0.3,0.1-0.4,0.2l-0.3-0.4c0.1,0,0.1-0.1,0.2-0.1
					c0.1,0,0.2-0.1,0.3-0.1c0.1,0,0.2-0.1,0.4-0.1c0.1,0,0.3,0,0.5,0c0.4,0,0.7,0.1,1,0.3c0.2,0.2,0.4,0.5,0.4,0.9v1.9
					c0,0.1,0,0.2,0,0.3h-0.6L111.4,130.2z M111.4,129.1c0,0-0.1,0-0.1,0c-0.1,0-0.1,0-0.2,0c-0.1,0-0.1,0-0.2,0c-0.1,0-0.2,0-0.2,0
					c-0.2,0-0.3,0-0.4,0.1c-0.1,0-0.2,0.1-0.3,0.2c-0.1,0.1-0.1,0.1-0.1,0.2c0,0.1,0,0.1,0,0.2c0,0.2,0.1,0.3,0.2,0.4
					c0.1,0.1,0.3,0.1,0.5,0.1c0.1,0,0.2,0,0.3-0.1c0.1,0,0.2-0.1,0.3-0.2c0.1-0.1,0.1-0.1,0.2-0.2c0.1-0.1,0.1-0.2,0.1-0.3V129.1z"
					/>
				<path fill="#3A3B4C" d="M113.1,127.9h-0.6v-0.5h0.6v-1.1h0.6v1.1h0.9v0.5h-0.9v1.6c0,0.3,0,0.4,0.1,0.5c0.1,0.1,0.2,0.1,0.3,0.1
					c0.1,0,0.2,0,0.3-0.1c0.1,0,0.2-0.1,0.2-0.2l0.3,0.4c-0.1,0.1-0.3,0.2-0.4,0.3c-0.1,0.1-0.3,0.1-0.5,0.1c-0.3,0-0.6-0.1-0.8-0.3
					c-0.2-0.2-0.2-0.5-0.2-0.9V127.9z"/>
				<path fill="#3A3B4C" d="M117.5,130.2c-0.1,0.2-0.3,0.3-0.5,0.4c-0.2,0.1-0.4,0.1-0.6,0.1c-0.1,0-0.3,0-0.4-0.1
					c-0.1,0-0.3-0.1-0.4-0.2c-0.1-0.1-0.2-0.2-0.3-0.3c-0.1-0.1-0.1-0.3-0.1-0.5c0-0.3,0.1-0.6,0.4-0.8c0.2-0.2,0.6-0.3,1-0.3
					c0.1,0,0.2,0,0.2,0c0.1,0,0.2,0,0.2,0c0.1,0,0.1,0,0.2,0c0.1,0,0.1,0,0.1,0v-0.1c0-0.2-0.1-0.4-0.2-0.5
					c-0.1-0.1-0.3-0.2-0.6-0.2c-0.2,0-0.4,0-0.6,0.1c-0.1,0.1-0.3,0.1-0.4,0.2l-0.3-0.4c0.1,0,0.1-0.1,0.2-0.1
					c0.1,0,0.2-0.1,0.3-0.1c0.1,0,0.2-0.1,0.4-0.1c0.1,0,0.3,0,0.5,0c0.4,0,0.7,0.1,1,0.3c0.2,0.2,0.4,0.5,0.4,0.9v1.9
					c0,0.1,0,0.2,0,0.3h-0.6L117.5,130.2z M117.5,129.1c0,0-0.1,0-0.1,0c-0.1,0-0.1,0-0.2,0c-0.1,0-0.1,0-0.2,0c-0.1,0-0.2,0-0.2,0
					c-0.2,0-0.3,0-0.4,0.1c-0.1,0-0.2,0.1-0.3,0.2c-0.1,0.1-0.1,0.1-0.1,0.2c0,0.1,0,0.1,0,0.2c0,0.2,0.1,0.3,0.2,0.4
					c0.1,0.1,0.3,0.1,0.5,0.1c0.1,0,0.2,0,0.3-0.1c0.1,0,0.2-0.1,0.3-0.2c0.1-0.1,0.1-0.1,0.2-0.2c0.1-0.1,0.1-0.2,0.1-0.3V129.1z"
					/>
			</g>
			<path fill="#7C4444" d="M120.6,130.6v-2.9c0-0.1,0-0.2,0-0.3h0.6l0,0.5c0-0.1,0.1-0.1,0.1-0.2c0.1-0.1,0.1-0.1,0.2-0.2
				c0.1-0.1,0.2-0.1,0.3-0.1c0.1,0,0.2-0.1,0.4-0.1c0.1,0,0.1,0,0.2,0c0.1,0,0.1,0,0.2,0l-0.1,0.6c-0.1,0-0.2,0-0.3,0
				c-0.1,0-0.3,0-0.4,0.1c-0.1,0.1-0.2,0.1-0.3,0.2c-0.1,0.1-0.1,0.2-0.2,0.3c0,0.1-0.1,0.2-0.1,0.4v1.7H120.6z"/>
			<path fill="#7C4444" d="M123.1,127.3h0.6v1.9c0,0.3,0.1,0.5,0.2,0.7c0.1,0.1,0.3,0.2,0.5,0.2c0.2,0,0.3,0,0.4-0.1
				c0.1-0.1,0.2-0.2,0.3-0.3c0.1-0.1,0.1-0.3,0.2-0.4c0-0.2,0-0.3,0-0.5v-1.5h0.6v2.9c0,0.1,0,0.2,0,0.3h-0.6l0-0.5
				c0,0.1-0.1,0.1-0.2,0.2c-0.1,0.1-0.1,0.1-0.2,0.2c-0.1,0.1-0.2,0.1-0.3,0.1c-0.1,0-0.2,0.1-0.4,0.1c-0.4,0-0.7-0.1-0.9-0.4
				c-0.2-0.2-0.3-0.6-0.3-1V127.3z"/>
		</g>
	</g>
</g>
<g>
	<path fill="#E0AA46" d="M99.2,193.3v5c0,0-1.8,2.7-6.8,2.7c-5,0-7.3-1.7-7.3-1.7l-0.2-6c0,1.8,3.2,3.3,7.1,3.3
		C95.9,196.6,99.1,195.1,99.2,193.3L99.2,193.3z"/>
	<path fill="#E0AA46" d="M98,193c0,1.3-2.7,2.4-5.9,2.4c-3.3,0-5.9-1.1-5.9-2.4c0-1.3,2.7-2.4,5.9-2.4C95.3,190.7,98,191.7,98,193z"
		/>
	<path fill="#E9C947" d="M84.8,193.3c0-1.8,3.2-3.3,7.1-3.3c3.9,0,7.1,1.5,7.1,3.3c0,1.8-3.2,3.3-7.1,3.3
		C88,196.6,84.8,195.1,84.8,193.3z M92,190.7c-3.3,0-5.9,1.1-5.9,2.4c0,1.3,2.7,2.4,5.9,2.4c3.3,0,5.9-1.1,5.9-2.4
		C98,191.7,95.3,190.7,92,190.7z"/>
</g>
<path fill="#E0AA46" d="M106.1,188.5c3.9,0,7.1-1.5,7.1-3.3l-0.1,5.5l-0.2,0c0,0-1.4,2.2-6.3,2.2c-5,0-7.3-1.7-7.3-1.7H99l-0.1-6
	C98.9,187,102.1,188.5,106.1,188.5z"/>
<path fill="#E9C947" d="M113.1,190.7l-0.1,3.9l-0.2,0c0,0-1.4,2.2-6.3,2.2c-5,0-7.3-1.7-7.3-1.7h-0.1l0-3.9h0.1c0,0,2.4,1.7,7.3,1.7
	c5,0,6.3-2.2,6.3-2.2L113.1,190.7z"/>
<path fill="#E0AA46" d="M113,194.6l-0.1,3.9h-0.1c0,0-1.4,2.2-6.3,2.2c-5,0-7.3-1.7-7.3-1.7h0l-0.1-3.9h0.1c0,0,2.4,1.7,7.3,1.7
	c5,0,6.3-2.2,6.3-2.2L113,194.6z"/>
<path fill="#E9C947" d="M112.9,198.5l-0.1,3.9c0,0-1.4,2.2-6.3,2.2c-5,0-7.3-1.7-7.3-1.7l0-3.9h0c0,0,2.4,1.7,7.3,1.7
	C111.5,200.7,112.8,198.5,112.9,198.5L112.9,198.5z"/>
<path fill="#E0AA46" d="M112.1,185c0,1.3-2.7,2.4-5.9,2.4c-3.3,0-5.9-1.1-5.9-2.4c0-1.3,2.7-2.4,5.9-2.4
	C109.4,182.6,112.1,183.7,112.1,185z"/>
<path fill="#E9C947" d="M106.1,188.5c-3.9,0-7.1-1.5-7.1-3.3c0-1.8,3.2-3.3,7.1-3.3c3.9,0,7.1,1.5,7.1,3.3
	C113.2,187,110,188.5,106.1,188.5z M106.2,182.6c-3.3,0-5.9,1.1-5.9,2.4c0,1.3,2.7,2.4,5.9,2.4c3.3,0,5.9-1.1,5.9-2.4
	C112.1,183.7,109.4,182.6,106.2,182.6z"/>
</svg>
