<?xml version="1.0" encoding="utf-8"?>
<!-- Generator: Adobe Illustrator 18.0.0, SVG Export Plug-In . SVG Version: 6.00 Build 0)  -->
<!DOCTYPE svg PUBLIC "-//W3C//DTD SVG 1.1//EN" "http://www.w3.org/Graphics/SVG/1.1/DTD/svg11.dtd">
<svg version="1.1" id="Слой_1" xmlns="http://www.w3.org/2000/svg" xmlns:xlink="http://www.w3.org/1999/xlink" x="0px" y="0px"
	 viewBox="0 0 80 80" enable-background="new 0 0 80 80" xml:space="preserve">
<path fill="#7A4344" d="M19.6,12.6c0,0,34.4,19.8,41,23.7c6.6,3.8,6.6,3.8,0.4,7.4C54.9,47.2,20.7,67,20.7,67s-7.3,4.2-7.3-4.9
	s0-37.1,0-45.1S19.6,12.6,19.6,12.6z"/>
<path fill="#AB5055" d="M15.1,12.3c0,0,1.9-1.3,4.6,0.3S63,37.7,63,37.7s3.1,1.9,2.6,2.5c-0.5,0.5-0.3,1.9-4,0S17.8,15.3,17.8,15.3
	S14.9,13.9,15.1,12.3z"/>
</svg>
