<?xml version="1.0" encoding="utf-8"?>
<!-- Generator: Adobe Illustrator 18.0.0, SVG Export Plug-In . SVG Version: 6.00 Build 0)  -->
<!DOCTYPE svg PUBLIC "-//W3C//DTD SVG 1.1//EN" "http://www.w3.org/Graphics/SVG/1.1/DTD/svg11.dtd">
<svg version="1.1" id="Слой_1" xmlns="http://www.w3.org/2000/svg" xmlns:xlink="http://www.w3.org/1999/xlink" x="0px" y="0px"
	 viewBox="0 0 50 50" enable-background="new 0 0 50 50" xml:space="preserve">
<path fill="#FFFFFF" d="M25,4C13.4,4,4,13.4,4,25c0,11.6,9.4,21,21,21c11.6,0,21-9.4,21-21C46,13.4,36.6,4,25,4z M25,43.4
	C14.8,43.4,6.6,35.2,6.6,25C6.6,14.7,14.8,6.5,25,6.5c10.2,0,18.5,8.3,18.5,18.5C43.5,35.2,35.2,43.4,25,43.4z"/>
<path fill="#FFFFFF" d="M35.2,16.9c-0.4-1.1-1-1.7-1.7-2.3c-0.6-0.6-1.8-1.2-2.7-1.4c-0.7-0.2-1.7-0.2-3-0.2h-10v11.9h-1.6v2.7h1.6
	v1.1h-1.6v2.7h1.6v7.4h2.9v-7.4H31v-2.7H20.7v-1.1h0.2h7.1c2.8,0,4.7-0.8,5.9-2.3c1.2-1.4,1.9-2.7,1.9-4.9
	C35.9,19.1,35.5,17.9,35.2,16.9z M31.4,23.6c-0.7,0.8-1.7,1.2-3.3,1.2h-7.2v0h-0.2v-9.2H28c1.2,0,2,0.1,2.4,0.2
	c0.7,0.4,1.2,0.8,1.6,1.5c0.4,0.8,0.6,1.7,0.6,2.7C32.7,21.7,32.1,22.8,31.4,23.6z"/>
</svg>
