<?xml version="1.0" encoding="utf-8"?>
<!-- Generator: Adobe Illustrator 18.0.0, SVG Export Plug-In . SVG Version: 6.00 Build 0)  -->
<!DOCTYPE svg PUBLIC "-//W3C//DTD SVG 1.1//EN" "http://www.w3.org/Graphics/SVG/1.1/DTD/svg11.dtd">
<svg version="1.1" id="Слой_1" xmlns="http://www.w3.org/2000/svg" xmlns:xlink="http://www.w3.org/1999/xlink" x="0px" y="0px"
	 viewBox="0 0 50 50" enable-background="new 0 0 50 50" xml:space="preserve">
<g>
	<path fill="#4D8692" d="M48.1,6.9l-6.6,0v4.2h-6.3V6.9L15,6.9v4.3H8.7V6.9l-7.6,0v42h3.4h40.3l3.4,0L48.1,6.9z M44.7,45.6H4.5V18.7
		h40.3V45.6z"/>
	<polygon fill="#4D8692" points="14.9,26.7 14.9,41.7 19.2,41.7 19.2,22.8 15.6,22.8 11.3,25.1 11.3,28.4 14.9,26.7 	"/>
	<path fill="#4D8692" d="M37.9,36.3c0-2.5-1.8-4.2-4.1-4.6v-0.1c2.3-0.8,3.5-2.4,3.5-4.4c0-2.6-2.2-4.7-6.2-4.7
		c-2.5,0-4.7,0.7-5.8,1.4l0,3.3C26,26.8,28.5,26,30,26c1.9,0,2.8,0.8,2.8,2c0,1.6-1.9,2.2-3.3,2.2h-1.7v3.2h1.8
		c1.9,0,3.8,0.8,3.8,2.7c0,1.4-1.2,2.5-3.5,2.5c-1.8,0-4.5-0.8-5.3-1.2l0,3.4c1.1,0.7,3.2,1.3,5.6,1.3C35,42,37.9,39.6,37.9,36.3z"
		/>
	<rect x="9.9" y="3.6" fill="#4D8692" width="4" height="6.6"/>
	<rect x="36.3" y="3.6" fill="#4D8692" width="4" height="6.6"/>
</g>
</svg>
