<?xml version="1.0" encoding="utf-8"?>
<!-- Generator: Adobe Illustrator 18.0.0, SVG Export Plug-In . SVG Version: 6.00 Build 0)  -->
<!DOCTYPE svg PUBLIC "-//W3C//DTD SVG 1.1//EN" "http://www.w3.org/Graphics/SVG/1.1/DTD/svg11.dtd">
<svg version="1.1" id="Слой_1" xmlns="http://www.w3.org/2000/svg" xmlns:xlink="http://www.w3.org/1999/xlink" x="0px" y="0px"
	 viewBox="0 0 50 50" enable-background="new 0 0 50 50" xml:space="preserve">
<g>
	<path fill="#4D8692" d="M0.2,25.1c0-7.1,2.3-13,7-17.8C11.9,2.6,18,0.2,25.6,0.2c6.9,0,12.6,1.9,17.2,5.7s6.8,9,6.8,15.7
		c0,5.2-1.3,9.2-3.8,11.9s-5.9,4.1-10.1,4.1c-1.8,0-3.3-0.3-4.4-0.9c-1.1-0.6-1.9-1.8-2.3-3.7h-0.1c-1.1,1.4-2.2,2.5-3.4,3.3
		c-1.2,0.8-2.9,1.3-5,1.3c-2.1,0-4-0.8-5.7-2.3c-1.7-1.6-2.5-4.2-2.5-8c0-4,1.4-7.5,4.1-10.4c2.7-2.9,5.9-4.4,9.6-4.4
		c2.5,0,4.2,1.3,5.1,3.9h0.1l0.3-1.6c0.2-0.9,0.7-1.3,1.5-1.3h3.7c0.9,0,1.3,0.5,1,1.4l-3.2,14.2c-0.3,1.3-0.4,2.3-0.2,2.9
		c0.2,0.6,0.7,0.9,1.5,0.9c2.6,0,4.7-0.9,6.3-2.6c1.6-1.7,2.4-4.3,2.4-7.5c0-5.5-1.7-9.8-5-12.9c-3.3-3.1-8-4.6-14-4.6
		C19.7,5,14.8,6.9,11,10.7C7.1,14.5,5.2,19.3,5.2,25c0,5.8,1.9,10.6,5.7,14.3c3.8,3.7,8.7,5.6,14.6,5.6c2.7,0,5-0.2,7-0.6
		c2-0.4,4.3-1.3,6.9-2.7c0.8-0.4,1.3-0.5,1.6-0.1l1.7,2.5c0.5,0.7,0.3,1.3-0.4,1.8c-2.6,1.6-5.5,2.6-8.6,3.2
		c-3.1,0.6-5.9,0.9-8.4,0.9c-7.2,0-13.1-2.3-17.9-7C2.6,38,0.2,32.2,0.2,25.1z M18.7,28.6c0,1.2,0.3,2.2,0.9,2.9
		c0.6,0.8,1.3,1.1,2.3,1.1c1.7,0,3.2-0.9,4.7-2.6s2.3-3.5,2.6-5.5c0.2-1.2,0.2-2.3,0.2-3.2c0-1.1-0.3-2.1-1-3
		c-0.6-0.8-1.4-1.3-2.4-1.3c-1.6,0-3.3,0.9-4.9,2.8C19.5,21.9,18.7,24.8,18.7,28.6z"/>
</g>
</svg>
