<?xml version="1.0" encoding="utf-8"?>
<!-- Generator: Adobe Illustrator 18.0.0, SVG Export Plug-In . SVG Version: 6.00 Build 0)  -->
<!DOCTYPE svg PUBLIC "-//W3C//DTD SVG 1.1//EN" "http://www.w3.org/Graphics/SVG/1.1/DTD/svg11.dtd">
<svg version="1.1" id="Слой_1" xmlns="http://www.w3.org/2000/svg" xmlns:xlink="http://www.w3.org/1999/xlink" x="0px" y="0px"
	 viewBox="0 0 50 50" enable-background="new 0 0 50 50" xml:space="preserve">
<g>
	<path fill="#FFFFFF" d="M31.1,16.4v-1H19.7v1c0,0,1.7,4.8,5,7v2.3c0,0-3.6,3.5-5,7.5v1.1h11.4v-1.1c-1.8-4.4-5-7.5-5-7.5v-2.3
		C30.5,19.7,31.1,16.4,31.1,16.4z"/>
	<path fill="#FFFFFF" d="M35.2,14.7v-1.7h1.6V9.7H14v3.3h1.6v1.7c0,2.6,4.7,9.8,4.9,10.3c-0.2,0.5-4.9,7.7-4.9,10.3V37H14v3.3h22.8
		V37h-1.6v-1.7c0-2.6-4.7-9.7-5-10.3C30.5,24.4,35.2,17.3,35.2,14.7z M33.5,35.3V37H17.2v-1.7c0-1.9,5-9.4,5-10.3
		c0-0.9-5-8.4-5-10.3v-1.7h16.3v1.7c0,1.9-5,9.4-5,10.3C28.5,25.9,33.5,33.4,33.5,35.3z"/>
</g>
</svg>
