<?xml version="1.0" encoding="utf-8"?>
<!-- Generator: Adobe Illustrator 18.0.0, SVG Export Plug-In . SVG Version: 6.00 Build 0)  -->
<!DOCTYPE svg PUBLIC "-//W3C//DTD SVG 1.1//EN" "http://www.w3.org/Graphics/SVG/1.1/DTD/svg11.dtd">
<svg version="1.1" id="Слой_1" xmlns="http://www.w3.org/2000/svg" xmlns:xlink="http://www.w3.org/1999/xlink" x="0px" y="0px"
	 viewBox="0 0 310 90" enable-background="new 0 0 310 90" xml:space="preserve">
<ellipse fill="#80413A" cx="248.1" cy="55.6" rx="4.5" ry="4.4"/>
<path opacity="0.85" fill="#4C8692" d="M35.4,72.2c0,0,1.9-1.8,2.1-2c0.4-0.4,0.8,0.1,0.8,0c-0.7-0.7,2.1,2.1,2.1,2.1
	S37.8,74.6,35.4,72.2z"/>
<path fill="#80413A" d="M57.7,67.9c-2.2-2.1,0-4,0-4s1.5,1.5,1.7,1.7c0.3,0.3,0.1,0.6,0,0.7C59.3,66.3,57.7,67.9,57.7,67.9z"/>
<path fill="#5D8796" d="M56.5,64.1c-0.5,0.4-1.3,1.3-1.3,1.3c-0.1,0.1-0.4,0.5-0.1,0.7c0.3,0.3,1.8,1.7,1.8,1.7
	C55,66.1,55.9,64.7,56.5,64.1z"/>
<path fill="#80413A" d="M56.9,31.8c2.2,2.1,0,4,0,4l-2.1-2L56.9,31.8z"/>
<path opacity="0.85" fill="#4C8692" d="M57.3,31.4c2.5,2.4,0,4.8,0,4.8l2.5-2.4L57.3,31.4z"/>
<path opacity="0.85" fill="#4C8692" d="M79.7,41.5c2.2,2.1,0,4,0,4s-1.5-1.5-1.6-1.6c-0.2-0.2-0.3-0.5,0-0.8
	C78.4,42.8,79.7,41.5,79.7,41.5z"/>
<path fill="#80413A" d="M21.9,41.5c-2.2,2.1,0,4,0,4l2.1-2L21.9,41.5z"/>
<path fill="#80413A" d="M46.6,21.5c-2.2-2.1-4.1,0-4.1,0l2.1,2L46.6,21.5z"/>
<path opacity="0.85" fill="#4C8692" d="M55.6,50.8l-0.8,0.7c-0.5,0.5-1.2,0.5-1.7,0l-0.8-0.7c-0.5-0.5-0.5-1.2,0-1.7l0.8-0.7
	c0.5-0.5,1.2-0.5,1.7,0l0.8,0.7C56.1,49.6,56.1,50.3,55.6,50.8z"/>
<path opacity="0.85" fill="#4C8692" d="M58.9,54l-0.8,0.7c-0.5,0.5-1.2,0.5-1.7,0L55.7,54c-0.5-0.5-0.5-1.2,0-1.7l0.8-0.7
	c0.5-0.5,1.2-0.5,1.7,0l0.8,0.7C59.3,52.8,59.3,53.5,58.9,54z"/>
<path opacity="0.85" fill="#4C8692" d="M62.1,50.8l-0.8,0.7c-0.5,0.5-1.2,0.5-1.7,0l-0.8-0.7c-0.5-0.5-0.5-1.2,0-1.7l0.8-0.7
	c0.5-0.5,1.2-0.5,1.7,0l0.8,0.7C62.6,49.6,62.6,50.3,62.1,50.8z"/>
<path opacity="0.85" fill="#4C8692" d="M58.9,47.6l-0.8,0.7c-0.5,0.5-1.2,0.5-1.7,0l-0.8-0.7c-0.5-0.5-0.5-1.2,0-1.7l0.8-0.7
	c0.5-0.5,1.2-0.5,1.7,0l0.8,0.7C59.3,46.4,59.3,47.1,58.9,47.6z"/>
<path opacity="0.85" fill="#4C8692" d="M62.2,44.3L61.5,45c-0.5,0.5-1.2,0.5-1.7,0L59,44.3c-0.5-0.5-0.5-1.2,0-1.7l0.8-0.7
	c0.5-0.5,1.2-0.5,1.7,0l0.8,0.7C62.7,43.1,62.7,43.8,62.2,44.3z"/>
<path opacity="0.85" fill="#4C8692" d="M65.5,41.1l-0.8,0.7c-0.5,0.5-1.2,0.5-1.7,0l-0.8-0.7c-0.5-0.5-0.5-1.2,0-1.7l0.8-0.7
	c0.5-0.5,1.2-0.5,1.7,0l0.8,0.7C65.9,39.9,65.9,40.6,65.5,41.1z"/>
<path opacity="0.85" fill="#4C8692" d="M62.2,37.9l-0.8,0.7c-0.5,0.5-1.2,0.5-1.7,0L59,37.9c-0.5-0.5-0.5-1.2,0-1.7l0.8-0.7
	c0.5-0.5,1.2-0.5,1.7,0l0.8,0.7C62.6,36.6,62.6,37.4,62.2,37.9z"/>
<path opacity="0.85" fill="#4C8692" d="M58.9,41.1l-0.8,0.7c-0.5,0.5-1.2,0.5-1.7,0l-0.8-0.7c-0.5-0.5-0.5-1.2,0-1.7l0.8-0.7
	c0.5-0.5,1.2-0.5,1.7,0l0.8,0.7C59.4,39.8,59.4,40.6,58.9,41.1z"/>
<path opacity="0.85" fill="#4C8692" d="M55.5,44.3l-0.8,0.7c-0.5,0.5-1.2,0.5-1.7,0l-0.8-0.7c-0.5-0.5-0.5-1.2,0-1.7l0.8-0.7
	c0.5-0.5,1.2-0.5,1.7,0l0.8,0.7C56,43.1,56,43.9,55.5,44.3z"/>
<path fill="#5D8796" d="M52.3,47.5l-0.8,0.7c-0.5,0.5-1.2,0.5-1.7,0l-0.8-0.7c-0.5-0.5-0.5-1.2,0-1.7l0.8-0.7c0.5-0.5,1.2-0.5,1.7,0
	l0.8,0.7C52.7,46.3,52.7,47.1,52.3,47.5z"/>
<path opacity="0.85" fill="#4C8692" d="M49.1,50.7l-0.8,0.7c-0.5,0.5-1.2,0.5-1.7,0l-0.8-0.7c-0.5-0.5-0.5-1.2,0-1.7l0.8-0.7
	c0.5-0.5,1.2-0.5,1.7,0l0.8,0.7C49.5,49.5,49.5,50.2,49.1,50.7z"/>
<path opacity="0.85" fill="#4C8692" d="M45.8,53.9L45,54.6c-0.5,0.5-1.2,0.5-1.7,0l-0.8-0.7c-0.5-0.5-0.5-1.2,0-1.7l0.8-0.7
	c0.5-0.5,1.2-0.5,1.7,0l0.8,0.7C46.3,52.7,46.3,53.4,45.8,53.9z"/>
<path opacity="0.85" fill="#4C8692" d="M52.4,53.9l-0.8,0.7c-0.5,0.5-1.2,0.5-1.7,0l-0.8-0.7c-0.5-0.5-0.5-1.2,0-1.7l0.8-0.7
	c0.5-0.5,1.2-0.5,1.7,0l0.8,0.7C52.9,52.7,52.9,53.5,52.4,53.9z"/>
<path opacity="0.85" fill="#4C8692" d="M55.6,57.1l-0.8,0.7c-0.5,0.5-1.2,0.5-1.7,0l-0.8-0.7c-0.5-0.5-0.5-1.2,0-1.7l0.8-0.7
	c0.5-0.5,1.2-0.5,1.7,0l0.8,0.7C56.1,55.9,56.1,56.7,55.6,57.1z"/>
<path opacity="0.85" fill="#4C8692" d="M52.4,60.3l-0.8,0.7c-0.5,0.5-1.2,0.5-1.7,0l-0.8-0.7c-0.5-0.5-0.5-1.2,0-1.7l0.8-0.7
	c0.5-0.5,1.2-0.5,1.7,0l0.8,0.7C52.9,59.1,52.9,59.9,52.4,60.3z"/>
<path opacity="0.85" fill="#4C8692" d="M55.6,63.5l-0.8,0.7c-0.5,0.5-1.2,0.5-1.7,0l-0.8-0.7c-0.5-0.5-0.5-1.2,0-1.7l0.8-0.7
	c0.5-0.5,1.2-0.5,1.7,0l0.8,0.7C56.1,62.3,56.1,63,55.6,63.5z"/>
<path opacity="0.85" fill="#4C8692" d="M52.4,66.7l-0.8,0.7c-0.5,0.5-1.2,0.5-1.7,0l-0.8-0.7c-0.5-0.5-0.5-1.2,0-1.7l0.8-0.7
	c0.5-0.5,1.2-0.5,1.7,0l0.8,0.7C52.8,65.4,52.8,66.2,52.4,66.7z"/>
<path opacity="0.85" fill="#4C8692" d="M55.6,69.9l-0.8,0.7c-0.5,0.5-1.2,0.5-1.7,0l-0.8-0.7c-0.5-0.5-0.5-1.2,0-1.7l0.8-0.7
	c0.5-0.5,1.2-0.5,1.7,0l0.8,0.7C56.1,68.6,56.1,69.4,55.6,69.9z"/>
<path opacity="0.85" fill="#4C8692" d="M52.4,73.1l-0.8,0.7c-0.5,0.5-1.2,0.5-1.7,0l-0.8-0.7c-0.5-0.5-0.5-1.2,0-1.7l0.8-0.7
	c0.5-0.5,1.2-0.5,1.7,0l0.8,0.7C52.8,71.8,52.8,72.6,52.4,73.1z"/>
<path opacity="0.85" fill="#4C8692" d="M49.1,69.9l-0.8,0.7c-0.5,0.5-1.2,0.5-1.7,0l-0.8-0.7c-0.5-0.5-0.5-1.2,0-1.7l0.8-0.7
	c0.5-0.5,1.2-0.5,1.7,0l0.8,0.7C49.6,68.6,49.6,69.4,49.1,69.9z"/>
<path opacity="0.85" fill="#4C8692" d="M49.2,63.5l-0.8,0.7c-0.5,0.5-1.2,0.5-1.7,0L46,63.5c-0.5-0.5-0.5-1.2,0-1.7l0.8-0.7
	c0.5-0.5,1.2-0.5,1.7,0l0.8,0.7C49.6,62.3,49.6,63,49.2,63.5z"/>
<path opacity="0.85" fill="#4C8692" d="M45.9,66.7l-0.8,0.7c-0.5,0.5-1.2,0.5-1.7,0l-0.8-0.7c-0.5-0.5-0.5-1.2,0-1.7l0.8-0.7
	c0.5-0.5,1.2-0.5,1.7,0l0.8,0.7C46.4,65.5,46.4,66.2,45.9,66.7z"/>
<path opacity="0.85" fill="#4C8692" d="M42.7,69.9l-0.8,0.7c-0.5,0.5-1.2,0.5-1.7,0l-0.8-0.7c-0.5-0.5-0.5-1.2,0-1.7l0.8-0.7
	c0.5-0.5,1.2-0.5,1.7,0l0.8,0.7C43.2,68.6,43.2,69.4,42.7,69.9z"/>
<path opacity="0.85" fill="#4C8692" d="M39.4,66.7l-0.8,0.7c-0.5,0.5-1.2,0.5-1.7,0l-0.8-0.7c-0.5-0.5-0.5-1.2,0-1.7l0.8-0.7
	c0.5-0.5,1.2-0.5,1.7,0l0.8,0.7C39.9,65.4,39.9,66.2,39.4,66.7z"/>
<path opacity="0.85" fill="#4C8692" d="M34.7,66.7c0,0,1.9,1.9,2.1,2.1c0.4,0.4-0.1,0.8,0,0.7c0.7-0.7-2.1,2-2.1,2
	S32.3,69,34.7,66.7z"/>
<path opacity="0.85" fill="#4C8692" d="M25.6,69.1c0,0,1.9-1.8,2.1-2c0.4-0.4,0.8,0.1,0.8,0c-0.7-0.7,2.1,2.1,2.1,2.1
	S27.9,71.5,25.6,69.1z"/>
<path opacity="0.85" fill="#4C8692" d="M24.9,63.5c0,0,1.9,1.9,2.1,2.1c0.4,0.4-0.1,0.8,0,0.7c0.7-0.7-2.1,2-2.1,2
	S22.4,65.9,24.9,63.5z"/>
<path opacity="0.85" fill="#4C8692" d="M15.6,65.8c0,0,1.9-1.8,2.1-2c0.4-0.4,0.8,0.1,0.8,0c-0.7-0.7,2.1,2.1,2.1,2.1
	S18,68.2,15.6,65.8z"/>
<path opacity="0.85" fill="#4C8692" d="M14.9,60.2c0,0,1.9,1.9,2.1,2.1c0.4,0.4-0.1,0.8,0,0.7c0.7-0.7-2.1,2-2.1,2
	S12.5,62.5,14.9,60.2z"/>
<path opacity="0.85" fill="#4C8692" d="M45.2,75.4c0,0,1.9-1.8,2.1-2c0.4-0.4,0.8,0.1,0.8,0c-0.7-0.7,2.1,2.1,2.1,2.1
	S47.6,77.8,45.2,75.4z"/>
<path opacity="0.85" fill="#4C8692" d="M44.5,69.8c0,0,1.9,1.9,2.1,2.1c0.4,0.4-0.1,0.8,0,0.7c0.7-0.7-2.1,2-2.1,2
	S42,72.1,44.5,69.8z"/>
<path opacity="0.85" fill="#4C8692" d="M42.6,63.5l-0.8,0.7c-0.5,0.5-1.2,0.5-1.7,0l-0.8-0.7c-0.5-0.5-0.5-1.2,0-1.7l0.8-0.7
	c0.5-0.5,1.2-0.5,1.7,0l0.8,0.7C43.1,62.3,43.1,63,42.6,63.5z"/>
<path opacity="0.85" fill="#4C8692" d="M36.1,63.4l-0.8,0.7c-0.5,0.5-1.2,0.5-1.7,0l-0.8-0.7c-0.5-0.5-0.5-1.2,0-1.7l0.8-0.7
	c0.5-0.5,1.2-0.5,1.7,0l0.8,0.7C36.6,62.1,36.6,62.9,36.1,63.4z"/>
<path opacity="0.85" fill="#4C8692" d="M32.8,66.6l-0.8,0.7c-0.5,0.5-1.2,0.5-1.7,0l-0.8-0.7c-0.5-0.5-0.5-1.2,0-1.7l0.8-0.7
	c0.5-0.5,1.2-0.5,1.7,0l0.8,0.7C33.3,65.4,33.3,66.1,32.8,66.6z"/>
<path opacity="0.85" fill="#4C8692" d="M29.6,63.4l-0.8,0.7c-0.5,0.5-1.2,0.5-1.7,0l-0.8-0.7c-0.5-0.5-0.5-1.2,0-1.7l0.8-0.7
	c0.5-0.5,1.2-0.5,1.7,0l0.8,0.7C30,62.2,30,62.9,29.6,63.4z"/>
<path opacity="0.85" fill="#4C8692" d="M32.8,60.2l-0.8,0.7c-0.5,0.5-1.2,0.5-1.7,0l-0.8-0.7c-0.5-0.5-0.5-1.2,0-1.7l0.8-0.7
	c0.5-0.5,1.2-0.5,1.7,0l0.8,0.7C33.3,59,33.3,59.7,32.8,60.2z"/>
<path opacity="0.85" fill="#4C8692" d="M45.9,60.3L45.1,61c-0.5,0.5-1.2,0.5-1.7,0l-0.8-0.7c-0.5-0.5-0.5-1.2,0-1.7l0.8-0.7
	c0.5-0.5,1.2-0.5,1.7,0l0.8,0.7C46.4,59.1,46.4,59.8,45.9,60.3z"/>
<path opacity="0.85" fill="#4C8692" d="M39.3,60.3L38.6,61c-0.5,0.5-1.2,0.5-1.7,0l-0.8-0.7c-0.5-0.5-0.5-1.2,0-1.7l0.8-0.7
	c0.5-0.5,1.2-0.5,1.7,0l0.8,0.7C39.8,59,39.8,59.8,39.3,60.3z"/>
<path opacity="0.85" fill="#4C8692" d="M42.6,57.1l-0.8,0.7c-0.5,0.5-1.2,0.5-1.7,0l-0.8-0.7c-0.5-0.5-0.5-1.2,0-1.7l0.8-0.7
	c0.5-0.5,1.2-0.5,1.7,0l0.8,0.7C43,55.8,43,56.6,42.6,57.1z"/>
<path opacity="0.85" fill="#4C8692" d="M36,57.1l-0.8,0.7c-0.5,0.5-1.2,0.5-1.7,0l-0.8-0.7c-0.5-0.5-0.5-1.2,0-1.7l0.8-0.7
	c0.5-0.5,1.2-0.5,1.7,0l0.8,0.7C36.5,55.8,36.5,56.6,36,57.1z"/>
<path opacity="0.85" fill="#4C8692" d="M39.3,53.9l-0.8,0.7c-0.5,0.5-1.2,0.5-1.7,0l-0.8-0.7c-0.5-0.5-0.5-1.2,0-1.7l0.8-0.7
	c0.5-0.5,1.2-0.5,1.7,0l0.8,0.7C39.8,52.6,39.8,53.4,39.3,53.9z"/>
<path opacity="0.85" fill="#4C8692" d="M32.8,53.9l-0.8,0.7c-0.5,0.5-1.2,0.5-1.7,0l-0.8-0.7c-0.5-0.5-0.5-1.2,0-1.7l0.8-0.7
	c0.5-0.5,1.2-0.5,1.7,0l0.8,0.7C33.3,52.7,33.3,53.4,32.8,53.9z"/>
<path opacity="0.85" fill="#4C8692" d="M36.1,50.7l-0.8,0.7c-0.5,0.5-1.2,0.5-1.7,0l-0.8-0.7c-0.5-0.5-0.5-1.2,0-1.7l0.8-0.7
	c0.5-0.5,1.2-0.5,1.7,0l0.8,0.7C36.6,49.5,36.6,50.2,36.1,50.7z"/>
<path opacity="0.85" fill="#4C8692" d="M29.6,50.7l-0.8,0.7c-0.5,0.5-1.2,0.5-1.7,0l-0.8-0.7c-0.5-0.5-0.5-1.2,0-1.7l0.8-0.7
	c0.5-0.5,1.2-0.5,1.7,0l0.8,0.7C30,49.5,30,50.2,29.6,50.7z"/>
<path opacity="0.85" fill="#4C8692" d="M32.8,47.5l-0.8,0.7c-0.5,0.5-1.2,0.5-1.7,0l-0.8-0.7c-0.5-0.5-0.5-1.2,0-1.7l0.8-0.7
	c0.5-0.5,1.2-0.5,1.7,0l0.8,0.7C33.3,46.3,33.3,47,32.8,47.5z"/>
<path opacity="0.85" fill="#4C8692" d="M19.9,60.2l-0.8,0.7c-0.5,0.5-1.2,0.5-1.7,0l-0.8-0.7c-0.5-0.5-0.5-1.2,0-1.7l0.8-0.7
	c0.5-0.5,1.2-0.5,1.7,0l0.8,0.7C20.4,58.9,20.4,59.7,19.9,60.2z"/>
<path opacity="0.85" fill="#4C8692" d="M23.1,57.1l-0.8,0.7c-0.5,0.5-1.2,0.5-1.7,0l-0.8-0.7c-0.5-0.5-0.5-1.2,0-1.7l0.8-0.7
	c0.5-0.5,1.2-0.5,1.7,0l0.8,0.7C23.6,55.8,23.6,56.6,23.1,57.1z"/>
<path opacity="0.85" fill="#4C8692" d="M26.4,53.9l-0.8,0.7c-0.5,0.5-1.2,0.5-1.7,0l-0.8-0.7c-0.5-0.5-0.5-1.2,0-1.7l0.8-0.7
	c0.5-0.5,1.2-0.5,1.7,0l0.8,0.7C26.8,52.6,26.8,53.4,26.4,53.9z"/>
<path opacity="0.85" fill="#4C8692" d="M36.1,44.3l-0.8,0.7c-0.5,0.5-1.2,0.5-1.7,0l-0.8-0.7c-0.5-0.5-0.5-1.2,0-1.7l0.8-0.7
	c0.5-0.5,1.2-0.5,1.7,0l0.8,0.7C36.5,43.1,36.5,43.9,36.1,44.3z"/>
<path opacity="0.85" fill="#4C8692" d="M42.7,38.1l-0.8,0.7c-0.5,0.5-1.2,0.5-1.7,0l-0.8-0.7c-0.5-0.5-0.5-1.2,0-1.7l0.8-0.7
	c0.5-0.5,1.2-0.5,1.7,0l0.8,0.7C43.1,36.8,43.1,37.6,42.7,38.1z"/>
<path opacity="0.85" fill="#4C8692" d="M45.9,34.8l-0.8,0.7c-0.5,0.5-1.2,0.5-1.7,0l-0.8-0.7c-0.5-0.5-0.5-1.2,0-1.7l0.8-0.7
	c0.5-0.5,1.2-0.5,1.7,0l0.8,0.7C46.4,33.5,46.4,34.3,45.9,34.8z"/>
<path opacity="0.85" fill="#4C8692" d="M39.3,41.1l-0.8,0.7c-0.5,0.5-1.2,0.5-1.7,0l-0.8-0.7c-0.5-0.5-0.5-1.2,0-1.7l0.8-0.7
	c0.5-0.5,1.2-0.5,1.7,0l0.8,0.7C39.8,39.9,39.8,40.7,39.3,41.1z"/>
<path opacity="0.85" fill="#4C8692" d="M62.2,25.2l-0.8,0.7c-0.5,0.5-1.2,0.5-1.7,0L59,25.2c-0.5-0.5-0.5-1.2,0-1.7l0.8-0.7
	c0.5-0.5,1.2-0.5,1.7,0l0.8,0.7C62.6,23.9,62.6,24.7,62.2,25.2z"/>
<path opacity="0.85" fill="#4C8692" d="M65.4,28.3L64.6,29c-0.5,0.5-1.2,0.5-1.7,0l-0.8-0.7c-0.5-0.5-0.5-1.2,0-1.7l0.8-0.7
	c0.5-0.5,1.2-0.5,1.7,0l0.8,0.7C65.8,27.1,65.8,27.8,65.4,28.3z"/>
<path opacity="0.85" fill="#4C8692" d="M68.6,31.5l-0.8,0.7c-0.5,0.5-1.2,0.5-1.7,0l-0.8-0.7c-0.5-0.5-0.5-1.2,0-1.7l0.8-0.7
	c0.5-0.5,1.2-0.5,1.7,0l0.8,0.7C69.1,30.3,69.1,31.1,68.6,31.5z"/>
<path opacity="0.85" fill="#4C8692" d="M58.9,28.3l-0.8,0.7c-0.5,0.5-1.2,0.5-1.7,0l-0.8-0.7c-0.5-0.5-0.5-1.2,0-1.7l0.8-0.7
	c0.5-0.5,1.2-0.5,1.7,0l0.8,0.7C59.3,27.1,59.3,27.9,58.9,28.3z"/>
<path opacity="0.85" fill="#4C8692" d="M62.1,31.5l-0.8,0.7c-0.5,0.5-1.2,0.5-1.7,0l-0.8-0.7c-0.5-0.5-0.5-1.2,0-1.7l0.8-0.7
	c0.5-0.5,1.2-0.5,1.7,0l0.8,0.7C62.6,30.2,62.6,31,62.1,31.5z"/>
<path opacity="0.85" fill="#4C8692" d="M65.3,34.7l-0.8,0.7c-0.5,0.5-1.2,0.5-1.7,0l-0.8-0.7c-0.5-0.5-0.5-1.2,0-1.7l0.8-0.7
	c0.5-0.5,1.2-0.5,1.7,0l0.8,0.7C65.8,33.5,65.8,34.2,65.3,34.7z"/>
<path opacity="0.85" fill="#4C8692" d="M68.7,38L68,38.7c-0.5,0.5-1.2,0.5-1.7,0L65.5,38c-0.5-0.5-0.5-1.2,0-1.7l0.8-0.7
	c0.5-0.5,1.2-0.5,1.7,0l0.8,0.7C69.2,36.7,69.2,37.5,68.7,38z"/>
<path opacity="0.85" fill="#4C8692" d="M71.9,41.1l-0.8,0.7c-0.5,0.5-1.2,0.5-1.7,0l-0.8-0.7c-0.5-0.5-0.5-1.2,0-1.7l0.8-0.7
	c0.5-0.5,1.2-0.5,1.7,0l0.8,0.7C72.4,39.9,72.4,40.6,71.9,41.1z"/>
<path opacity="0.85" fill="#4C8692" d="M75.2,44.3l-0.8,0.7c-0.5,0.5-1.2,0.5-1.7,0L72,44.3c-0.5-0.5-0.5-1.2,0-1.7l0.8-0.7
	c0.5-0.5,1.2-0.5,1.7,0l0.8,0.7C75.7,43.1,75.7,43.9,75.2,44.3z"/>
<path opacity="0.85" fill="#4C8692" d="M72,34.8l-0.8,0.7c-0.5,0.5-1.2,0.5-1.7,0l-0.8-0.7c-0.5-0.5-0.5-1.2,0-1.7l0.8-0.7
	c0.5-0.5,1.2-0.5,1.7,0l0.8,0.7C72.5,33.5,72.5,34.3,72,34.8z"/>
<path opacity="0.85" fill="#4C8692" d="M75.2,37.9l-0.8,0.7c-0.5,0.5-1.2,0.5-1.7,0L72,37.9c-0.5-0.5-0.5-1.2,0-1.7l0.8-0.7
	c0.5-0.5,1.2-0.5,1.7,0l0.8,0.7C75.7,36.7,75.7,37.4,75.2,37.9z"/>
<path opacity="0.85" fill="#4C8692" d="M78.5,41.1l-0.8,0.7c-0.5,0.5-1.2,0.5-1.7,0l-0.8-0.7c-0.5-0.5-0.5-1.2,0-1.7l0.8-0.7
	c0.5-0.5,1.2-0.5,1.7,0l0.8,0.7C78.9,39.9,78.9,40.7,78.5,41.1z"/>
<path opacity="0.85" fill="#4C8692" d="M78.4,47.5l-0.8,0.7c-0.5,0.5-1.2,0.5-1.7,0l-0.8-0.7c-0.5-0.5-0.5-1.2,0-1.7l0.8-0.7
	c0.5-0.5,1.2-0.5,1.7,0l0.8,0.7C78.9,46.3,78.9,47,78.4,47.5z"/>
<path opacity="0.85" fill="#4C8692" d="M55.2,21.5c2.2-2.1,4.1,0,4.1,0s-1.5,1.5-1.6,1.6c-0.2,0.2-0.5,0.3-0.8,0
	C56.6,22.8,55.2,21.5,55.2,21.5z"/>
<path opacity="0.85" fill="#4C8692" d="M55.6,25.2l-0.8,0.7c-0.5,0.5-1.2,0.5-1.7,0l-0.8-0.7c-0.5-0.5-0.5-1.2,0-1.7l0.8-0.7
	c0.5-0.5,1.2-0.5,1.7,0l0.8,0.7C56.1,23.9,56.1,24.7,55.6,25.2z"/>
<path opacity="0.85" fill="#4C8692" d="M67,21.2l-0.8,0.7c-0.5,0.5-1.2,0.5-1.7,0l-0.8-0.7c-0.5-0.5-0.5-1.2,0-1.7l0.8-0.7
	c0.5-0.5,1.2-0.5,1.7,0l0.8,0.7C67.5,19.9,67.5,20.7,67,21.2z"/>
<path opacity="0.85" fill="#4C8692" d="M70.2,24.3l-0.8,0.7c-0.5,0.5-1.2,0.5-1.7,0L67,24.3c-0.5-0.5-0.5-1.2,0-1.7l0.8-0.7
	c0.5-0.5,1.2-0.5,1.7,0l0.8,0.7C70.7,23.1,70.7,23.8,70.2,24.3z"/>
<path opacity="0.85" fill="#4C8692" d="M73.5,27.5l-0.8,0.7c-0.5,0.5-1.2,0.5-1.7,0l-0.8-0.7c-0.5-0.5-0.5-1.2,0-1.7l0.8-0.7
	c0.5-0.5,1.2-0.5,1.7,0l0.8,0.7C74,26.3,74,27.1,73.5,27.5z"/>
<path opacity="0.85" fill="#4C8692" d="M76.8,30.8l-0.8,0.7c-0.5,0.5-1.2,0.5-1.7,0l-0.8-0.7c-0.5-0.5-0.5-1.2,0-1.7l0.8-0.7
	c0.5-0.5,1.2-0.5,1.7,0l0.8,0.7C77.3,29.6,77.3,30.3,76.8,30.8z"/>
<path opacity="0.85" fill="#4C8692" d="M80,33.9l-0.8,0.7c-0.5,0.5-1.2,0.5-1.7,0l-0.8-0.7c-0.5-0.5-0.5-1.2,0-1.7l0.8-0.7
	c0.5-0.5,1.2-0.5,1.7,0l0.8,0.7C80.5,32.7,80.5,33.5,80,33.9z"/>
<path opacity="0.85" fill="#4C8692" d="M83.3,37.2l-0.8,0.7c-0.5,0.5-1.2,0.5-1.7,0l-0.8-0.7c-0.5-0.5-0.5-1.2,0-1.7l0.8-0.7
	c0.5-0.5,1.2-0.5,1.7,0l0.8,0.7C83.8,35.9,83.8,36.7,83.3,37.2z"/>
<path fill="#5D8796" d="M70.3,17.9l-0.8,0.7c-0.5,0.5-1.2,0.5-1.7,0l-0.8-0.7c-0.5-0.5-0.5-1.2,0-1.7l0.8-0.7c0.5-0.5,1.2-0.5,1.7,0
	l0.8,0.7C70.8,16.7,70.8,17.4,70.3,17.9z"/>
<path opacity="0.85" fill="#4C8692" d="M73.5,21l-0.8,0.7c-0.5,0.5-1.2,0.5-1.7,0L70.3,21c-0.5-0.5-0.5-1.2,0-1.7l0.8-0.7
	c0.5-0.5,1.2-0.5,1.7,0l0.8,0.7C74,19.8,74,20.6,73.5,21z"/>
<path opacity="0.85" fill="#4C8692" d="M76.8,24.3L76,25c-0.5,0.5-1.2,0.5-1.7,0l-0.8-0.7c-0.5-0.5-0.5-1.2,0-1.7l0.8-0.7
	c0.5-0.5,1.2-0.5,1.7,0l0.8,0.7C77.3,23,77.3,23.8,76.8,24.3z"/>
<path opacity="0.85" fill="#4C8692" d="M80.1,27.5l-0.8,0.7c-0.5,0.5-1.2,0.5-1.7,0l-0.8-0.7c-0.5-0.5-0.5-1.2,0-1.7l0.8-0.7
	c0.5-0.5,1.2-0.5,1.7,0l0.8,0.7C80.6,26.3,80.6,27.1,80.1,27.5z"/>
<path opacity="0.85" fill="#4C8692" d="M83.3,30.7l-0.8,0.7c-0.5,0.5-1.2,0.5-1.7,0l-0.8-0.7c-0.5-0.5-0.5-1.2,0-1.7l0.8-0.7
	c0.5-0.5,1.2-0.5,1.7,0l0.8,0.7C83.8,29.4,83.8,30.2,83.3,30.7z"/>
<path opacity="0.85" fill="#4C8692" d="M86.6,33.9l-0.8,0.7c-0.5,0.5-1.2,0.5-1.7,0l-0.8-0.7c-0.5-0.5-0.5-1.2,0-1.7l0.8-0.7
	c0.5-0.5,1.2-0.5,1.7,0l0.8,0.7C87.1,32.7,87.1,33.4,86.6,33.9z"/>
<path fill="#80413A" d="M66.1,72.1c0,0-1.9-1.8-2.1-2c-0.4-0.4-0.8,0.1-0.8,0c0.7-0.7-2.1,2.1-2.1,2.1S63.8,74.6,66.1,72.1z"/>
<path fill="#80413A" d="M66.8,66.6c0,0-1.9,1.9-2.1,2.1c-0.4,0.4,0.1,0.8,0,0.7c-0.7-0.7,2.1,2,2.1,2S69.3,68.9,66.8,66.6z"/>
<path fill="#80413A" d="M76,69c0,0-1.9-1.8-2.1-2c-0.4-0.4-0.8,0.1-0.8,0c0.7-0.7-2.1,2.1-2.1,2.1S73.6,71.4,76,69z"/>
<path fill="#80413A" d="M76.7,63.4c0,0-1.9,1.9-2.1,2.1c-0.4,0.4,0.1,0.8,0,0.7c-0.7-0.7,2.1,2,2.1,2S79.2,65.8,76.7,63.4z"/>
<path fill="#80413A" d="M86,65.7c0,0-1.9-1.8-2.1-2c-0.4-0.4-0.8,0.1-0.8,0c0.7-0.7-2.1,2.1-2.1,2.1S83.6,68.1,86,65.7z"/>
<path fill="#80413A" d="M86.7,60.1c0,0-1.9,1.9-2.1,2.1c-0.4,0.4,0.1,0.8,0,0.7c-0.7-0.7,2.1,2,2.1,2S89.1,62.5,86.7,60.1z"/>
<path fill="#80413A" d="M56.4,75.3c0,0-1.9-1.8-2.1-2c-0.4-0.4-0.8,0.1-0.8,0c0.7-0.7-2.1,2.1-2.1,2.1S54,77.7,56.4,75.3z"/>
<path fill="#80413A" d="M57.1,69.7c0,0-1.9,1.9-2.1,2.1c-0.4,0.4,0.1,0.8,0,0.7c-0.7-0.7,2.1,2,2.1,2S59.5,72.1,57.1,69.7z"/>
<path fill="#80413A" d="M62.1,69.8l-0.8,0.7c-0.5,0.5-1.2,0.5-1.7,0l-0.8-0.7c-0.5-0.5-0.5-1.2,0-1.7l0.8-0.7c0.5-0.5,1.2-0.5,1.7,0
	l0.8,0.7C62.5,68.6,62.5,69.4,62.1,69.8z"/>
<path fill="#80413A" d="M65.3,66.6l-0.8,0.7c-0.5,0.5-1.2,0.5-1.7,0l-0.8-0.7c-0.5-0.5-0.5-1.2,0-1.7l0.8-0.7c0.5-0.5,1.2-0.5,1.7,0
	l0.8,0.7C65.8,65.4,65.8,66.2,65.3,66.6z"/>
<path fill="#80413A" d="M68.5,63.4l-0.8,0.7c-0.5,0.5-1.2,0.5-1.7,0l-0.8-0.7c-0.5-0.5-0.5-1.2,0-1.7l0.8-0.7c0.5-0.5,1.2-0.5,1.7,0
	l0.8,0.7C69,62.2,69,63,68.5,63.4z"/>
<path fill="#80413A" d="M71.8,60.3L71,61c-0.5,0.5-1.2,0.5-1.7,0l-0.8-0.7c-0.5-0.5-0.5-1.2,0-1.7l0.8-0.7c0.5-0.5,1.2-0.5,1.7,0
	l0.8,0.7C72.3,59.1,72.3,59.8,71.8,60.3z"/>
<path fill="#80413A" d="M71.8,66.7L71,67.4c-0.5,0.5-1.2,0.5-1.7,0l-0.8-0.7c-0.5-0.5-0.5-1.2,0-1.7l0.8-0.7c0.5-0.5,1.2-0.5,1.7,0
	l0.8,0.7C72.3,65.4,72.3,66.2,71.8,66.7z"/>
<path fill="#80413A" d="M75.1,63.5l-0.8,0.7c-0.5,0.5-1.2,0.5-1.7,0l-0.8-0.7c-0.5-0.5-0.5-1.2,0-1.7l0.8-0.7c0.5-0.5,1.2-0.5,1.7,0
	l0.8,0.7C75.5,62.3,75.5,63,75.1,63.5z"/>
<path fill="#80413A" d="M62.6,63.1c-2.2-2.1-4.1,0-4.1,0s1.5,1.5,1.7,1.7c0.3,0.3,0.6,0.1,0.7,0C61,64.7,62.6,63.1,62.6,63.1z"/>
<path fill="#5D8796" d="M58.8,62c0.5-0.5,1.3-1.2,1.4-1.3c0.1-0.1,0.5-0.4,0.8-0.1c0.3,0.3,1.7,1.7,1.7,1.7
	C60.8,60.5,59.4,61.4,58.8,62z"/>
<path fill="#80413A" d="M60.9,58.3c-2.2-2.1,0-4,0-4s1.5,1.5,1.7,1.7c0.3,0.3,0.1,0.6,0,0.7C62.5,56.8,60.9,58.3,60.9,58.3z"/>
<path fill="#5D8796" d="M59.7,54.6c-0.5,0.4-1.3,1.3-1.3,1.3c-0.1,0.1-0.4,0.5-0.1,0.7s1.8,1.7,1.8,1.7
	C58.3,56.5,59.2,55.1,59.7,54.6z"/>
<path fill="#80413A" d="M65.8,53.5c-2.2-2.1-4.1,0-4.1,0s1.5,1.5,1.7,1.7c0.3,0.3,0.6,0.1,0.7,0C64.3,55.1,65.8,53.5,65.8,53.5z"/>
<path fill="#5D8796" d="M62,52.4c0.5-0.5,1.3-1.2,1.4-1.3c0.1-0.1,0.5-0.4,0.8-0.1c0.3,0.3,1.7,1.7,1.7,1.7C64,51,62.6,51.8,62,52.4
	z"/>
<path fill="#80413A" d="M64.3,48.7c-2.2-2.1,0-4,0-4s1.5,1.5,1.7,1.7c0.3,0.3,0.1,0.6,0,0.7C65.9,47.1,64.3,48.7,64.3,48.7z"/>
<path fill="#5D8796" d="M63.2,44.9c-0.5,0.4-1.3,1.3-1.3,1.3c-0.1,0.1-0.4,0.5-0.1,0.7c0.3,0.3,1.8,1.7,1.8,1.7
	C61.7,46.9,62.6,45.5,63.2,44.9z"/>
<path fill="#80413A" d="M69.3,43.9c-2.2-2.1-4.1,0-4.1,0s1.5,1.5,1.7,1.7c0.3,0.3,0.6,0.1,0.7,0C67.7,45.4,69.3,43.9,69.3,43.9z"/>
<path opacity="0.85" fill="#4C8692" d="M65.4,42.8c0.5-0.5,1.3-1.2,1.4-1.3c0.1-0.1,0.5-0.4,0.8-0.1c0.3,0.3,1.7,1.7,1.7,1.7
	C67.4,41.3,66,42.2,65.4,42.8z"/>
<path fill="#80413A" d="M42.9,49.5c-2.2,2.1-4.1,0-4.1,0s1.5-1.5,1.7-1.7c0.3-0.3,0.6-0.1,0.7,0C41.3,47.9,42.9,49.5,42.9,49.5z"/>
<path opacity="0.85" fill="#4C8692" d="M39.1,50.6c0.5,0.5,1.3,1.2,1.4,1.3c0.1,0.1,0.5,0.4,0.8,0.1c0.3-0.3,1.7-1.7,1.7-1.7
	C41.1,52.1,39.7,51.2,39.1,50.6z"/>
<path fill="#80413A" d="M38,44.6c-2.2,2.1,0,4,0,4s1.5-1.5,1.7-1.7c0.3-0.3,0.1-0.6,0-0.7C39.6,46.2,38,44.6,38,44.6z"/>
<path opacity="0.85" fill="#4C8692" d="M36.9,48.4c-0.5-0.4-1.3-1.3-1.3-1.3c-0.1-0.1-0.4-0.5-0.1-0.7c0.3-0.3,1.8-1.7,1.8-1.7
	C35.4,46.5,36.3,47.8,36.9,48.4z"/>
<path fill="#80413A" d="M45.8,47.5L45,48.3c-0.5,0.5-1.2,0.5-1.7,0l-0.8-0.7c-0.5-0.5-0.5-1.2,0-1.7l0.8-0.7c0.5-0.5,1.2-0.5,1.7,0
	l0.8,0.7C46.3,46.3,46.3,47.1,45.8,47.5z"/>
<path fill="#80413A" d="M65.4,60.3L64.6,61c-0.5,0.5-1.2,0.5-1.7,0l-0.8-0.7c-0.5-0.5-0.5-1.2,0-1.7l0.8-0.7c0.5-0.5,1.2-0.5,1.7,0
	l0.8,0.7C65.8,59.1,65.8,59.8,65.4,60.3z"/>
<path fill="#80413A" d="M68.6,57.1l-0.8,0.7c-0.5,0.5-1.2,0.5-1.7,0l-0.8-0.7c-0.5-0.5-0.5-1.2,0-1.7l0.8-0.7c0.5-0.5,1.2-0.5,1.7,0
	l0.8,0.7C69.1,55.9,69.1,56.7,68.6,57.1z"/>
<path fill="#80413A" d="M75.2,56.9l-0.8,0.7c-0.5,0.5-1.2,0.5-1.7,0L72,56.9c-0.5-0.5-0.5-1.2,0-1.7l0.8-0.7c0.5-0.5,1.2-0.5,1.7,0
	l0.8,0.7C75.7,55.7,75.7,56.5,75.2,56.9z"/>
<path fill="#80413A" d="M78.4,53.8l-0.8,0.7c-0.5,0.5-1.2,0.5-1.7,0l-0.8-0.7c-0.5-0.5-0.5-1.2,0-1.7l0.8-0.7c0.5-0.5,1.2-0.5,1.7,0
	l0.8,0.7C78.9,52.6,78.9,53.3,78.4,53.8z"/>
<path fill="#80413A" d="M78.4,60.2l-0.8,0.7c-0.5,0.5-1.2,0.5-1.7,0l-0.8-0.7c-0.5-0.5-0.5-1.2,0-1.7l0.8-0.7c0.5-0.5,1.2-0.5,1.7,0
	l0.8,0.7C78.9,59,78.9,59.7,78.4,60.2z"/>
<path fill="#80413A" d="M81.7,57.1l-0.8,0.7c-0.5,0.5-1.2,0.5-1.7,0l-0.8-0.7c-0.5-0.5-0.5-1.2,0-1.7l0.8-0.7c0.5-0.5,1.2-0.5,1.7,0
	l0.8,0.7C82.1,55.8,82.1,56.6,81.7,57.1z"/>
<path fill="#80413A" d="M81.8,63.4L81,64.2c-0.5,0.5-1.2,0.5-1.7,0l-0.8-0.7c-0.5-0.5-0.5-1.2,0-1.7l0.8-0.7c0.5-0.5,1.2-0.5,1.7,0
	l0.8,0.7C82.2,62.2,82.2,63,81.8,63.4z"/>
<path fill="#80413A" d="M85,60.3L84.2,61c-0.5,0.5-1.2,0.5-1.7,0l-0.8-0.7c-0.5-0.5-0.5-1.2,0-1.7l0.8-0.7c0.5-0.5,1.2-0.5,1.7,0
	l0.8,0.7C85.5,59.1,85.5,59.8,85,60.3z"/>
<path fill="#80413A" d="M71.9,53.9l-0.8,0.7c-0.5,0.5-1.2,0.5-1.7,0l-0.8-0.7c-0.5-0.5-0.5-1.2,0-1.7l0.8-0.7c0.5-0.5,1.2-0.5,1.7,0
	l0.8,0.7C72.3,52.6,72.3,53.4,71.9,53.9z"/>
<path fill="#80413A" d="M75.2,50.7l-0.8,0.7c-0.5,0.5-1.2,0.5-1.7,0L72,50.7c-0.5-0.5-0.5-1.2,0-1.7l0.8-0.7c0.5-0.5,1.2-0.5,1.7,0
	l0.8,0.7C75.7,49.4,75.7,50.2,75.2,50.7z"/>
<path fill="#80413A" d="M68.6,50.7l-0.8,0.7c-0.5,0.5-1.2,0.5-1.7,0l-0.8-0.7c-0.5-0.5-0.5-1.2,0-1.7l0.8-0.7c0.5-0.5,1.2-0.5,1.7,0
	l0.8,0.7C69.1,49.5,69.1,50.2,68.6,50.7z"/>
<path fill="#80413A" d="M72,47.5l-0.8,0.7c-0.5,0.5-1.2,0.5-1.7,0l-0.8-0.7c-0.5-0.5-0.5-1.2,0-1.7l0.8-0.7c0.5-0.5,1.2-0.5,1.7,0
	l0.8,0.7C72.5,46.3,72.5,47,72,47.5z"/>
<path fill="#80413A" d="M49,44.3L48.3,45c-0.5,0.5-1.2,0.5-1.7,0l-0.8-0.7c-0.5-0.5-0.5-1.2,0-1.7l0.8-0.7c0.5-0.5,1.2-0.5,1.7,0
	l0.8,0.7C49.5,43.1,49.5,43.8,49,44.3z"/>
<path fill="#80413A" d="M52.3,41.1l-0.8,0.7c-0.5,0.5-1.2,0.5-1.7,0l-0.8-0.7c-0.5-0.5-0.5-1.2,0-1.7l0.8-0.7c0.5-0.5,1.2-0.5,1.7,0
	l0.8,0.7C52.7,39.9,52.7,40.7,52.3,41.1z"/>
<path fill="#80413A" d="M55.6,37.9l-0.8,0.7c-0.5,0.5-1.2,0.5-1.7,0l-0.8-0.7c-0.5-0.5-0.5-1.2,0-1.7l0.8-0.7c0.5-0.5,1.2-0.5,1.7,0
	l0.8,0.7C56.1,36.6,56.1,37.4,55.6,37.9z"/>
<path fill="#80413A" d="M42.5,44.5l-0.8,0.7c-0.5,0.5-1.2,0.5-1.7,0l-0.8-0.7c-0.5-0.5-0.5-1.2,0-1.7l0.8-0.7c0.5-0.5,1.2-0.5,1.7,0
	l0.8,0.7C43,43.2,43,44,42.5,44.5z"/>
<path fill="#80413A" d="M45.8,41.2L45,42c-0.5,0.5-1.2,0.5-1.7,0l-0.8-0.7c-0.5-0.5-0.5-1.2,0-1.7l0.8-0.7c0.5-0.5,1.2-0.5,1.7,0
	l0.8,0.7C46.2,40,46.2,40.8,45.8,41.2z"/>
<path fill="#80413A" d="M49,38.1l-0.8,0.7c-0.5,0.5-1.2,0.5-1.7,0l-0.8-0.7c-0.5-0.5-0.5-1.2,0-1.7l0.8-0.7c0.5-0.5,1.2-0.5,1.7,0
	l0.8,0.7C49.5,36.8,49.5,37.6,49,38.1z"/>
<path fill="#80413A" d="M52.4,34.8l-0.8,0.7c-0.5,0.5-1.2,0.5-1.7,0l-0.8-0.7c-0.5-0.5-0.5-1.2,0-1.7l0.8-0.7c0.5-0.5,1.2-0.5,1.7,0
	l0.8,0.7C52.9,33.5,52.9,34.3,52.4,34.8z"/>
<path fill="#80413A" d="M55.6,31.5l-0.8,0.7c-0.5,0.5-1.2,0.5-1.7,0l-0.8-0.7c-0.5-0.5-0.5-1.2,0-1.7l0.8-0.7c0.5-0.5,1.2-0.5,1.7,0
	l0.8,0.7C56.1,30.2,56.1,31,55.6,31.5z"/>
<path fill="#80413A" d="M49.3,31.6l-0.8,0.7c-0.5,0.5-1.2,0.5-1.7,0l-0.8-0.7c-0.5-0.5-0.5-1.2,0-1.7l0.8-0.7c0.5-0.5,1.2-0.5,1.7,0
	l0.8,0.7C49.7,30.4,49.7,31.1,49.3,31.6z"/>
<path fill="#80413A" d="M52.5,28.4l-0.8,0.7c-0.5,0.5-1.2,0.5-1.7,0l-0.8-0.7c-0.5-0.5-0.5-1.2,0-1.7l0.8-0.7c0.5-0.5,1.2-0.5,1.7,0
	l0.8,0.7C53,27.2,53,27.9,52.5,28.4z"/>
<path fill="#80413A" d="M46,28.5l-0.8,0.7c-0.5,0.5-1.2,0.5-1.7,0l-0.8-0.7c-0.5-0.5-0.5-1.2,0-1.7l0.8-0.7c0.5-0.5,1.2-0.5,1.7,0
	l0.8,0.7C46.5,27.2,46.5,28,46,28.5z"/>
<path fill="#80413A" d="M49.3,25.2l-0.8,0.7c-0.5,0.5-1.2,0.5-1.7,0l-0.8-0.7c-0.5-0.5-0.5-1.2,0-1.7l0.8-0.7c0.5-0.5,1.2-0.5,1.7,0
	l0.8,0.7C49.7,24,49.7,24.7,49.3,25.2z"/>
<path fill="#80413A" d="M42.8,25.3L42,26c-0.5,0.5-1.2,0.5-1.7,0l-0.8-0.7c-0.5-0.5-0.5-1.2,0-1.7l0.8-0.7c0.5-0.5,1.2-0.5,1.7,0
	l0.8,0.7C43.3,24,43.3,24.8,42.8,25.3z"/>
<path fill="#80413A" d="M42.7,31.7l-0.8,0.7c-0.5,0.5-1.2,0.5-1.7,0l-0.8-0.7c-0.5-0.5-0.5-1.2,0-1.7l0.8-0.7c0.5-0.5,1.2-0.5,1.7,0
	l0.8,0.7C43.1,30.5,43.1,31.2,42.7,31.7z"/>
<path fill="#80413A" d="M39.4,28.6l-0.8,0.7c-0.5,0.5-1.2,0.5-1.7,0l-0.8-0.7c-0.5-0.5-0.5-1.2,0-1.7l0.8-0.7c0.5-0.5,1.2-0.5,1.7,0
	l0.8,0.7C39.9,27.4,39.9,28.2,39.4,28.6z"/>
<path fill="#80413A" d="M39.4,35l-0.8,0.7c-0.5,0.5-1.2,0.5-1.7,0L36.2,35c-0.5-0.5-0.5-1.2,0-1.7l0.8-0.7c0.5-0.5,1.2-0.5,1.7,0
	l0.8,0.7C39.9,33.8,39.9,34.5,39.4,35z"/>
<path fill="#80413A" d="M36.2,31.8l-0.8,0.7c-0.5,0.5-1.2,0.5-1.7,0L33,31.8c-0.5-0.5-0.5-1.2,0-1.7l0.8-0.7c0.5-0.5,1.2-0.5,1.7,0
	l0.8,0.7C36.7,30.5,36.7,31.3,36.2,31.8z"/>
<path fill="#80413A" d="M36.2,38.1l-0.8,0.7c-0.5,0.5-1.2,0.5-1.7,0L33,38.1c-0.5-0.5-0.5-1.2,0-1.7l0.8-0.7c0.5-0.5,1.2-0.5,1.7,0
	l0.8,0.7C36.7,36.8,36.7,37.6,36.2,38.1z"/>
<path fill="#80413A" d="M33,34.9l-0.8,0.7c-0.5,0.5-1.2,0.5-1.7,0l-0.8-0.7c-0.5-0.5-0.5-1.2,0-1.7l0.8-0.7c0.5-0.5,1.2-0.5,1.7,0
	l0.8,0.7C33.4,33.7,33.4,34.4,33,34.9z"/>
<path fill="#80413A" d="M33,41.3L32.2,42c-0.5,0.5-1.2,0.5-1.7,0l-0.8-0.7c-0.5-0.5-0.5-1.2,0-1.7l0.8-0.7c0.5-0.5,1.2-0.5,1.7,0
	l0.8,0.7C33.4,40,33.4,40.8,33,41.3z"/>
<path fill="#80413A" d="M29.7,38.1l-0.8,0.7c-0.5,0.5-1.2,0.5-1.7,0l-0.8-0.7c-0.5-0.5-0.5-1.2,0-1.7l0.8-0.7c0.5-0.5,1.2-0.5,1.7,0
	l0.8,0.7C30.2,36.9,30.2,37.6,29.7,38.1z"/>
<path fill="#80413A" d="M29.7,44.5l-0.8,0.7c-0.5,0.5-1.2,0.5-1.7,0l-0.8-0.7c-0.5-0.5-0.5-1.2,0-1.7l0.8-0.7c0.5-0.5,1.2-0.5,1.7,0
	l0.8,0.7C30.2,43.2,30.2,44,29.7,44.5z"/>
<path fill="#80413A" d="M26.5,41.3L25.7,42c-0.5,0.5-1.2,0.5-1.7,0l-0.8-0.7c-0.5-0.5-0.5-1.2,0-1.7l0.8-0.7c0.5-0.5,1.2-0.5,1.7,0
	l0.8,0.7C26.9,40,26.9,40.8,26.5,41.3z"/>
<path fill="#80413A" d="M26.5,47.6l-0.8,0.7c-0.5,0.5-1.2,0.5-1.7,0l-0.8-0.7c-0.5-0.5-0.5-1.2,0-1.7l0.8-0.7c0.5-0.5,1.2-0.5,1.7,0
	l0.8,0.7C26.9,46.4,26.9,47.1,26.5,47.6z"/>
<path fill="#80413A" d="M35,20.8l0.8,0.7c0.5,0.5,1.2,0.5,1.7,0l0.8-0.7c0.5-0.5,0.5-1.2,0-1.7l-0.8-0.7c-0.5-0.5-1.2-0.5-1.7,0
	L35,19.1C34.5,19.5,34.5,20.3,35,20.8z"/>
<path fill="#80413A" d="M31.8,23.9l0.8,0.7c0.5,0.5,1.2,0.5,1.7,0l0.8-0.7c0.5-0.5,0.5-1.2,0-1.7l-0.8-0.7c-0.5-0.5-1.2-0.5-1.7,0
	l-0.8,0.7C31.3,22.7,31.3,23.4,31.8,23.9z"/>
<path fill="#80413A" d="M28.5,27.1l0.8,0.7c0.5,0.5,1.2,0.5,1.7,0l0.8-0.7c0.5-0.5,0.5-1.2,0-1.7L31,24.7c-0.5-0.5-1.2-0.5-1.7,0
	l-0.8,0.7C28.1,25.9,28.1,26.7,28.5,27.1z"/>
<path fill="#80413A" d="M25.2,30.4l0.8,0.7c0.5,0.5,1.2,0.5,1.7,0l0.8-0.7c0.5-0.5,0.5-1.2,0-1.7L27.6,28c-0.5-0.5-1.2-0.5-1.7,0
	l-0.8,0.7C24.7,29.2,24.7,29.9,25.2,30.4z"/>
<path fill="#80413A" d="M22,33.5l0.8,0.7c0.5,0.5,1.2,0.5,1.7,0l0.8-0.7c0.5-0.5,0.5-1.2,0-1.7l-0.8-0.7c-0.5-0.5-1.2-0.5-1.7,0
	L22,31.8C21.5,32.3,21.5,33.1,22,33.5z"/>
<path fill="#80413A" d="M18.7,36.8l0.8,0.7c0.5,0.5,1.2,0.5,1.7,0l0.8-0.7c0.5-0.5,0.5-1.2,0-1.7l-0.8-0.7c-0.5-0.5-1.2-0.5-1.7,0
	l-0.8,0.7C18.2,35.5,18.2,36.3,18.7,36.8z"/>
<path fill="#80413A" d="M31.7,17.5l0.8,0.7c0.5,0.5,1.2,0.5,1.7,0l0.8-0.7c0.5-0.5,0.5-1.2,0-1.7L34.2,15c-0.5-0.5-1.2-0.5-1.7,0
	l-0.8,0.7C31.2,16.2,31.2,17,31.7,17.5z"/>
<path fill="#80413A" d="M28.5,20.6l0.8,0.7c0.5,0.5,1.2,0.5,1.7,0l0.8-0.7c0.5-0.5,0.5-1.2,0-1.7l-0.8-0.7c-0.5-0.5-1.2-0.5-1.7,0
	l-0.8,0.7C28,19.4,28,20.2,28.5,20.6z"/>
<path fill="#80413A" d="M25.2,23.9l0.8,0.7c0.5,0.5,1.2,0.5,1.7,0l0.8-0.7c0.5-0.5,0.5-1.2,0-1.7l-0.8-0.7c-0.5-0.5-1.2-0.5-1.7,0
	l-0.8,0.7C24.8,22.6,24.8,23.4,25.2,23.9z"/>
<path fill="#80413A" d="M21.9,27.1l0.8,0.7c0.5,0.5,1.2,0.5,1.7,0l0.8-0.7c0.5-0.5,0.5-1.2,0-1.7l-0.8-0.7c-0.5-0.5-1.2-0.5-1.7,0
	l-0.8,0.7C21.4,25.9,21.4,26.7,21.9,27.1z"/>
<path fill="#80413A" d="M18.7,30.3l0.8,0.7c0.5,0.5,1.2,0.5,1.7,0l0.8-0.7c0.5-0.5,0.5-1.2,0-1.7l-0.8-0.7c-0.5-0.5-1.2-0.5-1.7,0
	l-0.8,0.7C18.2,29,18.2,29.8,18.7,30.3z"/>
<path fill="#80413A" d="M15.4,33.5l0.8,0.7c0.5,0.5,1.2,0.5,1.7,0l0.8-0.7c0.5-0.5,0.5-1.2,0-1.7L17.9,31c-0.5-0.5-1.2-0.5-1.7,0
	l-0.8,0.7C14.9,32.3,14.9,33,15.4,33.5z"/>
<path opacity="0.9" fill="#80413A" d="M81.3,80.7v8.8h9.2c0,0,8.9,0,8.9-8.8c0-8.8,0-8.8,0-8.8h-9v7.1c0,0,0,1.6-1.9,1.6
	S81.3,80.7,81.3,80.7z"/>
<path opacity="0.85" fill="#4C8692" d="M18.1,80.7v8.8H8.9c0,0-8.9,0-8.9-8.8c0-8.8,0-8.8,0-8.8h9v7.1c0,0,0,1.6,1.9,1.6
	S18.1,80.7,18.1,80.7z"/>
<path opacity="0.85" fill="#4C8692" d="M81.3,9.8V1h9.2c0,0,8.9,0,8.9,8.8c0,8.8,0,8.8,0,8.8h-9v-7.1c0,0,0-1.6-1.9-1.6
	C86.5,9.8,81.3,9.8,81.3,9.8z"/>
<path opacity="0.9" fill="#80413A" d="M18.1,9.8V1H8.9C8.9,1,0,1,0,9.8c0,8.8,0,8.8,0,8.8h9v-7.1c0,0,0-1.6,1.9-1.6
	S18.1,9.8,18.1,9.8z"/>
<path opacity="0.85" fill="#4C8692" d="M58.9,60.3L58.1,61c-0.5,0.5-1.2,0.5-1.7,0l-0.8-0.7c-0.5-0.5-0.5-1.2,0-1.7l0.8-0.7
	c0.5-0.5,1.2-0.5,1.7,0l0.8,0.7C59.3,59.1,59.3,59.8,58.9,60.3z"/>
<path opacity="0.85" fill="#4C8692" d="M23.1,63.5l-0.8,0.7c-0.5,0.5-1.2,0.5-1.7,0l-0.8-0.7c-0.5-0.5-0.5-1.2,0-1.7l0.8-0.7
	c0.5-0.5,1.2-0.5,1.7,0l0.8,0.7C23.6,62.2,23.6,63,23.1,63.5z"/>
<path opacity="0.85" fill="#4C8692" d="M26.4,60.3L25.6,61c-0.5,0.5-1.2,0.5-1.7,0l-0.8-0.7c-0.5-0.5-0.5-1.2,0-1.7l0.8-0.7
	c0.5-0.5,1.2-0.5,1.7,0l0.8,0.7C26.8,59,26.8,59.8,26.4,60.3z"/>
<path opacity="0.85" fill="#4C8692" d="M29.6,57.1l-0.8,0.7c-0.5,0.5-1.2,0.5-1.7,0l-0.8-0.7c-0.5-0.5-0.5-1.2,0-1.7l0.8-0.7
	c0.5-0.5,1.2-0.5,1.7,0l0.8,0.7C30,55.9,30,56.6,29.6,57.1z"/>
<path fill="#373A48" d="M140.2,27.9h6.2v37.4c0,5.9-4.9,8.8-10,8.8c-6.2,0-9.5-3.5-9.5-8c0,0,0-2.1,0.6-3.4c1.9,0,3.8,0,5.6,0
	c-0.4,0.9-0.5,2.1-0.5,2.6c0,2.3,1.7,3.5,3.7,3.5c2.1,0,3.9-1.2,3.9-3.8V27.9z M139,20.7c0,2.4,1.9,4.2,4.3,4.2s4.4-1.8,4.4-4.2
	s-1.9-4.3-4.4-4.3S139,18.3,139,20.7z"/>
<g>
	<path fill="#373A48" d="M175.3,55.7c-1.1,1.5-2.6,2.5-4.4,3.2c-1.8,0.7-3.7,1.1-5.6,1.1c-1.2,0-2.5-0.2-3.7-0.5
		c-1.2-0.3-2.3-0.8-3.3-1.6c-1-0.7-1.8-1.7-2.4-2.8c-0.6-1.1-0.9-2.6-0.9-4.2c0-3.1,1.1-5.6,3.3-7.5c2.2-1.9,5.4-2.8,9.7-2.8
		c0.7,0,1.4,0,2.2,0.1c0.8,0,1.5,0.1,2.2,0.1c0.7,0,1.3,0.1,1.8,0.1c0.5,0,0.9,0.1,1.1,0.1v-1.1c0-2.2-0.7-3.7-2-4.7
		c-1.3-0.9-3.2-1.4-5.4-1.4c-2.2,0-4,0.3-5.3,0.9c-1.3,0.6-2.4,1.2-3.3,1.8l-2.7-3.8c0.5-0.4,1.1-0.8,1.8-1.2
		c0.7-0.4,1.6-0.8,2.5-1.2c1-0.4,2.1-0.6,3.3-0.9c1.2-0.2,2.7-0.3,4.3-0.3c3.8,0,6.8,0.9,9,2.7c2.2,1.8,3.3,4.4,3.3,7.7v16.9
		c0,1,0,1.9,0.1,2.6h-5.4L175.3,55.7z M175.3,45.5c-0.2,0-0.5-0.1-1-0.2c-0.5-0.1-1.1-0.1-1.7-0.2c-0.6,0-1.3-0.1-2-0.1
		c-0.7,0-1.4-0.1-2.1-0.1c-1.6,0-2.9,0.2-3.9,0.6c-1,0.4-1.8,0.8-2.4,1.4c-0.6,0.6-1,1.2-1.2,1.9c-0.2,0.7-0.3,1.3-0.3,2
		c0,1.6,0.6,2.8,1.7,3.6c1.1,0.8,2.6,1.2,4.6,1.2c1.1,0,2.2-0.2,3.2-0.6c1-0.4,1.9-0.9,2.6-1.5c0.8-0.6,1.4-1.4,1.8-2.2
		c0.5-0.8,0.7-1.7,0.7-2.6V45.5z"/>
	<path fill="#373A48" d="M191.1,34.9h-5.4v-4.7h5.4v-9.5h5.7v9.5h8.7v4.7h-8.7v14.3c0,2.3,0.4,3.9,1.1,4.8c0.7,0.9,1.8,1.3,3.2,1.3
		c1.1,0,2-0.2,2.7-0.5c0.7-0.3,1.4-0.8,2.2-1.5l2.6,3.4c-1.2,1.2-2.5,2-3.8,2.5c-1.3,0.5-2.8,0.8-4.6,0.8c-3.1,0-5.4-0.8-6.9-2.5
		c-1.5-1.7-2.2-4.3-2.2-7.8V34.9z"/>
	<path fill="#373A48" d="M231.6,55.7c-1.1,1.5-2.6,2.5-4.4,3.2c-1.8,0.7-3.7,1.1-5.6,1.1c-1.2,0-2.5-0.2-3.7-0.5
		c-1.2-0.3-2.3-0.8-3.3-1.6c-1-0.7-1.8-1.7-2.4-2.8c-0.6-1.1-0.9-2.6-0.9-4.2c0-3.1,1.1-5.6,3.3-7.5c2.2-1.9,5.4-2.8,9.7-2.8
		c0.7,0,1.4,0,2.2,0.1c0.8,0,1.5,0.1,2.2,0.1c0.7,0,1.3,0.1,1.8,0.1c0.5,0,0.9,0.1,1.1,0.1v-1.1c0-2.2-0.7-3.7-2-4.7
		c-1.3-0.9-3.2-1.4-5.4-1.4c-2.2,0-4,0.3-5.3,0.9c-1.3,0.6-2.4,1.2-3.3,1.8l-2.7-3.8c0.5-0.4,1.1-0.8,1.8-1.2
		c0.7-0.4,1.6-0.8,2.5-1.2c1-0.4,2.1-0.6,3.3-0.9c1.2-0.2,2.7-0.3,4.3-0.3c3.8,0,6.8,0.9,9,2.7c2.2,1.8,3.3,4.4,3.3,7.7v16.9
		c0,1,0,1.9,0.1,2.6h-5.4L231.6,55.7z M231.5,45.5c-0.2,0-0.5-0.1-1-0.2c-0.5-0.1-1.1-0.1-1.7-0.2c-0.6,0-1.3-0.1-2-0.1
		c-0.7,0-1.4-0.1-2.1-0.1c-1.6,0-2.9,0.2-3.9,0.6c-1,0.4-1.8,0.8-2.4,1.4c-0.6,0.6-1,1.2-1.2,1.9c-0.2,0.7-0.3,1.3-0.3,2
		c0,1.6,0.6,2.8,1.7,3.6c1.1,0.8,2.6,1.2,4.6,1.2c1.1,0,2.2-0.2,3.2-0.6c1-0.4,1.9-0.9,2.6-1.5c0.8-0.6,1.4-1.4,1.8-2.2
		c0.5-0.8,0.7-1.7,0.7-2.6V45.5z"/>
</g>
<path fill="#80413A" d="M259.6,58.8V32.5c0-0.9,0-1.9-0.1-2.8h5.5l0.2,4.7c0.3-0.5,0.8-1.1,1.3-1.7c0.6-0.6,1.2-1.2,2-1.7
	c0.8-0.5,1.7-0.9,2.7-1.3c1-0.4,2.2-0.5,3.6-0.5c0.6,0,1.2,0,1.8,0.1c0.5,0.1,1,0.2,1.5,0.4l-1.3,5.3c-0.8-0.3-1.7-0.4-2.9-0.4
	c-1.2,0-2.4,0.2-3.4,0.7c-1,0.5-1.9,1.1-2.7,1.9c-0.8,0.8-1.4,1.8-1.8,2.8s-0.7,2.2-0.7,3.4v15.3H259.6z"/>
<path fill="#80413A" d="M282.7,29.7h5.8v17.1c0,2.8,0.6,4.8,1.7,6c1.2,1.2,2.8,1.8,5,1.8c1.7,0,3-0.3,4.1-1c1.1-0.7,2-1.5,2.7-2.6
	c0.7-1.1,1.2-2.3,1.4-3.6c0.3-1.4,0.4-2.7,0.4-4.2V29.7h5.8v26.2c0,0.9,0,1.9,0.1,2.9h-5.5l-0.2-4.3c-0.4,0.5-0.9,1-1.4,1.6
	c-0.6,0.6-1.2,1.1-2,1.6c-0.8,0.5-1.7,0.9-2.8,1.2c-1.1,0.3-2.3,0.5-3.6,0.5c-3.9,0-6.7-1.1-8.6-3.3c-1.8-2.2-2.7-5.2-2.7-9V29.7z"
	/>
<path opacity="0.85" fill="#4C8692" d="M48.9,56.9l-0.8,0.7c-0.5,0.5-1.2,0.5-1.7,0l-0.8-0.7c-0.5-0.5-0.5-1.2,0-1.7l0.8-0.7
	c0.5-0.5,1.2-0.5,1.7,0l0.8,0.7C49.4,55.7,49.4,56.5,48.9,56.9z"/>
</svg>
