<?xml version="1.0" encoding="utf-8"?>
<!-- Generator: Adobe Illustrator 18.0.0, SVG Export Plug-In . SVG Version: 6.00 Build 0)  -->
<!DOCTYPE svg PUBLIC "-//W3C//DTD SVG 1.1//EN" "http://www.w3.org/Graphics/SVG/1.1/DTD/svg11.dtd">
<svg version="1.1" id="Слой_1" xmlns="http://www.w3.org/2000/svg" xmlns:xlink="http://www.w3.org/1999/xlink" x="0px" y="0px"
	 viewBox="0 0 300 100" enable-background="new 0 0 300 100" xml:space="preserve">
<ellipse fill="#80413A" cx="239.4" cy="60.9" rx="4.3" ry="4.7"/>
<path fill="#5D8796" d="M34.9,78.7c0,0,1.9-2,2-2.2c0.4-0.5,0.9,0.2,0.7,0c-0.7-0.8,2,2.2,2,2.2S37.2,81.2,34.9,78.7z"/>
<path fill="#80413A" d="M56.3,74c-2.2-2.3,0-4.2,0-4.2s1.4,1.6,1.6,1.7c0.3,0.3,0.1,0.6,0,0.8C57.8,72.3,56.3,74,56.3,74z"/>
<path fill="#5D8796" d="M55.2,70c-0.4,0.5-1.2,1.4-1.3,1.4s-0.3,0.5,0,0.8c0.3,0.3,1.7,1.7,1.7,1.7C53.7,72.2,54.6,70.6,55.2,70z"/>
<path fill="#80413A" d="M55.5,35.6c2.2,2.3,0,4.2,0,4.2l-2-2.2L55.5,35.6z"/>
<path fill="#5D8796" d="M55.9,35.1c2.4,2.7,0,5.2,0,5.2l2.4-2.7L55.9,35.1z"/>
<path fill="#5D8796" d="M77.5,45.9c2.2,2.3,0,4.2,0,4.2s-1.4-1.6-1.6-1.7c-0.1-0.2-0.3-0.6,0-0.8C76.2,47.3,77.5,45.9,77.5,45.9z"/>
<path fill="#80413A" d="M21.8,45.9c-2.2,2.3,0,4.2,0,4.2l2-2.2L21.8,45.9z"/>
<path fill="#80413A" d="M45.5,24.5c-2.2-2.3-3.9,0-3.9,0l2,2.2L45.5,24.5z"/>
<path fill="#5D8796" d="M54.2,56.1l-0.4,0.3c-0.6,0.6-1.4,0.6-2,0l-0.3-0.3c-0.6-0.6-0.6-1.6,0-2.2l0.3-0.3c0.6-0.6,1.4-0.6,2,0
	l0.3,0.3C54.7,54.3,54.7,55.4,54.2,56.1z"/>
<path fill="#5D8796" d="M57.2,59.3l-0.3,0.5c-0.6,0.6-1.4,0.6-2,0l-0.3-0.3c-0.6-0.6-0.6-1.6,0-2.2l0.3-0.3c0.6-0.6,1.4-0.6,2,0
	l0.3,0.3C57.8,57.8,57.8,58.9,57.2,59.3z"/>
<path fill="#5D8796" d="M60.3,56.1l-0.3,0.3c-0.6,0.6-1.4,0.6-2,0l-0.3-0.3c-0.6-0.6-0.6-1.6,0-2.2l0.3-0.3c0.6-0.6,1.4-0.6,2,0
	l0.3,0.3C60.9,54.3,60.9,55.4,60.3,56.1z"/>
<path fill="#5D8796" d="M57.2,52.6l-0.3,0.3c-0.6,0.6-1.4,0.6-2,0l-0.3-0.3c-0.6-0.6-0.6-1.6,0-2.2l0.3-0.3c0.6-0.6,1.4-0.6,2,0
	l0.3,0.3C57.8,51.1,57.8,52,57.2,52.6z"/>
<path fill="#5D8796" d="M60.5,49l-0.3,0.3c-0.6,0.6-1.4,0.6-2,0L57.9,49c-0.6-0.6-0.6-1.6,0-2.2l0.3-0.3c0.6-0.6,1.4-0.6,2,0
	l0.3,0.3C61.1,47.5,61.1,48.4,60.5,49z"/>
<path fill="#5D8796" d="M63.7,45.6l-0.3,0.3c-0.6,0.6-1.4,0.6-2,0l-0.3-0.3c-0.6-0.6-0.6-1.6,0-2.2l0.3-0.3c0.6-0.6,1.4-0.6,2,0
	l0.3,0.3C64.1,44,64.1,45.1,63.7,45.6z"/>
<path fill="#5D8796" d="M60.3,42.2l-0.3,0.3c-0.6,0.6-1.4,0.6-2,0l-0.3-0.3c-0.6-0.6-0.6-1.6,0-2.2l0.3-0.3c0.6-0.6,1.4-0.6,2,0
	l0.3,0.3C60.9,40.6,60.9,41.5,60.3,42.2z"/>
<path fill="#5D8796" d="M57.2,45.6l-0.3,0.3c-0.6,0.6-1.4,0.6-2,0l-0.3-0.3C54,45,54,44,54.6,43.4l0.3-0.3c0.6-0.6,1.4-0.6,2,0
	l0.3,0.3C57.8,44,57.8,45,57.2,45.6z"/>
<path fill="#5D8796" d="M54,49.2l-0.3,0.3c-0.6,0.6-1.4,0.6-2,0l-0.3-0.3c-0.6-0.6-0.6-1.6,0-2.2l0.3-0.3c0.6-0.6,1.4-0.6,2,0L54,47
	C54.6,47.5,54.6,48.6,54,49.2z"/>
<path fill="#5D8796" d="M50.9,52.5l-0.3,0.3c-0.6,0.6-1.4,0.6-2,0l-0.3-0.3c-0.6-0.6-0.6-1.6,0-2.2l0.3-0.3c0.6-0.6,1.4-0.6,2,0
	l0.3,0.3C51.4,50.9,51.4,52,50.9,52.5z"/>
<path fill="#5D8796" d="M47.8,55.9l-0.3,0.3c-0.6,0.6-1.4,0.6-2,0l-0.3-0.3c-0.6-0.6-0.6-1.6,0-2.2l0.1-0.5c0.6-0.6,1.4-0.6,2,0
	l0.3,0.3C48.4,54.3,48.4,55.3,47.8,55.9z"/>
<path fill="#5D8796" d="M44.7,59.3l-0.3,0.3c-0.6,0.6-1.4,0.6-2,0l-0.3-0.3c-0.6-0.6-0.6-1.6,0-2.2l0.3-0.3c0.6-0.6,1.4-0.6,2,0
	l0.3,0.3C45.2,57.6,45.2,58.7,44.7,59.3z"/>
<path fill="#80413A" d="M47.8,62.8l-0.3,0.3c-0.6,0.6-1.4,0.6-2,0l-0.3-0.3c-0.6-0.6-0.6-1.6,0-2.2l0.3-0.3c0.6-0.6,1.4-0.6,2,0
	l0.3,0.3C48.4,61.2,48.4,62.2,47.8,62.8z"/>
<path fill="#5D8796" d="M51,59.3l-0.3,0.3c-0.6,0.6-1.4,0.6-2,0l-0.4-0.3c-0.6-0.6-0.6-1.6,0-2.2l0.3-0.3c0.6-0.6,1.4-0.6,2,0
	l0.3,0.3C51.6,57.8,51.6,58.7,51,59.3z"/>
<path fill="#5D8796" d="M54.2,62.8l-0.3,0.3c-0.6,0.6-1.4,0.6-2,0l-0.3-0.3c-0.6-0.6-0.6-1.6,0-2.2l0.3-0.3c0.6-0.6,1.4-0.6,2,0
	l0.3,0.3C54.7,61.2,54.7,62.2,54.2,62.8z"/>
<path fill="#5D8796" d="M51,66.2l-0.3,0.3c-0.6,0.6-1.4,0.6-2,0l-0.4-0.3c-0.6-0.6-0.6-1.6,0-2.2l0.3-0.3c0.6-0.6,1.4-0.6,2,0
	l0.3,0.3C51.6,64.7,51.6,65.6,51,66.2z"/>
<path fill="#5D8796" d="M54,69.5l-0.3,0.3c-0.6,0.6-1.4,0.6-2,0l-0.3-0.3c-0.6-0.6-0.6-1.6,0-2.2l0.3-0.3c0.6-0.6,1.4-0.6,2,0
	l0.3,0.3C54.6,67.9,54.6,68.9,54,69.5z"/>
<path fill="#5D8796" d="M51,72.9l-0.3,0.3c-0.6,0.6-1.4,0.6-2,0l-0.4-0.3c-0.6-0.6-0.6-1.6,0-2.2l0.3-0.3c0.6-0.6,1.4-0.6,2,0
	l0.3,0.3C51.6,71.4,51.6,72.3,51,72.9z"/>
<path fill="#5D8796" d="M54.2,76.4l-0.4,0.3c-0.6,0.6-1.4,0.6-2,0l-0.3-0.3c-0.6-0.6-0.6-1.6,0-2.2l0.3-0.3c0.6-0.6,1.4-0.6,2,0
	l0.3,0.3C54.7,74.7,54.7,75.7,54.2,76.4z"/>
<path fill="#5D8796" d="M51,79.8l-0.3,0.3c-0.6,0.6-1.4,0.6-2,0l-0.4-0.3c-0.6-0.6-0.6-1.6,0-2.2l0.3-0.3c0.6-0.6,1.4-0.6,2,0
	l0.3,0.3C51.6,78.1,51.6,79.2,51,79.8z"/>
<path fill="#5D8796" d="M47.8,76.4l-0.3,0.3c-0.6,0.6-1.4,0.6-2,0l-0.3-0.3c-0.6-0.6-0.6-1.6,0-2.2l0.3-0.3c0.6-0.6,1.4-0.6,2,0
	l0.3,0.3C48.4,74.7,48.4,75.7,47.8,76.4z"/>
<path fill="#5D8796" d="M47.8,69.5l-0.3,0.3c-0.6,0.6-1.4,0.6-2,0l-0.3-0.3c-0.6-0.6-0.6-1.6,0-2.2l0.3-0.3c0.6-0.6,1.4-0.6,2,0
	l0.3,0.3C48.4,67.9,48.4,68.9,47.8,69.5z"/>
<path fill="#5D8796" d="M44.7,72.9l-0.3,0.3c-0.6,0.6-1.4,0.6-2,0l-0.3-0.3c-0.6-0.6-0.6-1.6,0-2.2l0.3-0.3c0.6-0.6,1.4-0.6,2,0
	l0.3,0.3C45.2,71.4,45.2,72.3,44.7,72.9z"/>
<path fill="#5D8796" d="M41.7,76.4l-0.3,0.3c-0.6,0.6-1.4,0.6-2,0l-0.3-0.3c-0.6-0.6-0.6-1.6,0-2.2l0.3-0.3c0.6-0.6,1.4-0.6,2,0
	l0.3,0.3C42.2,74.7,42.2,75.7,41.7,76.4z"/>
<path fill="#5D8796" d="M38.5,72.9l-0.3,0.3c-0.6,0.6-1.4,0.6-2,0l-0.3-0.3c-0.6-0.6-0.6-1.6,0-2.2l0.3-0.3c0.6-0.6,1.4-0.6,2,0
	l0.3,0.3C39.1,71.4,39.1,72.3,38.5,72.9z"/>
<path fill="#5D8796" d="M34.2,72.8c0,0,1.9,2,2,2.2c0.4,0.5-0.1,0.9,0,0.8c0.7-0.8-2,2.2-2,2.2S31.9,75.3,34.2,72.8z"/>
<path fill="#5D8796" d="M25.4,75.3c0,0,1.9-2,2-2.2c0.4-0.5,0.9,0.2,0.7,0c-0.7-0.8,2,2.2,2,2.2S27.7,77.8,25.4,75.3z"/>
<path fill="#5D8796" d="M24.7,69.3c0,0,1.9,2,2,2.2c0.4,0.5-0.1,0.9,0,0.8c0.7-0.8-2,2.2-2,2.2S22.4,71.8,24.7,69.3z"/>
<path fill="#5D8796" d="M15.8,71.7c0,0,1.9-2,2-2.2c0.4-0.5,0.9,0.2,0.7,0c-0.7-0.8,2,2.2,2,2.2S18.1,74.3,15.8,71.7z"/>
<path fill="#5D8796" d="M15.2,65.9c0,0,1.9,2,2,2.2c0.4,0.5-0.1,0.9,0,0.8c0.7-0.8-2,2.2-2,2.2S12.8,68.3,15.2,65.9z"/>
<path fill="#5D8796" d="M44.2,82c0,0,1.9-2,2-2.2c0.4-0.5,0.9,0.2,0.7,0C46.3,79,49,82,49,82S46.5,84.5,44.2,82z"/>
<path fill="#5D8796" d="M43.5,76.1c0,0,1.9,2,2,2.2c0.4,0.5-0.1,0.9,0,0.8c0.7-0.8-2,2.2-2,2.2S41.2,78.6,43.5,76.1z"/>
<path fill="#5D8796" d="M41.7,69.5l-0.3,0.3c-0.6,0.6-1.4,0.6-2,0l-0.3-0.3c-0.6-0.6-0.6-1.6,0-2.2l0.3-0.3c0.6-0.6,1.4-0.6,2,0
	l0.3,0.3C42.2,67.9,42.2,68.9,41.7,69.5z"/>
<path fill="#5D8796" d="M35.3,69.3L35,69.7c-0.6,0.6-1.4,0.6-2,0l-0.3-0.3c-0.6-0.6-0.6-1.6,0-2.2l0.3-0.3c0.6-0.6,1.4-0.6,2,0
	l0.3,0.3C35.9,67.8,35.9,68.9,35.3,69.3z"/>
<path fill="#5D8796" d="M32.2,72.8l-0.3,0.3c-0.6,0.6-1.4,0.6-2,0l-0.3-0.3c-0.6-0.6-0.6-1.6,0-2.2l0.3-0.3c0.6-0.6,1.4-0.6,2,0
	l0.3,0.3C32.7,71.2,32.7,72.3,32.2,72.8z"/>
<path fill="#5D8796" d="M29,69.5l-0.3,0.3c-0.6,0.6-1.4,0.6-2,0l-0.3-0.3c-0.6-0.6-0.6-1.6,0-2.2l0.3-0.3c0.6-0.6,1.4-0.6,2,0
	l0.3,0.3C29.6,67.8,29.6,68.9,29,69.5z"/>
<path fill="#5D8796" d="M32.2,66.1l-0.3,0.3c-0.6,0.6-1.4,0.6-2,0l-0.3-0.3c-0.6-0.6-0.6-1.6,0-2.2l0.3-0.3c0.6-0.6,1.4-0.6,2,0
	l0.3,0.3C32.7,64.5,32.7,65.4,32.2,66.1z"/>
<path fill="#5D8796" d="M44.7,66.2l-0.3,0.3c-0.6,0.6-1.4,0.6-2,0l-0.3-0.3c-0.6-0.6-0.6-1.6,0-2.2l0.3-0.3c0.6-0.6,1.4-0.6,2,0
	l0.3,0.3C45.2,64.5,45.2,65.6,44.7,66.2z"/>
<path fill="#5D8796" d="M47.8,62.8l-0.3,0.3c-0.6,0.6-1.4,0.6-2,0l-0.3-0.3c-0.6-0.6-0.6-1.6,0-2.2l0.3-0.3c0.6-0.6,1.4-0.6,2,0
	l0.3,0.3C48.4,61.2,48.4,62.2,47.8,62.8z"/>
<path fill="#5D8796" d="M38.3,66.1l-0.3,0.3c-0.6,0.6-1.4,0.6-2,0l-0.3-0.3c-0.6-0.6-0.6-1.6,0-2.2l0.3-0.3c0.6-0.6,1.4-0.6,2,0
	l0.3,0.3C38.9,64.5,38.9,65.4,38.3,66.1z"/>
<path fill="#5D8796" d="M41.5,62.6l-0.3,0.3c-0.6,0.6-1.4,0.6-2,0l-0.4-0.3c-0.6-0.6-0.6-1.6,0-2.2l0.3-0.3c0.6-0.6,1.4-0.6,2,0
	l0.3,0.3C42.1,61.1,42.1,62,41.5,62.6z"/>
<path fill="#5D8796" d="M35.3,62.6L35,62.9c-0.6,0.6-1.4,0.6-2,0l-0.4-0.3c-0.6-0.6-0.6-1.6,0-2.2l0.3-0.3c0.6-0.6,1.4-0.6,2,0
	l0.3,0.3C35.8,61.1,35.8,62,35.3,62.6z"/>
<path fill="#5D8796" d="M38.3,59.2l-0.3,0.3c-0.6,0.6-1.4,0.6-2,0l-0.3-0.3c-0.6-0.6-0.6-1.6,0-2.2l0.3-0.3c0.6-0.6,1.4-0.6,2,0
	l0.3,0.3C38.9,57.6,38.9,58.7,38.3,59.2z"/>
<path fill="#5D8796" d="M32.2,59.3l-0.3,0.3c-0.6,0.6-1.4,0.6-2,0l-0.3-0.3c-0.6-0.6-0.6-1.6,0-2.2l0.3-0.3c0.6-0.6,1.4-0.6,2,0
	l0.3,0.3C32.7,57.8,32.7,58.7,32.2,59.3z"/>
<path fill="#5D8796" d="M35.3,55.9L35,56.2c-0.6,0.6-1.4,0.6-2,0l-0.3-0.3c-0.6-0.6-0.6-1.6,0-2.2l0.3-0.3c0.6-0.6,1.4-0.6,2,0
	l0.3,0.3C35.9,54.3,35.9,55.3,35.3,55.9z"/>
<path fill="#5D8796" d="M29,55.9l-0.3,0.3c-0.6,0.6-1.4,0.6-2,0l-0.3-0.3c-0.6-0.6-0.6-1.6,0-2.2l0.3-0.5c0.6-0.6,1.4-0.6,2,0
	l0.3,0.3C29.6,54.3,29.6,55.3,29,55.9z"/>
<path fill="#5D8796" d="M32.2,52.5l-0.3,0.3c-0.6,0.6-1.4,0.6-2,0l-0.3-0.3c-0.6-0.6-0.6-1.6,0-2.2l0.3-0.3c0.6-0.6,1.4-0.6,2,0
	l0.3,0.3C32.7,50.9,32.7,51.8,32.2,52.5z"/>
<path fill="#5D8796" d="M19.8,66.1l-0.3,0.3c-0.6,0.6-1.4,0.6-2,0l-0.3-0.3c-0.6-0.6-0.6-1.6,0-2.2l0.3-0.3c0.6-0.6,1.4-0.6,2,0
	l0.3,0.3C20.4,64.3,20.4,65.4,19.8,66.1z"/>
<path fill="#5D8796" d="M22.8,62.6l-0.3,0.3c-0.6,0.6-1.4,0.6-2,0l-0.4-0.3c-0.6-0.6-0.6-1.6,0-2.2l0.3-0.3c0.6-0.6,1.4-0.6,2,0
	l0.3,0.3C23.4,61.1,23.4,62,22.8,62.6z"/>
<path fill="#5D8796" d="M26,59.2l-0.3,0.3c-0.6,0.6-1.4,0.6-2,0l-0.3-0.3c-0.6-0.6-0.6-1.6,0-2.2l0.3-0.3c0.6-0.6,1.4-0.6,2,0L26,57
	C26.6,57.6,26.6,58.7,26,59.2z"/>
<path fill="#5D8796" d="M35.3,49.2L35,49.5c-0.6,0.6-1.4,0.6-2,0l-0.3-0.3c-0.6-0.6-0.6-1.6,0-2.2l0.3-0.3c0.6-0.6,1.4-0.6,2,0
	l0.3,0.3C35.9,47.5,35.9,48.6,35.3,49.2z"/>
<path fill="#5D8796" d="M41.7,42.5l-0.3,0.3c-0.6,0.6-1.4,0.6-2,0l-0.3-0.3c-0.6-0.6-0.6-1.6,0-2.2l0.3-0.3c0.6-0.6,1.4-0.6,2,0
	l0.3,0.3C42.2,40.8,42.2,41.9,41.7,42.5z"/>
<path fill="#5D8796" d="M44.7,38.9l-0.3,0.3c-0.6,0.6-1.4,0.6-2,0l-0.3-0.3c-0.6-0.6-0.6-1.6,0-2.2l0.3-0.3c0.6-0.6,1.4-0.6,2,0
	l0.3,0.3C45.2,37.3,45.2,38.3,44.7,38.9z"/>
<path fill="#5D8796" d="M38.3,45.8l-0.3,0.3c-0.6,0.6-1.4,0.6-2,0l-0.3-0.3c-0.6-0.6-0.6-1.6,0-2.2l0.3-0.3c0.6-0.6,1.4-0.6,2,0
	l0.3,0.3C38.9,44,38.9,45.1,38.3,45.8z"/>
<path fill="#5D8796" d="M60.3,28.7L60.1,29c-0.6,0.6-1.4,0.6-2,0l-0.3-0.3c-0.6-0.6-0.6-1.6,0-2.2l0.3-0.3c0.6-0.6,1.4-0.6,2,0
	l0.3,0.3C60.9,27,60.9,28.1,60.3,28.7z"/>
<path fill="#5D8796" d="M63.5,32l-0.3,0.3c-0.6,0.6-1.4,0.6-2,0L60.9,32c-0.6-0.6-0.6-1.6,0-2.2l0.3-0.3c0.6-0.6,1.4-0.6,2,0
	l0.3,0.3C64.1,30.4,64.1,31.4,63.5,32z"/>
<path fill="#5D8796" d="M66.7,35.4l-0.3,0.3c-0.6,0.6-1.4,0.6-2,0l-0.3-0.3c-0.6-0.6-0.6-1.6,0-2.2l0.3-0.3c0.6-0.6,1.4-0.6,2,0
	l0.3,0.3C67.2,33.9,67.2,34.8,66.7,35.4z"/>
<path fill="#5D8796" d="M57.2,32l-0.3,0.5c-0.6,0.6-1.4,0.6-2,0l-0.3-0.3c-0.6-0.6-0.6-1.6,0-2.2l0.3-0.3c0.6-0.6,1.4-0.6,2,0
	l0.3,0.3C57.8,30.4,57.8,31.4,57.2,32z"/>
<path fill="#5D8796" d="M60.3,35.4l-0.3,0.3c-0.6,0.6-1.4,0.6-2,0l-0.3-0.3c-0.6-0.6-0.6-1.6,0-2.2l0.3-0.3c0.6-0.6,1.4-0.6,2,0
	l0.3,0.3C60.9,33.7,60.9,34.8,60.3,35.4z"/>
<path fill="#5D8796" d="M63.5,38.9l-0.4,0.3c-0.6,0.6-1.4,0.6-2,0l-0.3-0.3c-0.6-0.6-0.6-1.6,0-2.2l0.3-0.3c0.6-0.6,1.4-0.6,2,0
	l0.3,0.3C64.1,37.3,64.1,38.3,63.5,38.9z"/>
<path fill="#5D8796" d="M66.7,42.3l-0.3,0.3c-0.6,0.6-1.4,0.6-2,0l-0.4-0.3c-0.6-0.6-0.6-1.6,0-2.2l0.3-0.3c0.6-0.6,1.4-0.6,2,0
	l0.3,0.3C67.2,40.8,67.2,41.7,66.7,42.3z"/>
<path fill="#5D8796" d="M69.8,45.8l-0.3,0.3c-0.6,0.6-1.4,0.6-2,0l-0.3-0.3c-0.6-0.6-0.6-1.6,0-2.2l0.3-0.3c0.6-0.6,1.4-0.6,2,0
	l0.3,0.3C70.4,44,70.4,45.1,69.8,45.8z"/>
<path fill="#5D8796" d="M73,49.2l-0.3,0.3c-0.6,0.6-1.4,0.6-2,0l-0.3-0.3c-0.6-0.6-0.6-1.6,0-2.2l0.3-0.3c0.6-0.6,1.4-0.6,2,0L73,47
	C73.4,47.5,73.4,48.6,73,49.2z"/>
<path fill="#5D8796" d="M69.8,38.9l-0.3,0.3c-0.6,0.6-1.4,0.6-2,0l-0.3-0.3c-0.6-0.6-0.6-1.6,0-2.2l0.3-0.3c0.6-0.6,1.4-0.6,2,0
	l0.3,0.3C70.4,37.3,70.4,38.3,69.8,38.9z"/>
<path fill="#5D8796" d="M73,42.3l-0.3,0.3c-0.6,0.6-1.4,0.6-2,0l-0.4-0.3c-0.6-0.6-0.6-1.6,0-2.2l0.3-0.3c0.6-0.6,1.4-0.6,2,0
	l0.3,0.3C73.4,40.6,73.4,41.7,73,42.3z"/>
<path fill="#5D8796" d="M76,45.8l-0.3,0.3c-0.6,0.6-1.4,0.6-2,0l-0.3-0.3c-0.6-0.6-0.6-1.6,0-2.2l0.3-0.3c0.6-0.6,1.4-0.6,2,0
	l0.3,0.3C76.6,44,76.6,45.1,76,45.8z"/>
<path fill="#5D8796" d="M76,52.5l-0.3,0.3c-0.6,0.6-1.4,0.6-2,0l-0.3-0.3c-0.6-0.6-0.6-1.6,0-2.2l0.3-0.3c0.6-0.6,1.4-0.6,2,0
	l0.3,0.3C76.6,50.9,76.6,51.8,76,52.5z"/>
<path fill="#5D8796" d="M53.9,24.5c2.2-2.3,3.9,0,3.9,0s-1.4,1.6-1.6,1.7c-0.1,0.2-0.6,0.3-0.7,0C55.2,25.9,53.9,24.5,53.9,24.5z"/>
<path fill="#5D8796" d="M54.2,28.7L53.9,29c-0.6,0.6-1.4,0.6-2,0l-0.3-0.3c-0.6-0.6-0.6-1.6,0-2.2l0.3-0.3c0.6-0.6,1.4-0.6,2,0
	l0.3,0.3C54.7,27,54.7,28.1,54.2,28.7z"/>
<path fill="#5D8796" d="M65.1,24.4l-0.3,0.3c-0.6,0.6-1.4,0.6-2,0l-0.3-0.3c-0.6-0.6-0.6-1.6,0-2.2l0.3-0.3c0.6-0.6,1.4-0.6,2,0
	l0.3,0.3C65.7,22.8,65.7,23.7,65.1,24.4z"/>
<path fill="#5D8796" d="M68.1,27.8l-0.3,0.3c-0.6,0.6-1.4,0.6-2,0l-0.3-0.3c-0.6-0.6-0.6-1.6,0-2.2l0.3-0.3c0.6-0.6,1.4-0.6,2,0
	l0.3,0.3C68.7,26.2,68.7,27.2,68.1,27.8z"/>
<path fill="#5D8796" d="M71.3,31.2L71,31.5c-0.6,0.6-1.4,0.6-2,0l-0.3-0.3c-0.6-0.6-0.6-1.6,0-2.2l0.3-0.3c0.6-0.6,1.4-0.6,2,0
	l0.3,0.3C71.8,29.7,71.8,30.6,71.3,31.2z"/>
<path fill="#5D8796" d="M74.4,34.7l-0.3,0.5c-0.6,0.6-1.4,0.6-2,0l-0.3-0.3c-0.6-0.6-0.6-1.6,0-2.2l0.3-0.3c0.6-0.6,1.4-0.6,2,0
	l0.3,0.3C75,33.1,75,34,74.4,34.7z"/>
<path fill="#5D8796" d="M77.6,38.1l-0.3,0.3c-0.6,0.6-1.4,0.6-2,0L75,38.1c-0.6-0.6-0.6-1.6,0-2.2l0.3-0.3c0.6-0.6,1.4-0.6,2,0
	l0.3,0.3C78.2,36.4,78.2,37.5,77.6,38.1z"/>
<path fill="#5D8796" d="M80.8,41.5l-0.3,0.3c-0.6,0.6-1.4,0.6-2,0l-0.3-0.3c-0.6-0.6-0.6-1.6,0-2.2l0.3-0.3c0.6-0.6,1.4-0.6,2,0
	l0.3,0.3C81.3,39.8,81.3,40.9,80.8,41.5z"/>
<path fill="#5D8796" d="M68.3,20.9L68,21.2c-0.6,0.6-1.4,0.6-2,0l-0.4-0.3c-0.6-0.6-0.6-1.6,0-2.2l0.3-0.3c0.6-0.6,1.4-0.6,2,0
	l0.3,0.3C68.8,19.4,68.8,20.3,68.3,20.9z"/>
<path fill="#5D8796" d="M71.3,24.4L71,24.7c-0.6,0.6-1.4,0.6-2,0l-0.3-0.3c-0.6-0.6-0.6-1.6,0-2.2l0.3-0.3c0.6-0.6,1.4-0.6,2,0
	l0.3,0.2C71.8,22.6,71.8,23.7,71.3,24.4z"/>
<path fill="#5D8796" d="M74.4,27.8l-0.3,0.3c-0.6,0.6-1.4,0.6-2,0l-0.3-0.3c-0.6-0.6-0.6-1.6,0-2.2l0.3-0.3c0.6-0.6,1.4-0.6,2,0
	l0.3,0.3C75,26.1,75,27.2,74.4,27.8z"/>
<path fill="#5D8796" d="M77.7,31.2l-0.3,0.3c-0.6,0.6-1.4,0.6-2,0l-0.3-0.3c-0.6-0.6-0.6-1.6,0-2.2l0.3-0.3c0.6-0.6,1.4-0.6,2,0
	l0.3,0.3C78.2,29.7,78.2,30.6,77.7,31.2z"/>
<path fill="#5D8796" d="M80.8,34.5l-0.3,0.3c-0.6,0.6-1.4,0.6-2,0l-0.3-0.3c-0.6-0.6-0.6-1.6,0-2.2l0.3-0.3c0.6-0.6,1.4-0.6,2,0
	l0.3,0.3C81.3,32.9,81.3,33.9,80.8,34.5z"/>
<path fill="#5D8796" d="M83.9,37.9l-0.3,0.3c-0.6,0.6-1.4,0.6-2,0l-0.3-0.3c-0.6-0.6-0.6-1.6,0-2.2l0.3-0.3c0.6-0.6,1.4-0.6,2,0
	l0.3,0.3C84.5,36.4,84.5,37.3,83.9,37.9z"/>
<path fill="#80413A" d="M64.4,78.6c0,0-1.9-2-2-2.2c-0.4-0.5-0.9,0.2-0.7,0c0.7-0.8-2,2.2-2,2.2S62.1,81.1,64.4,78.6z"/>
<path fill="#80413A" d="M65.1,72.6c0,0-1.9,2-2,2.2c-0.4,0.5,0.1,0.9,0,0.8c-0.7-0.8,2,2.2,2,2.2S67.4,75.1,65.1,72.6z"/>
<path fill="#80413A" d="M73.9,75.3c0,0-1.9-2-2-2.2c-0.4-0.5-0.9,0.2-0.7,0c0.7-0.8-2,2.2-2,2.2S71.6,77.8,73.9,75.3z"/>
<path fill="#80413A" d="M74.6,69.3c0,0-1.9,2-2,2.2c-0.4,0.5,0.1,0.9,0,0.8c-0.7-0.8,2,2.2,2,2.2S76.9,71.8,74.6,69.3z"/>
<path fill="#80413A" d="M83.5,71.7c0,0-1.9-2-2-2.2c-0.4-0.5-0.9,0.2-0.7,0c0.7-0.8-2,2.2-2,2.2S81.2,74.2,83.5,71.7z"/>
<path fill="#80413A" d="M84.1,65.8c0,0-1.9,2-2,2.2c-0.4,0.5,0.1,0.9,0,0.8c-0.7-0.8,2,2.2,2,2.2S86.5,68.3,84.1,65.8z"/>
<path fill="#80413A" d="M55,81.8c0,0-1.9-2-2-2.2c-0.4-0.5-0.9,0.2-0.7,0c0.7-0.8-2,2.2-2,2.2S52.7,84.5,55,81.8z"/>
<path fill="#80413A" d="M55.7,76.1c0,0-1.9,2-2,2.2c-0.4,0.5,0.1,0.9,0,0.8c-0.7-0.8,2,2.2,2,2.2S58,78.4,55.7,76.1z"/>
<path fill="#80413A" d="M60.3,76.4l-0.4,0.3c-0.6,0.6-1.4,0.6-2,0l-0.3-0.3c-0.6-0.6-0.6-1.6,0-2.2l0.3-0.3c0.6-0.6,1.4-0.6,2,0
	l0.3,0.3C60.9,74.7,60.9,75.7,60.3,76.4z"/>
<path fill="#80413A" d="M63.4,72.9l-0.3,0.3c-0.6,0.6-1.4,0.6-2,0l-0.3-0.3c-0.6-0.6-0.6-1.6,0-2.2l0.3-0.3c0.6-0.6,1.4-0.6,2,0
	l0.3,0.3C63.9,71.2,63.9,72.3,63.4,72.9z"/>
<path fill="#80413A" d="M66.5,69.5l-0.3,0.3c-0.6,0.6-1.4,0.6-2,0l-0.3-0.3c-0.6-0.6-0.6-1.6,0-2.2l0.3-0.3c0.6-0.6,1.4-0.6,2,0
	l0.3,0.3C67.1,67.9,67.1,68.9,66.5,69.5z"/>
<path fill="#80413A" d="M69.7,66.2l-0.3,0.3c-0.6,0.6-1.4,0.6-2,0L67,66.2c-0.6-0.6-0.6-1.6,0-2.2l0.3-0.3c0.6-0.6,1.4-0.6,2,0
	l0.3,0.3C70.3,64.5,70.3,65.6,69.7,66.2z"/>
<path fill="#80413A" d="M69.7,72.9l-0.3,0.3c-0.6,0.6-1.4,0.6-2,0L67,72.9c-0.6-0.6-0.6-1.6,0-2.2l0.3-0.3c0.6-0.6,1.4-0.6,2,0
	l0.3,0.3C70.3,71.4,70.3,72.3,69.7,72.9z"/>
<path fill="#80413A" d="M72.9,69.5l-0.3,0.3c-0.6,0.6-1.4,0.6-2,0l-0.3-0.3c-0.6-0.6-0.6-1.6,0-2.2l0.3-0.3c0.6-0.6,1.4-0.6,2,0
	l0.3,0.3C73.4,67.9,73.4,68.9,72.9,69.5z"/>
<path fill="#80413A" d="M61.1,68.9c-2.2-2.3-3.9,0-3.9,0s1.4,1.6,1.6,1.7c0.3,0.3,0.6,0.2,0.7,0L61.1,68.9z"/>
<path fill="#5D8796" d="M57.3,67.8c0.4-0.5,1.3-1.2,1.3-1.4c0.1-0.2,0.4-0.3,0.7,0c0.3,0.3,1.6,1.9,1.6,1.9
	C59.2,66.2,57.9,67.2,57.3,67.8z"/>
<path fill="#80413A" d="M59.3,63.9c-2.2-2.3,0-4.2,0-4.2s1.4,1.6,1.6,1.7c0.3,0.3,0.1,0.6,0,0.8C60.9,62.2,59.3,63.9,59.3,63.9z"/>
<path fill="#5D8796" d="M58.2,59.8c-0.4,0.5-1.2,1.4-1.3,1.4s-0.3,0.5,0,0.8c0.3,0.3,1.7,1.7,1.7,1.7C56.9,61.8,57.8,60.4,58.2,59.8
	z"/>
<path fill="#80413A" d="M64.1,58.7c-2.2-2.3-3.9,0-3.9,0s1.4,1.6,1.6,1.7c0.3,0.3,0.6,0.2,0.7,0C62.6,60.4,64.1,58.7,64.1,58.7z"/>
<path fill="#5D8796" d="M60.5,57.5c0.4-0.5,1.3-1.2,1.3-1.4c0.1,0,0.4-0.3,0.7,0c0.3,0.3,1.6,1.9,1.6,1.9
	C62.4,55.9,60.9,56.8,60.5,57.5z"/>
<path fill="#80413A" d="M62.6,53.6c-2.2-2.3,0-4.2,0-4.2s1.4,1.6,1.6,1.7c0.3,0.3,0.1,0.6,0,0.8L62.6,53.6z"/>
<path fill="#5D8796" d="M61.5,49.5c-0.4,0.5-1.2,1.4-1.3,1.4s-0.3,0.5,0,0.8c0.3,0.3,1.7,1.7,1.7,1.7C60.1,51.7,61.1,50.1,61.5,49.5
	z"/>
<path fill="#80413A" d="M67.4,48.4c-2.2-2.3-3.9,0-3.9,0s1.4,1.6,1.6,1.7c0.3,0.3,0.6,0.2,0.7,0C66,50.1,67.4,48.4,67.4,48.4z"/>
<path fill="#5D8796" d="M63.7,47.2c0.4-0.5,1.3-1.2,1.3-1.4c0.1,0,0.4-0.3,0.7,0c0.3,0.3,1.6,1.9,1.6,1.9
	C65.7,45.8,64.2,46.7,63.7,47.2z"/>
<path fill="#80413A" d="M42.1,54.3c-2.2,2.3-3.9,0-3.9,0s1.4-1.6,1.6-1.7c0.3-0.3,0.6-0.2,0.7,0C40.5,52.8,42.1,54.3,42.1,54.3z"/>
<path fill="#5D8796" d="M38.3,55.6c0.4,0.5,1.3,1.2,1.3,1.4c0,0,0.4,0.3,0.7,0c0.3-0.3,1.6-1.9,1.6-1.9
	C40.4,57.2,38.9,56.2,38.3,55.6z"/>
<path fill="#80413A" d="M37.3,49.2c-2.2,2.3,0,4.2,0,4.2s1.4-1.6,1.6-1.7c0.3-0.3,0.1-0.6,0-0.8C38.9,50.9,37.3,49.2,37.3,49.2z"/>
<path fill="#5D8796" d="M36.2,53.3c-0.4-0.5-1.2-1.4-1.3-1.4s-0.3-0.5,0-0.8c0.3-0.3,1.7-1.7,1.7-1.7C34.9,51.2,35.8,52.6,36.2,53.3
	z"/>
<path fill="#80413A" d="M44.7,52.5l-0.3,0.3c-0.6,0.6-1.4,0.6-2,0l-0.3-0.3c-0.6-0.6-0.6-1.6,0-2.2l0.3-0.3c0.6-0.6,1.4-0.6,2,0
	l0.3,0.3C45.2,50.9,45.2,52,44.7,52.5z"/>
<path fill="#80413A" d="M63.5,66.1l-0.3,0.3c-0.6,0.6-1.4,0.6-2,0l-0.3-0.3c-0.6-0.6-0.6-1.6,0-2.2l0.3-0.3c0.6-0.6,1.4-0.6,2,0
	l0.3,0.3C64.1,64.5,64.1,65.6,63.5,66.1z"/>
<path fill="#80413A" d="M66.5,62.8l-0.3,0.3c-0.6,0.6-1.4,0.6-2,0l-0.3-0.3c-0.6-0.6-0.6-1.6,0-2.2l0.3-0.3c0.6-0.6,1.4-0.6,2,0
	l0.3,0.3C67.1,61.2,67.1,62.2,66.5,62.8z"/>
<path fill="#80413A" d="M72.9,62.6l-0.3,0.3c-0.6,0.6-1.4,0.6-2,0l-0.3-0.3c-0.6-0.6-0.6-1.6,0-2.2l0.3-0.3c0.6-0.6,1.4-0.6,2,0
	l0.3,0.3C73.4,60.9,73.4,62,72.9,62.6z"/>
<path fill="#80413A" d="M76,59.2l-0.3,0.3c-0.6,0.6-1.4,0.6-2,0l-0.3-0.3c-0.6-0.6-0.6-1.6,0-2.2l0.3-0.3c0.6-0.6,1.4-0.6,2,0L76,57
	C76.6,57.6,76.6,58.6,76,59.2z"/>
<path fill="#80413A" d="M76,66.1l-0.3,0.3c-0.6,0.6-1.4,0.6-2,0l-0.3-0.3c-0.6-0.6-0.6-1.6,0-2.2l0.3-0.3c0.6-0.6,1.4-0.6,2,0
	l0.3,0.3C76.6,64.5,76.6,65.4,76,66.1z"/>
<path fill="#80413A" d="M79.2,62.6l-0.3,0.3c-0.6,0.6-1.4,0.6-2,0l-0.4-0.3c-0.6-0.6-0.6-1.6,0-2.2l0.3-0.3c0.6-0.6,1.4-0.6,2,0
	l0.3,0.3C79.8,61.1,79.8,62,79.2,62.6z"/>
<path fill="#80413A" d="M79.3,69.5L79,69.8c-0.6,0.6-1.4,0.6-2,0l-0.3-0.3c-0.6-0.6-0.6-1.6,0-2.2L77,67c0.6-0.6,1.4-0.6,2,0
	l0.3,0.3C79.8,67.9,79.8,68.9,79.3,69.5z"/>
<path fill="#80413A" d="M82.3,66.1l-0.3,0.3c-0.6,0.6-1.4,0.6-2,0l-0.3-0.3c-0.6-0.6-0.6-1.6,0-2.2l0.3-0.3c0.6-0.6,1.4-0.6,2,0
	l0.3,0.3C82.9,64.5,82.9,65.6,82.3,66.1z"/>
<path fill="#80413A" d="M69.7,59.2l-0.3,0.3c-0.6,0.6-1.4,0.6-2,0L67,59.2c-0.6-0.6-0.6-1.6,0-2.2l0.3-0.3c0.6-0.6,1.4-0.6,2,0
	l0.3,0.3C70.3,57.6,70.3,58.7,69.7,59.2z"/>
<path fill="#80413A" d="M73,55.9l-0.3,0.3c-0.6,0.6-1.4,0.6-2,0l-0.3-0.3c-0.6-0.6-0.6-1.6,0-2.2l0.3-0.3c0.6-0.6,1.4-0.6,2,0
	l0.3,0.3C73.6,54.2,73.6,55.3,73,55.9z"/>
<path fill="#80413A" d="M66.7,55.9l-0.3,0.3c-0.6,0.6-1.4,0.6-2,0l-0.3-0.3c-0.6-0.6-0.6-1.6,0-2.2l0.3-0.3c0.6-0.6,1.4-0.6,2,0
	l0.3,0.3C67.2,54.3,67.2,55.3,66.7,55.9z"/>
<path fill="#80413A" d="M69.8,52.5l-0.3,0.3c-0.6,0.6-1.4,0.6-2,0l-0.3-0.3c-0.6-0.6-0.6-1.6,0-2.2l0.3-0.3c0.6-0.6,1.4-0.6,2,0
	l0.3,0.3C70.4,50.9,70.4,51.8,69.8,52.5z"/>
<path fill="#80413A" d="M47.7,49l-0.3,0.3c-0.6,0.6-1.4,0.6-2,0L45.1,49c-0.6-0.6-0.6-1.6,0-2.2l0.3-0.3c0.6-0.6,1.4-0.6,2,0
	l0.3,0.3C48.3,47.5,48.3,48.4,47.7,49z"/>
<path fill="#80413A" d="M50.9,45.8l-0.3,0.3c-0.6,0.6-1.4,0.6-2,0l-0.3-0.3c-0.6-0.6-0.6-1.6,0-2.2l0.3-0.3c0.6-0.6,1.4-0.6,2,0
	l0.3,0.3C51.4,44,51.4,45.1,50.9,45.8z"/>
<path fill="#80413A" d="M54.2,42.2l-0.3,0.3c-0.6,0.6-1.4,0.6-2,0l-0.3-0.3c-0.6-0.6-0.6-1.6,0-2.2l0.3-0.3c0.6-0.6,1.4-0.6,2,0
	l0.3,0.3C54.7,40.6,54.7,41.5,54.2,42.2z"/>
<path fill="#80413A" d="M41.5,49.2l-0.3,0.3c-0.6,0.6-1.4,0.6-2,0l-0.3-0.3c-0.6-0.6-0.6-1.6,0-2.2l0.3-0.3c0.6-0.6,1.4-0.6,2,0
	l0.3,0.3C42.1,47.6,42.1,48.7,41.5,49.2z"/>
<path fill="#80413A" d="M44.7,45.8l-0.3,0.3c-0.6,0.6-1.4,0.6-2,0l-0.3-0.3c-0.6-0.6-0.6-1.6,0-2.2l0.3-0.3c0.6-0.6,1.4-0.6,2,0
	l0.3,0.3C45.2,44.2,45.2,45.1,44.7,45.8z"/>
<path fill="#80413A" d="M47.7,42.5l-0.3,0.3c-0.6,0.6-1.4,0.6-2,0l-0.3-0.3c-0.6-0.6-0.6-1.6,0-2.2l0.3-0.3c0.6-0.6,1.4-0.6,2,0
	l0.3,0.3C48.3,40.8,48.3,41.9,47.7,42.5z"/>
<path fill="#80413A" d="M51,38.9l-0.3,0.3c-0.6,0.6-1.4,0.6-2,0l-0.4-0.3c-0.6-0.6-0.6-1.6,0-2.2l0.3-0.3c0.6-0.6,1.4-0.6,2,0
	l0.3,0.3C51.6,37.3,51.6,38.3,51,38.9z"/>
<path fill="#80413A" d="M54.2,35.4l-0.3,0.3c-0.6,0.6-1.4,0.6-2,0l-0.3-0.3c-0.6-0.6-0.6-1.6,0-2.2l0.3-0.3c0.6-0.6,1.4-0.6,2,0
	l0.3,0.3C54.7,33.7,54.7,34.8,54.2,35.4z"/>
<path fill="#80413A" d="M48,35.6l-0.3,0.3c-0.6,0.6-1.4,0.6-2,0l-0.3-0.3c-0.6-0.6-0.6-1.6,0-2.2l0.3-0.3c0.6-0.6,1.4-0.6,2,0
	l0.3,0.3C48.6,33.9,48.6,35,48,35.6z"/>
<path fill="#80413A" d="M51.1,32.2l-0.3,0.3c-0.6,0.6-1.4,0.6-2,0l-0.3-0.3c-0.6-0.6-0.6-1.6,0-2.2l0.3-0.3c0.6-0.6,1.4-0.6,2,0
	l0.3,0.3C51.7,30.6,51.7,31.5,51.1,32.2z"/>
<path fill="#80413A" d="M44.8,32.2l-0.3,0.3c-0.6,0.6-1.4,0.6-2,0l-0.3-0.3c-0.6-0.6-0.6-1.6,0-2.2l0.3-0.3c0.6-0.6,1.4-0.6,2,0
	l0.3,0.3C45.4,30.6,45.4,31.5,44.8,32.2z"/>
<path fill="#80413A" d="M48,28.7L47.7,29c-0.6,0.6-1.4,0.6-2,0l-0.3-0.3c-0.6-0.6-0.6-1.6,0-2.2l0.3-0.3c0.6-0.6,1.4-0.6,2,0
	l0.3,0.3C48.6,27.2,48.6,28.1,48,28.7z"/>
<path fill="#80413A" d="M41.8,28.7L41.5,29c-0.6,0.6-1.4,0.6-2,0l-0.3-0.3c-0.6-0.6-0.6-1.6,0-2.2l0.3-0.3c0.6-0.6,1.4-0.6,2,0
	l0.3,0.3C42.4,27.2,42.4,28.3,41.8,28.7z"/>
<path fill="#80413A" d="M41.7,35.6l-0.3,0.5c-0.6,0.6-1.4,0.6-2,0l-0.3-0.3c-0.6-0.6-0.6-1.6,0-2.2l0.3-0.3c0.6-0.6,1.4-0.6,2,0
	l0.3,0.3C42.2,34,42.2,35,41.7,35.6z"/>
<path fill="#80413A" d="M38.5,32.3l-0.3,0.5c-0.6,0.6-1.4,0.6-2,0l-0.3-0.3c-0.6-0.6-0.6-1.6,0-2.2l0.3-0.3c0.6-0.6,1.4-0.6,2,0
	l0.3,0.3C39.1,30.8,39.1,31.7,38.5,32.3z"/>
<path fill="#80413A" d="M38.5,39.2l-0.3,0.3c-0.6,0.6-1.4,0.6-2,0l-0.4-0.3c-0.6-0.6-0.6-1.6,0-2.2l0.3-0.3c0.6-0.6,1.4-0.6,2,0
	l0.3,0.3C39.1,37.5,39.1,38.6,38.5,39.2z"/>
<path fill="#80413A" d="M35.5,35.8L35,36.1c-0.6,0.6-1.4,0.6-2,0l-0.3-0.3c-0.6-0.6-0.6-1.6,0-2.2l0.3-0.3c0.6-0.6,1.4-0.6,2,0
	l0.3,0.3C36,34,36,35.1,35.5,35.8z"/>
<path fill="#80413A" d="M35.5,42.5l-0.3,0.3c-0.6,0.6-1.4,0.6-2,0l-0.3-0.3c-0.6-0.6-0.6-1.6,0-2.2l0.3-0.3c0.6-0.6,1.4-0.6,2,0
	l0.3,0.3C36,40.8,36,41.9,35.5,42.5z"/>
<path fill="#80413A" d="M32.3,39L32,39.4c-0.6,0.6-1.4,0.6-2,0L29.6,39c-0.6-0.6-0.6-1.6,0-2.2l0.3-0.3c0.6-0.6,1.4-0.6,2,0l0.3,0.3
	C32.9,37.5,32.9,38.4,32.3,39z"/>
<path fill="#80413A" d="M32.3,45.9L32,46.2c-0.6,0.6-1.4,0.6-2,0l-0.4-0.3c-0.6-0.6-0.6-1.6,0-2.2l0.3-0.3c0.6-0.6,1.4-0.6,2,0
	l0.3,0.3C32.9,44.2,32.9,45.3,32.3,45.9z"/>
<path fill="#80413A" d="M29.1,42.5l-0.3,0.3c-0.6,0.6-1.4,0.6-2,0l-0.3-0.3c-0.6-0.6-0.6-1.6,0-2.2l0.3-0.3c0.6-0.6,1.4-0.6,2,0
	l0.3,0.3C29.7,40.9,29.7,41.9,29.1,42.5z"/>
<path fill="#80413A" d="M29.1,49.2l-0.3,0.3c-0.6,0.6-1.4,0.6-2,0l-0.3-0.3c-0.6-0.6-0.6-1.6,0-2.2l0.3-0.3c0.6-0.6,1.4-0.6,2,0
	l0.3,0.3C29.7,47.6,29.7,48.7,29.1,49.2z"/>
<path fill="#80413A" d="M26.1,45.9l-0.3,0.3c-0.6,0.6-1.4,0.6-2,0l-0.3-0.3c-0.6-0.6-0.6-1.6,0-2.2l0.3-0.3c0.6-0.6,1.4-0.6,2,0
	l0.3,0.3C26.6,44.2,26.6,45.3,26.1,45.9z"/>
<path fill="#80413A" d="M26.1,52.6l-0.3,0.3c-0.6,0.6-1.4,0.6-2,0l-0.3-0.3c-0.6-0.6-0.6-1.6,0-2.2l0.3-0.3c0.6-0.6,1.4-0.6,2,0
	l0.3,0.3C26.6,51.1,26.6,52,26.1,52.6z"/>
<path fill="#80413A" d="M34.6,24l0.3,0.3c0.6,0.6,1.4,0.6,2,0l0.3-0.3c0.6-0.6,0.6-1.6,0-2.2l-0.3-0.3c-0.6-0.6-1.4-0.6-2,0
	l-0.3,0.3C34,22.3,34,23.4,34.6,24z"/>
<path fill="#80413A" d="M31.6,27.3l0.3,0.3c0.6,0.6,1.4,0.6,2,0l0.3-0.3c0.6-0.6,0.6-1.6,0-2.2l-0.3-0.3c-0.6-0.6-1.4-0.6-2,0
	l-0.3,0.3C31,25.8,31,26.7,31.6,27.3z"/>
<path fill="#80413A" d="M28.4,30.8l0.3,0.3c0.6,0.6,1.4,0.6,2,0l0.3-0.3c0.6-0.6,0.6-1.6,0-2.2l-0.3-0.3c-0.6-0.6-1.4-0.6-2,0
	l-0.3,0.3C27.8,29.2,27.8,30.1,28.4,30.8z"/>
<path fill="#80413A" d="M25.3,34.2l0.3,0.3c0.6,0.6,1.4,0.6,2,0l0.3-0.3c0.6-0.6,0.6-1.6,0-2.2l-0.3-0.3c-0.6-0.6-1.4-0.6-2,0
	L25.3,32C24.7,32.6,24.7,33.7,25.3,34.2z"/>
<path fill="#80413A" d="M22.1,37.6l0.3,0.3c0.6,0.6,1.4,0.6,2,0l0.3-0.3c0.6-0.6,0.6-1.6,0-2.2l-0.3-0.3c-0.6-0.6-1.4-0.6-2,0
	l-0.3,0.3C21.5,36.1,21.5,37,22.1,37.6z"/>
<path fill="#80413A" d="M18.9,41.1l0.3,0.3c0.6,0.6,1.4,0.6,2,0l0.3-0.3c0.6-0.6,0.6-1.6,0-2.2l-0.3-0.3c-0.6-0.6-1.4-0.6-2,0
	l-0.3,0.3C18.4,39.5,18.4,40.4,18.9,41.1z"/>
<path fill="#80413A" d="M31.4,20.5l0.3,0.3c0.6,0.6,1.4,0.6,2,0l0.3-0.3c0.6-0.6,0.6-1.6,0-2.2L33.9,18c-0.6-0.6-1.4-0.6-2,0
	l-0.3,0.3C30.9,18.9,30.9,19.8,31.4,20.5z"/>
<path fill="#80413A" d="M28.4,23.9l0.3,0.3c0.6,0.6,1.4,0.6,2,0l0.3-0.3c0.6-0.6,0.6-1.6,0-2.2l-0.3-0.3c-0.6-0.6-1.4-0.6-2,0
	l-0.3,0.3C27.8,22.3,27.8,23.3,28.4,23.9z"/>
<path fill="#80413A" d="M25.3,27.3l0.3,0.3c0.6,0.6,1.4,0.6,2,0l0.3-0.3c0.6-0.6,0.6-1.6,0-2.2l-0.3-0.3c-0.6-0.6-1.4-0.6-2,0
	l-0.3,0.3C24.7,25.8,24.7,26.7,25.3,27.3z"/>
<path fill="#80413A" d="M22,30.8l0.3,0.3c0.6,0.6,1.4,0.6,2,0l0.3-0.3c0.6-0.6,0.6-1.6,0-2.2l-0.1-0.3c-0.6-0.6-1.4-0.6-2,0
	l-0.3,0.3C21.5,29.2,21.5,30.1,22,30.8z"/>
<path fill="#80413A" d="M18.9,34l0.3,0.3c0.6,0.6,1.4,0.6,2,0l0.3-0.3c0.6-0.6,0.6-1.6,0-2.2l-0.3-0.3c-0.6-0.6-1.4-0.6-2,0
	l-0.3,0.3C18.4,32.5,18.4,33.6,18.9,34z"/>
<path fill="#80413A" d="M15.8,37.6l0.3,0.3c0.6,0.6,1.4,0.6,2,0l0.3-0.3c0.6-0.6,0.6-1.6,0-2.2l-0.3-0.3c-0.6-0.6-1.4-0.6-2,0
	l-0.3,0.3C15.2,35.9,15.2,37,15.8,37.6z"/>
<path opacity="0.9" fill="#80413A" enable-background="new    " d="M79,87.8v9.4h8.8c0,0,8.5,0,8.5-9.4s0-9.4,0-9.4h-8.6v7.7
	c0,0,0,1.7-1.9,1.7C83.9,87.8,79,87.8,79,87.8z"/>
<path opacity="0.85" fill="#5D8796" enable-background="new    " d="M18.2,87.8v9.4H9.4c0,0-8.5,0-8.5-9.4s0-9.4,0-9.4h8.6v7.7
	c0,0,0,1.7,1.9,1.7C13.2,87.8,18.2,87.8,18.2,87.8z"/>
<path opacity="0.85" fill="#5D8796" enable-background="new    " d="M79,12.2V2.8h8.8c0,0,8.5,0,8.5,9.4s0,9.4,0,9.4h-8.6v-7.7
	c0,0,0-1.7-1.9-1.7S79,12.2,79,12.2z"/>
<path opacity="0.9" fill="#80413A" enable-background="new    " d="M18.2,12.2V2.8H9.4c0,0-8.5,0-8.5,9.4s0,9.4,0,9.4h8.6v-7.7
	c0,0,0-1.7,1.9-1.7C13.2,12.2,18.2,12.2,18.2,12.2z"/>
<path fill="#5D8796" d="M57.2,66.1l-0.3,0.5c-0.6,0.6-1.4,0.6-2,0l-0.3-0.3c-0.6-0.6-0.6-1.6,0-2.2l0.3-0.3c0.6-0.6,1.4-0.6,2,0
	l0.3,0.3C57.8,64.5,57.8,65.6,57.2,66.1z"/>
<path fill="#5D8796" d="M22.8,69.5l-0.3,0.3c-0.6,0.6-1.4,0.6-2,0l-0.3-0.3c-0.6-0.6-0.6-1.6,0-2.2l0.3-0.3c0.6-0.6,1.4-0.6,2,0
	l0.3,0.3C23.4,67.9,23.4,68.9,22.8,69.5z"/>
<path fill="#5D8796" d="M26,66.1l-0.3,0.3c-0.6,0.6-1.4,0.6-2,0l-0.3-0.3c-0.6-0.6-0.6-1.6,0-2.2l0.3-0.3c0.6-0.6,1.4-0.6,2,0
	l0.3,0.3C26.6,64.5,26.6,65.4,26,66.1z"/>
<path fill="#5D8796" d="M29,62.8l-0.3,0.3c-0.6,0.6-1.4,0.6-2,0l-0.3-0.3c-0.6-0.6-0.6-1.6,0-2.2l0.3-0.3c0.6-0.6,1.4-0.6,2,0
	l0.3,0.3C29.6,61.1,29.6,62.2,29,62.8z"/>
<path fill="#373A48" d="M135.7,31.4h6v39.8c0,6.2-4.7,9.4-9.6,9.4c-6,0-9.2-3.7-9.2-8.6c0,0,0-2.3,0.6-3.6c1.7,0,3.6,0,5.5,0
	c-0.4,0.9-0.4,2.3-0.4,2.8c0,2.5,1.7,3.7,3.6,3.7c2,0,3.7-1.2,3.7-4.1V31.4H135.7z M134.4,23.7c0,2.5,1.7,4.5,4.2,4.5
	c2.3,0,4.2-1.9,4.2-4.5s-1.9-4.5-4.2-4.5C136.3,19.2,134.4,21.2,134.4,23.7z"/>
<g>
	<path fill="#373A48" d="M169.5,61.1c-1,1.6-2.4,2.7-4.2,3.4c-1.7,0.8-3.5,1.1-5.3,1.1c-1.2,0-2.3-0.2-3.5-0.5
		c-1.2-0.3-2.2-0.9-3.2-1.7s-1.7-1.7-2.3-3c-0.6-1.2-0.9-2.7-0.9-4.5c0-3.3,1-5.9,3.2-8c2.2-2,5.2-3,9.3-3c0.7,0,1.3,0,2,0
		s1.4,0.2,2,0.2c0.7,0,1.3,0.2,1.7,0.2s0.9,0.2,1,0.2v-1.1c0-2.3-0.6-3.9-1.9-5c-1.3-0.9-3-1.6-5.2-1.6s-3.9,0.3-5.2,0.9
		c-1.3,0.6-2.3,1.2-3.2,2l-2.6-4.1c0.4-0.5,1.2-0.9,1.7-1.4c0.7-0.5,1.4-0.8,2.4-1.2c1-0.3,2-0.6,3.2-0.9c1.2-0.3,2.6-0.3,4.2-0.3
		c3.7,0,6.6,0.9,8.6,3c2.2,1.9,3.2,4.7,3.2,8.3v18c0,1.1,0,2,0,2.7h-5.2L169.5,61.1z M169.3,50.1c-0.1,0-0.4-0.2-1-0.2
		c-0.4,0-1-0.2-1.6-0.2c-0.6,0-1.3-0.2-2-0.2s-1.4,0-2,0c-1.6,0-2.9,0.2-3.7,0.6c-1,0.5-1.7,0.9-2.3,1.6c-0.6,0.6-0.9,1.2-1.2,2
		c-0.1,0.8-0.3,1.4-0.3,2c0,1.7,0.6,3,1.6,3.7c1,0.9,2.6,1.2,4.5,1.2c1,0,2-0.2,3-0.6s1.9-0.9,2.6-1.6c0.7-0.6,1.3-1.4,1.7-2.3
		c0.4-0.9,0.7-1.7,0.7-2.7L169.3,50.1L169.3,50.1z"/>
	<path fill="#373A48" d="M184.7,38.9h-5.2v-5h5.2V23.7h5.5v10.2h8.3v5h-8.3v15.3c0,2.5,0.3,4.2,1,5.2s1.7,1.4,3,1.4
		c1,0,1.9-0.2,2.6-0.5s1.4-0.9,2-1.6l2.4,3.6c-1.2,1.2-2.4,2.2-3.6,2.7c-1.3,0.6-2.7,0.8-4.5,0.8c-3,0-5.2-0.9-6.6-2.7
		c-1.4-1.7-2.2-4.5-2.2-8.3V38.9H184.7z"/>
	<path fill="#373A48" d="M223.5,61.1c-1,1.6-2.4,2.7-4.2,3.4c-1.7,0.8-3.5,1.1-5.3,1.1c-1.2,0-2.3-0.2-3.5-0.5
		c-1.2-0.3-2.2-0.9-3.2-1.7s-1.7-1.7-2.3-3c-0.6-1.2-0.9-2.7-0.9-4.5c0-3.3,1-5.9,3.2-8c2.2-2,5.2-3,9.3-3c0.7,0,1.3,0,2,0
		s1.4,0.2,2,0.2c0.7,0,1.3,0.2,1.7,0.2s0.9,0.2,1,0.2v-1.1c0-2.3-0.6-3.9-1.9-5c-1.3-0.9-3-1.6-5.2-1.6s-3.9,0.3-5.2,0.9
		c-1.3,0.6-2.3,1.2-3.2,2l-2.6-4.1c0.4-0.5,1.2-0.9,1.7-1.4c0.7-0.5,1.4-0.8,2.4-1.2c1-0.3,2-0.6,3.2-0.9c1.2-0.3,2.6-0.3,4.2-0.3
		c3.7,0,6.6,0.9,8.6,3c2.2,1.9,3.2,4.7,3.2,8.3v18c0,1.1,0,2,0,2.7h-5.2L223.5,61.1z M223.5,50.1c-0.1,0-0.4-0.2-1-0.2
		c-0.4,0-1-0.2-1.6-0.2c-0.6,0-1.3-0.2-2-0.2s-1.4,0-2,0c-1.6,0-2.9,0.2-3.7,0.6c-1,0.5-1.7,0.9-2.3,1.6c-0.6,0.6-0.9,1.2-1.2,2
		c-0.1,0.8-0.3,1.4-0.3,2c0,1.7,0.6,3,1.6,3.7c1,0.9,2.6,1.2,4.5,1.2c1,0,2-0.2,3-0.6c1-0.5,1.9-0.9,2.6-1.6
		c0.7-0.6,1.3-1.4,1.7-2.3s0.7-1.7,0.7-2.7L223.5,50.1L223.5,50.1z"/>
</g>
<path fill="#80413A" d="M250.6,64.3V36.2c0-0.9,0-2,0-3h5.3l0.1,5c0.3-0.5,0.7-1.1,1.3-1.7c0.6-0.6,1.2-1.2,1.9-1.7
	c0.7-0.5,1.6-0.9,2.6-1.4c1-0.3,2.2-0.6,3.5-0.6c0.6,0,1.2,0,1.7,0.2c0.6,0.2,1,0.2,1.4,0.5l-1.3,5.6c-0.7-0.3-1.7-0.5-2.9-0.5
	s-2.3,0.3-3.3,0.8c-1,0.5-1.9,1.1-2.6,2c-0.7,0.9-1.3,1.9-1.7,3c-0.4,1.1-0.6,2.3-0.6,3.7v16.4h-5.5V64.3z"/>
<path fill="#80413A" d="M272.7,33.3h5.5v18.3c0,3,0.6,5,1.7,6.4c1.2,1.2,2.7,2,4.7,2c1.6,0,2.9-0.3,4-1.1c1-0.8,1.9-1.6,2.6-2.8
	c0.7-1.1,1.2-2.5,1.4-3.9c0.3-1.4,0.4-3,0.4-4.4V33.4h5.5v28c0,0.9,0,2,0,3.1h-5.3l-0.1-4.7c-0.4,0.5-0.9,1.1-1.3,1.7
	c-0.6,0.6-1.2,1.2-2,1.7s-1.7,0.9-2.7,1.2s-2.2,0.5-3.5,0.5c-3.7,0-6.5-1.1-8.2-3.4s-2.6-5.5-2.6-9.5V33.3H272.7z"/>
</svg>
