<?xml version="1.0" encoding="utf-8"?>
<!-- Generator: Adobe Illustrator 18.0.0, SVG Export Plug-In . SVG Version: 6.00 Build 0)  -->
<!DOCTYPE svg PUBLIC "-//W3C//DTD SVG 1.1//EN" "http://www.w3.org/Graphics/SVG/1.1/DTD/svg11.dtd">
<svg version="1.1" id="Слой_1" xmlns="http://www.w3.org/2000/svg" xmlns:xlink="http://www.w3.org/1999/xlink" x="0px" y="0px"
	 viewBox="0 0 50 50" enable-background="new 0 0 50 50" xml:space="preserve">
<g>
	<path fill="#4D8692" d="M1.7,12.6v4.8C2,17.4,9.5,15.8,15.3,20v-8.8L1.7,12.6z"/>
	<polygon fill="#4D8692" points="1.7,46.5 15.3,45 15.3,36.3 1.7,37.2 	"/>
	<path fill="#4D8692" d="M1.7,18.9v16.4l13.7-0.9V21.9C9.9,17.3,1.7,18.9,1.7,18.9z"/>
	<path fill="#4D8692" d="M17.3,23.9v10.7l0.1-0.4L31,37.1v-5.9c-0.5,0-1,0-1.5,0C23.8,31.2,21.9,29.2,17.3,23.9z"/>
	<polygon fill="#4D8692" points="17.3,45 31,49.5 31,39 17.3,36.1 	"/>
	<path fill="#4D8692" d="M18,22.4c5.2,6,6.5,7.6,13,7.3V15.6l-13.7-4.5v10.5c0.2,0.2,0.4,0.4,0.6,0.6L18,22.4z"/>
	<polygon fill="#4D8692" points="32.7,49.5 46.4,46.5 46.4,36.3 32.7,39 	"/>
	<path fill="#4D8692" d="M44.5,28.4c0,2.3-1.9,4.2-4.2,4.2c-1.7,0-3.2-1-3.8-2.5l-3.6,1c-0.1,0-0.1,0-0.2,0v6.1l13.7-2.7v-7.1
		l-2,0.5C44.5,28.1,44.5,28.2,44.5,28.4z"/>
	<path fill="#4D8692" d="M44,26.5l2.2-0.6l0.2,0V14.3c-1.6,3.8-3.2,7.6-4.4,10.3C42.9,25,43.6,25.6,44,26.5z"/>
	<path fill="#4D8692" d="M36.1,28.4c0-1.8,1.2-3.4,2.8-3.9c-0.9-2.5-2.2-5.9-3.5-9.4l-2.7,0.6v13.9l3.4-0.9
		C36.1,28.5,36.1,28.5,36.1,28.4z"/>
	<path fill="#4D8692" d="M15.3,20v1.9c0.5,0.4,1,0.9,1.4,1.4l0.1,0.1c0.2,0.2,0.3,0.4,0.5,0.5v-2.2C16.7,21,16,20.5,15.3,20z"/>
	<path fill="#4D8692" d="M32.7,29.6c-0.6,0.1-1.1,0.1-1.6,0.1v1.5c0.5,0,1.1-0.1,1.7-0.1L32.7,29.6L32.7,29.6z"/>
	<path fill="#4D8692" d="M40.4,30.4c1.1,0,2-0.9,2-2c0-0.8-0.5-1.5-1.2-1.8c-0.5,1.1-0.8,1.8-0.8,1.8s-0.3-0.7-0.7-1.9
		c-0.8,0.3-1.3,1-1.3,1.9C38.3,29.5,39.2,30.4,40.4,30.4z"/>
	<path fill="#4D8692" d="M40.8,0.9C37.1,0.9,34,4,34,7.7c0,0.7,0.1,1.4,0.3,2.1c0.5,1.7,6.1,16.6,6.1,16.6s5.9-13.7,6.8-16.3
		c0.3-0.7,0.4-1.6,0.4-2.4C47.7,4,44.6,0.9,40.8,0.9z M40.8,12.1c-2.4,0-4.4-2-4.4-4.4c0-2.4,2-4.4,4.4-4.4c2.4,0,4.4,2,4.4,4.4
		C45.2,10.2,43.2,12.1,40.8,12.1z"/>
	<path fill="#4D8692" d="M40.8,4.5c-1.8,0-3.2,1.4-3.2,3.2c0,1.8,1.4,3.2,3.2,3.2c1.8,0,3.2-1.4,3.2-3.2C44,6,42.6,4.5,40.8,4.5z"/>
</g>
</svg>
