<?xml version="1.0" encoding="utf-8"?>
<!-- Generator: Adobe Illustrator 18.0.0, SVG Export Plug-In . SVG Version: 6.00 Build 0)  -->
<!DOCTYPE svg PUBLIC "-//W3C//DTD SVG 1.1//EN" "http://www.w3.org/Graphics/SVG/1.1/DTD/svg11.dtd">
<svg version="1.1" id="Слой_1" xmlns="http://www.w3.org/2000/svg" xmlns:xlink="http://www.w3.org/1999/xlink" x="0px" y="0px"
	 viewBox="0 0 50 50" enable-background="new 0 0 50 50" xml:space="preserve">
<g>
	<path fill="#FFFFFF" d="M19.6,32.7c0,0,0.5-1.6,0.3-2.4l-2.9-8.9c0,0-0.2-1.1-1.4-0.7L11.9,22c0,0-2.8,1.1-1.9,3.9l1.3,3.8
		c0,0,1,3.2,3.8,2.3c0,0,1.1-0.3,1.6,1.5l2.3,6.9c0,0,0.2,1.2,1.3,0.8c0,0,3.4-0.6,0.7-3.4C21.9,36.1,19.6,35,19.6,32.7z"/>
	<path fill="#FFFFFF" d="M34.7,22.5c0.8-0.9,1.1-2.1,0.7-3.3C35,18,34,17.2,32.8,17l-2.7-8.1c-0.4-1.1-0.9,0.4-0.9,0.4
		c-2,8-10.9,10.4-10.9,10.4c-1,0.3-0.6,1.2-0.6,1.2l2.6,7.6c0.3,0.9,1.2,0.6,1.2,0.6c9.8-3.3,15.2,1.7,15.2,1.7s1.1,0.7,0.7-0.3
		L34.7,22.5z"/>
	
		<rect x="36.2" y="12.2" transform="matrix(0.8079 0.5893 -0.5893 0.8079 15.5643 -18.7407)" fill="#FFFFFF" width="0.6" height="4.7"/>
	
		<rect x="36.4" y="22.9" transform="matrix(-0.8754 -0.4834 0.4834 -0.8754 61.3997 62.2977)" fill="#FFFFFF" width="4.7" height="0.6"/>
	
		<rect x="36.4" y="18" transform="matrix(-0.9607 0.2776 -0.2776 -0.9607 81.0197 25.162)" fill="#FFFFFF" width="4.7" height="0.6"/>
</g>
</svg>
