<?xml version="1.0" encoding="utf-8"?>
<!-- Generator: Adobe Illustrator 18.0.0, SVG Export Plug-In . SVG Version: 6.00 Build 0)  -->
<!DOCTYPE svg PUBLIC "-//W3C//DTD SVG 1.1//EN" "http://www.w3.org/Graphics/SVG/1.1/DTD/svg11.dtd">
<svg version="1.1" id="Слой_1" xmlns="http://www.w3.org/2000/svg" xmlns:xlink="http://www.w3.org/1999/xlink" x="0px" y="0px"
	 viewBox="0 0 50 50" enable-background="new 0 0 50 50" xml:space="preserve">
<path fill="#4D8692" d="M35.8,0.3H15c-2,0-3.6,1.6-3.6,3.6v42.2c0,2,1.6,3.6,3.6,3.6h20.8c2,0,3.6-1.6,3.6-3.6V3.9
	C39.4,1.9,37.8,0.3,35.8,0.3z M36.7,40.4H14.1v-34h22.6V40.4z M30.2,4h-9.6V2.9h9.6V4z M34.4,3.5c0,0.5-0.4,0.9-0.9,0.9
	c-0.5,0-0.9-0.4-0.9-0.9c0-0.5,0.4-0.9,0.9-0.9C34,2.6,34.4,3,34.4,3.5z M29.8,45.9H21v-2.7h8.8V45.9z"/>
</svg>
