<?xml version="1.0" encoding="utf-8"?>
<!-- Generator: Adobe Illustrator 18.0.0, SVG Export Plug-In . SVG Version: 6.00 Build 0)  -->
<!DOCTYPE svg PUBLIC "-//W3C//DTD SVG 1.1//EN" "http://www.w3.org/Graphics/SVG/1.1/DTD/svg11.dtd">
<svg version="1.1" id="Слой_1" xmlns="http://www.w3.org/2000/svg" xmlns:xlink="http://www.w3.org/1999/xlink" x="0px" y="0px"
	 viewBox="0 0 215 215" enable-background="new 0 0 215 215" xml:space="preserve">
<linearGradient id="SVGID_1_" gradientUnits="userSpaceOnUse" x1="98.5682" y1="35.6487" x2="98.5682" y2="219.5923">
	<stop  offset="0" style="stop-color:#FFFFFF"/>
	<stop  offset="1" style="stop-color:#5FA297"/>
</linearGradient>
<ellipse fill="url(#SVGID_1_)" cx="98.6" cy="109" rx="96.1" ry="95.7"/>
<path fill="#6C9166" d="M34.5,83C34.5,83,34.5,83.1,34.5,83L34.5,83c0.1,0,7.6,1.6,13.4,2.8c5.8,1.2,18.7-12.8,28.1-15
	c3.7-0.8,30.9,4.1,48.5,9.8c17.1,5.5,33.1,38.1,31.5,46.3c-1.6,8.2-7.1,16.9-22.6,13.7c-15.4-3.2-106.4-22.3-106.4-22.3l0,0
	c0,0-0.1,0-0.1,0c-9.7-2-16-11.6-13.9-21.3C15.2,87.2,24.7,81,34.5,83z"/>
<path fill="#262F39" d="M144.3,109l-36.7-7.7l4.2-20.1c0,0,14.9,3.2,21.1,9.1C140,97.2,144.3,109,144.3,109z"/>
<path fill="#262F39" d="M107.4,80l-4.3,20.3l-47-9.9c0,0,14.1-13.2,19.4-14.9C80.9,74,107.4,80,107.4,80z"/>
<path fill="#DBD3C3" d="M8.8,111.2c-0.4,2.1,1.2,4.2,3.7,4.7l103.7,21.8c2.5,0.5,4.8-0.8,5.3-2.9l0,0c0.4-2.1-1.2-4.2-3.7-4.7
	L14.1,108.3C11.6,107.8,9.2,109.1,8.8,111.2L8.8,111.2z"/>
<g>
	<g>
		<circle fill="#252525" cx="123.2" cy="136.8" r="12.6"/>
		<circle fill="#424143" cx="123.2" cy="136.8" r="6.4"/>
		<circle fill="#FFFFFF" cx="123.2" cy="136.8" r="4.7"/>
	</g>
	<g>
		<circle fill="#252525" cx="37.4" cy="118.8" r="12.6"/>
		<circle fill="#424143" cx="37.4" cy="118.8" r="6.4"/>
		<circle fill="#FFFFFF" cx="37.4" cy="118.8" r="4.7"/>
	</g>
</g>
<path opacity="0.1" fill="#FFFFFF" d="M34.5,83C34.5,83,34.5,83.1,34.5,83L34.5,83c0.1,0,7.6,1.6,13.4,2.8c1.2,0.3,8.2,4.7,8.2,4.7
	l95.3,20c0.9,2,1.9,4.1,2.6,5.9L18.1,87.9C22.2,83.8,28.3,81.8,34.5,83z"/>
<g>
	<defs>
		<path id="SVGID_6_" d="M34.5,83C34.5,83,34.5,83.1,34.5,83L34.5,83c0.1,0,7.6,1.6,13.4,2.8c5.8,1.2,18.7-12.8,28.1-15
			c3.7-0.8,30.9,4.1,48.5,9.8c17.1,5.5,33.1,38.1,31.5,46.3c-1.6,8.2-7.1,16.9-22.6,13.7c-15.4-3.2-106.4-22.3-106.4-22.3l0,0
			c0,0-0.1,0-0.1,0c-9.7-2-16-11.6-13.9-21.3C15.2,87.2,24.7,81,34.5,83z"/>
	</defs>
	<clipPath id="SVGID_2_">
		<use xlink:href="#SVGID_6_"  overflow="visible"/>
	</clipPath>
	<circle clip-path="url(#SVGID_2_)" fill="#CEBE6D" cx="16.2" cy="90.4" r="6.2"/>
</g>
<g opacity="0.15">
	<defs>
		<path id="SVGID_5_" opacity="0.15" d="M144.3,109l-36.7-7.7l4.2-20.1c0,0,14.9,3.2,21.1,9.1C140,97.2,144.3,109,144.3,109z"/>
	</defs>
	<clipPath id="SVGID_3_">
		<use xlink:href="#SVGID_5_"  overflow="visible"/>
	</clipPath>
	
		<rect x="118.7" y="41.6" transform="matrix(-0.9783 0.2071 -0.2071 -0.9783 261.2721 157.2825)" clip-path="url(#SVGID_3_)" fill="#FFFFFF" width="7.3" height="101.3"/>
</g>
<path opacity="0.3" fill="#FFFFFF" d="M102.3,122.5c0,0-0.7,3.3-4,2.6c-3.3-0.7-43.1-9-43.1-9s-1.8-0.1-1.1-3.3
	c0.7-3.2,2.8-13.2,2.8-13.2s0.6-4.6,2.6-4.2s44,9.2,44,9.2s1.9,2.2,1.5,4S102.3,122.5,102.3,122.5z"/>
<g>
	<circle fill="#7C4444" cx="90.5" cy="114.5" r="0.6"/>
	<path fill="#4E8192" d="M64.4,110.7c0,0,0.3-0.2,0.3-0.2c0.1,0,0.1,0,0.1,0c-0.1-0.1,0.2,0.3,0.2,0.3S64.6,111.1,64.4,110.7z"/>
	<path fill="#7C4444" d="M67.2,110.8c-0.2-0.3,0.1-0.5,0.1-0.5s0.1,0.2,0.2,0.3c0,0,0,0.1,0,0.1C67.4,110.7,67.2,110.8,67.2,110.8z"
		/>
	<path fill="#4E8192" d="M67.2,110.3c-0.1,0-0.2,0.1-0.2,0.1c0,0-0.1,0,0,0.1c0,0,0.2,0.3,0.2,0.3C66.9,110.5,67.1,110.4,67.2,110.3
		z"/>
	<path fill="#7C4444" d="M68.1,106.4c0.2,0.3-0.1,0.5-0.1,0.5l-0.2-0.3L68.1,106.4z"/>
	<path fill="#4E8192" d="M68.2,106.3c0.2,0.4-0.1,0.6-0.1,0.6l0.4-0.2L68.2,106.3z"/>
	<path fill="#4E8192" d="M70.6,108.2c0.2,0.3-0.1,0.5-0.1,0.5s-0.1-0.2-0.2-0.2c0,0,0-0.1,0-0.1C70.4,108.3,70.6,108.2,70.6,108.2z"
		/>
	<path fill="#7C4444" d="M63.6,106.6c-0.3,0.2-0.1,0.5-0.1,0.5l0.3-0.2L63.6,106.6z"/>
	<path fill="#7C4444" d="M67.2,104.8c-0.2-0.3-0.5-0.1-0.5-0.1l0.2,0.3L67.2,104.8z"/>
	<path fill="#4E8192" d="M67.4,108.7L67.4,108.7c-0.1,0.1-0.2,0-0.3-0.1l0,0c-0.1-0.1,0-0.2,0.1-0.3l0,0c0.1-0.1,0.2,0,0.3,0.1l0,0
		C67.5,108.5,67.5,108.6,67.4,108.7z"/>
	<path fill="#4E8192" d="M67.7,109.2L67.7,109.2c-0.1,0.1-0.2,0-0.3-0.1l0,0c-0.1-0.1,0-0.2,0.1-0.3l0,0c0.1-0.1,0.2,0,0.3,0.1l0,0
		C67.8,109,67.8,109.1,67.7,109.2z"/>
	<path fill="#4E8192" d="M68.2,108.9L68.2,108.9c-0.1,0.1-0.2,0-0.3-0.1l0,0c-0.1-0.1,0-0.2,0.1-0.3l0,0c0.1-0.1,0.2,0,0.3,0.1l0,0
		C68.3,108.7,68.3,108.8,68.2,108.9z"/>
	<path fill="#4E8192" d="M67.9,108.4L67.9,108.4c-0.1,0.1-0.2,0-0.3-0.1l0,0c-0.1-0.1,0-0.2,0.1-0.3l0,0c0.1-0.1,0.2,0,0.3,0.1l0,0
		C68,108.2,68,108.3,67.9,108.4z"/>
	<path fill="#4E8192" d="M68.4,108.1L68.4,108.1c-0.1,0.1-0.2,0-0.3-0.1l0,0c-0.1-0.1,0-0.2,0.1-0.3l0,0c0.1-0.1,0.2,0,0.3,0.1l0,0
		C68.5,107.9,68.5,108,68.4,108.1z"/>
	<path fill="#4E8192" d="M68.8,107.8L68.8,107.8c-0.1,0.1-0.2,0-0.3-0.1l0,0c-0.1-0.1,0-0.2,0.1-0.3h0c0.1-0.1,0.2,0,0.3,0.1l0,0
		C69,107.6,68.9,107.7,68.8,107.8z"/>
	<path fill="#4E8192" d="M68.5,107.3L68.5,107.3c-0.1,0.1-0.2,0-0.3-0.1l0,0c-0.1-0.1,0-0.2,0.1-0.3l0,0c0.1-0.1,0.2,0,0.3,0.1l0,0
		C68.7,107.1,68.6,107.2,68.5,107.3z"/>
	<path fill="#4E8192" d="M68,107.6L68,107.6c-0.1,0.1-0.2,0-0.3-0.1h0c-0.1-0.1,0-0.2,0.1-0.3l0,0c0.1-0.1,0.2,0,0.3,0.1l0,0
		C68.2,107.4,68.1,107.5,68,107.6z"/>
	<path fill="#4E8192" d="M67.6,107.9L67.6,107.9c-0.1,0.1-0.2,0-0.3-0.1l0,0c-0.1-0.1,0-0.2,0.1-0.3l0,0c0.1-0.1,0.2,0,0.3,0.1l0,0
		C67.7,107.7,67.7,107.8,67.6,107.9z"/>
	<path fill="#4E8192" d="M67.1,108.2L67.1,108.2c-0.1,0.1-0.2,0-0.3-0.1v0c-0.1-0.1,0-0.2,0.1-0.3l0,0c0.1-0.1,0.2,0,0.3,0.1v0
		C67.2,108,67.2,108.1,67.1,108.2z"/>
	<path fill="#4E8192" d="M66.6,108.5L66.6,108.5c-0.1,0.1-0.2,0-0.3-0.1l0,0c-0.1-0.1,0-0.2,0.1-0.3l0,0c0.1-0.1,0.2,0,0.3,0.1l0,0
		C66.7,108.3,66.7,108.4,66.6,108.5z"/>
	<path fill="#4E8192" d="M66.1,108.8L66.1,108.8c-0.1,0.1-0.2,0-0.3-0.1l0,0c-0.1-0.1,0-0.2,0.1-0.3l0,0c0.1-0.1,0.2,0,0.3,0.1l0,0
		C66.2,108.6,66.2,108.7,66.1,108.8z"/>
	<path fill="#7C4444" d="M66.4,109.3L66.4,109.3c-0.1,0.1-0.2,0-0.3-0.1l0,0c-0.1-0.1,0-0.2,0.1-0.3l0,0c0.1-0.1,0.2,0,0.3,0.1l0,0
		C66.6,109.1,66.5,109.2,66.4,109.3z"/>
	<path fill="#4E8192" d="M66.9,109L66.9,109c-0.1,0.1-0.2,0-0.3-0.1l0,0c-0.1-0.1,0-0.2,0.1-0.3l0,0c0.1-0.1,0.2,0,0.3,0.1l0,0
		C67,108.8,67,108.9,66.9,109z"/>
	<path fill="#4E8192" d="M67.2,109.5L67.2,109.5c-0.1,0.1-0.2,0-0.3-0.1l0,0c-0.1-0.1,0-0.2,0.1-0.3l0,0c0.1-0.1,0.2,0,0.3,0.1h0
		C67.3,109.3,67.3,109.4,67.2,109.5z"/>
	<path fill="#4E8192" d="M66.7,109.8L66.7,109.8c-0.1,0.1-0.2,0-0.3-0.1l0,0c-0.1-0.1,0-0.2,0.1-0.3l0,0c0.1-0.1,0.2,0,0.3,0.1l0,0
		C66.9,109.6,66.8,109.7,66.7,109.8z"/>
	<path fill="#4E8192" d="M67,110.2L67,110.2c-0.1,0.1-0.2,0-0.3-0.1l0,0c-0.1-0.1,0-0.2,0.1-0.3l0,0c0.1-0.1,0.2,0,0.3,0.1l0,0
		C67.2,110,67.1,110.2,67,110.2z"/>
	<path fill="#4E8192" d="M66.5,110.5L66.5,110.5c-0.1,0.1-0.2,0-0.3-0.1l0,0c-0.1-0.1,0-0.2,0.1-0.3l0,0c0.1-0.1,0.2,0,0.3,0.1l0,0
		C66.7,110.3,66.6,110.5,66.5,110.5z"/>
	<path fill="#4E8192" d="M66.9,111L66.9,111c-0.1,0.1-0.2,0-0.3-0.1v0c-0.1-0.1,0-0.2,0.1-0.3l0,0c0.1-0.1,0.2,0,0.3,0.1l0,0
		C67,110.8,67,111,66.9,111z"/>
	<path fill="#4E8192" d="M66.4,111.3L66.4,111.3c-0.1,0.1-0.2,0-0.3-0.1l0,0c-0.1-0.1,0-0.2,0.1-0.3l0,0c0.1-0.1,0.2,0,0.3,0.1l0,0
		C66.5,111.1,66.5,111.3,66.4,111.3z"/>
	<path fill="#4E8192" d="M66.1,110.8L66.1,110.8c-0.1,0.1-0.2,0-0.3-0.1l0,0c-0.1-0.1,0-0.2,0.1-0.3l0,0c0.1-0.1,0.2,0,0.3,0.1l0,0
		C66.2,110.6,66.2,110.8,66.1,110.8z"/>
	<path fill="#4E8192" d="M66.2,110.1L66.2,110.1c-0.1,0.1-0.2,0-0.3-0.1l0,0c-0.1-0.1,0-0.2,0.1-0.3l0,0c0.1-0.1,0.2,0,0.3,0.1l0,0
		C66.4,109.9,66.3,110,66.2,110.1z"/>
	<path fill="#4E8192" d="M65.8,110.4L65.8,110.4c-0.1,0.1-0.2,0-0.3-0.1l0,0c-0.1-0.1,0-0.2,0.1-0.3v0c0.1-0.1,0.2,0,0.3,0.1l0,0
		C65.9,110.2,65.9,110.3,65.8,110.4z"/>
	<path fill="#4E8192" d="M65.3,110.7L65.3,110.7c-0.1,0.1-0.2,0-0.3-0.1l0,0c-0.1-0.1,0-0.2,0.1-0.3l0,0c0.1-0.1,0.2,0,0.3,0.1h0
		C65.4,110.5,65.4,110.6,65.3,110.7z"/>
	<path fill="#4E8192" d="M65,110.2L65,110.2c-0.1,0.1-0.2,0-0.3-0.1l0,0c-0.1-0.1,0-0.2,0.1-0.3l0,0c0.1-0.1,0.2,0,0.3,0.1l0,0
		C65.1,110,65.1,110.1,65,110.2z"/>
	<path fill="#4E8192" d="M64.5,110c0,0,0.2,0.3,0.2,0.3c0,0.1,0,0.1,0,0.1c0.1-0.1-0.3,0.2-0.3,0.2S64.1,110.2,64.5,110z"/>
	<path fill="#4E8192" d="M63.3,110.1c0,0,0.3-0.2,0.3-0.2c0.1,0,0.1,0,0.1,0c-0.1-0.1,0.2,0.3,0.2,0.3S63.5,110.4,63.3,110.1z"/>
	<path fill="#4E8192" d="M63.4,109.4c0,0,0.2,0.3,0.2,0.3c0,0.1,0,0.1,0,0.1c0.1-0.1-0.3,0.2-0.3,0.2S63,109.6,63.4,109.4z"/>
	<path fill="#4E8192" d="M62.2,109.4c0,0,0.3-0.2,0.3-0.2c0.1,0,0.1,0,0.1,0c-0.1-0.1,0.2,0.3,0.2,0.3S62.4,109.8,62.2,109.4z"/>
	<path fill="#4E8192" d="M62.3,108.7c0,0,0.2,0.3,0.2,0.3c0,0.1,0,0.1,0,0.1c0.1-0.1-0.3,0.2-0.3,0.2S61.9,108.9,62.3,108.7z"/>
	<path fill="#4E8192" d="M65.5,111.4c0,0,0.3-0.2,0.3-0.2c0.1,0,0.1,0,0.1,0c-0.1-0.1,0.2,0.3,0.2,0.3S65.7,111.7,65.5,111.4z"/>
	<path fill="#4E8192" d="M65.6,110.7c0,0,0.2,0.3,0.2,0.3c0,0.1,0,0.1,0,0.1c0.1-0.1-0.3,0.2-0.3,0.2S65.2,110.9,65.6,110.7z"/>
	<path fill="#4E8192" d="M65.5,109.9L65.5,109.9c-0.1,0.1-0.2,0-0.3-0.1l0,0c-0.1-0.1,0-0.2,0.1-0.3l0,0c0.1-0.1,0.2,0,0.3,0.1l0,0
		C65.6,109.7,65.6,109.8,65.5,109.9z"/>
	<path fill="#4E8192" d="M64.7,109.7L64.7,109.7c-0.1,0.1-0.2,0-0.3-0.1l0,0c-0.1-0.1,0-0.2,0.1-0.3l0,0c0.1-0.1,0.2,0,0.3,0.1l0,0
		C64.8,109.5,64.8,109.6,64.7,109.7z"/>
	<path fill="#4E8192" d="M64.2,110L64.2,110c-0.1,0.1-0.2,0-0.3-0.1l0,0c-0.1-0.1,0-0.2,0.1-0.3l0,0c0.1-0.1,0.2,0,0.3,0.1l0,0
		C64.3,109.8,64.3,109.9,64.2,110z"/>
	<path fill="#4E8192" d="M63.9,109.5L63.9,109.5c-0.1,0.1-0.2,0-0.3-0.1l0,0c-0.1-0.1,0-0.2,0.1-0.3l0,0c0.1-0.1,0.2,0,0.3,0.1l0,0
		C64,109.3,64,109.5,63.9,109.5z"/>
	<path fill="#4E8192" d="M64.4,109.2L64.4,109.2c-0.1,0.1-0.2,0-0.3-0.1v0c-0.1-0.1,0-0.2,0.1-0.3l0,0c0.1-0.1,0.2,0,0.3,0.1l0,0
		C64.5,109,64.5,109.2,64.4,109.2z"/>
	<path fill="#4E8192" d="M65.9,109.6L65.9,109.6c-0.1,0.1-0.2,0-0.3-0.1l0,0c-0.1-0.1,0-0.2,0.1-0.3l0,0c0.1-0.1,0.2,0,0.3,0.1l0,0
		C66.1,109.4,66,109.5,65.9,109.6z"/>
	<path fill="#4E8192" d="M66.4,109.3L66.4,109.3c-0.1,0.1-0.2,0-0.3-0.1l0,0c-0.1-0.1,0-0.2,0.1-0.3l0,0c0.1-0.1,0.2,0,0.3,0.1l0,0
		C66.5,109.1,66.5,109.2,66.4,109.3z"/>
	<path fill="#4E8192" d="M65.2,109.4L65.2,109.4c-0.1,0.1-0.2,0-0.3-0.1v0c-0.1-0.1,0-0.2,0.1-0.3l0,0c0.1-0.1,0.2,0,0.3,0.1l0,0
		C65.3,109.2,65.3,109.3,65.2,109.4z"/>
	<path fill="#4E8192" d="M65.6,109.1L65.6,109.1c-0.1,0.1-0.2,0-0.3-0.1l0,0c-0.1-0.1,0-0.2,0.1-0.3l0,0c0.1-0.1,0.2,0,0.3,0.1l0,0
		C65.8,108.9,65.7,109,65.6,109.1z"/>
	<path fill="#4E8192" d="M64.9,108.9L64.9,108.9c-0.1,0.1-0.2,0-0.3-0.1v0c-0.1-0.1,0-0.2,0.1-0.3v0c0.1-0.1,0.2,0,0.3,0.1l0,0
		C65,108.7,65,108.9,64.9,108.9z"/>
	<path fill="#4E8192" d="M65.3,108.6L65.3,108.6c-0.1,0.1-0.2,0-0.3-0.1v0c-0.1-0.1,0-0.2,0.1-0.3l0,0c0.1-0.1,0.2,0,0.3,0.1l0,0
		C65.5,108.4,65.4,108.6,65.3,108.6z"/>
	<path fill="#4E8192" d="M64.6,108.4L64.6,108.4c-0.1,0.1-0.2,0-0.3-0.1l0,0c-0.1-0.1,0-0.2,0.1-0.3l0,0c0.1-0.1,0.2,0,0.3,0.1l0,0
		C64.7,108.2,64.7,108.4,64.6,108.4z"/>
	<path fill="#4E8192" d="M65,108.1L65,108.1c-0.1,0.1-0.2,0-0.3-0.1l0,0c-0.1-0.1,0-0.2,0.1-0.3l0,0c0.1-0.1,0.2,0,0.3,0.1l0,0
		C65.2,107.9,65.1,108.1,65,108.1z"/>
	<path fill="#4E8192" d="M64.2,108L64.2,108c-0.1,0.1-0.2,0-0.3-0.1l0,0c-0.1-0.1,0-0.2,0.1-0.3l0,0c0.1-0.1,0.2,0,0.3,0.1l0,0
		C64.4,107.8,64.3,107.9,64.2,108z"/>
	<path fill="#4E8192" d="M64.7,107.7L64.7,107.7c-0.1,0.1-0.2,0-0.3-0.1l0,0c-0.1-0.1,0-0.2,0.1-0.3l0,0c0.1-0.1,0.2,0,0.3,0.1l0,0
		C64.9,107.5,64.8,107.6,64.7,107.7z"/>
	<path fill="#4E8192" d="M62.8,108.9L62.8,108.9c-0.1,0.1-0.2,0-0.3-0.1l0,0c-0.1-0.1,0-0.2,0.1-0.3l0,0c0.1-0.1,0.2,0,0.3,0.1v0
		C63,108.7,62.9,108.8,62.8,108.9z"/>
	<path fill="#4E8192" d="M63.3,108.6L63.3,108.6c-0.1,0.1-0.2,0-0.3-0.1h0c-0.1-0.1,0-0.2,0.1-0.3l0,0c0.1-0.1,0.2,0,0.3,0.1v0
		C63.4,108.4,63.4,108.5,63.3,108.6z"/>
	<path fill="#4E8192" d="M63.8,108.3L63.8,108.3c-0.1,0.1-0.2,0-0.3-0.1h0c-0.1-0.1,0-0.2,0.1-0.3l0,0c0.1-0.1,0.2,0,0.3,0.1l0,0
		C63.9,108.1,63.9,108.2,63.8,108.3z"/>
	<path fill="#4E8192" d="M65.2,107.4L65.2,107.4c-0.1,0.1-0.2,0-0.3-0.1l0,0c-0.1-0.1,0-0.2,0.1-0.3h0c0.1-0.1,0.2,0,0.3,0.1l0,0
		C65.3,107.2,65.3,107.3,65.2,107.4z"/>
	<path fill="#4E8192" d="M66.2,106.8L66.2,106.8c-0.1,0.1-0.2,0-0.3-0.1v0c-0.1-0.1,0-0.2,0.1-0.3l0,0c0.1-0.1,0.2,0,0.3,0.1l0,0
		C66.3,106.6,66.3,106.7,66.2,106.8z"/>
	<path fill="#4E8192" d="M66.7,106.5L66.7,106.5c-0.1,0.1-0.2,0-0.3-0.1l0,0c-0.1-0.1,0-0.2,0.1-0.3l0,0c0.1-0.1,0.2,0,0.3,0.1h0
		C66.8,106.3,66.8,106.4,66.7,106.5z"/>
	<path fill="#4E8192" d="M65.7,107.1L65.7,107.1c-0.1,0.1-0.2,0-0.3-0.1l0,0c-0.1-0.1,0-0.2,0.1-0.3h0c0.1-0.1,0.2,0,0.3,0.1v0
		C65.8,106.9,65.8,107,65.7,107.1z"/>
	<path fill="#4E8192" d="M68.9,105.7L68.9,105.7c-0.1,0.1-0.2,0-0.3-0.1l0,0c-0.1-0.1,0-0.2,0.1-0.3l0,0c0.1-0.1,0.2,0,0.3,0.1l0,0
		C69,105.5,69,105.7,68.9,105.7z"/>
	<path fill="#4E8192" d="M69.2,106.2L69.2,106.2c-0.1,0.1-0.2,0-0.3-0.1l0,0c-0.1-0.1,0-0.2,0.1-0.3l0,0c0.1-0.1,0.2,0,0.3,0.1l0,0
		C69.3,106,69.3,106.1,69.2,106.2z"/>
	<path fill="#4E8192" d="M69.5,106.7L69.5,106.7c-0.1,0.1-0.2,0-0.3-0.1l0,0c-0.1-0.1,0-0.2,0.1-0.3h0c0.1-0.1,0.2,0,0.3,0.1l0,0
		C69.6,106.5,69.6,106.6,69.5,106.7z"/>
	<path fill="#4E8192" d="M68.4,106L68.4,106c-0.1,0.1-0.2,0-0.3-0.1l0,0c-0.1-0.1,0-0.2,0.1-0.3h0c0.1-0.1,0.2,0,0.3,0.1l0,0
		C68.5,105.8,68.5,106,68.4,106z"/>
	<path fill="#4E8192" d="M68.7,106.5L68.7,106.5c-0.1,0.1-0.2,0-0.3-0.1l0,0c-0.1-0.1,0-0.2,0.1-0.3l0,0c0.1-0.1,0.2,0,0.3,0.1l0,0
		C68.8,106.3,68.8,106.4,68.7,106.5z"/>
	<path fill="#4E8192" d="M69,107L69,107c-0.1,0.1-0.2,0-0.3-0.1l0,0c-0.1-0.1,0-0.2,0.1-0.3l0,0c0.1-0.1,0.2,0,0.3,0.1l0,0
		C69.1,106.8,69.1,106.9,69,107z"/>
	<path fill="#4E8192" d="M69.3,107.5L69.3,107.5c-0.1,0.1-0.2,0-0.3-0.1l0,0c-0.1-0.1,0-0.2,0.1-0.3l0,0c0.1-0.1,0.2,0,0.3,0.1l0,0
		C69.4,107.3,69.4,107.4,69.3,107.5z"/>
	<path fill="#4E8192" d="M69.6,107.9L69.6,107.9c-0.1,0.1-0.2,0-0.3-0.1l0,0c-0.1-0.1,0-0.2,0.1-0.3l0,0c0.1-0.1,0.2,0,0.3,0.1l0,0
		C69.7,107.7,69.7,107.9,69.6,107.9z"/>
	<path fill="#4E8192" d="M69.9,108.4L69.9,108.4c-0.1,0.1-0.2,0-0.3-0.1l0,0c-0.1-0.1,0-0.2,0.1-0.3l0,0c0.1-0.1,0.2,0,0.3,0.1l0,0
		C70,108.2,70,108.4,69.9,108.4z"/>
	<path fill="#4E8192" d="M69.8,107.2L69.8,107.2c-0.1,0.1-0.2,0-0.3-0.1l0,0c-0.1-0.1,0-0.2,0.1-0.3l0,0c0.1-0.1,0.2,0,0.3,0.1l0,0
		C69.9,107,69.9,107.1,69.8,107.2z"/>
	<path fill="#4E8192" d="M70.1,107.6L70.1,107.6c-0.1,0.1-0.2,0-0.3-0.1l0,0c-0.1-0.1,0-0.2,0.1-0.3l0,0c0.1-0.1,0.2,0,0.3,0.1l0,0
		C70.2,107.4,70.2,107.6,70.1,107.6z"/>
	<path fill="#4E8192" d="M70.4,108.1L70.4,108.1c-0.1,0.1-0.2,0-0.3-0.1l0,0c-0.1-0.1,0-0.2,0.1-0.3l0,0c0.1-0.1,0.2,0,0.3,0.1l0,0
		C70.5,107.9,70.5,108.1,70.4,108.1z"/>
	<path fill="#4E8192" d="M70.2,108.9L70.2,108.9c-0.1,0.1-0.2,0-0.3-0.1l0,0c-0.1-0.1,0-0.2,0.1-0.3l0,0c0.1-0.1,0.2,0,0.3,0.1l0,0
		C70.3,108.7,70.3,108.8,70.2,108.9z"/>
	<path fill="#4E8192" d="M68.2,105c0.3-0.2,0.5,0.1,0.5,0.1s-0.2,0.1-0.2,0.2c0,0-0.1,0-0.1,0C68.3,105.2,68.2,105,68.2,105z"/>
	<path fill="#4E8192" d="M68.1,105.5L68.1,105.5c-0.1,0.1-0.2,0-0.3-0.1l0,0c-0.1-0.1,0-0.2,0.1-0.3l0,0c0.1-0.1,0.2,0,0.3,0.1l0,0
		C68.2,105.3,68.2,105.5,68.1,105.5z"/>
	<path fill="#4E8192" d="M69.6,105.4L69.6,105.4c-0.1,0.1-0.2,0-0.3-0.1l0,0c-0.1-0.1,0-0.2,0.1-0.3l0,0c0.1-0.1,0.2,0,0.3,0.1l0,0
		C69.7,105.2,69.7,105.3,69.6,105.4z"/>
	<path fill="#4E8192" d="M69.9,105.8L69.9,105.8c-0.1,0.1-0.2,0-0.3-0.1v0c-0.1-0.1,0-0.2,0.1-0.3v0c0.1-0.1,0.2,0,0.3,0.1l0,0
		C70,105.6,70,105.8,69.9,105.8z"/>
	<path fill="#4E8192" d="M70.2,106.3L70.2,106.3c-0.1,0.1-0.2,0-0.3-0.1l0,0c-0.1-0.1,0-0.2,0.1-0.3l0,0c0.1-0.1,0.2,0,0.3,0.1l0,0
		C70.3,106.1,70.3,106.3,70.2,106.3z"/>
	<path fill="#4E8192" d="M70.5,106.8L70.5,106.8c-0.1,0.1-0.2,0-0.3-0.1l0,0c-0.1-0.1,0-0.2,0.1-0.3l0,0c0.1-0.1,0.2,0,0.3,0.1v0
		C70.6,106.6,70.6,106.7,70.5,106.8z"/>
	<path fill="#4E8192" d="M70.8,107.3L70.8,107.3c-0.1,0.1-0.2,0-0.3-0.1l0,0c-0.1-0.1,0-0.2,0.1-0.3l0,0c0.1-0.1,0.2,0,0.3,0.1l0,0
		C70.9,107.1,70.9,107.2,70.8,107.3z"/>
	<path fill="#4E8192" d="M71.1,107.8L71.1,107.8c-0.1,0.1-0.2,0-0.3-0.1l0,0c-0.1-0.1,0-0.2,0.1-0.3v0c0.1-0.1,0.2,0,0.3,0.1l0,0
		C71.2,107.6,71.2,107.7,71.1,107.8z"/>
	<path fill="#4E8192" d="M70.1,105L70.1,105c-0.1,0.1-0.2,0-0.3-0.1l0,0c-0.1-0.1,0-0.2,0.1-0.3l0,0c0.1-0.1,0.2,0,0.3,0.1l0,0
		C70.2,104.8,70.2,105,70.1,105z"/>
	<path fill="#4E8192" d="M70.4,105.5L70.4,105.5c-0.1,0.1-0.2,0-0.3-0.1l0,0c-0.1-0.1,0-0.2,0.1-0.3l0,0c0.1-0.1,0.2,0,0.3,0.1l0,0
		C70.5,105.3,70.5,105.5,70.4,105.5z"/>
	<path fill="#4E8192" d="M70.7,106L70.7,106c-0.1,0.1-0.2,0-0.3-0.1l0,0c-0.1-0.1,0-0.2,0.1-0.3l0,0c0.1-0.1,0.2,0,0.3,0.1l0,0
		C70.8,105.8,70.8,105.9,70.7,106z"/>
	<path fill="#4E8192" d="M71,106.5L71,106.5c-0.1,0.1-0.2,0-0.3-0.1l0,0c-0.1-0.1,0-0.2,0.1-0.3h0c0.1-0.1,0.2,0,0.3,0.1l0,0
		C71.1,106.3,71.1,106.4,71,106.5z"/>
	<path fill="#4E8192" d="M71.3,107L71.3,107c-0.1,0.1-0.2,0-0.3-0.1l0,0c-0.1-0.1,0-0.2,0.1-0.3l0,0c0.1-0.1,0.2,0,0.3,0.1l0,0
		C71.4,106.8,71.4,106.9,71.3,107z"/>
	<path fill="#4E8192" d="M71.6,107.5L71.6,107.5c-0.1,0.1-0.2,0-0.3-0.1l0,0c-0.1-0.1,0-0.2,0.1-0.3l0,0c0.1-0.1,0.2,0,0.3,0.1l0,0
		C71.7,107.3,71.7,107.4,71.6,107.5z"/>
	<path fill="#7C4444" d="M68.1,111.6c0,0-0.2-0.3-0.2-0.3c0-0.1-0.1,0-0.1,0c0.1-0.1-0.3,0.2-0.3,0.2S67.8,111.8,68.1,111.6z"/>
	<path fill="#7C4444" d="M68.3,110.9c0,0-0.3,0.2-0.3,0.2c-0.1,0,0,0.1,0,0.1c-0.1-0.1,0.2,0.3,0.2,0.3S68.6,111.2,68.3,110.9z"/>
	<path fill="#7C4444" d="M69.4,111.4c0,0-0.2-0.3-0.2-0.3c0-0.1-0.1,0-0.1,0c0.1-0.1-0.3,0.2-0.3,0.2S69,111.7,69.4,111.4z"/>
	<path fill="#7C4444" d="M69.6,110.8c0,0-0.3,0.2-0.3,0.2c-0.1,0,0,0.1,0,0.1c-0.1-0.1,0.2,0.3,0.2,0.3S69.9,111.1,69.6,110.8z"/>
	<path fill="#7C4444" d="M70.7,111.3c0,0-0.2-0.3-0.2-0.3c0-0.1-0.1,0-0.1,0c0.1-0.1-0.3,0.2-0.3,0.2S70.3,111.5,70.7,111.3z"/>
	<path fill="#7C4444" d="M70.9,110.6c0,0-0.3,0.2-0.3,0.2c-0.1,0,0,0.1,0,0.1c-0.1-0.1,0.2,0.3,0.2,0.3S71.1,111,70.9,110.6z"/>
	<path fill="#7C4444" d="M66.8,111.7c0,0-0.2-0.3-0.2-0.3c0-0.1-0.1,0-0.1,0c0.1-0.1-0.3,0.2-0.3,0.2S66.5,111.9,66.8,111.7z"/>
	<path fill="#7C4444" d="M67.1,111c0,0-0.3,0.2-0.3,0.2c-0.1,0,0,0.1,0,0.1c-0.1-0.1,0.2,0.3,0.2,0.3S67.3,111.4,67.1,111z"/>
	<path fill="#7C4444" d="M67.6,111.2L67.6,111.2c-0.1,0.1-0.2,0-0.3-0.1v0c-0.1-0.1,0-0.2,0.1-0.3l0,0c0.1-0.1,0.2,0,0.3,0.1l0,0
		C67.8,111,67.7,111.1,67.6,111.2z"/>
	<path fill="#7C4444" d="M68.1,110.9L68.1,110.9c-0.1,0.1-0.2,0-0.3-0.1l0,0c-0.1-0.1,0-0.2,0.1-0.3l0,0c0.1-0.1,0.2,0,0.3,0.1l0,0
		C68.2,110.7,68.2,110.8,68.1,110.9z"/>
	<path fill="#7C4444" d="M68.6,110.6L68.6,110.6c-0.1,0.1-0.2,0-0.3-0.1l0,0c-0.1-0.1,0-0.2,0.1-0.3l0,0c0.1-0.1,0.2,0,0.3,0.1l0,0
		C68.7,110.4,68.7,110.5,68.6,110.6z"/>
	<path fill="#7C4444" d="M69.1,110.3L69.1,110.3c-0.1,0.1-0.2,0-0.3-0.1l0,0c-0.1-0.1,0-0.2,0.1-0.3l0,0c0.1-0.1,0.2,0,0.3,0.1l0,0
		C69.2,110.1,69.2,110.2,69.1,110.3z"/>
	<path fill="#7C4444" d="M68.9,111.1L68.9,111.1c-0.1,0.1-0.2,0-0.3-0.1l0,0c-0.1-0.1,0-0.2,0.1-0.3l0,0c0.1-0.1,0.2,0,0.3,0.1l0,0
		C69,110.9,69,111,68.9,111.1z"/>
	<path fill="#7C4444" d="M69.4,110.8L69.4,110.8c-0.1,0.1-0.2,0-0.3-0.1l0,0c-0.1-0.1,0-0.2,0.1-0.3l0,0c0.1-0.1,0.2,0,0.3,0.1l0,0
		C69.5,110.6,69.5,110.7,69.4,110.8z"/>
	<path fill="#7C4444" d="M67.9,110.4c-0.2-0.3-0.5-0.1-0.5-0.1s0.1,0.2,0.2,0.3c0,0,0.1,0,0.1,0C67.7,110.5,67.9,110.4,67.9,110.4z"
		/>
	<path fill="#4E8192" d="M67.5,110.1c0.1,0,0.2-0.1,0.2-0.1c0,0,0.1,0,0.1,0c0,0,0.2,0.3,0.2,0.3C67.8,110,67.6,110.1,67.5,110.1z"
		/>
	<path fill="#7C4444" d="M67.9,109.7c-0.2-0.3,0.1-0.5,0.1-0.5s0.1,0.2,0.2,0.3c0,0,0,0.1,0,0.1C68.1,109.6,67.9,109.7,67.9,109.7z"
		/>
	<path fill="#4E8192" d="M67.8,109.2c-0.1,0-0.2,0.1-0.2,0.1c0,0-0.1,0,0,0.1s0.2,0.3,0.2,0.3C67.6,109.4,67.7,109.3,67.8,109.2z"/>
	<path fill="#7C4444" d="M68.6,109.3c-0.2-0.3-0.5-0.1-0.5-0.1s0.1,0.2,0.2,0.3c0,0,0.1,0,0.1,0C68.4,109.4,68.6,109.3,68.6,109.3z"
		/>
	<path fill="#4E8192" d="M68.2,109c0.1,0,0.2-0.1,0.2-0.1c0,0,0.1,0,0.1,0c0,0,0.2,0.3,0.2,0.3C68.4,108.9,68.2,109,68.2,109z"/>
	<path fill="#7C4444" d="M68.5,108.6c-0.2-0.3,0.1-0.5,0.1-0.5s0.1,0.2,0.2,0.3c0,0,0,0.1,0,0.1C68.8,108.5,68.5,108.6,68.5,108.6z"
		/>
	<path fill="#4E8192" d="M68.5,108.1c-0.1,0-0.2,0.1-0.2,0.1c0,0-0.1,0,0,0.1c0,0,0.2,0.3,0.2,0.3C68.3,108.3,68.4,108.2,68.5,108.1
		z"/>
	<path fill="#7C4444" d="M69.3,108.2c-0.2-0.3-0.5-0.1-0.5-0.1s0.1,0.2,0.2,0.3c0,0,0.1,0,0.1,0C69,108.3,69.3,108.2,69.3,108.2z"/>
	<path fill="#4E8192" d="M68.8,107.9c0.1,0,0.2-0.1,0.2-0.1c0,0,0.1,0,0.1,0c0,0,0.2,0.3,0.2,0.3C69.1,107.8,68.9,107.9,68.8,107.9z
		"/>
	<path fill="#7C4444" d="M65.9,108.1c-0.3,0.2-0.5-0.1-0.5-0.1s0.2-0.1,0.3-0.2c0,0,0.1,0,0.1,0C65.8,107.9,65.9,108.1,65.9,108.1z"
		/>
	<path fill="#4E8192" d="M65.4,108.2c0,0.1,0.1,0.2,0.1,0.2c0,0,0,0.1,0.1,0c0,0,0.3-0.2,0.3-0.2C65.6,108.4,65.5,108.3,65.4,108.2z
		"/>
	<path fill="#7C4444" d="M65.5,107.4c-0.3,0.2-0.1,0.5-0.1,0.5s0.2-0.1,0.3-0.2c0,0,0-0.1,0-0.1C65.6,107.6,65.5,107.4,65.5,107.4z"
		/>
	<path fill="#4E8192" d="M65.2,107.8c0-0.1-0.1-0.2-0.1-0.2c0,0,0-0.1,0-0.1c0,0,0.3-0.2,0.3-0.2C65.1,107.6,65.2,107.8,65.2,107.8z
		"/>
	<path fill="#7C4444" d="M66.3,108L66.3,108c-0.1,0.1-0.2,0-0.3-0.1l0,0c-0.1-0.1,0-0.2,0.1-0.3l0,0c0.1-0.1,0.2,0,0.3,0.1l0,0
		C66.4,107.8,66.4,108,66.3,108z"/>
	<path fill="#7C4444" d="M68.3,110.1L68.3,110.1c-0.1,0.1-0.2,0-0.3-0.1l0,0c-0.1-0.1,0-0.2,0.1-0.3l0,0c0.1-0.1,0.2,0,0.3,0.1l0,0
		C68.4,109.9,68.4,110.1,68.3,110.1z"/>
	<path fill="#7C4444" d="M68.8,109.8L68.8,109.8c-0.1,0.1-0.2,0-0.3-0.1l0,0c-0.1-0.1,0-0.2,0.1-0.3l0,0c0.1-0.1,0.2,0,0.3,0.1l0,0
		C68.9,109.6,68.9,109.8,68.8,109.8z"/>
	<path fill="#7C4444" d="M69.6,110L69.6,110c-0.1,0.1-0.2,0-0.3-0.1l0,0c-0.1-0.1,0-0.2,0.1-0.3l0,0c0.1-0.1,0.2,0,0.3,0.1h0
		C69.7,109.8,69.7,109.9,69.6,110z"/>
	<path fill="#7C4444" d="M70,109.7L70,109.7c-0.1,0.1-0.2,0-0.3-0.1l0,0c-0.1-0.1,0-0.2,0.1-0.3l0,0c0.1-0.1,0.2,0,0.3,0.1l0,0
		C70.2,109.5,70.1,109.6,70,109.7z"/>
	<path fill="#7C4444" d="M69.9,110.5L69.9,110.5c-0.1,0.1-0.2,0-0.3-0.1l0,0c-0.1-0.1,0-0.2,0.1-0.3l0,0c0.1-0.1,0.2,0,0.3,0.1l0,0
		C70,110.3,70,110.4,69.9,110.5z"/>
	<path fill="#7C4444" d="M70.3,110.2L70.3,110.2c-0.1,0.1-0.2,0-0.3-0.1l0,0c-0.1-0.1,0-0.2,0.1-0.3l0,0c0.1-0.1,0.2,0,0.3,0.1l0,0
		C70.5,110,70.4,110.1,70.3,110.2z"/>
	<path fill="#7C4444" d="M70.2,111L70.2,111c-0.1,0.1-0.2,0-0.3-0.1l0,0c-0.1-0.1,0-0.2,0.1-0.3l0,0c0.1-0.1,0.2,0,0.3,0.1l0,0
		C70.3,110.8,70.3,110.9,70.2,111z"/>
	<path fill="#7C4444" d="M70.7,110.7L70.7,110.7c-0.1,0.1-0.2,0-0.3-0.1l0,0c-0.1-0.1,0-0.2,0.1-0.3l0,0c0.1-0.1,0.2,0,0.3,0.1v0
		C70.8,110.5,70.8,110.6,70.7,110.7z"/>
	<path fill="#7C4444" d="M69.3,109.5L69.3,109.5c-0.1,0.1-0.2,0-0.3-0.1l0,0c-0.1-0.1,0-0.2,0.1-0.3l0,0c0.1-0.1,0.2,0,0.3,0.1l0,0
		C69.4,109.3,69.4,109.4,69.3,109.5z"/>
	<path fill="#7C4444" d="M69.7,109.2L69.7,109.2c-0.1,0.1-0.2,0-0.3-0.1l0,0c-0.1-0.1,0-0.2,0.1-0.3l0,0c0.1-0.1,0.2,0,0.3,0.1l0,0
		C69.9,109,69.8,109.1,69.7,109.2z"/>
	<path fill="#7C4444" d="M68.9,109L68.9,109c-0.1,0.1-0.2,0-0.3-0.1l0,0c-0.1-0.1,0-0.2,0.1-0.3l0,0c0.1-0.1,0.2,0,0.3,0.1l0,0
		C69.1,108.8,69,109,68.9,109z"/>
	<path fill="#7C4444" d="M69.4,108.7L69.4,108.7c-0.1,0.1-0.2,0-0.3-0.1v0c-0.1-0.1,0-0.2,0.1-0.3l0,0c0.1-0.1,0.2,0,0.3,0.1l0,0
		C69.6,108.5,69.5,108.7,69.4,108.7z"/>
	<path fill="#7C4444" d="M66.8,107.7L66.8,107.7c-0.1,0.1-0.2,0-0.3-0.1l0,0c-0.1-0.1,0-0.2,0.1-0.3l0,0c0.1-0.1,0.2,0,0.3,0.1l0,0
		C66.9,107.5,66.9,107.6,66.8,107.7z"/>
	<path fill="#7C4444" d="M67.2,107.4L67.2,107.4c-0.1,0.1-0.2,0-0.3-0.1v0c-0.1-0.1,0-0.2,0.1-0.3l0,0c0.1-0.1,0.2,0,0.3,0.1l0,0
		C67.4,107.2,67.3,107.3,67.2,107.4z"/>
	<path fill="#7C4444" d="M67.7,107.1L67.7,107.1c-0.1,0.1-0.2,0-0.3-0.1l0,0c-0.1-0.1,0-0.2,0.1-0.3l0,0c0.1-0.1,0.2,0,0.3,0.1l0,0
		C67.9,106.9,67.8,107,67.7,107.1z"/>
	<path fill="#7C4444" d="M66,107.6L66,107.6c-0.1,0.1-0.2,0-0.3-0.1l0,0c-0.1-0.1,0-0.2,0.1-0.3l0,0c0.1-0.1,0.2,0,0.3,0.1l0,0
		C66.1,107.4,66.1,107.5,66,107.6z"/>
	<path fill="#7C4444" d="M66.5,107.2L66.5,107.2c-0.1,0.1-0.2,0-0.3-0.1l0,0c-0.1-0.1,0-0.2,0.1-0.3v0c0.1-0.1,0.2,0,0.3,0.1l0,0
		C66.6,107,66.6,107.2,66.5,107.2z"/>
	<path fill="#7C4444" d="M66.9,106.9L66.9,106.9c-0.1,0.1-0.2,0-0.3-0.1l0,0c-0.1-0.1,0-0.2,0.1-0.3l0,0c0.1-0.1,0.2,0,0.3,0.1l0,0
		C67.1,106.7,67,106.9,66.9,106.9z"/>
	<path fill="#7C4444" d="M67.4,106.6L67.4,106.6c-0.1,0.1-0.2,0-0.3-0.1l0,0c-0.1-0.1,0-0.2,0.1-0.3l0,0c0.1-0.1,0.2,0,0.3,0.1l0,0
		C67.6,106.4,67.5,106.6,67.4,106.6z"/>
	<path fill="#7C4444" d="M67.9,106.3L67.9,106.3c-0.1,0.1-0.2,0-0.3-0.1l0,0c-0.1-0.1,0-0.2,0.1-0.3l0,0c0.1-0.1,0.2,0,0.3,0.1l0,0
		C68.1,106.1,68,106.2,67.9,106.3z"/>
	<path fill="#7C4444" d="M67.1,106.2L67.1,106.2c-0.1,0.1-0.2,0-0.3-0.1l0,0c-0.1-0.1,0-0.2,0.1-0.3l0,0c0.1-0.1,0.2,0,0.3,0.1l0,0
		C67.3,106,67.2,106.1,67.1,106.2z"/>
	<path fill="#7C4444" d="M67.6,105.9L67.6,105.9c-0.1,0.1-0.2,0-0.3-0.1l0,0c-0.1-0.1,0-0.2,0.1-0.3l0,0c0.1-0.1,0.2,0,0.3,0.1l0,0
		C67.8,105.7,67.7,105.8,67.6,105.9z"/>
	<path fill="#7C4444" d="M66.8,105.7L66.8,105.7c-0.1,0.1-0.2,0-0.3-0.1l0,0c-0.1-0.1,0-0.2,0.1-0.3l0,0c0.1-0.1,0.2,0,0.3,0.1v0
		C67,105.5,66.9,105.6,66.8,105.7z"/>
	<path fill="#7C4444" d="M67.3,105.4L67.3,105.4c-0.1,0.1-0.2,0-0.3-0.1l0,0c-0.1-0.1,0-0.2,0.1-0.3l0,0c0.1-0.1,0.2,0,0.3,0.1l0,0
		C67.5,105.2,67.4,105.3,67.3,105.4z"/>
	<path fill="#7C4444" d="M66.5,105.2L66.5,105.2c-0.1,0.1-0.2,0-0.3-0.1l0,0c-0.1-0.1,0-0.2,0.1-0.3l0,0c0.1-0.1,0.2,0,0.3,0.1l0,0
		C66.7,105,66.6,105.1,66.5,105.2z"/>
	<path fill="#7C4444" d="M66.4,106L66.4,106c-0.1,0.1-0.2,0-0.3-0.1l0,0c-0.1-0.1,0-0.2,0.1-0.3l0,0c0.1-0.1,0.2,0,0.3,0.1l0,0
		C66.5,105.8,66.5,105.9,66.4,106z"/>
	<path fill="#7C4444" d="M66.1,105.5L66.1,105.5c-0.1,0.1-0.2,0-0.3-0.1v0c-0.1-0.1,0-0.2,0.1-0.3l0,0c0.1-0.1,0.2,0,0.3,0.1l0,0
		C66.2,105.3,66.2,105.5,66.1,105.5z"/>
	<path fill="#7C4444" d="M65.9,106.3L65.9,106.3c-0.1,0.1-0.2,0-0.3-0.1l0,0c-0.1-0.1,0-0.2,0.1-0.3l0,0c0.1-0.1,0.2,0,0.3,0.1l0,0
		C66,106.1,66,106.2,65.9,106.3z"/>
	<path fill="#7C4444" d="M65.6,105.8L65.6,105.8c-0.1,0.1-0.2,0-0.3-0.1v0c-0.1-0.1,0-0.2,0.1-0.3l0,0c0.1-0.1,0.2,0,0.3,0.1l0,0
		C65.7,105.6,65.7,105.8,65.6,105.8z"/>
	<path fill="#7C4444" d="M65.4,106.6L65.4,106.6c-0.1,0.1-0.2,0-0.3-0.1v0c-0.1-0.1,0-0.2,0.1-0.3l0,0c0.1-0.1,0.2,0,0.3,0.1l0,0
		C65.5,106.4,65.5,106.5,65.4,106.6z"/>
	<path fill="#7C4444" d="M65.1,106.1L65.1,106.1c-0.1,0.1-0.2,0-0.3-0.1l0,0c-0.1-0.1,0-0.2,0.1-0.3l0,0c0.1-0.1,0.2,0,0.3,0.1l0,0
		C65.2,105.9,65.2,106.1,65.1,106.1z"/>
	<path fill="#7C4444" d="M64.9,106.9L64.9,106.9c-0.1,0.1-0.2,0-0.3-0.1l0,0c-0.1-0.1,0-0.2,0.1-0.3l0,0c0.1-0.1,0.2,0,0.3,0.1l0,0
		C65.1,106.7,65,106.8,64.9,106.9z"/>
	<path fill="#7C4444" d="M64.6,106.4L64.6,106.4c-0.1,0.1-0.2,0-0.3-0.1l0,0c-0.1-0.1,0-0.2,0.1-0.3l0,0c0.1-0.1,0.2,0,0.3,0.1l0,0
		C64.7,106.2,64.7,106.4,64.6,106.4z"/>
	<path fill="#7C4444" d="M64.4,107.2L64.4,107.2c-0.1,0.1-0.2,0-0.3-0.1l0,0c-0.1-0.1,0-0.2,0.1-0.3l0,0c0.1-0.1,0.2,0,0.3,0.1l0,0
		C64.6,107,64.5,107.1,64.4,107.2z"/>
	<path fill="#7C4444" d="M64.1,106.7L64.1,106.7c-0.1,0.1-0.2,0-0.3-0.1l0,0c-0.1-0.1,0-0.2,0.1-0.3l0,0c0.1-0.1,0.2,0,0.3,0.1l0,0
		C64.3,106.5,64.2,106.7,64.1,106.7z"/>
	<path fill="#7C4444" d="M64,107.5L64,107.5c-0.1,0.1-0.2,0-0.3-0.1v0c-0.1-0.1,0-0.2,0.1-0.3l0,0c0.1-0.1,0.2,0,0.3,0.1l0,0
		C64.1,107.3,64.1,107.4,64,107.5z"/>
	<path fill="#7C4444" d="M65.8,104.5L65.8,104.5c0.1,0.1,0.2,0.1,0.3,0.1l0,0c0.1-0.1,0.1-0.2,0.1-0.3l0,0c-0.1-0.1-0.2-0.1-0.3-0.1
		l0,0C65.8,104.2,65.8,104.4,65.8,104.5z"/>
	<path fill="#7C4444" d="M65.4,104.8L65.4,104.8c0.1,0.1,0.2,0.1,0.3,0.1l0,0c0.1-0.1,0.1-0.2,0.1-0.3l0,0c-0.1-0.1-0.2-0.1-0.3-0.1
		h0C65.3,104.5,65.3,104.7,65.4,104.8z"/>
	<path fill="#7C4444" d="M64.9,105.1L64.9,105.1c0.1,0.1,0.2,0.1,0.3,0.1l0,0c0.1-0.1,0.1-0.2,0.1-0.3l0,0c-0.1-0.1-0.2-0.1-0.3-0.1
		l0,0C64.8,104.8,64.8,105,64.9,105.1z"/>
	<path fill="#7C4444" d="M64.4,105.4L64.4,105.4c0.1,0.1,0.2,0.1,0.3,0.1v0c0.1-0.1,0.1-0.2,0.1-0.3l0,0c-0.1-0.1-0.2-0.1-0.3-0.1
		l0,0C64.3,105.1,64.3,105.3,64.4,105.4z"/>
	<path fill="#7C4444" d="M63.9,105.7L63.9,105.7c0.1,0.1,0.2,0.1,0.3,0.1l0,0c0.1-0.1,0.1-0.2,0.1-0.3v0c-0.1-0.1-0.2-0.1-0.3-0.1
		l0,0C63.9,105.4,63.8,105.6,63.9,105.7z"/>
	<path fill="#7C4444" d="M63.4,106L63.4,106c0.1,0.1,0.2,0.1,0.3,0.1l0,0c0.1-0.1,0.1-0.2,0.1-0.3l0,0c-0.1-0.1-0.2-0.1-0.3-0.1l0,0
		C63.4,105.7,63.4,105.9,63.4,106z"/>
	<path fill="#7C4444" d="M65.5,104L65.5,104c0.1,0.1,0.2,0.1,0.3,0.1l0,0c0.1-0.1,0.1-0.2,0.1-0.3l0,0c-0.1-0.1-0.2-0.1-0.3-0.1l0,0
		C65.5,103.7,65.5,103.9,65.5,104z"/>
	<path fill="#7C4444" d="M65,104.3L65,104.3c0.1,0.1,0.2,0.1,0.3,0.1l0,0c0.1-0.1,0.1-0.2,0.1-0.3l0,0c-0.1-0.1-0.2-0.1-0.3-0.1l0,0
		C65,104,65,104.2,65,104.3z"/>
	<path fill="#7C4444" d="M64.6,104.6L64.6,104.6c0.1,0.1,0.2,0.1,0.3,0.1h0c0.1-0.1,0.1-0.2,0.1-0.3v0c-0.1-0.1-0.2-0.1-0.3-0.1l0,0
		C64.5,104.3,64.5,104.5,64.6,104.6z"/>
	<path fill="#7C4444" d="M64.1,104.9L64.1,104.9c0.1,0.1,0.2,0.1,0.3,0.1l0,0c0.1-0.1,0.1-0.2,0.1-0.3l0,0c-0.1-0.1-0.2-0.1-0.3-0.1
		l0,0C64,104.6,64,104.8,64.1,104.9z"/>
	<path fill="#7C4444" d="M63.6,105.2L63.6,105.2c0.1,0.1,0.2,0.1,0.3,0.1h0c0.1-0.1,0.1-0.2,0.1-0.3l0,0c-0.1-0.1-0.2-0.1-0.3-0.1
		l0,0C63.6,104.9,63.5,105.1,63.6,105.2z"/>
	<path fill="#7C4444" d="M63.1,105.5L63.1,105.5c0.1,0.1,0.2,0.1,0.3,0.1h0c0.1-0.1,0.1-0.2,0.1-0.3l0,0c-0.1-0.1-0.2-0.1-0.3-0.1h0
		C63.1,105.2,63,105.4,63.1,105.5z"/>
	<path opacity="0.9" fill="#7C4444" d="M69.7,113l-0.2,1.1l1.1,0.3c0,0,1.1,0.2,1.3-0.8c0.2-1.1,0.2-1.1,0.2-1.1l-1.1-0.2l-0.2,0.9
		c0,0,0,0.2-0.3,0.1S69.7,113,69.7,113z"/>
	<path opacity="0.85" fill="#4E8192" d="M62.1,111.3l-0.2,1.1l-1.1-0.3c0,0-1.1-0.2-0.8-1.3c0.2-1.1,0.2-1.1,0.2-1.1l1.1,0.2
		l-0.2,0.9c0,0,0,0.2,0.2,0.3C61.5,111.2,62.1,111.3,62.1,111.3z"/>
	<path opacity="0.85" fill="#4E8192" d="M71.7,104.3l0.2-1.1l1.1,0.3c0,0,1.1,0.2,0.8,1.3c-0.2,1.1-0.2,1.1-0.2,1.1l-1.1-0.2
		l0.2-0.9c0,0,0-0.2-0.2-0.3C72.3,104.5,71.7,104.3,71.7,104.3z"/>
	<path opacity="0.9" fill="#7C4444" d="M64.1,102.6l0.2-1.1l-1.1-0.3c0,0-1.1-0.2-1.3,0.8c-0.2,1.1-0.2,1.1-0.2,1.1l1.1,0.2l0.2-0.9
		c0,0,0-0.2,0.3-0.1C63.4,102.5,64.1,102.6,64.1,102.6z"/>
	<path fill="#4E8192" d="M67.5,109.9L67.5,109.9c-0.1,0.1-0.2,0-0.3-0.1l0,0c-0.1-0.1,0-0.2,0.1-0.3l0,0c0.1-0.1,0.2,0,0.3,0.1l0,0
		C67.6,109.7,67.6,109.9,67.5,109.9z"/>
	<path fill="#4E8192" d="M63.1,109.3L63.1,109.3c-0.1,0.1-0.2,0-0.3-0.1l0,0c-0.1-0.1,0-0.2,0.1-0.3h0c0.1-0.1,0.2,0,0.3,0.1l0,0
		C63.2,109.2,63.2,109.3,63.1,109.3z"/>
	<path fill="#4E8192" d="M63.6,109L63.6,109c-0.1,0.1-0.2,0-0.3-0.1l0,0c-0.1-0.1,0-0.2,0.1-0.3v0c0.1-0.1,0.2,0,0.3,0.1l0,0
		C63.7,108.8,63.7,109,63.6,109z"/>
	<path fill="#4E8192" d="M64.1,108.7L64.1,108.7c-0.1,0.1-0.2,0-0.3-0.1l0,0c-0.1-0.1,0-0.2,0.1-0.3h0c0.1-0.1,0.2,0,0.3,0.1l0,0
		C64.2,108.6,64.2,108.7,64.1,108.7z"/>
	<path fill="#3A3B4C" d="M78.2,108.2l0.7,0.2l-1,4.6c-0.2,0.7-0.8,0.9-1.5,0.8c-0.7-0.2-1-0.7-0.9-1.2c0,0,0.1-0.3,0.2-0.4
		c0.2,0.1,0.5,0.1,0.7,0.2c-0.1,0.1-0.1,0.2-0.1,0.3c-0.1,0.3,0.1,0.5,0.4,0.5c0.3,0.1,0.5,0,0.6-0.4L78.2,108.2z M78.3,107.2
		c-0.1,0.3,0.1,0.6,0.4,0.6c0.3,0.1,0.6-0.1,0.6-0.4c0.1-0.3-0.1-0.6-0.4-0.6C78.6,106.8,78.4,106.9,78.3,107.2z"/>
	<g>
		<path fill="#3A3B4C" d="M81.7,112.5c-0.2,0.1-0.4,0.2-0.6,0.3c-0.2,0-0.5,0-0.7,0c-0.1,0-0.3-0.1-0.4-0.2
			c-0.1-0.1-0.3-0.2-0.4-0.3c-0.1-0.1-0.2-0.3-0.2-0.4c0-0.2,0-0.3,0-0.5c0.1-0.4,0.3-0.7,0.6-0.8c0.3-0.2,0.7-0.2,1.2-0.1
			c0.1,0,0.2,0,0.3,0.1c0.1,0,0.2,0.1,0.3,0.1c0.1,0,0.2,0,0.2,0.1c0.1,0,0.1,0,0.1,0l0-0.1c0.1-0.3,0-0.5-0.1-0.6
			c-0.1-0.2-0.3-0.3-0.6-0.3c-0.3-0.1-0.5-0.1-0.7,0c-0.2,0-0.3,0.1-0.4,0.1l-0.2-0.5c0.1,0,0.2-0.1,0.3-0.1c0.1,0,0.2-0.1,0.3-0.1
			c0.1,0,0.3,0,0.4,0c0.2,0,0.3,0,0.5,0.1c0.5,0.1,0.8,0.3,1,0.6c0.2,0.3,0.3,0.6,0.2,1l-0.5,2.1c0,0.1,0,0.2-0.1,0.3l-0.6-0.1
			L81.7,112.5z M82,111.3c0,0-0.1,0-0.1,0c-0.1,0-0.1,0-0.2-0.1c-0.1,0-0.2,0-0.2-0.1c-0.1,0-0.2,0-0.3-0.1c-0.2,0-0.4-0.1-0.5,0
			c-0.1,0-0.2,0.1-0.3,0.1c-0.1,0.1-0.1,0.1-0.2,0.2c0,0.1-0.1,0.2-0.1,0.2c0,0.2,0,0.4,0.1,0.5c0.1,0.1,0.3,0.2,0.5,0.3
			c0.1,0,0.3,0,0.4,0c0.1,0,0.3-0.1,0.4-0.1c0.1-0.1,0.2-0.1,0.3-0.2c0.1-0.1,0.1-0.2,0.2-0.3L82,111.3z"/>
		<path fill="#3A3B4C" d="M84.2,110.4l-0.6-0.1l0.1-0.6l0.6,0.1l0.3-1.2l0.7,0.2L85,110l1,0.2l-0.1,0.6l-1-0.2l-0.4,1.8
			c-0.1,0.3-0.1,0.5,0,0.6c0.1,0.1,0.2,0.2,0.3,0.2c0.1,0,0.2,0,0.3,0c0.1,0,0.2-0.1,0.3-0.1l0.2,0.5c-0.2,0.1-0.4,0.2-0.5,0.2
			c-0.2,0-0.4,0-0.6,0c-0.4-0.1-0.6-0.3-0.8-0.5c-0.1-0.2-0.1-0.6,0-1L84.2,110.4z"/>
		<path fill="#3A3B4C" d="M88.5,114.1c-0.2,0.1-0.4,0.2-0.6,0.3c-0.2,0-0.5,0-0.7,0c-0.1,0-0.3-0.1-0.4-0.2
			c-0.1-0.1-0.3-0.2-0.4-0.3c-0.1-0.1-0.2-0.3-0.2-0.4c0-0.2,0-0.3,0-0.5c0.1-0.4,0.3-0.7,0.6-0.8c0.3-0.2,0.7-0.2,1.2-0.1
			c0.1,0,0.2,0,0.3,0.1c0.1,0,0.2,0.1,0.3,0.1c0.1,0,0.2,0,0.2,0.1c0.1,0,0.1,0,0.1,0l0-0.1c0.1-0.3,0-0.5-0.1-0.6
			c-0.1-0.2-0.3-0.3-0.6-0.3c-0.3-0.1-0.5-0.1-0.7,0c-0.2,0-0.3,0.1-0.4,0.1l-0.2-0.5c0.1,0,0.2-0.1,0.3-0.1c0.1,0,0.2-0.1,0.3-0.1
			c0.1,0,0.3,0,0.4,0c0.2,0,0.3,0,0.5,0.1c0.5,0.1,0.8,0.3,1,0.6c0.2,0.3,0.3,0.6,0.2,1l-0.5,2.1c0,0.1,0,0.2-0.1,0.3l-0.6-0.1
			L88.5,114.1z M88.8,112.8c0,0-0.1,0-0.1,0c-0.1,0-0.1,0-0.2-0.1c-0.1,0-0.2,0-0.2-0.1c-0.1,0-0.2,0-0.3-0.1c-0.2,0-0.4-0.1-0.5,0
			c-0.1,0-0.2,0.1-0.3,0.1c-0.1,0.1-0.1,0.1-0.2,0.2c0,0.1-0.1,0.2-0.1,0.2c0,0.2,0,0.4,0.1,0.5c0.1,0.1,0.3,0.2,0.5,0.3
			c0.1,0,0.3,0,0.4,0c0.1,0,0.3-0.1,0.4-0.1c0.1-0.1,0.2-0.1,0.3-0.2c0.1-0.1,0.1-0.2,0.2-0.3L88.8,112.8z"/>
	</g>
	<path fill="#7C4444" d="M91.8,115.2l0.7-3.2c0-0.1,0-0.2,0.1-0.3l0.7,0.2l-0.1,0.6c0.1-0.1,0.1-0.1,0.2-0.2
		c0.1-0.1,0.2-0.1,0.3-0.1c0.1,0,0.2-0.1,0.4-0.1c0.1,0,0.3,0,0.4,0c0.1,0,0.1,0,0.2,0.1c0.1,0,0.1,0.1,0.2,0.1l-0.3,0.6
		c-0.1-0.1-0.2-0.1-0.3-0.1c-0.1,0-0.3,0-0.4,0c-0.1,0-0.3,0.1-0.4,0.2c-0.1,0.1-0.2,0.2-0.3,0.3c-0.1,0.1-0.1,0.3-0.2,0.4l-0.4,1.9
		L91.8,115.2z"/>
	<path fill="#7C4444" d="M95.3,112.3l0.7,0.2l-0.5,2.1c-0.1,0.3-0.1,0.6,0,0.8c0.1,0.2,0.3,0.3,0.5,0.4c0.2,0,0.4,0,0.5,0
		c0.1-0.1,0.3-0.1,0.4-0.2c0.1-0.1,0.2-0.2,0.3-0.4c0.1-0.2,0.1-0.3,0.2-0.5l0.4-1.7l0.7,0.2l-0.7,3.2c0,0.1-0.1,0.2-0.1,0.4
		l-0.7-0.2l0.1-0.5c-0.1,0.1-0.1,0.1-0.2,0.2c-0.1,0.1-0.2,0.1-0.3,0.1s-0.2,0.1-0.4,0.1c-0.1,0-0.3,0-0.5,0
		c-0.5-0.1-0.8-0.3-0.9-0.6c-0.2-0.3-0.2-0.7-0.1-1.2L95.3,112.3z"/>
</g>
<path fill="#FFFFFF" d="M161,102.7v2.9c0,0,14.7-1.6,15-1.5C176.4,104.2,161,102.7,161,102.7z"/>
<path fill="#7A4344" d="M171.2,128.3l-0.7,2.8c0,0,42.7,8.3,43,8.5C213.8,139.9,171.2,128.3,171.2,128.3z"/>
<path fill="#7A4344" d="M164.2,112.1l-0.1,2.9c0,0,18.7-0.8,19-0.7C183.5,114.4,164.2,112.1,164.2,112.1z"/>
<path fill="#FFFFFF" d="M162.5,121.4l-0.4,2.8c0,0,14.8,0.5,15.1,0.7C177.6,125.1,162.5,121.4,162.5,121.4z"/>
<path fill="#FFFFFF" d="M160.1,131.5l-0.9,2.7c0,0,14.5,3.1,14.7,3.3C174.3,137.8,160.1,131.5,160.1,131.5z"/>
<path fill="#7A4344" d="M159.3,140.5l-1,2.7c0,0,18.1,4.7,18.4,4.9C177,148.4,159.3,140.5,159.3,140.5z"/>
<path fill="#FFFFFF" d="M149,144.9l-1.6,2.4c0,0,13,7,13.2,7.3C160.8,154.9,149,144.9,149,144.9z"/>
<g>
	<path fill="#252525" d="M153.8,118.2c0.6,1.3,2.2,1.8,3.5,1.2l0,0c1.3-0.6,1.8-2.2,1.2-3.5l-7.6-15.8c-0.6-1.3-2.2-1.8-3.5-1.2l0,0
		c-1.3,0.6-1.8,2.2-1.2,3.5L153.8,118.2z"/>
	<path fill="#252525" d="M156.2,113.3c0.4,0.8,1.4,1.2,2.2,0.8l0,0c0.8-0.4,1.2-1.4,0.8-2.2l-4.8-10c-0.4-0.8-1.4-1.2-2.2-0.8l0,0
		c-0.8,0.4-1.2,1.4-0.8,2.2L156.2,113.3z"/>
</g>
<path fill="#CEBE6D" d="M176.6,119.8l-0.1,1.8c0,0,22.5,0.1,22.7,0.2C199.5,121.9,176.6,119.8,176.6,119.8z"/>
<path fill="#CEBE6D" d="M172.3,143.2l0.6-1.8c0,0,21.1,7.9,21.3,7.9C194.4,149.2,172.3,143.2,172.3,143.2z"/>
<g>
	<g id="XMLID_73_">
		<g>
			<path fill="#9BB968" d="M59.5,179.4l-0.7-0.9l5.5-4c0,0,0.3,0.2,0.7,0.2c0.4,0,0.8-0.3,0.8-0.3l3.7,5.1c0,0,0,0-0.3,0.6
				c-0.3,0.6,0.1,1.4,0.1,1.4l-5.5,4l-0.8-1.1c1.4-1,1.7-2.9,0.7-4.2C62.8,178.7,60.9,178.4,59.5,179.4z"/>
			<path fill="#9BB968" d="M59.5,179.4c-1.4,1-1.7,2.9-0.7,4.2c1,1.4,2.9,1.7,4.2,0.7l0.8,1.1l-6,4.4c0,0-0.3-0.3-0.8-0.3
				c-0.6-0.1-1,0.4-1,0.4l-4-5.5c0.9-0.6,0.4-1.3,0.4-1.3l6.4-4.7L59.5,179.4z"/>
			<path fill="#D0DCBB" d="M58.9,183.7c-1-1.4-0.7-3.3,0.7-4.2c1.4-1,3.3-0.7,4.2,0.7c1,1.4,0.7,3.2-0.7,4.2
				C61.7,185.3,59.8,185,58.9,183.7z"/>
			<path fill="#D0DCBB" d="M71.9,180.6L56.2,192l-6.1-8.4l15.6-11.4L71.9,180.6z M52.5,183.1c0,0,0.5,0.6-0.4,1.3l4,5.5
				c0,0,0.5-0.5,1-0.4c0.6,0.1,0.8,0.3,0.8,0.3l6-4.4l5.5-4c0,0-0.4-0.8-0.1-1.4c0.3-0.6,0.3-0.6,0.3-0.6l-3.7-5.1
				c0,0-0.4,0.3-0.8,0.3c-0.4,0-0.7-0.2-0.7-0.2l-5.5,4L52.5,183.1z"/>
		</g>
		<g>
		</g>
	</g>
</g>
<g>
	<g id="XMLID_74_">
		<g>
			<path fill="#D0DCBB" d="M97,179.1c0,0,0.7,0.4,0.1,1.3l5.7,3.5c0,0,0.3-0.6,0.8-0.8c0.5-0.2,0.9,0,0.9,0l3.9-6.3l3.6-5.8
				c0,0-0.7-0.6-0.7-1.2c0-0.6,0-0.6,0-0.6l-5.3-3.3c0,0-0.3,0.5-0.7,0.6c-0.4,0.1-0.7,0.1-0.7,0.1l-3.6,5.8L97,179.1z M114,169.5
				l-10.2,16.4l-8.9-5.5l10.2-16.4L114,169.5z"/>
			<path fill="#9BB968" d="M108.4,176.9l-3.9,6.3c0,0-0.3-0.2-0.9,0c-0.5,0.2-0.8,0.8-0.8,0.8l-5.7-3.5c0.6-0.9-0.1-1.3-0.1-1.3
				l4.2-6.7l1,0.6c-0.9,1.4-0.4,3.3,1,4.2c1.4,0.9,3.3,0.4,4.2-1L108.4,176.9z"/>
			<path fill="#9BB968" d="M111.4,169.2c0,0,0,0,0,0.6c0,0.6,0.7,1.2,0.7,1.2l-3.6,5.8l-1.1-0.7c0.9-1.4,0.4-3.3-1-4.2
				c-1.4-0.9-3.3-0.4-4.2,1l-1-0.6l3.6-5.8c0,0,0.3,0.1,0.7-0.1c0.4-0.1,0.7-0.6,0.7-0.6L111.4,169.2z"/>
			<path fill="#D0DCBB" d="M103.1,177.2c-1.4-0.9-1.9-2.7-1-4.2c0.9-1.4,2.8-1.9,4.2-1c1.4,0.9,1.9,2.7,1,4.2
				C106.4,177.6,104.5,178.1,103.1,177.2z"/>
		</g>
		<g>
		</g>
	</g>
</g>
<g>
	<g id="XMLID_75_">
		<g>
			<path fill="#D0DCBB" d="M72.7,165.7l3.6-20.7l11.2,2l-3.6,20.7L72.7,165.7z M74.8,164.9l7.2,1.3c0,0,0-0.7,0.5-1.1
				c0.5-0.4,0.9-0.3,0.9-0.3l1.4-8l1.3-7.3c0,0-1-0.4-1.2-1c-0.2-0.6-0.2-0.6-0.2-0.6l-6.7-1.2c0,0-0.1,0.6-0.4,0.8
				c-0.3,0.3-0.7,0.3-0.7,0.3l-1.3,7.3l-1.5,8.5C74.2,163.6,75,163.7,74.8,164.9z"/>
			<path fill="#D0DCBB" d="M83.4,156.5c-0.3,1.8-2,3-3.8,2.7c-1.8-0.3-3-2-2.7-3.8s2-3,3.8-2.7C82.5,153,83.7,154.7,83.4,156.5z"/>
			<path fill="#9BB968" d="M77.6,147.4c0.3-0.3,0.4-0.8,0.4-0.8l6.7,1.2c0,0,0,0,0.2,0.6c0.2,0.6,1.2,1,1.2,1l-1.3,7.3l-1.4-0.3
				c0.3-1.8-0.9-3.5-2.7-3.8c-1.8-0.3-3.5,0.9-3.8,2.7l-1.2-0.2l1.3-7.3C77,147.8,77.3,147.7,77.6,147.4z"/>
			<path fill="#9BB968" d="M75.7,155.1l1.2,0.2c-0.3,1.8,0.9,3.5,2.7,3.8c1.8,0.3,3.5-0.9,3.8-2.7l1.4,0.3l-1.4,8c0,0-0.4,0-0.9,0.3
				c-0.5,0.4-0.5,1.1-0.5,1.1l-7.2-1.3c0.2-1.2-0.6-1.3-0.6-1.3L75.7,155.1z"/>
		</g>
		<g>
		</g>
	</g>
</g>
<g>
	<g id="XMLID_76_">
		<g>
			<path fill="#9BB968" d="M158.7,87.4l-4.4,3.1c-0.5-0.7-1-0.3-1-0.3l-3.6-5.2l0.8-0.5c0.8,1.1,2.3,1.4,3.4,0.6
				c1.1-0.8,1.4-2.3,0.6-3.4l0.9-0.6l3.4,4.9c0,0-0.2,0.2-0.3,0.6C158.3,87,158.7,87.4,158.7,87.4z"/>
			<path fill="#D0DCBB" d="M144.8,79.4l6.8-4.8l8.8,12.7l-6.8,4.8L144.8,79.4z M152.2,76.6c0,0-0.7,0.3-1.1,0.1
				c-0.4-0.2-0.4-0.2-0.4-0.2l-4.1,2.9c0,0,0.2,0.4,0.2,0.7c0,0.3-0.2,0.5-0.2,0.5l3.1,4.5l3.6,5.2c0,0,0.5-0.4,1,0.3l4.4-3.1
				c0,0-0.4-0.4-0.3-0.8c0.1-0.4,0.3-0.6,0.3-0.6l-3.4-4.9L152.2,76.6z"/>
			<path fill="#D0DCBB" d="M151,81.1c1.1-0.8,2.6-0.5,3.4,0.6c0.8,1.1,0.5,2.6-0.6,3.4c-1.1,0.8-2.6,0.5-3.4-0.6
				S149.9,81.9,151,81.1z"/>
			<path fill="#9BB968" d="M155.3,81.1l-0.9,0.6c-0.8-1.1-2.3-1.4-3.4-0.6c-1.1,0.8-1.4,2.3-0.6,3.4l-0.8,0.5l-3.1-4.5
				c0,0,0.1-0.2,0.2-0.5c0-0.3-0.2-0.7-0.2-0.7l4.1-2.9c0,0,0,0,0.4,0.2c0.4,0.2,1.1-0.1,1.1-0.1L155.3,81.1z"/>
		</g>
		<g>
		</g>
	</g>
</g>
<g>
	<g id="XMLID_77_">
		<g>
			<path fill="#D0DCBB" d="M45.8,74.5l-10.4-8.4l13.4-16.6l10.4,8.4L45.8,74.5z M49.9,51.9c0,0-0.4,0.5-0.8,0.5
				c-0.5,0-0.8-0.1-0.8-0.1l-4.8,5.9L38,65c0,0,0.8,0.7,0,1.6l6.7,5.4c0,0,0.4-0.6,1-0.7c0.7,0,1.1,0.2,1.1,0.2l5.2-6.4l4.8-5.9
				c0,0-0.8-0.9-0.7-1.6c0.1-0.7,0.1-0.7,0.1-0.7L49.9,51.9z"/>
			<path fill="#9BB968" d="M49.7,59c-1.7-1.3-4-1.3-5.1,0.1l-1.1-0.9l4.8-5.9c0,0,0.4,0.1,0.8,0.1c0.5,0,0.8-0.5,0.8-0.5l6.3,5.1
				c0,0,0,0-0.1,0.7c-0.1,0.7,0.7,1.6,0.7,1.6L52,65.2l-1.3-1.1C51.8,62.7,51.4,60.4,49.7,59z"/>
			<path fill="#9BB968" d="M45.5,64.2c1.7,1.4,4,1.3,5.1-0.1l1.3,1.1l-5.2,6.4c0,0-0.4-0.3-1.1-0.2c-0.7,0.1-1,0.7-1,0.7L38,66.6
				c0.7-0.9,0-1.5,0-1.6l5.5-6.8l1.1,0.9C43.4,60.6,43.9,62.9,45.5,64.2z"/>
			<path fill="#D0DCBB" d="M50.7,64.1c-1.2,1.4-3.5,1.5-5.1,0.1c-1.7-1.3-2.1-3.6-0.9-5.1c1.2-1.4,3.5-1.5,5.1-0.1
				C51.4,60.4,51.8,62.7,50.7,64.1z"/>
		</g>
		<g>
		</g>
	</g>
</g>
<g>
	<g id="XMLID_78_">
		<g>
			
				<ellipse transform="matrix(0.7767 0.6299 -0.6299 0.7767 106.1199 8.3404)" fill="#D0DCBB" cx="41.3" cy="153.8" rx="2.7" ry="2.4"/>
			<path fill="#9BB968" d="M34.5,156.2l3.9-4.8l0.8,0.7c-0.8,1-0.5,2.6,0.6,3.6c1.2,1,2.8,0.9,3.6-0.1l0.9,0.8l-3.6,4.5
				c0,0-0.3-0.2-0.8-0.2c-0.5,0-0.7,0.5-0.7,0.5l-4.7-3.8C35,156.7,34.5,156.2,34.5,156.2z"/>
			<path fill="#D0DCBB" d="M40.7,160.8l3.6-4.5l3.4-4.1c0,0-0.6-0.6-0.5-1.1c0.1-0.5,0.1-0.5,0.1-0.5l-4.4-3.6c0,0-0.3,0.3-0.6,0.4
				c-0.3,0-0.6-0.1-0.6-0.1l-3.4,4.1l-3.9,4.8c0,0,0.6,0.4,0,1.1l4.7,3.8c0,0,0.3-0.4,0.7-0.5C40.4,160.6,40.7,160.8,40.7,160.8z
				 M32.7,157l9.5-11.7l7.3,5.9L40,162.9L32.7,157z"/>
			<path fill="#9BB968" d="M38.4,151.5l3.4-4.1c0,0,0.3,0.1,0.6,0.1c0.3,0,0.6-0.4,0.6-0.4l4.4,3.6c0,0,0,0-0.1,0.5
				c-0.1,0.5,0.5,1.1,0.5,1.1l-3.4,4.1l-0.9-0.8c0.8-1,0.5-2.6-0.6-3.6c-1.2-1-2.8-0.9-3.6,0.1L38.4,151.5z"/>
		</g>
		<g>
		</g>
	</g>
</g>
<g>
	<g id="XMLID_79_">
		<g>
			<path fill="#9BB968" d="M137.7,76.1l-4.7,7.6l-1.5-0.9c1.2-1.9,0.6-4.3-1.3-5.4c-1.9-1.1-4.3-0.6-5.4,1.3l-1.3-0.8l4.7-7.6
				c0,0,0.4,0.1,0.9-0.1c0.5-0.1,0.8-0.7,0.8-0.7l6.9,4.3c0,0,0,0,0,0.8C136.8,75.3,137.7,76.1,137.7,76.1z"/>
			<path fill="#D0DCBB" d="M128.7,66.9l11.5,7.2L127,95.5l-11.5-7.2L128.7,66.9z M127.9,92l5.1-8.2l4.7-7.6c0,0-0.9-0.8-0.8-1.6
				c0-0.8,0-0.8,0-0.8l-6.9-4.3c0,0-0.4,0.6-0.8,0.7c-0.5,0.2-0.9,0.1-0.9,0.1l-4.7,7.6l-5.4,8.7c0,0,0.9,0.5,0.1,1.7l7.5,4.6
				c0,0,0.4-0.8,1.1-1C127.5,91.8,127.9,92,127.9,92z"/>
			<path fill="#9BB968" d="M133,83.7l-5.1,8.2c0,0-0.4-0.2-1.1,0c-0.7,0.2-1.1,1-1.1,1l-7.5-4.6c0.8-1.2-0.1-1.7-0.1-1.7l5.4-8.7
				l1.3,0.8c-1.1,1.9-0.6,4.3,1.3,5.4c1.9,1.2,4.3,0.6,5.4-1.3L133,83.7z"/>
			<path fill="#D0DCBB" d="M126.1,84.1c-1.9-1.1-2.4-3.6-1.3-5.4c1.2-1.9,3.6-2.4,5.4-1.3c1.9,1.2,2.4,3.6,1.3,5.4
				C130.4,84.7,127.9,85.3,126.1,84.1z"/>
		</g>
		<g>
		</g>
	</g>
</g>
<g>
	<g id="XMLID_80_">
		<g>
			<path fill="#D0DCBB" d="M120,41.9c0.7,0.9,0.4,2.2-0.5,2.9c-0.9,0.6-2.2,0.4-2.9-0.5c-0.6-0.9-0.4-2.2,0.5-2.9
				C118.1,40.8,119.3,41,120,41.9z"/>
			<path fill="#D0DCBB" d="M117.1,37.7c-0.4-0.2-0.4-0.2-0.4-0.2l-3.5,2.4c0,0,0.2,0.3,0.2,0.6c0,0.3-0.1,0.4-0.1,0.4l2.7,3.8
				l3.1,4.4c0,0,0.4-0.3,0.9,0.3l3.8-2.6c0,0-0.3-0.3-0.3-0.7c0.1-0.4,0.2-0.5,0.2-0.5l-2.9-4.2l-2.7-3.8
				C118.1,37.6,117.5,37.9,117.1,37.7z M111.8,40l5.8-4l7.5,10.8l-5.8,4L111.8,40z"/>
			<path fill="#9BB968" d="M123.4,46.1c0,0.4,0.3,0.7,0.3,0.7l-3.8,2.6c-0.4-0.6-0.9-0.3-0.9-0.3l-3.1-4.4l0.6-0.4
				c0.7,0.9,1.9,1.2,2.9,0.5c0.9-0.6,1.2-1.9,0.5-2.9l0.7-0.5l2.9,4.2C123.6,45.6,123.4,45.7,123.4,46.1z"/>
			<path fill="#9BB968" d="M113.3,39.9l3.5-2.4c0,0,0,0,0.4,0.2c0.4,0.2,0.9-0.1,0.9-0.1l2.7,3.8l-0.7,0.5c-0.6-0.9-1.9-1.2-2.9-0.5
				c-0.9,0.6-1.2,1.9-0.5,2.9l-0.6,0.4l-2.7-3.8c0,0,0.1-0.2,0.1-0.4C113.5,40.2,113.3,39.9,113.3,39.9z"/>
		</g>
		<g>
		</g>
	</g>
</g>
<g>
	<g id="XMLID_81_">
		<g>
			<path fill="#9BB968" d="M87.6,35.6l-0.5-0.5c0.6-0.6,0.6-1.6,0-2.2c-0.6-0.6-1.6-0.6-2.2,0l-0.4-0.4l2.4-2.5c0,0,0.1,0.1,0.3,0
				c0.2,0,0.4-0.2,0.4-0.2l2.2,2.2c0,0,0,0-0.1,0.3c-0.1,0.3,0.2,0.7,0.2,0.7L87.6,35.6z"/>
			<path fill="#D0DCBB" d="M81.8,35.4c0,0,0.3,0.3-0.1,0.7l2.4,2.4c0,0,0.2-0.3,0.5-0.3c0.3,0,0.4,0.1,0.4,0.1l2.6-2.7l2.4-2.5
				c0,0-0.3-0.4-0.2-0.7c0.1-0.3,0.1-0.3,0.1-0.3L87.7,30c0,0-0.2,0.2-0.4,0.2c-0.2,0-0.3,0-0.3,0l-2.4,2.5L81.8,35.4z M87.5,28.9
				l3.7,3.7l-6.8,6.9l-3.7-3.7L87.5,28.9z"/>
			<path fill="#9BB968" d="M87.2,35.1l0.5,0.5L85,38.3c0,0-0.1-0.1-0.4-0.1c-0.3,0-0.5,0.3-0.5,0.3l-2.4-2.4
				c0.4-0.4,0.1-0.7,0.1-0.7l2.8-2.8L85,33c-0.6,0.6-0.6,1.6,0,2.2C85.6,35.7,86.6,35.7,87.2,35.1z"/>
			<circle fill="#D0DCBB" cx="86.1" cy="34.1" r="1.5"/>
		</g>
		<g>
		</g>
	</g>
</g>
<g>
	<g id="XMLID_82_">
		<g>
			<path fill="#D0DCBB" d="M152.4,54.7c0.5-0.5,1.3-0.5,1.8,0c0.5,0.5,0.5,1.3,0,1.8c-0.5,0.5-1.3,0.5-1.8,0
				C151.9,56,151.9,55.2,152.4,54.7z"/>
			<path fill="#9BB968" d="M154.3,54.7c-0.5-0.5-1.3-0.5-1.8,0l-0.4-0.3l2.1-2.1c0,0,0.1,0.1,0.3,0c0.2,0,0.3-0.2,0.3-0.2l1.9,1.9
				c0,0,0,0-0.1,0.3c-0.1,0.3,0.2,0.6,0.2,0.6l-2.1,2.1l-0.4-0.4C154.8,56,154.8,55.2,154.3,54.7z"/>
			<path fill="#D0DCBB" d="M154.5,51.2l3.2,3.1l-5.8,5.9l-3.2-3.1L154.5,51.2z M154.1,52.3l-2.1,2.1l-2.4,2.4c0,0,0.2,0.2-0.1,0.6
				l2.1,2c0,0,0.2-0.2,0.4-0.2c0.2,0,0.4,0.1,0.4,0.1l2.2-2.3l2.1-2.1c0,0-0.2-0.3-0.2-0.6c0.1-0.3,0.1-0.3,0.1-0.3l-1.9-1.9
				c0,0-0.2,0.2-0.3,0.2C154.3,52.3,154.1,52.3,154.1,52.3z"/>
			<path fill="#9BB968" d="M149.7,56.8l2.4-2.4l0.4,0.3c-0.5,0.5-0.5,1.3,0,1.8c0.5,0.5,1.3,0.5,1.8,0l0.4,0.4l-2.2,2.3
				c0,0-0.1-0.1-0.4-0.1c-0.2,0-0.4,0.2-0.4,0.2l-2.1-2C149.9,57,149.7,56.8,149.7,56.8z"/>
		</g>
		<g>
		</g>
	</g>
</g>
<g>
	<g id="XMLID_83_">
		<g>
			<path fill="#D0DCBB" d="M141.6,33.9l3.2,3.1l-5.8,5.9l-3.2-3.1L141.6,33.9z M141.8,34.8c0,0-0.2,0.2-0.3,0.2c-0.2,0-0.3,0-0.3,0
				l-2.1,2.1l-2.4,2.4c0,0,0.2,0.2-0.1,0.6l2,2c0,0,0.2-0.2,0.4-0.2c0.2,0,0.4,0.1,0.4,0.1l2.2-2.3l2.1-2.1c0,0-0.2-0.3-0.2-0.6
				c0.1-0.3,0.1-0.3,0.1-0.3L141.8,34.8z"/>
			<path fill="#9BB968" d="M141.3,39.2c0.5-0.5,0.5-1.3,0-1.8c-0.5-0.5-1.3-0.5-1.8,0l-0.4-0.3l2.1-2.1c0,0,0.1,0.1,0.3,0
				c0.2,0,0.3-0.2,0.3-0.2l1.9,1.9c0,0,0,0-0.1,0.3c-0.1,0.3,0.2,0.6,0.2,0.6l-2.1,2.1L141.3,39.2z"/>
			<path fill="#D0DCBB" d="M141.3,37.4c0.5,0.5,0.5,1.3,0,1.8c-0.5,0.5-1.3,0.5-1.8,0c-0.5-0.5-0.5-1.3,0-1.8
				C140,36.9,140.8,36.9,141.3,37.4z"/>
			<path fill="#9BB968" d="M139.4,37.4c-0.5,0.5-0.5,1.3,0,1.8c0.5,0.5,1.3,0.5,1.8,0l0.4,0.4l-2.2,2.3c0,0-0.1-0.1-0.4-0.1
				c-0.2,0-0.4,0.2-0.4,0.2l-2-2c0.3-0.3,0.1-0.6,0.1-0.6l2.4-2.4L139.4,37.4z"/>
		</g>
		<g>
		</g>
	</g>
</g>
<g>
	<g id="XMLID_84_">
		<g>
			<path fill="#D0DCBB" d="M175.2,94.8l8.2-8.3l4.5,4.4l-8.2,8.3L175.2,94.8z M186.4,90.5l-2.7-2.7c0,0-0.2,0.2-0.5,0.3
				s-0.4,0-0.4,0l-2.9,2.9l-3.4,3.4c0,0,0.3,0.3-0.1,0.8l2.9,2.9c0,0,0.2-0.3,0.6-0.3c0.3,0,0.5,0.1,0.5,0.1l3.2-3.2l2.9-2.9
				c0,0-0.3-0.5-0.2-0.8C186.4,90.5,186.4,90.5,186.4,90.5z"/>
			<circle fill="#D0DCBB" cx="181.8" cy="92.7" r="1.8"/>
			<path fill="#9BB968" d="M183.7,87.8l2.7,2.7c0,0,0,0-0.1,0.4c-0.1,0.4,0.2,0.8,0.2,0.8l-2.9,2.9l-0.6-0.6c0.7-0.7,0.7-1.9,0-2.6
				c-0.7-0.7-1.9-0.7-2.6,0l-0.5-0.5l2.9-2.9c0,0,0.2,0.1,0.4,0S183.7,87.8,183.7,87.8z"/>
			<path fill="#9BB968" d="M180.5,94c0.7,0.7,1.9,0.7,2.6,0l0.6,0.6l-3.2,3.2c0,0-0.2-0.1-0.5-0.1c-0.3,0-0.6,0.3-0.6,0.3l-2.9-2.9
				c0.5-0.5,0.1-0.8,0.1-0.8l3.4-3.4l0.5,0.5C179.7,92.2,179.7,93.3,180.5,94z"/>
		</g>
		<g>
		</g>
	</g>
</g>
<g>
	<g id="XMLID_85_">
		<g>
			<circle fill="#D0DCBB" cx="141.6" cy="164.2" r="1.8"/>
			<path fill="#9BB968" d="M143.9,162.9l2.2,3.9c0,0-0.2,0.1-0.3,0.5c-0.1,0.3,0.2,0.7,0.2,0.7l-3.6,2c-0.3-0.6-0.7-0.3-0.7-0.3
				l-2.3-4.2l0.6-0.3c0.5,0.9,1.6,1.2,2.5,0.7c0.9-0.5,1.2-1.6,0.7-2.5L143.9,162.9z"/>
			<path fill="#9BB968" d="M141.8,159.3l2,3.6l-0.7,0.4c-0.5-0.9-1.6-1.2-2.5-0.7c-0.9,0.5-1.2,1.6-0.7,2.5l-0.6,0.3l-2-3.6
				c0,0,0.1-0.2,0.2-0.4c0-0.2-0.1-0.5-0.1-0.5l3.3-1.8c0,0,0,0,0.3,0.2C141.3,159.5,141.8,159.3,141.8,159.3z"/>
			<path fill="#D0DCBB" d="M142.4,169.9l3.6-2c0,0-0.2-0.3-0.2-0.7c0.1-0.3,0.3-0.5,0.3-0.5l-2.2-3.9l-2-3.6c0,0-0.5,0.2-0.8,0
				c-0.3-0.2-0.3-0.2-0.3-0.2l-3.3,1.8c0,0,0.2,0.3,0.1,0.5c0,0.2-0.2,0.4-0.2,0.4l2,3.6l2.3,4.2
				C141.7,169.6,142.1,169.4,142.4,169.9z M147.3,168l-5.5,3.1l-5.7-10.2l5.5-3.1L147.3,168z"/>
		</g>
		<g>
		</g>
	</g>
</g>
<g>
	<g id="XMLID_86_">
		<g>
			<path fill="#D0DCBB" d="M18.9,132.2c-0.9,0.5-2,0.2-2.5-0.7c-0.5-0.9-0.2-2,0.7-2.5c0.9-0.5,2-0.2,2.5,0.7
				C20.1,130.6,19.7,131.7,18.9,132.2z"/>
			<path fill="#9BB968" d="M19.6,129.7c-0.5-0.9-1.6-1.2-2.5-0.7c-0.9,0.5-1.2,1.6-0.7,2.5l-0.6,0.3l-2-3.6c0,0,0.1-0.2,0.2-0.4
				c0-0.2-0.1-0.5-0.1-0.5l3.3-1.8c0,0,0,0,0.3,0.2c0.3,0.2,0.8,0,0.8,0l2,3.6L19.6,129.7z"/>
			<path fill="#D0DCBB" d="M17.1,125.5l-3.3,1.8c0,0,0.2,0.3,0.1,0.5c0,0.2-0.2,0.4-0.2,0.4l2,3.6l2.3,4.2c0,0,0.4-0.2,0.7,0.3
				l3.6-2c0,0-0.2-0.3-0.2-0.7c0.1-0.3,0.3-0.5,0.3-0.5l-2.2-3.9l-2-3.6c0,0-0.5,0.2-0.8,0C17.1,125.5,17.1,125.5,17.1,125.5z
				 M12.5,127.2l5.5-3.1l5.7,10.2l-5.5,3.1L12.5,127.2z"/>
			<path fill="#9BB968" d="M15.8,131.8l0.6-0.3c0.5,0.9,1.6,1.2,2.5,0.7c0.9-0.5,1.2-1.6,0.7-2.5l0.7-0.4l2.2,3.9
				c0,0-0.2,0.1-0.3,0.5c-0.1,0.3,0.2,0.7,0.2,0.7l-3.6,2c-0.3-0.6-0.7-0.3-0.7-0.3L15.8,131.8z"/>
		</g>
		<g>
		</g>
	</g>
</g>
<g opacity="0.2">
	<g id="XMLID_87_">
		<g>
			<path fill="#0D0F0F" d="M62.3,141.2c0,0-0.5,0.2-0.8,0c-0.3-0.2-0.3-0.2-0.3-0.2l-3.3,1.8c0,0,0.2,0.3,0.1,0.5
				c0,0.2-0.2,0.4-0.2,0.4l2,3.6l2.3,4.2c0,0,0.4-0.2,0.7,0.3l3.6-2c0,0-0.2-0.3-0.2-0.7c0.1-0.3,0.3-0.5,0.3-0.5l-2.2-3.9
				L62.3,141.2z M67.7,149.9l-5.5,3.1l-5.7-10.2l5.5-3.1L67.7,149.9z"/>
			<path fill="#0D0F0F" d="M63.6,145.2c0.5,0.9,0.2,2-0.7,2.5c-0.9,0.5-2,0.2-2.5-0.7c-0.5-0.9-0.2-2,0.7-2.5
				C62,144,63.1,144.3,63.6,145.2z"/>
			<path fill="#0D0F0F" d="M60.4,147l-0.6,0.3l-2-3.6c0,0,0.1-0.1,0.2-0.4c0-0.2-0.1-0.5-0.1-0.5l3.3-1.8c0,0,0,0,0.3,0.2
				c0.3,0.2,0.8,0,0.8,0l2,3.6l-0.7,0.4c-0.5-0.9-1.6-1.2-2.5-0.7C60.2,145,59.9,146.1,60.4,147z"/>
			<path fill="#0D0F0F" d="M59.8,147.3l0.6-0.3c0.5,0.9,1.6,1.2,2.5,0.7c0.9-0.5,1.2-1.6,0.7-2.5l0.7-0.4l2.2,3.9
				c0,0-0.2,0.1-0.3,0.5c-0.1,0.3,0.2,0.7,0.2,0.7l-3.6,2c-0.3-0.6-0.7-0.3-0.7-0.3L59.8,147.3z"/>
		</g>
		<g>
		</g>
	</g>
</g>
<g opacity="0.2">
	<g id="XMLID_88_">
		<g>
			<path fill="#0D0F0F" d="M96.3,152l4-4.3l2.3,2.2l-4,4.3L96.3,152z M101.9,149.6l-1.4-1.3c0,0-0.1,0.1-0.2,0.1c-0.1,0-0.2,0-0.2,0
				l-1.4,1.5l-1.6,1.8c0,0,0.2,0.2,0,0.4l1.5,1.4c0,0,0.1-0.2,0.3-0.2c0.2,0,0.3,0.1,0.3,0.1l1.6-1.7l1.4-1.5c0,0-0.2-0.2-0.1-0.4
				C101.9,149.6,101.9,149.6,101.9,149.6z"/>
			<circle fill="#0D0F0F" cx="99.5" cy="150.8" r="0.9"/>
			<path fill="#0D0F0F" d="M100.5,151.7l-1.6,1.7c0,0-0.1-0.1-0.3-0.1c-0.2,0-0.3,0.2-0.3,0.2l-1.5-1.4c0.2-0.2,0-0.4,0-0.4l1.6-1.8
				l0.3,0.2c-0.3,0.4-0.3,1,0,1.3c0.4,0.4,1,0.3,1.3,0L100.5,151.7z"/>
			<path fill="#0D0F0F" d="M100.5,151.7l-0.3-0.3c0.4-0.4,0.3-1,0-1.3c-0.4-0.3-1-0.3-1.3,0l-0.3-0.2l1.4-1.5c0,0,0.1,0,0.2,0
				c0.1,0,0.2-0.1,0.2-0.1l1.4,1.3c0,0,0,0,0,0.2c0,0.2,0.1,0.4,0.1,0.4L100.5,151.7z"/>
		</g>
		<g>
		</g>
	</g>
</g>
<g opacity="0.2">
	<g id="XMLID_89_">
		<g>
			<path fill="#0D0F0F" d="M86.1,197.9l-3.7-3.5l6.5-6.9l3.7,3.5L86.1,197.9z M83.5,193.9c0,0,0.3,0.3-0.1,0.7l2.4,2.3
				c0,0,0.2-0.3,0.5-0.3c0.3,0,0.4,0.1,0.4,0.1l2.5-2.7l2.3-2.5c0,0-0.3-0.4-0.2-0.7c0.1-0.3,0.1-0.3,0.1-0.3l-2.3-2.1
				c0,0-0.2,0.2-0.4,0.2c-0.2,0-0.3,0-0.3,0l-2.3,2.5L83.5,193.9z"/>
			<path fill="#0D0F0F" d="M91.3,190.8c-0.1,0.3,0.2,0.7,0.2,0.7l-2.3,2.5l-0.5-0.5c0.6-0.6,0.5-1.5-0.1-2.1
				c-0.6-0.6-1.5-0.5-2.1,0.1l-0.4-0.4l2.3-2.5c0,0,0.1,0.1,0.3,0c0.2,0,0.4-0.2,0.4-0.2l2.3,2.1C91.4,190.5,91.4,190.5,91.3,190.8z
				"/>
			<circle fill="#0D0F0F" cx="87.7" cy="192.5" r="1.5"/>
			<path fill="#0D0F0F" d="M88.7,193.5l0.5,0.5l-2.5,2.7c0,0-0.1-0.1-0.4-0.1c-0.3,0-0.5,0.3-0.5,0.3l-2.4-2.3
				c0.4-0.4,0.1-0.7,0.1-0.7l2.7-2.8l0.4,0.4c-0.6,0.6-0.5,1.5,0.1,2.1C87.2,194.1,88.2,194.1,88.7,193.5z"/>
		</g>
		<g>
		</g>
	</g>
</g>
<g opacity="0.2">
	<g id="XMLID_90_">
		<g>
			<path fill="#0D0F0F" d="M127.7,176.3l-0.7,0.4l-2.2-4.1c0,0,0.1-0.2,0.2-0.4c0.1-0.3-0.1-0.6-0.1-0.6l3.7-2c0,0,0,0,0.4,0.2
				c0.3,0.2,0.9,0,0.9,0l2.2,4.1l-0.8,0.4c-0.5-1-1.8-1.4-2.8-0.8C127.5,174.1,127.1,175.3,127.7,176.3z"/>
			<circle fill="#0D0F0F" cx="129.5" cy="175.3" r="2.1"/>
			<path fill="#0D0F0F" d="M124.8,171.6c0,0,0.2,0.3,0.1,0.6c-0.1,0.3-0.2,0.4-0.2,0.4l2.2,4.1l2.6,4.7c0,0,0.5-0.3,0.8,0.4l4-2.2
				c0,0-0.3-0.4-0.2-0.7c0.1-0.4,0.3-0.5,0.3-0.5l-2.4-4.4l-2.2-4.1c0,0-0.6,0.2-0.9,0c-0.4-0.2-0.4-0.2-0.4-0.2L124.8,171.6z
				 M123.4,171.5l6.2-3.4l6.3,11.5l-6.2,3.4L123.4,171.5z"/>
			<path fill="#0D0F0F" d="M134.5,178.4c0,0-0.2,0.1-0.3,0.5c-0.1,0.4,0.2,0.7,0.2,0.7l-4,2.2c-0.4-0.7-0.8-0.4-0.8-0.4l-2.6-4.7
				l0.7-0.4c0.5,1,1.8,1.4,2.8,0.8c1-0.5,1.4-1.8,0.8-2.8l0.8-0.4L134.5,178.4z"/>
		</g>
		<g>
		</g>
	</g>
</g>
<g opacity="0.2">
	<g id="XMLID_91_">
		<g>
			<path fill="#0D0F0F" d="M67.7,48.6l0.5-0.3l1.6,2.9c0,0-0.1,0.1-0.2,0.3c-0.1,0.2,0.1,0.5,0.1,0.5l-2.6,1.4
				c-0.2-0.4-0.5-0.3-0.5-0.3l-1.7-3.1l0.4-0.2c0.4,0.7,1.2,0.9,1.8,0.5C67.9,50.1,68.1,49.3,67.7,48.6z"/>
			<path fill="#0D0F0F" d="M68.3,48.3l-0.5,0.3c-0.4-0.7-1.2-0.9-1.8-0.5c-0.7,0.4-0.9,1.2-0.5,1.8l-0.4,0.2l-1.5-2.7
				c0,0,0.1-0.1,0.1-0.3c0-0.2-0.1-0.4-0.1-0.4l2.4-1.3c0,0,0,0,0.2,0.1c0.2,0.2,0.6,0,0.6,0L68.3,48.3z"/>
			<path fill="#0D0F0F" d="M66.8,45.7c0,0-0.4,0.1-0.6,0C66,45.5,66,45.5,66,45.5l-2.4,1.3c0,0,0.1,0.2,0.1,0.4
				c0,0.2-0.1,0.3-0.1,0.3l1.5,2.7l1.7,3.1c0,0,0.3-0.2,0.5,0.3l2.6-1.4c0,0-0.2-0.2-0.1-0.5c0.1-0.2,0.2-0.3,0.2-0.3l-1.6-2.9
				L66.8,45.7z M62.6,46.8l4.1-2.2l4.1,7.5l-4.1,2.2L62.6,46.8z"/>
			<circle fill="#0D0F0F" cx="66.6" cy="49.3" r="1.3"/>
		</g>
		<g>
		</g>
	</g>
</g>
<g opacity="0.2">
	<g id="XMLID_92_">
		<g>
			<circle fill="#0D0F0F" cx="104.9" cy="28.4" r="1.3"/>
			<path fill="#0D0F0F" d="M105,23.7l4.1,7.5l-4.1,2.2l-4.1-7.5L105,23.7z M104.3,24.6l-2.4,1.3c0,0,0.1,0.2,0.1,0.4
				s-0.1,0.3-0.1,0.3l1.5,2.7l1.7,3.1c0,0,0.3-0.2,0.5,0.3l2.6-1.4c0,0-0.2-0.2-0.1-0.5c0.1-0.2,0.2-0.3,0.2-0.3l-1.6-2.9l-1.5-2.7
				c0,0-0.4,0.1-0.6,0C104.3,24.6,104.3,24.6,104.3,24.6z"/>
			<path fill="#0D0F0F" d="M101.9,26.3c0-0.2-0.1-0.4-0.1-0.4l2.4-1.3c0,0,0,0,0.2,0.1c0.2,0.1,0.6,0,0.6,0l1.5,2.7l-0.5,0.3
				c-0.4-0.7-1.2-0.9-1.8-0.5c-0.7,0.4-0.9,1.2-0.5,1.8l-0.5,0.2l-1.5-2.7C101.8,26.6,101.9,26.5,101.9,26.3z"/>
			<path fill="#0D0F0F" d="M106.1,27.7l0.5-0.3l1.6,2.9c0,0-0.1,0.1-0.2,0.3c-0.1,0.2,0.1,0.5,0.1,0.5l-2.6,1.4
				c-0.2-0.4-0.5-0.3-0.5-0.3l-1.7-3.1l0.5-0.2c0.4,0.7,1.2,0.9,1.8,0.5C106.2,29.2,106.4,28.4,106.1,27.7z"/>
		</g>
		<g>
		</g>
	</g>
</g>
<g opacity="0.2">
	<g id="XMLID_93_">
		<g>
			<circle fill="#0D0F0F" cx="166.6" cy="70.2" r="1.2"/>
			<path fill="#0D0F0F" d="M167.9,71.3l-0.4-0.3c0.4-0.5,0.4-1.2-0.1-1.7c-0.5-0.4-1.2-0.4-1.7,0.1l-0.3-0.3l1.7-2c0,0,0.1,0,0.3,0
				c0.1,0,0.3-0.2,0.3-0.2l1.9,1.6c0,0,0,0-0.1,0.2c-0.1,0.2,0.2,0.5,0.2,0.5L167.9,71.3z"/>
			<path fill="#0D0F0F" d="M167.4,66.2l3.1,2.6l-4.9,5.7l-3.1-2.6L167.4,66.2z M166,73.6l1.9-2.2l1.7-2c0,0-0.2-0.3-0.2-0.5
				c0.1-0.2,0.1-0.2,0.1-0.2l-1.9-1.6c0,0-0.1,0.2-0.3,0.2c-0.2,0-0.3,0-0.3,0l-1.7,2l-2,2.3c0,0,0.2,0.2,0,0.5l2,1.7
				c0,0,0.1-0.2,0.4-0.2C165.9,73.5,166,73.6,166,73.6z"/>
			<path fill="#0D0F0F" d="M167.9,71.3l-1.9,2.2c0,0-0.1-0.1-0.3-0.1c-0.2,0-0.4,0.2-0.4,0.2l-2-1.7c0.3-0.3,0.1-0.5,0-0.5l2-2.3
				l0.3,0.3c-0.4,0.5-0.4,1.2,0.1,1.7c0.5,0.4,1.2,0.4,1.7-0.1L167.9,71.3z"/>
		</g>
		<g>
		</g>
	</g>
</g>
<g opacity="0.2">
	<g id="XMLID_94_">
		<g>
			<circle fill="#0D0F0F" cx="132.2" cy="57.6" r="1.2"/>
			<path fill="#0D0F0F" d="M135.1,55.9l-1.9-1.6c0,0-0.1,0.2-0.3,0.2c-0.1,0-0.3,0-0.3,0l-1.7,2l-2,2.3c0,0,0.2,0.2,0,0.5l2,1.7
				c0,0,0.1-0.2,0.4-0.2c0.2,0,0.3,0.1,0.3,0.1l1.9-2.2l1.7-2c0,0-0.2-0.3-0.2-0.5C135.1,55.9,135.1,55.9,135.1,55.9z M131.2,61.9
				l-3.1-2.6l4.9-5.7l3.1,2.6L131.2,61.9z"/>
			<path fill="#0D0F0F" d="M133.1,58.3c0.4-0.5,0.4-1.2-0.1-1.7c-0.5-0.4-1.2-0.4-1.7,0.1l-0.3-0.3l1.7-2c0,0,0.1,0,0.3,0
				c0.1,0,0.3-0.2,0.3-0.2l1.9,1.6c0,0,0,0-0.1,0.2c-0.1,0.2,0.2,0.5,0.2,0.5l-1.7,2L133.1,58.3z"/>
			<path fill="#0D0F0F" d="M131,56.5l0.3,0.3c-0.4,0.5-0.4,1.2,0.1,1.7c0.5,0.4,1.2,0.4,1.7-0.1l0.4,0.3l-1.9,2.2
				c0,0-0.1-0.1-0.3-0.1c-0.2,0-0.4,0.2-0.4,0.2l-2-1.7c0.3-0.3,0-0.5,0-0.5L131,56.5z"/>
		</g>
		<g>
		</g>
	</g>
</g>
<g opacity="0.2">
	<g id="XMLID_95_">
		<g>
			<path fill="#0D0F0F" d="M112.3,68.1l1.9,1.6l-3,3.5l-1.9-1.6L112.3,68.1z M109.8,71.4c0,0,0.1,0.1,0,0.3l1.2,1
				c0,0,0.1-0.1,0.2-0.2c0.1,0,0.2,0,0.2,0l1.2-1.3l1.1-1.2c0,0-0.1-0.2-0.1-0.3c0-0.1,0-0.1,0-0.1l-1.1-1c0,0-0.1,0.1-0.2,0.1
				c-0.1,0-0.2,0-0.2,0L111,70L109.8,71.4z"/>
			<circle fill="#0D0F0F" cx="111.8" cy="70.6" r="0.7"/>
			<path fill="#0D0F0F" d="M109.8,71.7c0.2-0.2,0-0.3,0-0.3L111,70l0.2,0.2c-0.3,0.3-0.2,0.8,0.1,1c0.3,0.3,0.8,0.2,1-0.1l0.2,0.2
				l-1.2,1.3c0,0-0.1-0.1-0.2,0c-0.1,0-0.2,0.2-0.2,0.2L109.8,71.7z"/>
			<path fill="#0D0F0F" d="M112.3,71.1c0.3-0.3,0.2-0.8-0.1-1c-0.3-0.3-0.8-0.2-1,0.1L111,70l1.1-1.2c0,0,0.1,0,0.2,0
				c0.1,0,0.2-0.1,0.2-0.1l1.1,1c0,0,0,0,0,0.1c0,0.1,0.1,0.3,0.1,0.3l-1.1,1.2L112.3,71.1z"/>
		</g>
		<g>
		</g>
	</g>
</g>
<g>
	<g id="XMLID_15_">
		<g>
			<path fill="#7A6150" d="M81.7,61c-0.2,1.9-1.9,2.1-1.9,2.1c-0.1-2,0.3-3.8,1.2-5.2l0,0C81,57.8,81.8,59,81.7,61z"/>
			<path fill="#F3E5B2" d="M84.2,60c-0.4,0.1-0.5,0.6-0.3,1.1c0.2,0.5,0.6,0.9,0.9,0.8c0.4-0.1,0.5-0.6,0.4-1.2
				C84.9,60.3,84.5,59.9,84.2,60z M81.7,61c0.2-1.9-0.7-3.1-0.7-3.1s3.1,0.3,5.6-0.6c0,0.2,0.5,2.9,1.8,4.5c1.3,1.7,2,2,2,2
				s-0.7,0.5-1.4,1.2c-0.3,0.3-0.3,1.4-0.3,2.7h-0.1c0,0-0.3,0.5-2.1,0.1c-1.3-0.3-2.4-1.8-2.4-1.8s-0.4,2.6,1.6,3.6
				c2.2,1,3,0.4,3,0.4l0.2,0c0.1,1,0.1,1.8,0.1,1.8c-0.2,0.1-0.4,0.1-0.6,0.2c-1,0.2-2,0.1-3-0.2c-2.1-0.8-3.9-2.8-4.9-5.4h0
				c0.6-0.3,0.6-1.3,0-2.2c-0.2-0.3-0.4-0.5-0.6-0.7c0,0,0,0,0,0C79.7,63.1,81.5,62.9,81.7,61z"/>
			<path fill="#F3E5B2" d="M80.3,66c-0.1-0.4-0.3-0.8-0.3-1.2c-0.1-0.6-0.2-1.1-0.2-1.7c0.2,0.2,0.4,0.4,0.6,0.7
				C80.9,64.7,80.9,65.7,80.3,66L80.3,66z"/>
			<path fill="#FFFFFF" d="M80.7,76.5c1.7-0.8,4.9-1.3,4.9-1.3l0.1,1.1c0,0,1.1,0.5,2.1,0.1c1.5-0.5,1.2-0.8,1.2-0.8L89,74.9
				c0,0,3.4-0.1,5.2-1.7c1.8-1.6,2.5-2.3,2.5-2.3l0.6,0.4l2.1,1.6l0.8,0.6c0,0-0.2,1.4-2.4,3c-2.3,1.5-2.4,1.4-2.4,1.4l1.2,21
				l-14.2-3.2V81.5l-4.6,2.3l-0.2-0.5l-1-2.8l-0.4-1.1C76.1,79.4,79,77.2,80.7,76.5z"/>
			<path fill="#7A6150" d="M86,52.4c1.3-0.1,3-1.6,2.8-1c-0.1,0.6-1.4,1.1-1.4,1.1s0.4,0.2,1.4,0c1-0.2,1.2-1.7,1.2-1.7
				s0.2,1.5-0.3,3.1c-0.2,0.7-0.5,1.5-1.1,2c-1.3-0.8-2.8-1.2-4.2-0.8c-1.5,0.3-2.8,1.3-3.6,2.7c-0.9,1.4-1.3,3.3-1.2,5.2
				c0,0,0,0,0,0c-0.3-0.2-0.6-0.4-0.9-0.4l0-0.1c0,0-1.6-3.9-1-5.7c0.6-1.8,2.3-1.9,2.3-1.9s0.1-1,1.6-2C83.1,52,84.7,52.4,86,52.4z
				"/>
			<path fill="#E3D4A1" d="M98.9,53c-1.2-0.2-2.6,0.7-3.1,0c-0.5-0.7,0.1-1.7,2.3-1.6c2.2,0.1,3,0.9,3,0.9h0c0,0.3,0,0.7,0,1.1
				c0,0.2,0.1,0.3,0.1,0.5C101.2,53.8,100.1,53.2,98.9,53z"/>
			<path fill="#E3D4A1" d="M92.8,62c0.1,0.6,0.2,1.1,0.2,1.7c-0.2,0.2-0.5,0.3-0.7,0.2c-0.6-0.1-1-1-0.8-2.1
				c0.1-0.7,0.4-1.2,0.8-1.5C92.5,60.8,92.6,61.4,92.8,62z"/>
			<path fill="#E3D4A1" d="M85.1,71.4L85.1,71.4c1,0.4,2,0.5,3,0.2c0.2,0,0.4-0.1,0.6-0.2l0.3,3.4l0.1,0.7c0,0,0.2,0.3-1.2,0.8
				c-1,0.3-2.1-0.1-2.1-0.1l-0.1-1.1L85.1,71.4z"/>
			<path fill="#FFFFFF" d="M86.4,67.6c1.8,0.3,2.1-0.1,2.1-0.1h0.1c0,0.8,0,1.6,0.1,2.3l-0.2,0c0,0-0.8,0.6-3-0.4
				c-2-0.9-1.6-3.6-1.6-3.6S85,67.3,86.4,67.6z"/>
			<path fill="#E3D4A1" d="M64,92.3c0,0,2.5-4.2,6.3-7.5c3.9-3.3,6.2-4.3,6.2-4.3l1,2.8c0,0-1.3,0.3-4.8,3c-3.5,2.7-6.2,6.6-6.2,6.6
				L64,92.3z"/>
			<path fill="#343755" d="M83.8,61.2c-0.1-0.5,0-1,0.3-1.1c0.4-0.1,0.8,0.2,0.9,0.8c0.2,0.5,0,1.1-0.4,1.2
				C84.4,62.1,84,61.7,83.8,61.2z"/>
			<path fill="#E3D4A1" d="M99.4,72.8l-2.1-1.6c0,0,5.1-5.6,5.9-9.2c0.6-2.5,0.2-4.9-0.1-6.2c0.2,0.1,0.5,0.2,0.8,0.2
				c0.8,0.2,1.6,0,2.3-0.3c0.2,1.5,0.3,4.3-0.6,7.7C104.1,68.2,99.4,72.8,99.4,72.8z"/>
			<path fill="#F3E5B2" d="M79.9,64.8c0.1,0.4,0.2,0.8,0.3,1.2c-0.5,0.3-1.4-0.1-2-1c-0.5-0.9-0.5-1.9,0-2.2
				c0.1-0.1,0.3-0.1,0.5-0.1c0.3,0,0.6,0.2,0.9,0.4C79.7,63.6,79.8,64.2,79.9,64.8z"/>
			<path fill="#523C31" d="M91.6,56.9c0.5,1.4,0.5,3.1,0.5,3.1h0c-0.8-1.8-2-3.2-3.4-4.1c0.5-0.6,0.9-1.3,1.1-2
				C89.8,53.9,91.1,55.5,91.6,56.9z"/>
			<path fill="#E3D4A1" d="M88.8,55.9c1.4,0.9,2.6,2.3,3.4,4.1c0.1,0.1,0.1,0.2,0.1,0.3c-0.4,0.3-0.7,0.8-0.8,1.5
				c-0.2,1,0.2,2,0.8,2.1c0.2,0,0.5,0,0.7-0.2c0.2,3.7-1.5,6.9-4.2,7.9c0,0-0.1-0.7-0.1-1.8c-0.1-0.7-0.1-1.5-0.1-2.3
				c0-1.2,0.1-2.4,0.3-2.7c0.7-0.7,1.4-1.2,1.4-1.2s-0.7-0.3-2-2c-1.3-1.6-1.8-4.3-1.8-4.5c0.5-0.2,1-0.4,1.4-0.7
				C88.3,56.4,88.5,56.2,88.8,55.9z M89.6,60.4c0.4-0.1,0.5-0.6,0.4-1.1c-0.2-0.5-0.6-0.9-0.9-0.8c-0.3,0.1-0.5,0.6-0.3,1.2
				C88.8,60.2,89.2,60.5,89.6,60.4z"/>
			<path fill="#E3D4A1" d="M93,63.6c0-0.6-0.1-1.1-0.2-1.7c-0.1-0.6-0.3-1.1-0.5-1.6c0.2-0.2,0.4-0.2,0.7-0.2c0.6,0.1,1,1,0.8,2
				C93.6,62.8,93.4,63.4,93,63.6z"/>
			<path fill="#E3D4A1" d="M101.2,53.4c-0.1-0.4-0.1-0.8,0-1.1c0.1-0.6,0.3-1.1,0.6-1.5c0,0,0.3,1.3,2.8,2c2.5,0.6,3.4-0.5,3.4-0.5
				c0.2,1.5-0.5,2.8-1.7,3.5c-0.7,0.4-1.5,0.5-2.3,0.3c-0.3-0.1-0.5-0.1-0.8-0.2c-0.8-0.4-1.5-1.1-1.8-1.9v0
				C101.2,53.7,101.2,53.5,101.2,53.4z"/>
			<path fill="#7A6150" d="M80.9,57.8c0.8-1.4,2.1-2.4,3.6-2.7c1.5-0.3,2.9,0,4.2,0.8c-0.2,0.2-0.5,0.5-0.8,0.7
				c-0.4,0.3-0.9,0.5-1.4,0.7C84,58.1,81,57.8,80.9,57.8L80.9,57.8z"/>
			<path fill="#343755" d="M89.9,59.2c0.2,0.5,0,1-0.4,1.1c-0.4,0.1-0.8-0.2-0.9-0.8c-0.2-0.5,0-1,0.3-1.2
				C89.4,58.3,89.8,58.7,89.9,59.2z"/>
			<path fill="#F3E5B2" d="M101.7,50.7c0.7-1,2-1.6,3.5-1.4c1.3,0.2,2.4,1.3,2.7,2.7c0,0.1,0,0.1,0,0.2c0,0-0.9,1.1-3.4,0.5
				C102,52.1,101.7,50.7,101.7,50.7z"/>
		</g>
		<g>
		</g>
	</g>
	<g>
		<circle fill="#7C4444" cx="92.5" cy="84.8" r="0.2"/>
		<path fill="#4E8192" d="M84.7,85.8C84.7,85.8,84.8,85.7,84.7,85.8c0.1-0.1,0.1-0.1,0.1-0.1c0,0,0.1,0.1,0.1,0.1
			S84.8,85.9,84.7,85.8z"/>
		<path fill="#7C4444" d="M85.5,85.6c-0.1-0.1,0-0.2,0-0.2S85.6,85.5,85.5,85.6C85.6,85.5,85.6,85.5,85.5,85.6
			C85.6,85.6,85.5,85.6,85.5,85.6z"/>
		<path fill="#4E8192" d="M85.5,85.5C85.4,85.5,85.4,85.5,85.5,85.5C85.4,85.5,85.4,85.5,85.5,85.5c0,0.1,0,0.1,0,0.1
			C85.4,85.6,85.4,85.5,85.5,85.5z"/>
		<path fill="#7C4444" d="M85.4,84.3c0.1,0.1,0,0.2,0,0.2L85.4,84.3L85.4,84.3z"/>
		<path fill="#4E8192" d="M85.4,84.2c0.1,0.1,0,0.2,0,0.2L85.4,84.2L85.4,84.2z"/>
		<path fill="#4E8192" d="M86.3,84.6c0.1,0.1,0,0.2,0,0.2S86.2,84.7,86.3,84.6C86.2,84.7,86.2,84.7,86.3,84.6
			C86.2,84.6,86.3,84.6,86.3,84.6z"/>
		<path fill="#7C4444" d="M84.1,84.7c-0.1,0.1,0,0.2,0,0.2L84.1,84.7L84.1,84.7z"/>
		<path fill="#7C4444" d="M85,83.9c-0.1-0.1-0.2,0-0.2,0L85,83.9L85,83.9z"/>
		<path fill="#4E8192" d="M85.4,85L85.4,85C85.4,85,85.3,85,85.4,85L85.4,85C85.3,85,85.3,84.9,85.4,85L85.4,85
			C85.3,84.9,85.4,84.9,85.4,85L85.4,85C85.4,84.9,85.4,85,85.4,85z"/>
		<path fill="#4E8192" d="M85.5,85.1L85.5,85.1C85.5,85.1,85.4,85.1,85.5,85.1L85.5,85.1C85.4,85.1,85.4,85,85.5,85.1L85.5,85.1
			C85.4,85,85.5,85,85.5,85.1L85.5,85.1C85.5,85,85.5,85.1,85.5,85.1z"/>
		<path fill="#4E8192" d="M85.6,85L85.6,85C85.6,85,85.6,85,85.6,85L85.6,85C85.5,85,85.5,84.9,85.6,85L85.6,85
			C85.6,84.9,85.6,84.9,85.6,85L85.6,85C85.6,84.9,85.6,85,85.6,85z"/>
		<path fill="#4E8192" d="M85.5,84.9L85.5,84.9C85.5,84.9,85.4,84.9,85.5,84.9L85.5,84.9C85.4,84.8,85.4,84.8,85.5,84.9L85.5,84.9
			C85.4,84.8,85.5,84.7,85.5,84.9L85.5,84.9C85.5,84.8,85.5,84.8,85.5,84.9z"/>
		<path fill="#4E8192" d="M85.6,84.7L85.6,84.7C85.6,84.8,85.5,84.8,85.6,84.7L85.6,84.7C85.5,84.7,85.5,84.7,85.6,84.7L85.6,84.7
			C85.5,84.6,85.6,84.6,85.6,84.7L85.6,84.7C85.6,84.7,85.6,84.7,85.6,84.7z"/>
		<path fill="#4E8192" d="M85.7,84.6L85.7,84.6C85.7,84.6,85.7,84.6,85.7,84.6L85.7,84.6C85.6,84.6,85.6,84.5,85.7,84.6L85.7,84.6
			C85.7,84.5,85.7,84.5,85.7,84.6L85.7,84.6C85.7,84.5,85.8,84.6,85.7,84.6z"/>
		<path fill="#4E8192" d="M85.6,84.5L85.6,84.5C85.6,84.5,85.5,84.5,85.6,84.5L85.6,84.5C85.5,84.5,85.5,84.4,85.6,84.5L85.6,84.5
			C85.5,84.4,85.6,84.4,85.6,84.5L85.6,84.5C85.6,84.4,85.6,84.5,85.6,84.5z"/>
		<path fill="#4E8192" d="M85.5,84.6L85.5,84.6C85.5,84.6,85.4,84.6,85.5,84.6L85.5,84.6C85.4,84.6,85.4,84.6,85.5,84.6L85.5,84.6
			C85.4,84.5,85.5,84.5,85.5,84.6L85.5,84.6C85.5,84.5,85.5,84.6,85.5,84.6z"/>
		<path fill="#4E8192" d="M85.4,84.7L85.4,84.7C85.3,84.8,85.3,84.8,85.4,84.7L85.4,84.7C85.2,84.7,85.2,84.7,85.4,84.7L85.4,84.7
			C85.3,84.6,85.3,84.6,85.4,84.7L85.4,84.7C85.4,84.7,85.4,84.7,85.4,84.7z"/>
		<path fill="#4E8192" d="M85.3,84.9L85.3,84.9C85.2,84.9,85.2,84.9,85.3,84.9L85.3,84.9C85.1,84.9,85.1,84.8,85.3,84.9L85.3,84.9
			C85.2,84.8,85.2,84.8,85.3,84.9L85.3,84.9C85.3,84.8,85.3,84.8,85.3,84.9z"/>
		<path fill="#4E8192" d="M85.1,85L85.1,85C85.1,85,85.1,85,85.1,85L85.1,85C85,85,85,84.9,85.1,85L85.1,85
			C85.1,84.9,85.1,84.9,85.1,85L85.1,85C85.2,84.9,85.2,85,85.1,85z"/>
		<path fill="#4E8192" d="M85,85.1L85,85.1C85,85.2,85,85.2,85,85.1L85,85.1C84.9,85.1,84.9,85.1,85,85.1L85,85.1
			C85,85,85,85,85,85.1L85,85.1C85,85.1,85.1,85.1,85,85.1z"/>
		<path fill="#7C4444" d="M85.2,85.2L85.2,85.2C85.1,85.3,85.1,85.3,85.2,85.2L85.2,85.2C85,85.2,85,85.2,85.2,85.2L85.2,85.2
			C85.1,85.1,85.1,85.1,85.2,85.2L85.2,85.2C85.2,85.2,85.2,85.2,85.2,85.2z"/>
		<path fill="#4E8192" d="M85.3,85.1L85.3,85.1C85.2,85.1,85.2,85.1,85.3,85.1L85.3,85.1C85.2,85.1,85.2,85.1,85.3,85.1L85.3,85.1
			C85.2,85,85.2,85,85.3,85.1L85.3,85.1C85.3,85,85.3,85.1,85.3,85.1z"/>
		<path fill="#4E8192" d="M85.4,85.2L85.4,85.2C85.4,85.3,85.3,85.3,85.4,85.2L85.4,85.2C85.3,85.2,85.3,85.2,85.4,85.2L85.4,85.2
			C85.3,85.1,85.4,85.1,85.4,85.2L85.4,85.2C85.4,85.2,85.4,85.2,85.4,85.2z"/>
		<path fill="#4E8192" d="M85.3,85.4L85.3,85.4C85.3,85.4,85.2,85.4,85.3,85.4L85.3,85.4C85.2,85.3,85.2,85.3,85.3,85.4L85.3,85.4
			C85.2,85.2,85.3,85.2,85.3,85.4L85.3,85.4C85.3,85.3,85.3,85.3,85.3,85.4z"/>
		<path fill="#4E8192" d="M85.4,85.5L85.4,85.5C85.4,85.5,85.3,85.5,85.4,85.5L85.4,85.5C85.3,85.4,85.3,85.4,85.4,85.5L85.4,85.5
			C85.3,85.4,85.4,85.4,85.4,85.5L85.4,85.5C85.4,85.4,85.4,85.4,85.4,85.5z"/>
		<path fill="#4E8192" d="M85.3,85.6L85.3,85.6C85.3,85.6,85.2,85.6,85.3,85.6L85.3,85.6C85.2,85.6,85.2,85.5,85.3,85.6L85.3,85.6
			C85.2,85.5,85.3,85.5,85.3,85.6L85.3,85.6C85.3,85.5,85.3,85.6,85.3,85.6z"/>
		<path fill="#4E8192" d="M85.4,85.7L85.4,85.7C85.4,85.7,85.4,85.7,85.4,85.7L85.4,85.7C85.3,85.7,85.3,85.6,85.4,85.7L85.4,85.7
			C85.3,85.6,85.4,85.6,85.4,85.7L85.4,85.7C85.4,85.6,85.4,85.7,85.4,85.7z"/>
		<path fill="#4E8192" d="M85.3,85.8L85.3,85.8C85.3,85.9,85.2,85.9,85.3,85.8L85.3,85.8C85.2,85.8,85.2,85.8,85.3,85.8L85.3,85.8
			C85.2,85.7,85.3,85.7,85.3,85.8L85.3,85.8C85.3,85.8,85.3,85.8,85.3,85.8z"/>
		<path fill="#4E8192" d="M85.2,85.7L85.2,85.7C85.2,85.7,85.1,85.7,85.2,85.7L85.2,85.7C85.1,85.7,85.1,85.7,85.2,85.7L85.2,85.7
			C85.1,85.6,85.1,85.6,85.2,85.7L85.2,85.7C85.2,85.7,85.2,85.7,85.2,85.7z"/>
		<path fill="#4E8192" d="M85.2,85.5L85.2,85.5C85.1,85.5,85.1,85.5,85.2,85.5L85.2,85.5C85.1,85.5,85.1,85.4,85.2,85.5L85.2,85.5
			C85.1,85.4,85.1,85.4,85.2,85.5L85.2,85.5C85.2,85.4,85.2,85.5,85.2,85.5z"/>
		<path fill="#4E8192" d="M85.1,85.6L85.1,85.6C85,85.6,85,85.6,85.1,85.6L85.1,85.6C84.9,85.6,84.9,85.5,85.1,85.6L85.1,85.6
			C85,85.5,85,85.5,85.1,85.6L85.1,85.6C85.1,85.5,85.1,85.6,85.1,85.6z"/>
		<path fill="#4E8192" d="M84.9,85.7L84.9,85.7C84.9,85.8,84.9,85.8,84.9,85.7L84.9,85.7C84.8,85.7,84.8,85.7,84.9,85.7L84.9,85.7
			C84.9,85.6,84.9,85.6,84.9,85.7L84.9,85.7C85,85.7,85,85.7,84.9,85.7z"/>
		<path fill="#4E8192" d="M84.8,85.6L84.8,85.6C84.8,85.6,84.8,85.6,84.8,85.6L84.8,85.6C84.7,85.6,84.7,85.6,84.8,85.6L84.8,85.6
			C84.7,85.5,84.8,85.5,84.8,85.6L84.8,85.6C84.8,85.6,84.8,85.6,84.8,85.6z"/>
		<path fill="#4E8192" d="M84.7,85.6C84.7,85.6,84.7,85.7,84.7,85.6c0.1,0.1,0.1,0.1,0.1,0.1c0,0-0.1,0.1-0.1,0.1
			S84.6,85.7,84.7,85.6z"/>
		<path fill="#4E8192" d="M84.3,85.7C84.3,85.7,84.4,85.6,84.3,85.7c0.1-0.1,0.1-0.1,0.1-0.1c0,0,0.1,0.1,0.1,0.1
			S84.4,85.8,84.3,85.7z"/>
		<path fill="#4E8192" d="M84.3,85.5C84.3,85.5,84.4,85.6,84.3,85.5c0.1,0.1,0.1,0.1,0.1,0.1c0,0-0.1,0.1-0.1,0.1
			S84.2,85.6,84.3,85.5z"/>
		<path fill="#4E8192" d="M84,85.6C84,85.6,84,85.5,84,85.6c0.1-0.1,0.1-0.1,0.1-0.1c0,0,0.1,0.1,0.1,0.1S84,85.7,84,85.6z"/>
		<path fill="#4E8192" d="M83.9,85.4C83.9,85.4,84,85.5,83.9,85.4c0.1,0.1,0.1,0.1,0.1,0.1c0,0-0.1,0.1-0.1,0.1S83.8,85.5,83.9,85.4
			z"/>
		<path fill="#4E8192" d="M85.1,85.9C85.1,85.9,85.1,85.8,85.1,85.9c0.1-0.1,0.1-0.1,0.1-0.1c0,0,0.1,0.1,0.1,0.1S85.2,86,85.1,85.9
			z"/>
		<path fill="#4E8192" d="M85,85.7C85,85.7,85.1,85.8,85,85.7c0.1,0.1,0.1,0.1,0.1,0.1c0,0-0.1,0.1-0.1,0.1S84.9,85.8,85,85.7z"/>
		<path fill="#4E8192" d="M84.9,85.5L84.9,85.5C84.9,85.5,84.9,85.5,84.9,85.5L84.9,85.5C84.8,85.5,84.8,85.4,84.9,85.5L84.9,85.5
			C84.9,85.4,84.9,85.4,84.9,85.5L84.9,85.5C85,85.4,85,85.5,84.9,85.5z"/>
		<path fill="#4E8192" d="M84.7,85.5L84.7,85.5C84.7,85.5,84.6,85.5,84.7,85.5L84.7,85.5C84.6,85.5,84.6,85.4,84.7,85.5L84.7,85.5
			C84.6,85.4,84.7,85.4,84.7,85.5L84.7,85.5C84.7,85.4,84.7,85.5,84.7,85.5z"/>
		<path fill="#4E8192" d="M84.6,85.6L84.6,85.6C84.6,85.7,84.5,85.7,84.6,85.6L84.6,85.6C84.5,85.6,84.5,85.6,84.6,85.6L84.6,85.6
			C84.5,85.5,84.5,85.5,84.6,85.6L84.6,85.6C84.6,85.6,84.6,85.6,84.6,85.6z"/>
		<path fill="#4E8192" d="M84.4,85.5L84.4,85.5C84.4,85.5,84.4,85.5,84.4,85.5L84.4,85.5C84.3,85.5,84.3,85.5,84.4,85.5L84.4,85.5
			C84.4,85.4,84.4,85.4,84.4,85.5L84.4,85.5C84.5,85.4,84.5,85.5,84.4,85.5z"/>
		<path fill="#4E8192" d="M84.6,85.4L84.6,85.4C84.5,85.4,84.5,85.4,84.6,85.4L84.6,85.4C84.4,85.4,84.4,85.3,84.6,85.4L84.6,85.4
			C84.5,85.3,84.5,85.3,84.6,85.4L84.6,85.4C84.6,85.3,84.6,85.4,84.6,85.4z"/>
		<path fill="#4E8192" d="M85,85.4L85,85.4C85,85.4,85,85.4,85,85.4L85,85.4C84.9,85.3,84.9,85.3,85,85.4L85,85.4
			C85,85.3,85,85.3,85,85.4L85,85.4C85.1,85.3,85.1,85.3,85,85.4z"/>
		<path fill="#4E8192" d="M85.2,85.2L85.2,85.2C85.1,85.3,85.1,85.3,85.2,85.2L85.2,85.2C85,85.2,85,85.2,85.2,85.2L85.2,85.2
			C85.1,85.1,85.1,85.1,85.2,85.2L85.2,85.2C85.2,85.2,85.2,85.2,85.2,85.2z"/>
		<path fill="#4E8192" d="M84.8,85.4L84.8,85.4C84.8,85.4,84.7,85.4,84.8,85.4L84.8,85.4C84.7,85.4,84.7,85.3,84.8,85.4L84.8,85.4
			C84.7,85.3,84.8,85.3,84.8,85.4L84.8,85.4C84.8,85.3,84.8,85.4,84.8,85.4z"/>
		<path fill="#4E8192" d="M84.9,85.3L84.9,85.3C84.9,85.3,84.8,85.3,84.9,85.3L84.9,85.3C84.8,85.2,84.8,85.2,84.9,85.3L84.9,85.3
			C84.8,85.1,84.9,85.1,84.9,85.3L84.9,85.3C84.9,85.2,84.9,85.2,84.9,85.3z"/>
		<path fill="#4E8192" d="M84.7,85.3L84.7,85.3C84.6,85.3,84.6,85.3,84.7,85.3L84.7,85.3C84.6,85.2,84.6,85.2,84.7,85.3L84.7,85.3
			C84.6,85.2,84.6,85.1,84.7,85.3L84.7,85.3C84.7,85.2,84.7,85.2,84.7,85.3z"/>
		<path fill="#4E8192" d="M84.8,85.1L84.8,85.1C84.8,85.2,84.7,85.2,84.8,85.1L84.8,85.1C84.7,85.1,84.7,85.1,84.8,85.1L84.8,85.1
			C84.7,85,84.8,85,84.8,85.1L84.8,85.1C84.8,85.1,84.8,85.1,84.8,85.1z"/>
		<path fill="#4E8192" d="M84.5,85.2L84.5,85.2C84.5,85.2,84.5,85.2,84.5,85.2L84.5,85.2C84.4,85.1,84.4,85.1,84.5,85.2L84.5,85.2
			C84.5,85,84.5,85,84.5,85.2L84.5,85.2C84.6,85.1,84.6,85.1,84.5,85.2z"/>
		<path fill="#4E8192" d="M84.7,85L84.7,85C84.6,85.1,84.6,85.1,84.7,85L84.7,85C84.5,85,84.5,85,84.7,85L84.7,85
			C84.6,84.9,84.6,84.9,84.7,85L84.7,85C84.7,85,84.7,85,84.7,85z"/>
		<path fill="#4E8192" d="M84.4,85L84.4,85C84.4,85.1,84.4,85.1,84.4,85L84.4,85C84.3,85,84.3,85,84.4,85L84.4,85
			C84.4,84.9,84.4,84.9,84.4,85L84.4,85C84.4,85,84.4,85,84.4,85z"/>
		<path fill="#4E8192" d="M84.5,84.9L84.5,84.9C84.5,84.9,84.5,84.9,84.5,84.9L84.5,84.9C84.4,84.9,84.4,84.9,84.5,84.9L84.5,84.9
			C84.5,84.8,84.5,84.8,84.5,84.9L84.5,84.9C84.6,84.8,84.6,84.9,84.5,84.9z"/>
		<path fill="#4E8192" d="M84.1,85.4L84.1,85.4C84.1,85.4,84,85.4,84.1,85.4L84.1,85.4C84,85.4,84,85.4,84.1,85.4L84.1,85.4
			C84,85.3,84.1,85.3,84.1,85.4L84.1,85.4C84.1,85.3,84.1,85.4,84.1,85.4z"/>
		<path fill="#4E8192" d="M84.2,85.3L84.2,85.3C84.2,85.3,84.1,85.3,84.2,85.3L84.2,85.3C84.1,85.3,84.1,85.2,84.2,85.3L84.2,85.3
			C84.1,85.2,84.2,85.2,84.2,85.3L84.2,85.3C84.2,85.2,84.2,85.3,84.2,85.3z"/>
		<path fill="#4E8192" d="M84.3,85.2L84.3,85.2C84.3,85.2,84.2,85.2,84.3,85.2L84.3,85.2C84.2,85.1,84.2,85.1,84.3,85.2L84.3,85.2
			C84.2,85,84.3,85,84.3,85.2L84.3,85.2C84.3,85.1,84.3,85.1,84.3,85.2z"/>
		<path fill="#4E8192" d="M84.6,84.8L84.6,84.8C84.6,84.8,84.6,84.8,84.6,84.8L84.6,84.8C84.5,84.8,84.5,84.7,84.6,84.8L84.6,84.8
			C84.6,84.7,84.6,84.7,84.6,84.8L84.6,84.8C84.7,84.7,84.7,84.8,84.6,84.8z"/>
		<path fill="#4E8192" d="M84.9,84.5L84.9,84.5C84.9,84.6,84.8,84.6,84.9,84.5L84.9,84.5C84.8,84.5,84.8,84.5,84.9,84.5L84.9,84.5
			C84.8,84.4,84.8,84.4,84.9,84.5L84.9,84.5C84.9,84.5,84.9,84.5,84.9,84.5z"/>
		<path fill="#4E8192" d="M85,84.4L85,84.4C85,84.4,84.9,84.4,85,84.4L85,84.4C84.9,84.4,84.9,84.3,85,84.4L85,84.4
			C84.9,84.3,85,84.3,85,84.4L85,84.4C85,84.3,85,84.4,85,84.4z"/>
		<path fill="#4E8192" d="M84.8,84.7L84.8,84.7C84.7,84.7,84.7,84.7,84.8,84.7L84.8,84.7C84.6,84.6,84.6,84.6,84.8,84.7L84.8,84.7
			C84.7,84.5,84.7,84.5,84.8,84.7L84.8,84.7C84.8,84.6,84.8,84.6,84.8,84.7z"/>
		<path fill="#4E8192" d="M85.6,84L85.6,84C85.5,84,85.5,84,85.6,84L85.6,84C85.5,84,85.5,84,85.6,84L85.6,84
			C85.5,83.9,85.5,83.9,85.6,84L85.6,84C85.6,83.9,85.6,84,85.6,84z"/>
		<path fill="#4E8192" d="M85.7,84.1L85.7,84.1C85.7,84.2,85.6,84.2,85.7,84.1L85.7,84.1C85.6,84.1,85.6,84.1,85.7,84.1L85.7,84.1
			C85.6,84,85.7,84,85.7,84.1L85.7,84.1C85.7,84.1,85.7,84.1,85.7,84.1z"/>
		<path fill="#4E8192" d="M85.8,84.2L85.8,84.2C85.8,84.3,85.8,84.3,85.8,84.2L85.8,84.2C85.7,84.2,85.7,84.2,85.8,84.2L85.8,84.2
			C85.8,84.1,85.8,84.1,85.8,84.2L85.8,84.2C85.8,84.2,85.8,84.2,85.8,84.2z"/>
		<path fill="#4E8192" d="M85.5,84.1L85.5,84.1C85.4,84.2,85.4,84.2,85.5,84.1L85.5,84.1C85.3,84.1,85.3,84.1,85.5,84.1L85.5,84.1
			C85.4,84,85.4,84,85.5,84.1L85.5,84.1C85.5,84.1,85.5,84.1,85.5,84.1z"/>
		<path fill="#4E8192" d="M85.6,84.3L85.6,84.3C85.6,84.3,85.5,84.3,85.6,84.3L85.6,84.3C85.5,84.2,85.5,84.2,85.6,84.3L85.6,84.3
			C85.5,84.1,85.6,84.1,85.6,84.3L85.6,84.3C85.6,84.2,85.6,84.2,85.6,84.3z"/>
		<path fill="#4E8192" d="M85.7,84.4L85.7,84.4C85.7,84.4,85.6,84.4,85.7,84.4L85.7,84.4C85.6,84.3,85.6,84.3,85.7,84.4L85.7,84.4
			C85.6,84.3,85.7,84.3,85.7,84.4L85.7,84.4C85.7,84.3,85.7,84.3,85.7,84.4z"/>
		<path fill="#4E8192" d="M85.8,84.5L85.8,84.5C85.8,84.5,85.8,84.5,85.8,84.5L85.8,84.5C85.7,84.5,85.7,84.4,85.8,84.5L85.8,84.5
			C85.8,84.4,85.8,84.4,85.8,84.5L85.8,84.5C85.9,84.4,85.9,84.5,85.8,84.5z"/>
		<path fill="#4E8192" d="M86,84.6L86,84.6C85.9,84.6,85.9,84.6,86,84.6L86,84.6C85.8,84.6,85.8,84.5,86,84.6L86,84.6
			C85.9,84.5,85.9,84.5,86,84.6L86,84.6C86,84.5,86,84.6,86,84.6z"/>
		<path fill="#4E8192" d="M86.1,84.7L86.1,84.7C86.1,84.7,86,84.7,86.1,84.7L86.1,84.7C86,84.7,86,84.6,86.1,84.7L86.1,84.7
			C86,84.6,86.1,84.6,86.1,84.7L86.1,84.7C86.1,84.6,86.1,84.7,86.1,84.7z"/>
		<path fill="#4E8192" d="M86,84.4L86,84.4C85.9,84.4,85.9,84.4,86,84.4L86,84.4C85.8,84.3,85.8,84.3,86,84.4L86,84.4
			C85.9,84.2,85.9,84.2,86,84.4L86,84.4C86,84.3,86,84.3,86,84.4z"/>
		<path fill="#4E8192" d="M86.1,84.5L86.1,84.5C86.1,84.5,86,84.5,86.1,84.5L86.1,84.5C86,84.4,86,84.4,86.1,84.5L86.1,84.5
			C86,84.4,86,84.4,86.1,84.5L86.1,84.5C86.1,84.4,86.1,84.4,86.1,84.5z"/>
		<path fill="#4E8192" d="M86.2,84.6L86.2,84.6C86.2,84.6,86.1,84.6,86.2,84.6L86.2,84.6C86.1,84.6,86.1,84.5,86.2,84.6L86.2,84.6
			C86.1,84.5,86.2,84.5,86.2,84.6L86.2,84.6C86.2,84.5,86.2,84.6,86.2,84.6z"/>
		<path fill="#4E8192" d="M86.2,84.8L86.2,84.8C86.2,84.8,86.2,84.8,86.2,84.8L86.2,84.8C86.1,84.8,86.1,84.8,86.2,84.8L86.2,84.8
			C86.1,84.7,86.2,84.7,86.2,84.8L86.2,84.8C86.2,84.8,86.2,84.8,86.2,84.8z"/>
		<path fill="#4E8192" d="M85.3,83.9c0.1-0.1,0.2,0,0.2,0S85.4,83.9,85.3,83.9C85.4,83.9,85.4,83.9,85.3,83.9
			C85.4,83.9,85.3,83.9,85.3,83.9z"/>
		<path fill="#4E8192" d="M85.3,84L85.3,84C85.3,84.1,85.3,84.1,85.3,84L85.3,84C85.2,84,85.2,84,85.3,84L85.3,84
			C85.3,83.9,85.3,83.9,85.3,84L85.3,84C85.4,84,85.4,84,85.3,84z"/>
		<path fill="#4E8192" d="M85.7,83.9L85.7,83.9C85.7,83.9,85.7,83.9,85.7,83.9L85.7,83.9C85.6,83.8,85.6,83.8,85.7,83.9L85.7,83.9
			C85.7,83.7,85.7,83.7,85.7,83.9L85.7,83.9C85.8,83.8,85.8,83.8,85.7,83.9z"/>
		<path fill="#4E8192" d="M85.9,84L85.9,84C85.8,84,85.8,84,85.9,84L85.9,84C85.8,83.9,85.7,83.9,85.9,84L85.9,84
			C85.8,83.9,85.8,83.9,85.9,84L85.9,84C85.9,83.9,85.9,83.9,85.9,84z"/>
		<path fill="#4E8192" d="M86,84.1L86,84.1C86,84.1,85.9,84.1,86,84.1L86,84.1C85.9,84.1,85.9,84,86,84.1L86,84.1
			C85.9,84,86,84,86,84.1L86,84.1C86,84,86,84.1,86,84.1z"/>
		<path fill="#4E8192" d="M86.1,84.2L86.1,84.2C86.1,84.2,86.1,84.2,86.1,84.2L86.1,84.2C86,84.2,86,84.1,86.1,84.2L86.1,84.2
			C86.1,84.1,86.1,84.1,86.1,84.2L86.1,84.2C86.1,84.1,86.1,84.2,86.1,84.2z"/>
		<path fill="#4E8192" d="M86.2,84.3L86.2,84.3C86.2,84.3,86.2,84.3,86.2,84.3L86.2,84.3C86.1,84.3,86.1,84.2,86.2,84.3L86.2,84.3
			C86.2,84.2,86.2,84.2,86.2,84.3L86.2,84.3C86.3,84.2,86.3,84.3,86.2,84.3z"/>
		<path fill="#4E8192" d="M86.4,84.4L86.4,84.4C86.4,84.4,86.3,84.5,86.4,84.4L86.4,84.4C86.3,84.4,86.3,84.4,86.4,84.4L86.4,84.4
			C86.3,84.3,86.3,84.3,86.4,84.4L86.4,84.4C86.4,84.4,86.4,84.4,86.4,84.4z"/>
		<path fill="#4E8192" d="M85.9,83.7L85.9,83.7C85.8,83.7,85.8,83.8,85.9,83.7L85.9,83.7C85.7,83.7,85.7,83.7,85.9,83.7L85.9,83.7
			C85.8,83.6,85.8,83.6,85.9,83.7L85.9,83.7C85.9,83.7,85.9,83.7,85.9,83.7z"/>
		<path fill="#4E8192" d="M86,83.8L86,83.8C86,83.9,85.9,83.9,86,83.8L86,83.8C85.9,83.8,85.9,83.8,86,83.8L86,83.8
			C85.9,83.7,86,83.7,86,83.8L86,83.8C86,83.8,86,83.8,86,83.8z"/>
		<path fill="#4E8192" d="M86.1,84L86.1,84C86.1,84,86,84,86.1,84L86.1,84C86,83.9,86,83.9,86.1,84L86.1,84
			C86,83.8,86.1,83.8,86.1,84L86.1,84C86.1,83.9,86.1,83.9,86.1,84z"/>
		<path fill="#4E8192" d="M86.2,84.1L86.2,84.1C86.2,84.1,86.2,84.1,86.2,84.1L86.2,84.1C86.1,84,86.1,84,86.2,84.1L86.2,84.1
			C86.2,84,86.2,84,86.2,84.1L86.2,84.1C86.3,84,86.3,84,86.2,84.1z"/>
		<path fill="#4E8192" d="M86.4,84.2L86.4,84.2C86.3,84.2,86.3,84.2,86.4,84.2L86.4,84.2C86.2,84.2,86.2,84.1,86.4,84.2L86.4,84.2
			C86.3,84.1,86.3,84.1,86.4,84.2L86.4,84.2C86.4,84.1,86.4,84.2,86.4,84.2z"/>
		<path fill="#4E8192" d="M86.5,84.3L86.5,84.3C86.5,84.3,86.4,84.3,86.5,84.3L86.5,84.3C86.4,84.3,86.4,84.2,86.5,84.3L86.5,84.3
			C86.4,84.2,86.5,84.2,86.5,84.3L86.5,84.3C86.5,84.2,86.5,84.3,86.5,84.3z"/>
		<path fill="#7C4444" d="M85.8,85.8C85.8,85.8,85.8,85.7,85.8,85.8c-0.1-0.1-0.1-0.1-0.1-0.1c0,0-0.1,0.1-0.1,0.1
			S85.7,85.9,85.8,85.8z"/>
		<path fill="#7C4444" d="M85.8,85.5C85.8,85.5,85.8,85.6,85.8,85.5c-0.1,0.1-0.1,0.1-0.1,0.1c0,0,0.1,0.1,0.1,0.1
			S85.9,85.6,85.8,85.5z"/>
		<path fill="#7C4444" d="M86.2,85.6C86.2,85.6,86.1,85.6,86.2,85.6c-0.1-0.1-0.1-0.1-0.1-0.1c0,0-0.1,0.1-0.1,0.1
			S86.1,85.7,86.2,85.6z"/>
		<path fill="#7C4444" d="M86.2,85.4C86.2,85.4,86.1,85.5,86.2,85.4c-0.1,0.1-0.1,0.1-0.1,0.1c0,0,0.1,0.1,0.1,0.1
			S86.3,85.5,86.2,85.4z"/>
		<path fill="#7C4444" d="M86.5,85.5C86.5,85.5,86.5,85.4,86.5,85.5c-0.1-0.1-0.1-0.1-0.1-0.1c0,0-0.1,0.1-0.1,0.1
			S86.5,85.6,86.5,85.5z"/>
		<path fill="#7C4444" d="M86.6,85.3C86.6,85.3,86.5,85.3,86.6,85.3c-0.1,0.1-0.1,0.1-0.1,0.1c0,0,0.1,0.1,0.1,0.1
			S86.7,85.3,86.6,85.3z"/>
		<path fill="#7C4444" d="M85.5,85.9C85.5,85.9,85.4,85.8,85.5,85.9c-0.1-0.1-0.1-0.1-0.1-0.1c0,0-0.1,0.1-0.1,0.1
			S85.4,86,85.5,85.9z"/>
		<path fill="#7C4444" d="M85.5,85.7C85.5,85.7,85.4,85.8,85.5,85.7c-0.1,0.1-0.1,0.1-0.1,0.1c0,0,0.1,0.1,0.1,0.1
			S85.6,85.8,85.5,85.7z"/>
		<path fill="#7C4444" d="M85.7,85.7L85.7,85.7C85.6,85.7,85.6,85.7,85.7,85.7L85.7,85.7C85.5,85.7,85.5,85.6,85.7,85.7L85.7,85.7
			C85.6,85.6,85.6,85.6,85.7,85.7L85.7,85.7C85.7,85.6,85.7,85.7,85.7,85.7z"/>
		<path fill="#7C4444" d="M85.8,85.6L85.8,85.6C85.7,85.6,85.7,85.6,85.8,85.6L85.8,85.6C85.7,85.5,85.7,85.5,85.8,85.6L85.8,85.6
			C85.7,85.5,85.7,85.5,85.8,85.6L85.8,85.6C85.8,85.5,85.8,85.5,85.8,85.6z"/>
		<path fill="#7C4444" d="M85.9,85.4L85.9,85.4C85.9,85.5,85.8,85.5,85.9,85.4L85.9,85.4C85.8,85.4,85.8,85.4,85.9,85.4L85.9,85.4
			C85.8,85.3,85.9,85.3,85.9,85.4L85.9,85.4C85.9,85.4,85.9,85.4,85.9,85.4z"/>
		<path fill="#7C4444" d="M86,85.3L86,85.3C86,85.3,85.9,85.3,86,85.3L86,85.3C85.9,85.3,85.9,85.3,86,85.3L86,85.3
			C85.9,85.2,86,85.2,86,85.3L86,85.3C86,85.2,86,85.3,86,85.3z"/>
		<path fill="#7C4444" d="M86,85.6L86,85.6C86,85.6,85.9,85.6,86,85.6L86,85.6C85.9,85.5,85.9,85.5,86,85.6L86,85.6
			C85.9,85.4,86,85.4,86,85.6L86,85.6C86,85.5,86,85.5,86,85.6z"/>
		<path fill="#7C4444" d="M86.1,85.4L86.1,85.4C86.1,85.5,86.1,85.5,86.1,85.4L86.1,85.4C86,85.4,86,85.4,86.1,85.4L86.1,85.4
			C86.1,85.3,86.1,85.3,86.1,85.4L86.1,85.4C86.1,85.4,86.1,85.4,86.1,85.4z"/>
		<path fill="#7C4444" d="M85.7,85.4c-0.1-0.1-0.2,0-0.2,0S85.6,85.5,85.7,85.4C85.6,85.5,85.6,85.5,85.7,85.4
			C85.6,85.5,85.7,85.4,85.7,85.4z"/>
		<path fill="#4E8192" d="M85.5,85.4C85.6,85.4,85.6,85.3,85.5,85.4C85.6,85.3,85.6,85.3,85.5,85.4c0.1,0,0.1,0,0.1,0
			C85.6,85.3,85.6,85.4,85.5,85.4z"/>
		<path fill="#7C4444" d="M85.6,85.2c-0.1-0.1,0-0.2,0-0.2S85.7,85.1,85.6,85.2C85.7,85.2,85.7,85.2,85.6,85.2
			C85.7,85.2,85.6,85.2,85.6,85.2z"/>
		<path fill="#4E8192" d="M85.6,85.1C85.5,85.1,85.5,85.2,85.6,85.1C85.5,85.2,85.5,85.2,85.6,85.1c0,0.1,0,0.1,0,0.1
			C85.5,85.2,85.5,85.1,85.6,85.1z"/>
		<path fill="#7C4444" d="M85.8,85.1c-0.1-0.1-0.2,0-0.2,0S85.7,85.1,85.8,85.1C85.7,85.1,85.7,85.1,85.8,85.1
			C85.7,85.1,85.8,85.1,85.8,85.1z"/>
		<path fill="#4E8192" d="M85.6,85C85.7,85,85.7,85,85.6,85C85.7,85,85.7,85,85.6,85c0.1,0,0.1,0,0.1,0C85.7,85,85.7,85,85.6,85z"/>
		<path fill="#7C4444" d="M85.7,84.9c-0.1-0.1,0-0.2,0-0.2S85.8,84.8,85.7,84.9C85.8,84.8,85.8,84.8,85.7,84.9
			C85.8,84.8,85.7,84.9,85.7,84.9z"/>
		<path fill="#4E8192" d="M85.7,84.7C85.6,84.8,85.6,84.8,85.7,84.7C85.6,84.8,85.6,84.8,85.7,84.7c0,0.1,0,0.1,0,0.1
			C85.6,84.8,85.6,84.8,85.7,84.7z"/>
		<path fill="#7C4444" d="M85.9,84.7c-0.1-0.1-0.2,0-0.2,0S85.8,84.7,85.9,84.7C85.8,84.8,85.8,84.8,85.9,84.7
			C85.8,84.8,85.9,84.7,85.9,84.7z"/>
		<path fill="#4E8192" d="M85.7,84.7C85.8,84.6,85.8,84.6,85.7,84.7C85.8,84.6,85.8,84.6,85.7,84.7c0.1,0,0.1,0,0.1,0
			C85.8,84.6,85.8,84.6,85.7,84.7z"/>
		<path fill="#7C4444" d="M84.9,85c-0.1,0.1-0.2,0-0.2,0S84.8,84.9,84.9,85C84.8,84.9,84.9,84.9,84.9,85C84.9,84.9,84.9,85,84.9,85z
			"/>
		<path fill="#4E8192" d="M84.8,85C84.8,85,84.8,85,84.8,85C84.8,85,84.9,85.1,84.8,85c0.1,0,0.1,0,0.1,0C84.9,85.1,84.8,85,84.8,85
			z"/>
		<path fill="#7C4444" d="M84.7,84.8c-0.1,0.1,0,0.2,0,0.2S84.8,84.9,84.7,84.8C84.8,84.9,84.8,84.8,84.7,84.8
			C84.8,84.8,84.7,84.8,84.7,84.8z"/>
		<path fill="#4E8192" d="M84.7,84.9C84.7,84.9,84.7,84.9,84.7,84.9C84.6,84.9,84.6,84.9,84.7,84.9c0-0.1,0-0.1,0-0.1
			C84.6,84.9,84.7,84.9,84.7,84.9z"/>
		<path fill="#7C4444" d="M85,84.9L85,84.9C85,84.9,84.9,84.9,85,84.9L85,84.9C84.9,84.9,84.9,84.8,85,84.9L85,84.9
			C84.9,84.8,85,84.8,85,84.9L85,84.9C85,84.8,85,84.9,85,84.9z"/>
		<path fill="#7C4444" d="M85.8,85.3L85.8,85.3C85.7,85.4,85.7,85.4,85.8,85.3L85.8,85.3C85.6,85.3,85.6,85.3,85.8,85.3L85.8,85.3
			C85.7,85.2,85.7,85.2,85.8,85.3L85.8,85.3C85.8,85.3,85.8,85.3,85.8,85.3z"/>
		<path fill="#7C4444" d="M85.9,85.2L85.9,85.2C85.9,85.2,85.8,85.2,85.9,85.2L85.9,85.2C85.8,85.2,85.8,85.1,85.9,85.2L85.9,85.2
			C85.8,85.1,85.8,85.1,85.9,85.2L85.9,85.2C85.9,85.1,85.9,85.2,85.9,85.2z"/>
		<path fill="#7C4444" d="M86.1,85.2L86.1,85.2C86.1,85.2,86.1,85.2,86.1,85.2L86.1,85.2C86,85.2,86,85.1,86.1,85.2L86.1,85.2
			C86,85.1,86.1,85.1,86.1,85.2L86.1,85.2C86.1,85.1,86.1,85.2,86.1,85.2z"/>
		<path fill="#7C4444" d="M86.2,85.1L86.2,85.1C86.2,85.1,86.2,85.1,86.2,85.1L86.2,85.1C86.1,85,86.1,85,86.2,85.1L86.2,85.1
			C86.2,84.9,86.2,84.9,86.2,85.1L86.2,85.1C86.3,85,86.3,85,86.2,85.1z"/>
		<path fill="#7C4444" d="M86.2,85.3L86.2,85.3C86.2,85.3,86.2,85.3,86.2,85.3L86.2,85.3C86.1,85.3,86.1,85.2,86.2,85.3L86.2,85.3
			C86.2,85.2,86.2,85.2,86.2,85.3L86.2,85.3C86.3,85.2,86.3,85.3,86.2,85.3z"/>
		<path fill="#7C4444" d="M86.4,85.2L86.4,85.2C86.3,85.2,86.3,85.2,86.4,85.2L86.4,85.2C86.2,85.2,86.2,85.1,86.4,85.2L86.4,85.2
			C86.3,85.1,86.3,85.1,86.4,85.2L86.4,85.2C86.4,85.1,86.4,85.1,86.4,85.2z"/>
		<path fill="#7C4444" d="M86.4,85.4L86.4,85.4C86.3,85.4,86.3,85.4,86.4,85.4L86.4,85.4C86.3,85.4,86.3,85.4,86.4,85.4L86.4,85.4
			C86.3,85.3,86.3,85.3,86.4,85.4L86.4,85.4C86.4,85.3,86.4,85.4,86.4,85.4z"/>
		<path fill="#7C4444" d="M86.5,85.3L86.5,85.3C86.5,85.3,86.4,85.3,86.5,85.3L86.5,85.3C86.4,85.3,86.4,85.2,86.5,85.3L86.5,85.3
			C86.4,85.2,86.5,85.2,86.5,85.3L86.5,85.3C86.5,85.2,86.5,85.3,86.5,85.3z"/>
		<path fill="#7C4444" d="M86,85.1L86,85.1C86,85.1,85.9,85.1,86,85.1L86,85.1C85.9,85.1,85.9,85,86,85.1L86,85.1
			C85.9,85,86,85,86,85.1L86,85.1C86,85,86,85,86,85.1z"/>
		<path fill="#7C4444" d="M86.1,84.9L86.1,84.9C86.1,85,86,85,86.1,84.9L86.1,84.9C86,84.9,86,84.9,86.1,84.9L86.1,84.9
			C86,84.8,86.1,84.8,86.1,84.9L86.1,84.9C86.1,84.9,86.1,84.9,86.1,84.9z"/>
		<path fill="#7C4444" d="M85.9,85L85.9,85C85.8,85,85.8,85,85.9,85L85.9,85C85.7,84.9,85.7,84.9,85.9,85L85.9,85
			C85.8,84.8,85.8,84.8,85.9,85L85.9,85C85.9,84.9,85.9,84.9,85.9,85z"/>
		<path fill="#7C4444" d="M86,84.8L86,84.8C86,84.9,85.9,84.9,86,84.8L86,84.8C85.9,84.8,85.9,84.8,86,84.8L86,84.8
			C85.9,84.7,85.9,84.7,86,84.8L86,84.8C86,84.8,86,84.8,86,84.8z"/>
		<path fill="#7C4444" d="M85.1,84.8L85.1,84.8C85.1,84.8,85.1,84.8,85.1,84.8L85.1,84.8C85,84.7,85,84.7,85.1,84.8L85.1,84.8
			C85.1,84.6,85.1,84.6,85.1,84.8L85.1,84.8C85.1,84.7,85.1,84.7,85.1,84.8z"/>
		<path fill="#7C4444" d="M85.2,84.6L85.2,84.6C85.2,84.7,85.2,84.7,85.2,84.6L85.2,84.6C85.1,84.6,85.1,84.6,85.2,84.6L85.2,84.6
			C85.2,84.5,85.2,84.5,85.2,84.6L85.2,84.6C85.3,84.6,85.3,84.6,85.2,84.6z"/>
		<path fill="#7C4444" d="M85.4,84.5L85.4,84.5C85.3,84.5,85.3,84.5,85.4,84.5L85.4,84.5C85.2,84.5,85.2,84.4,85.4,84.5L85.4,84.5
			C85.3,84.4,85.3,84.4,85.4,84.5L85.4,84.5C85.4,84.4,85.4,84.5,85.4,84.5z"/>
		<path fill="#7C4444" d="M84.9,84.8L84.9,84.8C84.9,84.8,84.8,84.8,84.9,84.8L84.9,84.8C84.8,84.8,84.8,84.7,84.9,84.8L84.9,84.8
			C84.8,84.7,84.9,84.7,84.9,84.8L84.9,84.8C84.9,84.7,84.9,84.8,84.9,84.8z"/>
		<path fill="#7C4444" d="M85,84.6L85,84.6C85,84.7,84.9,84.7,85,84.6L85,84.6C84.9,84.6,84.9,84.6,85,84.6L85,84.6
			C84.9,84.5,85,84.5,85,84.6L85,84.6C85,84.6,85,84.6,85,84.6z"/>
		<path fill="#7C4444" d="M85.1,84.5L85.1,84.5C85.1,84.5,85,84.6,85.1,84.5L85.1,84.5C85,84.5,85,84.5,85.1,84.5L85.1,84.5
			C85,84.4,85.1,84.4,85.1,84.5L85.1,84.5C85.1,84.5,85.1,84.5,85.1,84.5z"/>
		<path fill="#7C4444" d="M85.2,84.4L85.2,84.4C85.2,84.4,85.2,84.4,85.2,84.4L85.2,84.4C85.1,84.4,85.1,84.3,85.2,84.4L85.2,84.4
			C85.2,84.3,85.2,84.3,85.2,84.4L85.2,84.4C85.3,84.3,85.3,84.4,85.2,84.4z"/>
		<path fill="#7C4444" d="M85.3,84.3L85.3,84.3C85.3,84.3,85.3,84.3,85.3,84.3L85.3,84.3C85.2,84.2,85.2,84.2,85.3,84.3L85.3,84.3
			C85.3,84.1,85.3,84.1,85.3,84.3L85.3,84.3C85.4,84.2,85.4,84.2,85.3,84.3z"/>
		<path fill="#7C4444" d="M85.1,84.3L85.1,84.3C85.1,84.3,85,84.3,85.1,84.3L85.1,84.3C85,84.3,85,84.2,85.1,84.3L85.1,84.3
			C85,84.2,85.1,84.2,85.1,84.3L85.1,84.3C85.1,84.2,85.1,84.3,85.1,84.3z"/>
		<path fill="#7C4444" d="M85.2,84.2L85.2,84.2C85.2,84.2,85.2,84.2,85.2,84.2L85.2,84.2C85.1,84.1,85.1,84.1,85.2,84.2L85.2,84.2
			C85.2,84,85.2,84,85.2,84.2L85.2,84.2C85.2,84.1,85.2,84.1,85.2,84.2z"/>
		<path fill="#7C4444" d="M85,84.2L85,84.2C85,84.2,84.9,84.2,85,84.2L85,84.2C84.9,84.2,84.9,84.1,85,84.2L85,84.2
			C84.9,84.1,85,84.1,85,84.2L85,84.2C85,84.1,85,84.1,85,84.2z"/>
		<path fill="#7C4444" d="M85.1,84L85.1,84C85.1,84.1,85,84.1,85.1,84L85.1,84C85,84,85,84,85.1,84L85.1,84
			C85,83.9,85.1,83.9,85.1,84L85.1,84C85.1,84,85.1,84,85.1,84z"/>
		<path fill="#7C4444" d="M84.9,84.1L84.9,84.1C84.8,84.1,84.8,84.1,84.9,84.1L84.9,84.1C84.7,84,84.7,84,84.9,84.1L84.9,84.1
			C84.8,83.9,84.8,83.9,84.9,84.1L84.9,84.1C84.9,84,84.9,84,84.9,84.1z"/>
		<path fill="#7C4444" d="M84.9,84.3L84.9,84.3C84.8,84.3,84.8,84.3,84.9,84.3L84.9,84.3C84.7,84.3,84.7,84.2,84.9,84.3L84.9,84.3
			C84.8,84.2,84.8,84.2,84.9,84.3L84.9,84.3C84.9,84.2,84.9,84.3,84.9,84.3z"/>
		<path fill="#7C4444" d="M84.7,84.2L84.7,84.2C84.7,84.2,84.7,84.2,84.7,84.2L84.7,84.2C84.6,84.2,84.6,84.1,84.7,84.2L84.7,84.2
			C84.7,84.1,84.7,84.1,84.7,84.2L84.7,84.2C84.8,84.1,84.8,84.2,84.7,84.2z"/>
		<path fill="#7C4444" d="M84.8,84.4L84.8,84.4C84.7,84.5,84.7,84.5,84.8,84.4L84.8,84.4C84.6,84.4,84.6,84.4,84.8,84.4L84.8,84.4
			C84.7,84.3,84.7,84.3,84.8,84.4L84.8,84.4C84.8,84.4,84.8,84.4,84.8,84.4z"/>
		<path fill="#7C4444" d="M84.6,84.3L84.6,84.3C84.6,84.3,84.6,84.3,84.6,84.3L84.6,84.3C84.5,84.3,84.5,84.3,84.6,84.3L84.6,84.3
			C84.6,84.2,84.6,84.2,84.6,84.3L84.6,84.3C84.6,84.2,84.7,84.3,84.6,84.3z"/>
		<path fill="#7C4444" d="M84.6,84.5L84.6,84.5C84.6,84.6,84.6,84.6,84.6,84.5L84.6,84.5C84.5,84.5,84.5,84.5,84.6,84.5L84.6,84.5
			C84.6,84.4,84.6,84.4,84.6,84.5L84.6,84.5C84.7,84.5,84.7,84.5,84.6,84.5z"/>
		<path fill="#7C4444" d="M84.5,84.4L84.5,84.4C84.5,84.5,84.5,84.5,84.5,84.4L84.5,84.4C84.4,84.4,84.4,84.4,84.5,84.4L84.5,84.4
			C84.4,84.3,84.5,84.3,84.5,84.4L84.5,84.4C84.5,84.4,84.5,84.4,84.5,84.4z"/>
		<path fill="#7C4444" d="M84.5,84.7L84.5,84.7C84.5,84.7,84.5,84.7,84.5,84.7L84.5,84.7C84.4,84.7,84.4,84.6,84.5,84.7L84.5,84.7
			C84.5,84.6,84.5,84.6,84.5,84.7L84.5,84.7C84.6,84.6,84.6,84.6,84.5,84.7z"/>
		<path fill="#7C4444" d="M84.4,84.6L84.4,84.6C84.4,84.6,84.3,84.6,84.4,84.6L84.4,84.6C84.3,84.5,84.3,84.5,84.4,84.6L84.4,84.6
			C84.3,84.5,84.4,84.4,84.4,84.6L84.4,84.6C84.4,84.5,84.4,84.5,84.4,84.6z"/>
		<path fill="#7C4444" d="M84.4,84.8L84.4,84.8C84.4,84.8,84.4,84.8,84.4,84.8L84.4,84.8C84.3,84.8,84.3,84.7,84.4,84.8L84.4,84.8
			C84.3,84.7,84.4,84.7,84.4,84.8L84.4,84.8C84.4,84.7,84.4,84.8,84.4,84.8z"/>
		<path fill="#7C4444" d="M84.3,84.7L84.3,84.7C84.3,84.7,84.2,84.7,84.3,84.7L84.3,84.7C84.2,84.7,84.2,84.6,84.3,84.7L84.3,84.7
			C84.2,84.6,84.3,84.6,84.3,84.7L84.3,84.7C84.3,84.6,84.3,84.7,84.3,84.7z"/>
		<path fill="#7C4444" d="M84.3,84.9L84.3,84.9C84.3,85,84.2,85,84.3,84.9L84.3,84.9C84.2,84.9,84.2,84.9,84.3,84.9L84.3,84.9
			C84.2,84.8,84.3,84.8,84.3,84.9L84.3,84.9C84.3,84.9,84.3,84.9,84.3,84.9z"/>
		<path fill="#7C4444" d="M84.6,83.9L84.6,83.9C84.6,83.9,84.7,83.9,84.6,83.9L84.6,83.9C84.7,83.9,84.7,83.8,84.6,83.9L84.6,83.9
			C84.7,83.8,84.6,83.8,84.6,83.9L84.6,83.9C84.6,83.8,84.6,83.9,84.6,83.9z"/>
		<path fill="#7C4444" d="M84.5,84L84.5,84C84.5,84,84.5,84,84.5,84L84.5,84C84.6,84,84.6,84,84.5,84L84.5,84
			C84.5,83.9,84.5,83.9,84.5,84L84.5,84C84.4,84,84.5,84,84.5,84z"/>
		<path fill="#7C4444" d="M84.4,84.2L84.4,84.2C84.4,84.2,84.4,84.2,84.4,84.2L84.4,84.2C84.5,84.1,84.5,84.1,84.4,84.2L84.4,84.2
			C84.4,84,84.4,84,84.4,84.2L84.4,84.2C84.3,84.1,84.3,84.1,84.4,84.2z"/>
		<path fill="#7C4444" d="M84.2,84.3L84.2,84.3C84.3,84.3,84.3,84.3,84.2,84.3L84.2,84.3C84.4,84.2,84.4,84.2,84.2,84.3L84.2,84.3
			C84.3,84.2,84.3,84.2,84.2,84.3L84.2,84.3C84.2,84.2,84.2,84.3,84.2,84.3z"/>
		<path fill="#7C4444" d="M84.1,84.4L84.1,84.4C84.2,84.4,84.2,84.4,84.1,84.4L84.1,84.4C84.2,84.4,84.2,84.3,84.1,84.4L84.1,84.4
			C84.2,84.3,84.2,84.3,84.1,84.4L84.1,84.4C84.1,84.3,84.1,84.4,84.1,84.4z"/>
		<path fill="#7C4444" d="M84,84.5L84,84.5C84,84.6,84.1,84.6,84,84.5L84,84.5C84.1,84.5,84.1,84.5,84,84.5L84,84.5
			C84.1,84.4,84,84.4,84,84.5L84,84.5C84,84.5,84,84.5,84,84.5z"/>
		<path fill="#7C4444" d="M84.5,83.8L84.5,83.8C84.5,83.8,84.5,83.8,84.5,83.8L84.5,83.8C84.6,83.8,84.6,83.7,84.5,83.8L84.5,83.8
			C84.5,83.7,84.5,83.7,84.5,83.8L84.5,83.8C84.4,83.7,84.4,83.8,84.5,83.8z"/>
		<path fill="#7C4444" d="M84.3,83.9L84.3,83.9C84.4,83.9,84.4,83.9,84.3,83.9L84.3,83.9C84.5,83.9,84.5,83.8,84.3,83.9L84.3,83.9
			C84.4,83.8,84.4,83.8,84.3,83.9L84.3,83.9C84.3,83.8,84.3,83.9,84.3,83.9z"/>
		<path fill="#7C4444" d="M84.2,84L84.2,84C84.3,84.1,84.3,84.1,84.2,84L84.2,84C84.4,84,84.3,84,84.2,84L84.2,84
			C84.3,83.9,84.3,83.9,84.2,84L84.2,84C84.2,84,84.2,84,84.2,84z"/>
		<path fill="#7C4444" d="M84.1,84.2L84.1,84.2C84.1,84.2,84.2,84.2,84.1,84.2L84.1,84.2C84.2,84.1,84.2,84.1,84.1,84.2L84.1,84.2
			C84.2,84,84.1,84,84.1,84.2L84.1,84.2C84.1,84.1,84.1,84.1,84.1,84.2z"/>
		<path fill="#7C4444" d="M84,84.3L84,84.3C84,84.3,84.1,84.3,84,84.3L84,84.3C84.1,84.3,84.1,84.2,84,84.3L84,84.3
			C84.1,84.2,84,84.2,84,84.3L84,84.3C84,84.2,84,84.3,84,84.3z"/>
		<path fill="#7C4444" d="M83.9,84.4L83.9,84.4C83.9,84.4,84,84.4,83.9,84.4L83.9,84.4C84,84.4,84,84.3,83.9,84.4L83.9,84.4
			C84,84.3,83.9,84.3,83.9,84.4L83.9,84.4C83.9,84.4,83.9,84.4,83.9,84.4z"/>
		<path opacity="0.9" fill="#7C4444" d="M86.4,86.1l0,0.3l0.3,0c0,0,0.3,0,0.3-0.3c0-0.3,0-0.3,0-0.3l-0.3,0l0,0.3
			c0,0,0,0.1-0.1,0.1C86.6,86,86.4,86.1,86.4,86.1z"/>
		<path opacity="0.85" fill="#4E8192" d="M84.1,86.2l0,0.3l-0.3,0c0,0-0.3,0-0.3-0.3c0-0.3,0-0.3,0-0.3l0.3,0l0,0.3
			c0,0,0,0.1,0.1,0.1C83.9,86.2,84.1,86.2,84.1,86.2z"/>
		<path opacity="0.85" fill="#4E8192" d="M86.3,83.4l0-0.3l0.3,0c0,0,0.3,0,0.3,0.3c0,0.3,0,0.3,0,0.3l-0.3,0l0-0.3
			c0,0,0-0.1-0.1-0.1S86.3,83.4,86.3,83.4z"/>
		<path opacity="0.9" fill="#7C4444" d="M83.9,83.5l0-0.3l-0.3,0c0,0-0.3,0-0.3,0.3c0,0.3,0,0.3,0,0.3l0.3,0l0-0.3
			c0,0,0-0.1,0.1-0.1S83.9,83.5,83.9,83.5z"/>
		<path fill="#4E8192" d="M85.5,85.3L85.5,85.3C85.5,85.4,85.5,85.4,85.5,85.3L85.5,85.3C85.4,85.3,85.4,85.3,85.5,85.3L85.5,85.3
			C85.4,85.2,85.5,85.2,85.5,85.3L85.5,85.3C85.5,85.3,85.5,85.3,85.5,85.3z"/>
		<path fill="#4E8192" d="M84.2,85.5L84.2,85.5C84.2,85.6,84.1,85.6,84.2,85.5L84.2,85.5C84.1,85.5,84.1,85.5,84.2,85.5L84.2,85.5
			C84.1,85.4,84.2,85.4,84.2,85.5L84.2,85.5C84.2,85.5,84.2,85.5,84.2,85.5z"/>
		<path fill="#4E8192" d="M84.3,85.4L84.3,85.4C84.3,85.4,84.3,85.4,84.3,85.4L84.3,85.4C84.2,85.4,84.2,85.3,84.3,85.4L84.3,85.4
			C84.3,85.3,84.3,85.3,84.3,85.4L84.3,85.4C84.3,85.3,84.3,85.4,84.3,85.4z"/>
		<path fill="#4E8192" d="M84.4,85.3L84.4,85.3C84.4,85.3,84.4,85.3,84.4,85.3L84.4,85.3C84.3,85.3,84.3,85.2,84.4,85.3L84.4,85.3
			C84.4,85.2,84.4,85.2,84.4,85.3L84.4,85.3C84.5,85.2,84.5,85.3,84.4,85.3z"/>
		<path fill="#3A3B4C" d="M88.5,83.9l0.2,0l0.1,1.4c0,0.2-0.2,0.3-0.4,0.4c-0.2,0-0.4-0.1-0.4-0.3c0,0,0-0.1,0-0.1
			c0.1,0,0.1,0,0.2,0c0,0,0,0.1,0,0.1c0,0.1,0.1,0.1,0.1,0.1c0.1,0,0.1-0.1,0.1-0.1L88.5,83.9z M88.4,83.7c0,0.1,0.1,0.2,0.2,0.2
			c0.1,0,0.2-0.1,0.2-0.2s-0.1-0.2-0.2-0.2C88.5,83.5,88.4,83.6,88.4,83.7z"/>
		<g>
			<path fill="#3A3B4C" d="M89.8,84.9c0,0.1-0.1,0.1-0.2,0.1c-0.1,0-0.1,0-0.2,0.1c0,0-0.1,0-0.1,0s-0.1,0-0.1-0.1
				c0,0-0.1-0.1-0.1-0.1c0,0,0-0.1,0-0.2c0-0.1,0-0.2,0.1-0.3c0.1-0.1,0.2-0.1,0.4-0.1c0,0,0.1,0,0.1,0c0,0,0.1,0,0.1,0
				c0,0,0,0,0.1,0c0,0,0,0,0,0l0,0c0-0.1,0-0.1-0.1-0.2c-0.1,0-0.1,0-0.2,0c-0.1,0-0.1,0-0.2,0c0,0-0.1,0.1-0.1,0.1l-0.1-0.1
				c0,0,0,0,0.1-0.1c0,0,0.1,0,0.1,0c0,0,0.1,0,0.1,0c0,0,0.1,0,0.2,0c0.1,0,0.3,0,0.3,0.1c0.1,0.1,0.1,0.2,0.1,0.3l0,0.6
				c0,0,0,0.1,0,0.1l-0.2,0L89.8,84.9z M89.8,84.5C89.8,84.5,89.8,84.5,89.8,84.5C89.7,84.5,89.7,84.5,89.8,84.5c-0.1,0-0.1,0-0.2,0
				c0,0-0.1,0-0.1,0c-0.1,0-0.1,0-0.1,0c0,0-0.1,0-0.1,0.1c0,0,0,0,0,0.1c0,0,0,0.1,0,0.1c0,0.1,0,0.1,0.1,0.1c0,0,0.1,0,0.2,0
				c0,0,0.1,0,0.1,0c0,0,0.1,0,0.1-0.1c0,0,0-0.1,0.1-0.1c0,0,0-0.1,0-0.1L89.8,84.5z"/>
			<path fill="#3A3B4C" d="M90.4,84.1l-0.2,0l0-0.2l0.2,0l0-0.4l0.2,0l0,0.4l0.3,0l0,0.2l-0.3,0l0,0.5c0,0.1,0,0.1,0.1,0.2
				c0,0,0.1,0,0.1,0c0,0,0.1,0,0.1,0c0,0,0.1,0,0.1-0.1l0.1,0.1c0,0-0.1,0.1-0.1,0.1c0,0-0.1,0-0.2,0c-0.1,0-0.2,0-0.3-0.1
				c-0.1-0.1-0.1-0.2-0.1-0.3L90.4,84.1z"/>
			<path fill="#3A3B4C" d="M91.9,84.8c0,0.1-0.1,0.1-0.2,0.1c-0.1,0-0.1,0-0.2,0.1c0,0-0.1,0-0.1,0c0,0-0.1,0-0.1-0.1
				c0,0-0.1-0.1-0.1-0.1c0,0,0-0.1,0-0.2c0-0.1,0-0.2,0.1-0.3c0.1-0.1,0.2-0.1,0.4-0.1c0,0,0.1,0,0.1,0c0,0,0.1,0,0.1,0
				c0,0,0,0,0.1,0c0,0,0,0,0,0l0,0c0-0.1,0-0.1-0.1-0.2c-0.1,0-0.1,0-0.2,0c-0.1,0-0.1,0-0.2,0c0,0-0.1,0.1-0.1,0.1L91.2,84
				c0,0,0,0,0.1-0.1c0,0,0.1,0,0.1,0c0,0,0.1,0,0.1,0c0,0,0.1,0,0.2,0c0.1,0,0.3,0,0.3,0.1c0.1,0.1,0.1,0.2,0.1,0.3l0,0.6
				c0,0,0,0.1,0,0.1l-0.2,0L91.9,84.8z M91.9,84.4C91.9,84.4,91.9,84.4,91.9,84.4C91.8,84.4,91.8,84.4,91.9,84.4c-0.1,0-0.1,0-0.2,0
				c0,0-0.1,0-0.1,0c-0.1,0-0.1,0-0.1,0c0,0-0.1,0-0.1,0.1c0,0,0,0,0,0.1c0,0,0,0.1,0,0.1c0,0.1,0,0.1,0.1,0.1c0,0,0.1,0,0.2,0
				c0,0,0.1,0,0.1,0c0,0,0.1,0,0.1-0.1c0,0,0-0.1,0.1-0.1c0,0,0-0.1,0-0.1L91.9,84.4z"/>
		</g>
		<path fill="#7C4444" d="M92.9,84.9l-0.1-1c0,0,0-0.1,0-0.1l0.2,0l0,0.2c0,0,0,0,0-0.1c0,0,0,0,0.1-0.1c0,0,0.1,0,0.1-0.1
			c0,0,0.1,0,0.1,0c0,0,0,0,0.1,0c0,0,0,0,0.1,0l0,0.2c0,0-0.1,0-0.1,0c0,0-0.1,0-0.1,0c0,0-0.1,0-0.1,0.1c0,0,0,0.1-0.1,0.1
			c0,0,0,0.1,0,0.1l0,0.6L92.9,84.9z"/>
		<path fill="#7C4444" d="M93.7,83.7l0.2,0l0,0.6c0,0.1,0,0.2,0.1,0.2c0,0,0.1,0.1,0.2,0.1c0.1,0,0.1,0,0.1,0c0,0,0.1-0.1,0.1-0.1
			c0,0,0-0.1,0-0.1c0-0.1,0-0.1,0-0.2l0-0.5l0.2,0l0.1,1c0,0,0,0.1,0,0.1l-0.2,0l0-0.2c0,0,0,0,0,0.1c0,0,0,0-0.1,0.1
			s-0.1,0-0.1,0.1c0,0-0.1,0-0.1,0c-0.1,0-0.3,0-0.3-0.1c-0.1-0.1-0.1-0.2-0.1-0.3L93.7,83.7z"/>
	</g>
</g>
</svg>
