<?xml version="1.0" encoding="utf-8"?>
<!-- Generator: Adobe Illustrator 18.0.0, SVG Export Plug-In . SVG Version: 6.00 Build 0)  -->
<!DOCTYPE svg PUBLIC "-//W3C//DTD SVG 1.1//EN" "http://www.w3.org/Graphics/SVG/1.1/DTD/svg11.dtd">
<svg version="1.1" id="Слой_1" xmlns="http://www.w3.org/2000/svg" xmlns:xlink="http://www.w3.org/1999/xlink" x="0px" y="0px"
	 viewBox="0 0 215 215" enable-background="new 0 0 215 215" xml:space="preserve">
<linearGradient id="SVGID_1_" gradientUnits="userSpaceOnUse" x1="107.987" y1="30.1312" x2="107.987" y2="225.4102">
	<stop  offset="0" style="stop-color:#FFFFFF"/>
	<stop  offset="1" style="stop-color:#5FA297"/>
</linearGradient>
<ellipse fill="url(#SVGID_1_)" cx="108" cy="108" rx="102" ry="101.5"/>
<g>
	<path opacity="0.3" fill="#121313" d="M147,114.6H71.9c-0.9,0-1.6-0.7-1.6-1.6v0c0-0.9,0.7-1.6,1.6-1.6H147c0.9,0,1.6,0.7,1.6,1.6
		v0C148.6,113.8,147.9,114.6,147,114.6z"/>
	<polygon fill="#E4E4E5" points="78,64 78,74.8 88.2,64.1 	"/>
	<polygon fill="#E4E4E5" points="132.3,83 141,83 141,74.1 	"/>
	<g>
		<rect x="76.8" y="15.5" fill="#DD8E8B" width="65.9" height="0.7"/>
		<rect x="82.6" y="94.9" fill="#354858" width="7.1" height="18"/>
		<polygon fill="#D66A66" points="82.6,94.9 82.6,112.9 74.1,112.9 74.1,88.2 82.6,88.2 82.6,92.3 		"/>
		<rect x="79.1" y="45.2" fill="#CBBC6A" width="1.5" height="2.3"/>
		<g>
			<polygon fill="#6E645F" points="148.6,83.7 148.6,88.2 145.4,88.2 136.9,88.2 82.6,88.2 74.1,88.2 70.8,88.2 70.8,83.7 			"/>
			<rect x="70.8" y="82.6" fill="#BDABA1" width="77.9" height="1.1"/>
			<polygon fill="#A18C7F" points="145.4,88.2 145.4,112.9 136.9,112.9 136.9,94.9 136.9,92.3 136.9,88.2 			"/>
			<polygon fill="#FBF7E3" points="141.5,43.7 141.5,45.2 139.9,45.2 138.9,45.2 138.9,43.7 			"/>
			<rect x="138.9" y="45.2" fill="#CBBC6A" width="1.1" height="2.3"/>
			<path fill="#A18C7F" d="M148.6,82.6H70.8c0-4.4,4.6-9.7,8.9-9.7c0.2,0,0.5,0,0.9,0h58.3c0.4,0,0.7,0,0.9,0
				C144,72.8,148.6,78.2,148.6,82.6z"/>
			<rect x="80.6" y="45.2" fill="#CBBC6A" width="58.3" height="2.3"/>
			<rect x="80.6" y="43.7" fill="#FBF7E3" width="58.3" height="1.5"/>
			<rect x="80.6" y="18.9" fill="#F2E07D" width="58.3" height="0"/>
			<rect x="129.7" y="94.9" fill="#354858" width="7.1" height="18"/>
			<rect x="82.6" y="88.2" fill="#354858" width="54.3" height="4.1"/>
			<rect x="128.7" y="54.1" fill="#354858" width="4.4" height="14.1"/>
			<rect x="128.7" y="24.8" fill="#354858" width="4.4" height="14.1"/>
			<rect x="128.5" y="94.9" fill="#536D81" width="1.2" height="18"/>
			<rect x="128" y="54.1" fill="#FBF7E3" width="0.7" height="14.1"/>
			<rect x="128" y="24.8" fill="#FBF7E3" width="0.7" height="14.1"/>
			<rect x="118.5" y="94.9" fill="#354858" width="10" height="18"/>
			<rect x="123.6" y="54.1" fill="#354858" width="4.4" height="14.1"/>
			<rect x="123.6" y="24.8" fill="#354858" width="4.4" height="14.1"/>
			<polygon fill="#B15753" points="123.6,54.1 122.8,54.1 122.8,53.2 133.8,53.2 133.8,54.1 133.1,54.1 128.7,54.1 128,54.1 			"/>
			<polygon fill="#B15753" points="123.6,24.8 122.8,24.8 122.8,23.9 133.8,23.9 133.8,24.8 133.1,24.8 128.7,24.8 128,24.8 			"/>
			<polygon fill="#FBF7E3" points="123.6,38.9 128,38.9 128.7,38.9 133.1,38.9 133.8,38.9 133.8,40.4 122.8,40.4 122.8,38.9 			"/>
			<polygon fill="#FBF7E3" points="122.8,69.7 122.8,68.2 123.6,68.2 128,68.2 128.7,68.2 133.1,68.2 133.8,68.2 133.8,69.7 			"/>
			<polygon fill="#D66A66" points="122.8,53.2 121.6,53.2 121.6,52 135.1,52 135.1,53.2 133.8,53.2 			"/>
			<polygon fill="#D66A66" points="135.1,22.7 135.1,23.9 133.8,23.9 122.8,23.9 121.6,23.9 121.6,22.7 			"/>
			<polygon fill="#536D81" points="118.5,94.9 118.5,112.9 116.6,112.9 116.6,102 116.6,94.9 			"/>
			<path fill="#F2E07D" d="M116.6,102v10.9h-6.4V102h1.4c0,0.8,0.6,1.5,1.5,1.5c0.8,0,1.4-0.7,1.4-1.5H116.6z"/>
			<rect x="110.1" y="54.1" fill="#354858" width="4.4" height="14.1"/>
			<rect x="110.1" y="24.8" fill="#354858" width="4.4" height="14.1"/>
			<path fill="#FBF7E3" d="M113.1,100.6c0.8,0,1.4,0.6,1.4,1.5c0,0.8-0.6,1.5-1.4,1.5c-0.8,0-1.5-0.7-1.5-1.5
				C111.6,101.2,112.3,100.6,113.1,100.6z"/>
			<path fill="#F2E07D" d="M110.2,102v-7.1h6.4v7.1h-2.1c0-0.8-0.6-1.5-1.4-1.5c-0.8,0-1.5,0.6-1.5,1.5H110.2z"/>
			<polygon fill="#536D81" points="110.2,102 110.2,112.9 109.2,112.9 109.2,102 109.2,94.9 110.2,94.9 			"/>
			<rect x="109.3" y="54.1" fill="#FBF7E3" width="0.7" height="14.1"/>
			<rect x="109.3" y="24.8" fill="#FBF7E3" width="0.7" height="14.1"/>
			<rect x="105" y="54.1" fill="#354858" width="4.4" height="14.1"/>
			<rect x="105" y="24.8" fill="#354858" width="4.4" height="14.1"/>
			<path fill="#F2E07D" d="M106.4,103.5c0.8,0,1.5-0.7,1.5-1.5h1.4v10.9h-6.4V102h2.1C104.9,102.8,105.6,103.5,106.4,103.5z"/>
			<path fill="#F2E07D" d="M109.2,94.9v7.1h-1.4c0-0.8-0.7-1.5-1.5-1.5c-0.8,0-1.5,0.6-1.5,1.5h-2.1v-7.1H109.2z"/>
			<path fill="#FBF7E3" d="M106.4,100.6c0.8,0,1.5,0.6,1.5,1.5c0,0.8-0.7,1.5-1.5,1.5c-0.8,0-1.5-0.7-1.5-1.5
				C104.9,101.2,105.6,100.6,106.4,100.6z"/>
			<polygon fill="#B15753" points="115.2,53.2 115.2,54.1 114.5,54.1 110.1,54.1 109.3,54.1 105,54.1 104.2,54.1 104.2,53.2 			"/>
			<polygon fill="#B15753" points="104.2,23.9 115.2,23.9 115.2,24.8 114.5,24.8 110.1,24.8 109.3,24.8 105,24.8 104.2,24.8 			"/>
			<polygon fill="#FBF7E3" points="104.2,40.4 104.2,38.9 105,38.9 109.3,38.9 110.1,38.9 114.5,38.9 115.2,38.9 115.2,40.4 			"/>
			<polygon fill="#FBF7E3" points="105,68.2 109.3,68.2 110.1,68.2 114.5,68.2 115.2,68.2 115.2,69.7 104.2,69.7 104.2,68.2 			"/>
			<polygon fill="#D66A66" points="116.5,52 116.5,53.2 115.2,53.2 104.2,53.2 103,53.2 103,52 			"/>
			<polygon fill="#D66A66" points="116.5,22.7 116.5,23.9 115.2,23.9 104.2,23.9 103,23.9 103,22.7 			"/>
			<polygon fill="#536D81" points="102.8,102 102.8,112.9 101,112.9 101,94.9 102.8,94.9 			"/>
			<rect x="90.9" y="94.9" fill="#354858" width="10" height="18"/>
			<path fill="#F2E07D" d="M133.1,24.8h0.7v-0.8h1.3v-1.3h-13.5v1.3h1.3v0.8h0.7v14.1h-0.7v1.5h11v-1.5h-0.7V24.8z M116.5,23.9v-1.3
				H103v1.3h1.3v0.8h0.7v14.1h-0.7v1.5h11v-1.5h-0.7V24.8h0.7v-0.8H116.5z M96.6,24.8v-0.8h1.3v-1.3H84.4v1.3h1.3v0.8h0.7v14.1h-0.7
				v1.5h11v-1.5h-0.7V24.8H96.6z M138.9,18.9v24.8H80.6V18.9H138.9z"/>
			<path fill="#BDABA1" d="M133.8,54.1v-0.8h1.3V52h-13.5v1.3h1.3v0.8h0.7v14.1h-0.7v1.5h11v-1.5h-0.7V54.1H133.8z M115.2,54.1v-0.8
				h1.3V52H103v1.3h1.3v0.8h0.7v14.1h-0.7v1.5h11v-1.5h-0.7V54.1H115.2z M96.6,53.2h1.3V52H84.4v1.3h1.3v0.8h0.7v14.1h-0.7v1.5h11
				v-1.5h-0.7V54.1h0.7V53.2z M138.9,47.5v25.4H80.6V47.5H138.9z"/>
			<rect x="91.5" y="54.1" fill="#354858" width="4.4" height="14.1"/>
			<rect x="91.5" y="24.8" fill="#354858" width="4.4" height="14.1"/>
			<rect x="90.7" y="54.1" fill="#FBF7E3" width="0.7" height="14.1"/>
			<rect x="90.7" y="24.8" fill="#FBF7E3" width="0.7" height="14.1"/>
			<rect x="89.7" y="94.9" fill="#536D81" width="1.2" height="18"/>
			<rect x="86.3" y="54.1" fill="#354858" width="4.4" height="14.1"/>
			<rect x="86.3" y="24.8" fill="#354858" width="4.4" height="14.1"/>
			<polygon fill="#536D81" points="82.6,92.3 136.9,92.3 136.9,94.9 129.7,94.9 128.5,94.9 118.5,94.9 116.6,94.9 110.2,94.9 
				109.2,94.9 102.8,94.9 101,94.9 90.9,94.9 89.7,94.9 82.6,94.9 			"/>
			<polygon fill="#B15753" points="95.9,54.1 91.5,54.1 90.7,54.1 86.3,54.1 85.6,54.1 85.6,53.2 96.6,53.2 96.6,54.1 			"/>
			<polygon fill="#B15753" points="95.9,24.8 91.5,24.8 90.7,24.8 86.3,24.8 85.6,24.8 85.6,23.9 96.6,23.9 96.6,24.8 			"/>
			<polygon fill="#FBF7E3" points="85.6,40.4 85.6,38.9 86.3,38.9 90.7,38.9 91.5,38.9 95.9,38.9 96.6,38.9 96.6,40.4 			"/>
			<polygon fill="#FBF7E3" points="86.3,68.2 90.7,68.2 91.5,68.2 95.9,68.2 96.6,68.2 96.6,69.7 85.6,69.7 85.6,68.2 			"/>
			<polygon fill="#D66A66" points="85.6,53.2 84.4,53.2 84.4,52 97.9,52 97.9,53.2 96.6,53.2 			"/>
			<polygon fill="#D66A66" points="97.9,22.7 97.9,23.9 96.6,23.9 85.6,23.9 84.4,23.9 84.4,22.7 			"/>
			<polygon fill="#B15753" points="80.6,18.9 80.6,18.9 76.8,18.9 76.8,16.1 142.7,16.1 142.7,18.9 138.9,18.9 138.9,18.9 			"/>
		</g>
		<polygon fill="#FBF7E3" points="79.1,45.2 77.6,45.2 77.6,43.7 80.6,43.7 80.6,45.2 		"/>
	</g>
	<rect x="78" y="64" fill="#F5F7F7" width="63" height="19.2"/>
	<polygon fill="#E4E4E5" points="93,83.2 112,64 122,64 102.8,83.2 	"/>
	<polygon fill="#E4E4E5" points="129.8,64.3 111.1,83 114,83 133,64 	"/>
	<g opacity="0.2">
		<circle fill="#0D0F0F" cx="124.6" cy="75.6" r="0.7"/>
		<path fill="#0D0F0F" d="M92.6,78.2c0,0,0.3-0.3,0.3-0.3c0.1-0.1,0.1,0,0.1,0c-0.1-0.1,0.3,0.3,0.3,0.3S93,78.6,92.6,78.2z"/>
		<path fill="#0D0F0F" d="M96,77.5c-0.3-0.3,0-0.6,0-0.6s0.2,0.2,0.3,0.3c0,0,0,0.1,0,0.1C96.2,77.3,96,77.5,96,77.5z"/>
		<path fill="#0D0F0F" d="M95.8,77c-0.1,0.1-0.2,0.2-0.2,0.2c0,0-0.1,0.1,0,0.1c0,0,0.3,0.3,0.3,0.3C95.6,77.3,95.7,77,95.8,77z"/>
		<path fill="#0D0F0F" d="M95.8,72c0.3,0.3,0,0.6,0,0.6l-0.3-0.3L95.8,72z"/>
		<path fill="#0D0F0F" d="M95.9,71.9c0.4,0.4,0,0.7,0,0.7l0.4-0.4L95.9,71.9z"/>
		<path fill="#0D0F0F" d="M99.3,73.5c0.3,0.3,0,0.6,0,0.6s-0.2-0.2-0.2-0.2c0,0,0-0.1,0-0.1C99.1,73.7,99.3,73.5,99.3,73.5z"/>
		<path fill="#0D0F0F" d="M90.6,73.5c-0.3,0.3,0,0.6,0,0.6l0.3-0.3L90.6,73.5z"/>
		<path fill="#0D0F0F" d="M94.3,70.4c-0.3-0.3-0.6,0-0.6,0l0.3,0.3L94.3,70.4z"/>
		<path fill="#0D0F0F" d="M95.7,74.9l-0.2,0.2c0,0-0.1,0-0.2,0l-0.2-0.2c0,0,0-0.1,0-0.2l0.2-0.2c0,0,0.1,0,0.2,0l0.2,0.2
			C95.8,74.7,95.8,74.8,95.7,74.9z"/>
		<path fill="#0D0F0F" d="M96.2,75.4L96,75.5c0,0-0.1,0-0.2,0l-0.2-0.2c0,0,0-0.1,0-0.2l0.2-0.2c0,0,0.1,0,0.2,0l0.2,0.2
			C96.2,75.2,96.2,75.3,96.2,75.4z"/>
		<path fill="#0D0F0F" d="M96.7,74.9l-0.2,0.2c0,0-0.1,0-0.2,0l-0.2-0.2c0,0,0-0.1,0-0.2l0.2-0.2c0,0,0.1,0,0.2,0l0.2,0.2
			C96.7,74.7,96.7,74.8,96.7,74.9z"/>
		<path fill="#0D0F0F" d="M96.2,74.4L96,74.6c0,0-0.1,0-0.2,0l-0.2-0.2c0,0,0-0.1,0-0.2l0.2-0.2c0,0,0.1,0,0.2,0l0.2,0.2
			C96.2,74.2,96.2,74.3,96.2,74.4z"/>
		<path fill="#0D0F0F" d="M96.7,73.9l-0.2,0.2c0,0-0.1,0-0.2,0l-0.2-0.2c0,0,0-0.1,0-0.2l0.2-0.2c0,0,0.1,0,0.2,0l0.2,0.2
			C96.7,73.7,96.7,73.8,96.7,73.9z"/>
		<path fill="#0D0F0F" d="M97.2,73.4L97,73.6c0,0-0.1,0-0.2,0l-0.2-0.2c0,0,0-0.1,0-0.2l0.2-0.2c0,0,0.1,0,0.2,0l0.2,0.2
			C97.2,73.3,97.2,73.3,97.2,73.4z"/>
		<path fill="#0D0F0F" d="M96.7,72.9l-0.2,0.2c0,0-0.1,0-0.2,0l-0.2-0.2c0,0,0-0.1,0-0.2l0.2-0.2c0,0,0.1,0,0.2,0l0.2,0.2
			C96.7,72.8,96.7,72.8,96.7,72.9z"/>
		<path fill="#0D0F0F" d="M96.2,73.4L96,73.6c0,0-0.1,0-0.2,0l-0.2-0.2c0,0,0-0.1,0-0.2l0.2-0.2c0,0,0.1,0,0.2,0l0.2,0.2
			C96.2,73.2,96.2,73.3,96.2,73.4z"/>
		<path fill="#0D0F0F" d="M95.7,73.9l-0.2,0.2c0,0-0.1,0-0.2,0l-0.2-0.2c0,0,0-0.1,0-0.2l0.2-0.2c0,0,0.1,0,0.2,0l0.2,0.2
			C95.7,73.7,95.7,73.8,95.7,73.9z"/>
		<path fill="#0D0F0F" d="M95.2,74.4L95,74.6c0,0-0.1,0-0.2,0l-0.2-0.2c0,0,0-0.1,0-0.2l0.2-0.2c0,0,0.1,0,0.2,0l0.2,0.2
			C95.2,74.2,95.2,74.3,95.2,74.4z"/>
		<path fill="#0D0F0F" d="M94.7,74.8L94.5,75c0,0-0.1,0-0.2,0l-0.2-0.2c0,0,0-0.1,0-0.2l0.2-0.2c0,0,0.1,0,0.2,0l0.2,0.2
			C94.8,74.7,94.8,74.8,94.7,74.8z"/>
		<path fill="#0D0F0F" d="M94.2,75.3L94,75.5c0,0-0.1,0-0.2,0l-0.2-0.2c0,0,0-0.1,0-0.2l0.2-0.2c0,0,0.1,0,0.2,0l0.2,0.2
			C94.3,75.2,94.3,75.3,94.2,75.3z"/>
		<path fill="#0D0F0F" d="M94.7,75.8L94.5,76c0,0-0.1,0-0.2,0l-0.2-0.2c0,0,0-0.1,0-0.2l0.2-0.2c0,0,0.1,0,0.2,0l0.2,0.2
			C94.8,75.7,94.8,75.8,94.7,75.8z"/>
		<path fill="#0D0F0F" d="M95.2,75.3L95,75.5c0,0-0.1,0-0.2,0l-0.2-0.2c0,0,0-0.1,0-0.2l0.2-0.2c0,0,0.1,0,0.2,0l0.2,0.2
			C95.3,75.2,95.3,75.3,95.2,75.3z"/>
		<path fill="#0D0F0F" d="M95.7,75.8L95.5,76c0,0-0.1,0-0.2,0l-0.2-0.2c0,0,0-0.1,0-0.2l0.2-0.2c0,0,0.1,0,0.2,0l0.2,0.2
			C95.8,75.7,95.8,75.8,95.7,75.8z"/>
		<path fill="#0D0F0F" d="M95.2,76.3L95,76.5c0,0-0.1,0-0.2,0l-0.2-0.2c0,0,0-0.1,0-0.2l0.2-0.2c0,0,0.1,0,0.2,0l0.2,0.2
			C95.3,76.2,95.3,76.3,95.2,76.3z"/>
		<path fill="#0D0F0F" d="M95.7,76.8L95.5,77c0,0-0.1,0-0.2,0l-0.2-0.2c0,0,0-0.1,0-0.2l0.2-0.2c0,0,0.1,0,0.2,0l0.2,0.2
			C95.7,76.7,95.7,76.8,95.7,76.8z"/>
		<path fill="#0D0F0F" d="M95.2,77.3L95,77.5c0,0-0.1,0-0.2,0l-0.2-0.2c0,0,0-0.1,0-0.2l0.2-0.2c0,0,0.1,0,0.2,0l0.2,0.2
			C95.3,77.2,95.3,77.2,95.2,77.3z"/>
		<path fill="#0D0F0F" d="M95.7,77.8L95.5,78c0,0-0.1,0-0.2,0l-0.2-0.2c0,0,0-0.1,0-0.2l0.2-0.2c0,0,0.1,0,0.2,0l0.2,0.2
			C95.8,77.7,95.8,77.7,95.7,77.8z"/>
		<path fill="#0D0F0F" d="M95.2,78.3L95,78.5c0,0-0.1,0-0.2,0l-0.2-0.2c0,0,0-0.1,0-0.2l0.2-0.2c0,0,0.1,0,0.2,0l0.2,0.2
			C95.3,78.2,95.3,78.2,95.2,78.3z"/>
		<path fill="#0D0F0F" d="M94.7,77.8L94.5,78c0,0-0.1,0-0.2,0l-0.2-0.2c0,0,0-0.1,0-0.2l0.2-0.2c0,0,0.1,0,0.2,0l0.2,0.2
			C94.8,77.7,94.8,77.7,94.7,77.8z"/>
		<path fill="#0D0F0F" d="M94.7,76.8L94.5,77c0,0-0.1,0-0.2,0l-0.2-0.2c0,0,0-0.1,0-0.2l0.2-0.2c0,0,0.1,0,0.2,0l0.2,0.2
			C94.8,76.7,94.8,76.8,94.7,76.8z"/>
		<path fill="#0D0F0F" d="M94.2,77.3L94,77.5c0,0-0.1,0-0.2,0l-0.2-0.2c0,0,0-0.1,0-0.2l0.2-0.2c0,0,0.1,0,0.2,0l0.2,0.2
			C94.3,77.2,94.3,77.3,94.2,77.3z"/>
		<path fill="#0D0F0F" d="M93.8,77.8L93.6,78c0,0-0.1,0-0.2,0l-0.2-0.2c0,0,0-0.1,0-0.2l0.2-0.2c0,0,0.1,0,0.2,0l0.2,0.2
			C93.8,77.7,93.8,77.7,93.8,77.8z"/>
		<path fill="#0D0F0F" d="M93.3,77.3l-0.2,0.2c0,0-0.1,0-0.2,0l-0.2-0.2c0,0,0-0.1,0-0.2l0.2-0.2c0,0,0.1,0,0.2,0l0.2,0.2
			C93.3,77.2,93.3,77.2,93.3,77.3z"/>
		<path fill="#0D0F0F" d="M92.5,77.3c0,0,0.3,0.3,0.3,0.3c0.1,0.1,0,0.1,0,0.1c0.1-0.1-0.3,0.3-0.3,0.3S92.2,77.7,92.5,77.3z"/>
		<path fill="#0D0F0F" d="M91.1,77.7c0,0,0.3-0.3,0.3-0.3c0.1-0.1,0.1,0,0.1,0c-0.1-0.1,0.3,0.3,0.3,0.3S91.5,78.1,91.1,77.7z"/>
		<path fill="#0D0F0F" d="M91,76.9c0,0,0.3,0.3,0.3,0.3c0.1,0.1,0,0.1,0,0.1c0.1-0.1-0.3,0.3-0.3,0.3S90.7,77.2,91,76.9z"/>
		<path fill="#0D0F0F" d="M89.7,77.2c0,0,0.3-0.3,0.3-0.3c0.1-0.1,0.1,0,0.1,0c-0.1-0.1,0.3,0.3,0.3,0.3S90,77.6,89.7,77.2z"/>
		<path fill="#0D0F0F" d="M89.5,76.3c0,0,0.3,0.3,0.3,0.3c0.1,0.1,0,0.1,0,0.1c0.1-0.1-0.3,0.3-0.3,0.3S89.2,76.7,89.5,76.3z"/>
		<path fill="#0D0F0F" d="M94.1,78.7c0,0,0.3-0.3,0.3-0.3c0.1-0.1,0.1,0,0.1,0c-0.1-0.1,0.3,0.3,0.3,0.3S94.5,79,94.1,78.7z"/>
		<path fill="#0D0F0F" d="M94,77.8c0,0,0.3,0.3,0.3,0.3c0.1,0.1,0,0.1,0,0.1c0.1-0.1-0.3,0.3-0.3,0.3S93.6,78.2,94,77.8z"/>
		<path fill="#0D0F0F" d="M93.7,76.8L93.6,77c0,0-0.1,0-0.2,0l-0.2-0.2c0,0,0-0.1,0-0.2l0.2-0.2c0,0,0.1,0,0.2,0l0.2,0.2
			C93.8,76.7,93.8,76.8,93.7,76.8z"/>
		<path fill="#0D0F0F" d="M92.8,76.8L92.6,77c0,0-0.1,0-0.2,0l-0.2-0.2c0,0,0-0.1,0-0.2l0.2-0.2c0,0,0.1,0,0.2,0l0.2,0.2
			C92.8,76.7,92.8,76.7,92.8,76.8z"/>
		<path fill="#0D0F0F" d="M92.3,77.3l-0.2,0.2c0,0-0.1,0-0.2,0l-0.2-0.2c0,0,0-0.1,0-0.2l0.2-0.2c0,0,0.1,0,0.2,0l0.2,0.2
			C92.3,77.2,92.3,77.2,92.3,77.3z"/>
		<path fill="#0D0F0F" d="M91.8,76.8L91.6,77c0,0-0.1,0-0.2,0l-0.2-0.2c0,0,0-0.1,0-0.2l0.2-0.2c0,0,0.1,0,0.2,0l0.2,0.2
			C91.8,76.7,91.8,76.7,91.8,76.8z"/>
		<path fill="#0D0F0F" d="M92.3,76.3l-0.2,0.2c0,0-0.1,0-0.2,0l-0.2-0.2c0,0,0-0.1,0-0.2l0.2-0.2c0,0,0.1,0,0.2,0l0.2,0.2
			C92.3,76.2,92.3,76.3,92.3,76.3z"/>
		<path fill="#0D0F0F" d="M94.2,76.3L94,76.5c0,0-0.1,0-0.2,0l-0.2-0.2c0,0,0-0.1,0-0.2l0.2-0.2c0,0,0.1,0,0.2,0l0.2,0.2
			C94.3,76.2,94.3,76.3,94.2,76.3z"/>
		<path fill="#0D0F0F" d="M94.7,75.8L94.5,76c0,0-0.1,0-0.2,0l-0.2-0.2c0,0,0-0.1,0-0.2l0.2-0.2c0,0,0.1,0,0.2,0l0.2,0.2
			C94.8,75.7,94.8,75.8,94.7,75.8z"/>
		<path fill="#0D0F0F" d="M93.3,76.3l-0.2,0.2c0,0-0.1,0-0.2,0l-0.2-0.2c0,0,0-0.1,0-0.2l0.2-0.2c0,0,0.1,0,0.2,0l0.2,0.2
			C93.3,76.2,93.3,76.3,93.3,76.3z"/>
		<path fill="#0D0F0F" d="M93.7,75.8L93.5,76c0,0-0.1,0-0.2,0l-0.2-0.2c0,0,0-0.1,0-0.2l0.2-0.2c0,0,0.1,0,0.2,0l0.2,0.2
			C93.8,75.7,93.8,75.8,93.7,75.8z"/>
		<path fill="#0D0F0F" d="M92.8,75.8L92.6,76c0,0-0.1,0-0.2,0l-0.2-0.2c0,0,0-0.1,0-0.2l0.2-0.2c0,0,0.1,0,0.2,0l0.2,0.2
			C92.8,75.7,92.8,75.8,92.8,75.8z"/>
		<path fill="#0D0F0F" d="M93.3,75.3l-0.2,0.2c0,0-0.1,0-0.2,0l-0.2-0.2c0,0,0-0.1,0-0.2l0.2-0.2c0,0,0.1,0,0.2,0l0.2,0.2
			C93.3,75.2,93.3,75.3,93.3,75.3z"/>
		<path fill="#0D0F0F" d="M92.3,75.3l-0.2,0.2c0,0-0.1,0-0.2,0l-0.2-0.2c0,0,0-0.1,0-0.2l0.2-0.2c0,0,0.1,0,0.2,0l0.2,0.2
			C92.3,75.2,92.3,75.3,92.3,75.3z"/>
		<path fill="#0D0F0F" d="M92.8,74.8L92.6,75c0,0-0.1,0-0.2,0l-0.2-0.2c0,0,0-0.1,0-0.2l0.2-0.2c0,0,0.1,0,0.2,0l0.2,0.2
			C92.8,74.7,92.8,74.8,92.8,74.8z"/>
		<path fill="#0D0F0F" d="M91.8,74.9L91.6,75c0,0-0.1,0-0.2,0l-0.2-0.2c0,0,0-0.1,0-0.2l0.2-0.2c0,0,0.1,0,0.2,0l0.2,0.2
			C91.8,74.7,91.8,74.8,91.8,74.9z"/>
		<path fill="#0D0F0F" d="M92.3,74.4l-0.2,0.2c0,0-0.1,0-0.2,0l-0.2-0.2c0,0,0-0.1,0-0.2l0.2-0.2c0,0,0.1,0,0.2,0l0.2,0.2
			C92.3,74.2,92.3,74.3,92.3,74.4z"/>
		<path fill="#0D0F0F" d="M90.3,76.3l-0.2,0.2c0,0-0.1,0-0.2,0l-0.2-0.2c0,0,0-0.1,0-0.2l0.2-0.2c0,0,0.1,0,0.2,0l0.2,0.2
			C90.4,76.2,90.4,76.3,90.3,76.3z"/>
		<path fill="#0D0F0F" d="M90.8,75.8L90.6,76c0,0-0.1,0-0.2,0l-0.2-0.2c0,0,0-0.1,0-0.2l0.2-0.2c0,0,0.1,0,0.2,0l0.2,0.2
			C90.9,75.7,90.9,75.8,90.8,75.8z"/>
		<path fill="#0D0F0F" d="M91.3,75.3l-0.2,0.2c0,0-0.1,0-0.2,0l-0.2-0.2c0,0,0-0.1,0-0.2l0.2-0.2c0,0,0.1,0,0.2,0l0.2,0.2
			C91.4,75.2,91.4,75.3,91.3,75.3z"/>
		<path fill="#0D0F0F" d="M92.8,73.9l-0.2,0.2c0,0-0.1,0-0.2,0l-0.2-0.2c0,0,0-0.1,0-0.2l0.2-0.2c0,0,0.1,0,0.2,0l0.2,0.2
			C92.8,73.7,92.8,73.8,92.8,73.9z"/>
		<path fill="#0D0F0F" d="M93.8,72.9l-0.2,0.2c0,0-0.1,0-0.2,0l-0.2-0.2c0,0,0-0.1,0-0.2l0.2-0.2c0,0,0.1,0,0.2,0l0.2,0.2
			C93.8,72.8,93.8,72.9,93.8,72.9z"/>
		<path fill="#0D0F0F" d="M94.2,72.4L94,72.6c0,0-0.1,0-0.2,0l-0.2-0.2c0,0,0-0.1,0-0.2l0.2-0.2c0,0,0.1,0,0.2,0l0.2,0.2
			C94.3,72.3,94.3,72.4,94.2,72.4z"/>
		<path fill="#0D0F0F" d="M93.3,73.4l-0.2,0.2c0,0-0.1,0-0.2,0l-0.2-0.2c0,0,0-0.1,0-0.2l0.2-0.2c0,0,0.1,0,0.2,0l0.2,0.2
			C93.3,73.3,93.3,73.3,93.3,73.4z"/>
		<path fill="#0D0F0F" d="M96.7,70.9l-0.2,0.2c0,0-0.1,0-0.2,0l-0.2-0.2c0,0,0-0.1,0-0.2l0.2-0.2c0,0,0.1,0,0.2,0l0.2,0.2
			C96.7,70.8,96.7,70.9,96.7,70.9z"/>
		<path fill="#0D0F0F" d="M97.2,71.4L97,71.6c0,0-0.1,0-0.2,0l-0.2-0.2c0,0,0-0.1,0-0.2l0.2-0.2c0,0,0.1,0,0.2,0l0.2,0.2
			C97.2,71.3,97.2,71.4,97.2,71.4z"/>
		<path fill="#0D0F0F" d="M97.7,71.9l-0.2,0.2c0,0-0.1,0-0.2,0l-0.2-0.2c0,0,0-0.1,0-0.2l0.2-0.2c0,0,0.1,0,0.2,0l0.2,0.2
			C97.7,71.8,97.7,71.9,97.7,71.9z"/>
		<path fill="#0D0F0F" d="M96.2,71.4L96,71.6c0,0-0.1,0-0.2,0l-0.2-0.2c0,0,0-0.1,0-0.2l0.2-0.2c0,0,0.1,0,0.2,0l0.2,0.2
			C96.2,71.3,96.2,71.4,96.2,71.4z"/>
		<path fill="#0D0F0F" d="M96.7,71.9l-0.2,0.2c0,0-0.1,0-0.2,0l-0.2-0.2c0,0,0-0.1,0-0.2l0.2-0.2c0,0,0.1,0,0.2,0l0.2,0.2
			C96.7,71.8,96.7,71.9,96.7,71.9z"/>
		<path fill="#0D0F0F" d="M97.2,72.4L97,72.6c0,0-0.1,0-0.2,0l-0.2-0.2c0,0,0-0.1,0-0.2l0.2-0.2c0,0,0.1,0,0.2,0l0.2,0.2
			C97.2,72.3,97.2,72.3,97.2,72.4z"/>
		<path fill="#0D0F0F" d="M97.7,72.9l-0.2,0.2c0,0-0.1,0-0.2,0l-0.2-0.2c0,0,0-0.1,0-0.2l0.2-0.2c0,0,0.1,0,0.2,0l0.2,0.2
			C97.7,72.8,97.7,72.9,97.7,72.9z"/>
		<path fill="#0D0F0F" d="M98.2,73.4L98,73.6c0,0-0.1,0-0.2,0l-0.2-0.2c0,0,0-0.1,0-0.2l0.2-0.2c0,0,0.1,0,0.2,0l0.2,0.2
			C98.2,73.3,98.2,73.3,98.2,73.4z"/>
		<path fill="#0D0F0F" d="M98.6,73.9l-0.2,0.2c0,0-0.1,0-0.2,0l-0.2-0.2c0,0,0-0.1,0-0.2l0.2-0.2c0,0,0.1,0,0.2,0l0.2,0.2
			C98.7,73.7,98.7,73.8,98.6,73.9z"/>
		<path fill="#0D0F0F" d="M98.2,72.4L98,72.6c0,0-0.1,0-0.2,0l-0.2-0.2c0,0,0-0.1,0-0.2l0.2-0.2c0,0,0.1,0,0.2,0l0.2,0.2
			C98.2,72.3,98.2,72.4,98.2,72.4z"/>
		<path fill="#0D0F0F" d="M98.6,72.9l-0.2,0.2c0,0-0.1,0-0.2,0l-0.2-0.2c0,0,0-0.1,0-0.2l0.2-0.2c0,0,0.1,0,0.2,0l0.2,0.2
			C98.7,72.8,98.7,72.8,98.6,72.9z"/>
		<path fill="#0D0F0F" d="M99.1,73.4l-0.2,0.2c0,0-0.1,0-0.2,0l-0.2-0.2c0,0,0-0.1,0-0.2l0.2-0.2c0,0,0.1,0,0.2,0l0.2,0.2
			C99.2,73.3,99.2,73.3,99.1,73.4z"/>
		<path fill="#0D0F0F" d="M99.1,74.4l-0.2,0.2c0,0-0.1,0-0.2,0l-0.2-0.2c0,0,0-0.1,0-0.2l0.2-0.2c0,0,0.1,0,0.2,0l0.2,0.2
			C99.2,74.2,99.2,74.3,99.1,74.4z"/>
		<path fill="#0D0F0F" d="M95.6,70.4c0.3-0.3,0.6,0,0.6,0S96,70.6,96,70.7c0,0-0.1,0-0.1,0C95.8,70.6,95.6,70.4,95.6,70.4z"/>
		<path fill="#0D0F0F" d="M95.7,70.9l-0.2,0.2c0,0-0.1,0-0.2,0l-0.2-0.2c0,0,0-0.1,0-0.2l0.2-0.2c0,0,0.1,0,0.2,0l0.2,0.2
			C95.8,70.8,95.8,70.9,95.7,70.9z"/>
		<path fill="#0D0F0F" d="M97.4,70.3l-0.2,0.2c0,0-0.1,0-0.2,0l-0.2-0.2c0,0,0-0.1,0-0.2L97,70c0,0,0.1,0,0.2,0l0.2,0.2
			C97.5,70.2,97.5,70.3,97.4,70.3z"/>
		<path fill="#0D0F0F" d="M97.9,70.8L97.7,71c0,0-0.1,0-0.2,0l-0.2-0.2c0,0,0-0.1,0-0.2l0.2-0.2c0,0,0.1,0,0.2,0l0.2,0.2
			C97.9,70.7,97.9,70.8,97.9,70.8z"/>
		<path fill="#0D0F0F" d="M98.4,71.3l-0.2,0.2c0,0-0.1,0-0.2,0l-0.2-0.2c0,0,0-0.1,0-0.2l0.2-0.2c0,0,0.1,0,0.2,0l0.2,0.2
			C98.4,71.2,98.4,71.3,98.4,71.3z"/>
		<path fill="#0D0F0F" d="M98.9,71.8L98.7,72c0,0-0.1,0-0.2,0l-0.2-0.2c0,0,0-0.1,0-0.2l0.2-0.2c0,0,0.1,0,0.2,0l0.2,0.2
			C98.9,71.7,98.9,71.8,98.9,71.8z"/>
		<path fill="#0D0F0F" d="M99.4,72.3l-0.2,0.2c0,0-0.1,0-0.2,0l-0.2-0.2c0,0,0-0.1,0-0.2l0.2-0.2c0,0,0.1,0,0.2,0l0.2,0.2
			C99.4,72.2,99.4,72.2,99.4,72.3z"/>
		<path fill="#0D0F0F" d="M99.9,72.8L99.7,73c0,0-0.1,0-0.2,0l-0.2-0.2c0,0,0-0.1,0-0.2l0.2-0.2c0,0,0.1,0,0.2,0l0.2,0.2
			C99.9,72.6,99.9,72.7,99.9,72.8z"/>
		<path fill="#0D0F0F" d="M97.9,69.8L97.7,70c0,0-0.1,0-0.2,0l-0.2-0.2c0,0,0-0.1,0-0.2l0.2-0.2c0,0,0.1,0,0.2,0l0.2,0.2
			C98,69.7,98,69.8,97.9,69.8z"/>
		<path fill="#0D0F0F" d="M98.4,70.3l-0.2,0.2c0,0-0.1,0-0.2,0l-0.2-0.2c0,0,0-0.1,0-0.2l0.2-0.2c0,0,0.1,0,0.2,0l0.2,0.2
			C98.4,70.2,98.4,70.3,98.4,70.3z"/>
		<path fill="#0D0F0F" d="M98.9,70.8L98.7,71c0,0-0.1,0-0.2,0l-0.2-0.2c0,0,0-0.1,0-0.2l0.2-0.2c0,0,0.1,0,0.2,0l0.2,0.2
			C98.9,70.7,98.9,70.8,98.9,70.8z"/>
		<path fill="#0D0F0F" d="M99.4,71.3l-0.2,0.2c0,0-0.1,0-0.2,0l-0.2-0.2c0,0,0-0.1,0-0.2l0.2-0.2c0,0,0.1,0,0.2,0l0.2,0.2
			C99.4,71.2,99.4,71.2,99.4,71.3z"/>
		<path fill="#0D0F0F" d="M99.9,71.8L99.7,72c0,0-0.1,0-0.2,0l-0.2-0.2c0,0,0-0.1,0-0.2l0.2-0.2c0,0,0.1,0,0.2,0l0.2,0.2
			C99.9,71.6,99.9,71.7,99.9,71.8z"/>
		<path fill="#0D0F0F" d="M100.4,72.3l-0.2,0.2c0,0-0.1,0-0.2,0l-0.2-0.2c0,0,0-0.1,0-0.2l0.2-0.2c0,0,0.1,0,0.2,0l0.2,0.2
			C100.4,72.1,100.4,72.2,100.4,72.3z"/>
		<path fill="#0D0F0F" d="M97.2,78.2c0,0-0.3-0.3-0.3-0.3c-0.1-0.1-0.1,0-0.1,0c0.1-0.1-0.3,0.3-0.3,0.3S96.9,78.5,97.2,78.2z"/>
		<path fill="#0D0F0F" d="M97.3,77.3c0,0-0.3,0.3-0.3,0.3c-0.1,0.1,0,0.1,0,0.1c-0.1-0.1,0.3,0.3,0.3,0.3S97.7,77.7,97.3,77.3z"/>
		<path fill="#0D0F0F" d="M98.7,77.7c0,0-0.3-0.3-0.3-0.3c-0.1-0.1-0.1,0-0.1,0c0.1-0.1-0.3,0.3-0.3,0.3S98.4,78.1,98.7,77.7z"/>
		<path fill="#0D0F0F" d="M98.8,76.8c0,0-0.3,0.3-0.3,0.3c-0.1,0.1,0,0.1,0,0.1c-0.1-0.1,0.3,0.3,0.3,0.3S99.2,77.2,98.8,76.8z"/>
		<path fill="#0D0F0F" d="M100.2,77.2c0,0-0.3-0.3-0.3-0.3c-0.1-0.1-0.1,0-0.1,0c0.1-0.1-0.3,0.3-0.3,0.3S99.9,77.6,100.2,77.2z"/>
		<path fill="#0D0F0F" d="M100.3,76.3c0,0-0.3,0.3-0.3,0.3c-0.1,0.1,0,0.1,0,0.1c-0.1-0.1,0.3,0.3,0.3,0.3S100.7,76.7,100.3,76.3z"
			/>
		<path fill="#0D0F0F" d="M95.8,78.7c0,0-0.3-0.3-0.3-0.3c-0.1-0.1-0.1,0-0.1,0c0.1-0.1-0.3,0.3-0.3,0.3S95.4,79,95.8,78.7z"/>
		<path fill="#0D0F0F" d="M95.9,77.8c0,0-0.3,0.3-0.3,0.3c-0.1,0.1,0,0.1,0,0.1c-0.1-0.1,0.3,0.3,0.3,0.3S96.2,78.2,95.9,77.8z"/>
		<path fill="#0D0F0F" d="M96.7,77.8L96.5,78c0,0-0.1,0-0.2,0l-0.2-0.2c0,0,0-0.1,0-0.2l0.2-0.2c0,0,0.1,0,0.2,0l0.2,0.2
			C96.7,77.7,96.7,77.7,96.7,77.8z"/>
		<path fill="#0D0F0F" d="M97.2,77.3L97,77.5c0,0-0.1,0-0.2,0l-0.2-0.2c0,0,0-0.1,0-0.2l0.2-0.2c0,0,0.1,0,0.2,0l0.2,0.2
			C97.2,77.2,97.2,77.2,97.2,77.3z"/>
		<path fill="#0D0F0F" d="M97.6,76.8L97.4,77c0,0-0.1,0-0.2,0l-0.2-0.2c0,0,0-0.1,0-0.2l0.2-0.2c0,0,0.1,0,0.2,0l0.2,0.2
			C97.7,76.7,97.7,76.8,97.6,76.8z"/>
		<path fill="#0D0F0F" d="M98.1,76.3l-0.2,0.2c0,0-0.1,0-0.2,0l-0.2-0.2c0,0,0-0.1,0-0.2l0.2-0.2c0,0,0.1,0,0.2,0l0.2,0.2
			C98.2,76.2,98.2,76.3,98.1,76.3z"/>
		<path fill="#0D0F0F" d="M98.1,77.3l-0.2,0.2c0,0-0.1,0-0.2,0l-0.2-0.2c0,0,0-0.1,0-0.2l0.2-0.2c0,0,0.1,0,0.2,0l0.2,0.2
			C98.2,77.2,98.2,77.3,98.1,77.3z"/>
		<path fill="#0D0F0F" d="M98.6,76.8L98.4,77c0,0-0.1,0-0.2,0l-0.2-0.2c0,0,0-0.1,0-0.2l0.2-0.2c0,0,0.1,0,0.2,0l0.2,0.2
			C98.7,76.7,98.7,76.8,98.6,76.8z"/>
		<path fill="#0D0F0F" d="M96.7,76.8c-0.3-0.3-0.6,0-0.6,0s0.2,0.2,0.3,0.3c0,0,0.1,0,0.1,0C96.5,77,96.7,76.8,96.7,76.8z"/>
		<path fill="#0D0F0F" d="M96.1,76.6c0.1-0.1,0.2-0.2,0.2-0.2c0,0,0.1-0.1,0.1,0c0,0,0.3,0.3,0.3,0.3C96.4,76.4,96.2,76.5,96.1,76.6
			z"/>
		<path fill="#0D0F0F" d="M96.5,76.1c-0.3-0.3,0-0.6,0-0.6s0.2,0.2,0.3,0.3c0,0,0,0.1,0,0.1C96.7,75.8,96.5,76.1,96.5,76.1z"/>
		<path fill="#0D0F0F" d="M96.3,75.5c-0.1,0.1-0.2,0.2-0.2,0.2c0,0-0.1,0.1,0,0.1c0,0,0.3,0.3,0.3,0.3
			C96.1,75.8,96.2,75.6,96.3,75.5z"/>
		<path fill="#0D0F0F" d="M97.2,75.3c-0.3-0.3-0.6,0-0.6,0s0.2,0.2,0.3,0.3c0,0,0.1,0,0.1,0C97,75.6,97.2,75.3,97.2,75.3z"/>
		<path fill="#0D0F0F" d="M96.6,75.2c0.1-0.1,0.2-0.2,0.2-0.2c0,0,0.1-0.1,0.1,0c0,0,0.3,0.3,0.3,0.3C96.9,74.9,96.7,75.1,96.6,75.2
			z"/>
		<path fill="#0D0F0F" d="M97,74.6c-0.3-0.3,0-0.6,0-0.6s0.2,0.2,0.3,0.3c0,0,0,0.1,0,0.1C97.2,74.3,97,74.6,97,74.6z"/>
		<path fill="#0D0F0F" d="M96.8,74c-0.1,0.1-0.2,0.2-0.2,0.2c0,0-0.1,0.1,0,0.1c0,0,0.3,0.3,0.3,0.3C96.6,74.3,96.7,74.1,96.8,74z"
			/>
		<path fill="#0D0F0F" d="M97.7,73.8c-0.3-0.3-0.6,0-0.6,0s0.2,0.2,0.3,0.3c0,0,0.1,0,0.1,0C97.5,74.1,97.7,73.8,97.7,73.8z"/>
		<path fill="#0D0F0F" d="M97.1,73.7c0.1-0.1,0.2-0.2,0.2-0.2c0,0,0.1-0.1,0.1,0c0,0,0.3,0.3,0.3,0.3C97.4,73.5,97.2,73.6,97.1,73.7
			z"/>
		<path fill="#0D0F0F" d="M93.8,74.7c-0.3,0.3-0.6,0-0.6,0s0.2-0.2,0.3-0.3c0,0,0.1,0,0.1,0C93.5,74.5,93.8,74.7,93.8,74.7z"/>
		<path fill="#0D0F0F" d="M93.2,74.9c0.1,0.1,0.2,0.2,0.2,0.2c0,0,0.1,0.1,0.1,0c0,0,0.3-0.3,0.3-0.3C93.5,75.1,93.3,75,93.2,74.9z"
			/>
		<path fill="#0D0F0F" d="M93,74c-0.3,0.3,0,0.6,0,0.6s0.2-0.2,0.3-0.3c0,0,0-0.1,0-0.1C93.3,74.2,93,74,93,74z"/>
		<path fill="#0D0F0F" d="M92.8,74.5c-0.1-0.1-0.2-0.2-0.2-0.2c0,0-0.1-0.1,0-0.1c0,0,0.3-0.3,0.3-0.3
			C92.6,74.2,92.8,74.5,92.8,74.5z"/>
		<path fill="#0D0F0F" d="M94.2,74.4L94,74.6c0,0-0.1,0-0.2,0l-0.2-0.2c0,0,0-0.1,0-0.2l0.2-0.2c0,0,0.1,0,0.2,0l0.2,0.2
			C94.3,74.2,94.3,74.3,94.2,74.4z"/>
		<path fill="#0D0F0F" d="M97.2,76.3L97,76.5c0,0-0.1,0-0.2,0l-0.2-0.2c0,0,0-0.1,0-0.2l0.2-0.2c0,0,0.1,0,0.2,0l0.2,0.2
			C97.2,76.2,97.2,76.3,97.2,76.3z"/>
		<path fill="#0D0F0F" d="M97.7,75.8L97.5,76c0,0-0.1,0-0.2,0l-0.2-0.2c0,0,0-0.1,0-0.2l0.2-0.2c0,0,0.1,0,0.2,0l0.2,0.2
			C97.7,75.7,97.7,75.8,97.7,75.8z"/>
		<path fill="#0D0F0F" d="M98.6,75.8L98.4,76c0,0-0.1,0-0.2,0l-0.2-0.2c0,0,0-0.1,0-0.2l0.2-0.2c0,0,0.1,0,0.2,0l0.2,0.2
			C98.7,75.7,98.7,75.8,98.6,75.8z"/>
		<path fill="#0D0F0F" d="M99.1,75.3l-0.2,0.2c0,0-0.1,0-0.2,0l-0.2-0.2c0,0,0-0.1,0-0.2l0.2-0.2c0,0,0.1,0,0.2,0l0.2,0.2
			C99.2,75.2,99.2,75.3,99.1,75.3z"/>
		<path fill="#0D0F0F" d="M99.1,76.3l-0.2,0.2c0,0-0.1,0-0.2,0l-0.2-0.2c0,0,0-0.1,0-0.2l0.2-0.2c0,0,0.1,0,0.2,0l0.2,0.2
			C99.2,76.2,99.2,76.3,99.1,76.3z"/>
		<path fill="#0D0F0F" d="M99.6,75.8L99.4,76c0,0-0.1,0-0.2,0L99,75.8c0,0,0-0.1,0-0.2l0.2-0.2c0,0,0.1,0,0.2,0l0.2,0.2
			C99.7,75.7,99.7,75.8,99.6,75.8z"/>
		<path fill="#0D0F0F" d="M99.6,76.8L99.4,77c0,0-0.1,0-0.2,0l-0.2-0.2c0,0,0-0.1,0-0.2l0.2-0.2c0,0,0.1,0,0.2,0l0.2,0.2
			C99.7,76.7,99.7,76.8,99.6,76.8z"/>
		<path fill="#0D0F0F" d="M100.1,76.3l-0.2,0.2c0,0-0.1,0-0.2,0l-0.2-0.2c0,0,0-0.1,0-0.2l0.2-0.2c0,0,0.1,0,0.2,0l0.2,0.2
			C100.2,76.2,100.2,76.3,100.1,76.3z"/>
		<path fill="#0D0F0F" d="M98.1,75.3L98,75.5c0,0-0.1,0-0.2,0l-0.2-0.2c0,0,0-0.1,0-0.2l0.2-0.2c0,0,0.1,0,0.2,0l0.2,0.2
			C98.2,75.2,98.2,75.3,98.1,75.3z"/>
		<path fill="#0D0F0F" d="M98.6,74.8L98.5,75c0,0-0.1,0-0.2,0l-0.2-0.2c0,0,0-0.1,0-0.2l0.2-0.2c0,0,0.1,0,0.2,0l0.2,0.2
			C98.7,74.7,98.7,74.8,98.6,74.8z"/>
		<path fill="#0D0F0F" d="M97.7,74.8L97.5,75c0,0-0.1,0-0.2,0l-0.2-0.2c0,0,0-0.1,0-0.2l0.2-0.2c0,0,0.1,0,0.2,0l0.2,0.2
			C97.7,74.7,97.7,74.8,97.7,74.8z"/>
		<path fill="#0D0F0F" d="M98.2,74.4L98,74.6c0,0-0.1,0-0.2,0l-0.2-0.2c0,0,0-0.1,0-0.2l0.2-0.2c0,0,0.1,0,0.2,0l0.2,0.2
			C98.2,74.2,98.2,74.3,98.2,74.4z"/>
		<path fill="#0D0F0F" d="M94.7,73.9l-0.2,0.2c0,0-0.1,0-0.2,0l-0.2-0.2c0,0,0-0.1,0-0.2l0.2-0.2c0,0,0.1,0,0.2,0l0.2,0.2
			C94.8,73.7,94.8,73.8,94.7,73.9z"/>
		<path fill="#0D0F0F" d="M95.2,73.4L95,73.6c0,0-0.1,0-0.2,0l-0.2-0.2c0,0,0-0.1,0-0.2l0.2-0.2c0,0,0.1,0,0.2,0l0.2,0.2
			C95.2,73.3,95.2,73.3,95.2,73.4z"/>
		<path fill="#0D0F0F" d="M95.7,72.9l-0.2,0.2c0,0-0.1,0-0.2,0l-0.2-0.2c0,0,0-0.1,0-0.2l0.2-0.2c0,0,0.1,0,0.2,0l0.2,0.2
			C95.8,72.8,95.8,72.8,95.7,72.9z"/>
		<path fill="#0D0F0F" d="M93.7,73.9l-0.2,0.2c0,0-0.1,0-0.2,0l-0.2-0.2c0,0,0-0.1,0-0.2l0.2-0.2c0,0,0.1,0,0.2,0l0.2,0.2
			C93.8,73.8,93.8,73.8,93.7,73.9z"/>
		<path fill="#0D0F0F" d="M94.2,73.4L94,73.6c0,0-0.1,0-0.2,0l-0.2-0.2c0,0,0-0.1,0-0.2l0.2-0.2c0,0,0.1,0,0.2,0l0.2,0.2
			C94.3,73.3,94.3,73.3,94.2,73.4z"/>
		<path fill="#0D0F0F" d="M94.7,72.9l-0.2,0.2c0,0-0.1,0-0.2,0l-0.2-0.2c0,0,0-0.1,0-0.2l0.2-0.2c0,0,0.1,0,0.2,0l0.2,0.2
			C94.8,72.8,94.8,72.9,94.7,72.9z"/>
		<path fill="#0D0F0F" d="M95.2,72.4L95,72.6c0,0-0.1,0-0.2,0l-0.2-0.2c0,0,0-0.1,0-0.2l0.2-0.2c0,0,0.1,0,0.2,0l0.2,0.2
			C95.3,72.3,95.3,72.4,95.2,72.4z"/>
		<path fill="#0D0F0F" d="M95.7,71.9l-0.2,0.2c0,0-0.1,0-0.2,0l-0.2-0.2c0,0,0-0.1,0-0.2l0.2-0.2c0,0,0.1,0,0.2,0l0.2,0.2
			C95.8,71.8,95.8,71.9,95.7,71.9z"/>
		<path fill="#0D0F0F" d="M94.7,71.9l-0.2,0.2c0,0-0.1,0-0.2,0l-0.2-0.2c0,0,0-0.1,0-0.2l0.2-0.2c0,0,0.1,0,0.2,0l0.2,0.2
			C94.8,71.8,94.8,71.9,94.7,71.9z"/>
		<path fill="#0D0F0F" d="M95.2,71.4L95,71.6c0,0-0.1,0-0.2,0l-0.2-0.2c0,0,0-0.1,0-0.2l0.2-0.2c0,0,0.1,0,0.2,0l0.2,0.2
			C95.3,71.3,95.3,71.4,95.2,71.4z"/>
		<path fill="#0D0F0F" d="M94.3,71.4l-0.2,0.2c0,0-0.1,0-0.2,0l-0.2-0.2c0,0,0-0.1,0-0.2l0.2-0.2c0,0,0.1,0,0.2,0l0.2,0.2
			C94.3,71.3,94.3,71.4,94.3,71.4z"/>
		<path fill="#0D0F0F" d="M94.7,70.9l-0.2,0.2c0,0-0.1,0-0.2,0l-0.2-0.2c0,0,0-0.1,0-0.2l0.2-0.2c0,0,0.1,0,0.2,0l0.2,0.2
			C94.8,70.8,94.8,70.9,94.7,70.9z"/>
		<path fill="#0D0F0F" d="M93.8,71l-0.2,0.2c0,0-0.1,0-0.2,0L93.2,71c0,0,0-0.1,0-0.2l0.2-0.2c0,0,0.1,0,0.2,0l0.2,0.2
			C93.8,70.8,93.8,70.9,93.8,71z"/>
		<path fill="#0D0F0F" d="M93.8,71.9l-0.2,0.2c0,0-0.1,0-0.2,0l-0.2-0.2c0,0,0-0.1,0-0.2l0.2-0.2c0,0,0.1,0,0.2,0l0.2,0.2
			C93.8,71.8,93.8,71.9,93.8,71.9z"/>
		<path fill="#0D0F0F" d="M93.3,71.5l-0.2,0.2c0,0-0.1,0-0.2,0l-0.2-0.2c0,0,0-0.1,0-0.2l0.2-0.2c0,0,0.1,0,0.2,0l0.2,0.2
			C93.3,71.3,93.3,71.4,93.3,71.5z"/>
		<path fill="#0D0F0F" d="M93.3,72.4l-0.2,0.2c0,0-0.1,0-0.2,0l-0.2-0.2c0,0,0-0.1,0-0.2l0.2-0.2c0,0,0.1,0,0.2,0l0.2,0.2
			C93.3,72.3,93.3,72.4,93.3,72.4z"/>
		<path fill="#0D0F0F" d="M92.8,71.9l-0.2,0.2c0,0-0.1,0-0.2,0l-0.2-0.2c0,0,0-0.1,0-0.2l0.2-0.2c0,0,0.1,0,0.2,0l0.2,0.2
			C92.8,71.8,92.8,71.9,92.8,71.9z"/>
		<path fill="#0D0F0F" d="M92.8,72.9l-0.2,0.2c0,0-0.1,0-0.2,0l-0.2-0.2c0,0,0-0.1,0-0.2l0.2-0.2c0,0,0.1,0,0.2,0l0.2,0.2
			C92.8,72.8,92.8,72.9,92.8,72.9z"/>
		<path fill="#0D0F0F" d="M92.3,72.4l-0.2,0.2c0,0-0.1,0-0.2,0l-0.2-0.2c0,0,0-0.1,0-0.2l0.2-0.2c0,0,0.1,0,0.2,0l0.2,0.2
			C92.3,72.3,92.3,72.4,92.3,72.4z"/>
		<path fill="#0D0F0F" d="M92.3,73.4l-0.2,0.2c0,0-0.1,0-0.2,0l-0.2-0.2c0,0,0-0.1,0-0.2l0.2-0.2c0,0,0.1,0,0.2,0l0.2,0.2
			C92.3,73.3,92.3,73.4,92.3,73.4z"/>
		<path fill="#0D0F0F" d="M91.8,72.9l-0.2,0.2c0,0-0.1,0-0.2,0l-0.2-0.2c0,0,0-0.1,0-0.2l0.2-0.2c0,0,0.1,0,0.2,0l0.2,0.2
			C91.9,72.8,91.9,72.9,91.8,72.9z"/>
		<path fill="#0D0F0F" d="M91.8,73.9l-0.2,0.2c0,0-0.1,0-0.2,0l-0.2-0.2c0,0,0-0.1,0-0.2l0.2-0.2c0,0,0.1,0,0.2,0l0.2,0.2
			C91.9,73.8,91.9,73.8,91.8,73.9z"/>
		<path fill="#0D0F0F" d="M91.3,73.4l-0.2,0.2c0,0-0.1,0-0.2,0l-0.2-0.2c0,0,0-0.1,0-0.2L91,73c0,0,0.1,0,0.2,0l0.2,0.2
			C91.4,73.3,91.4,73.4,91.3,73.4z"/>
		<path fill="#0D0F0F" d="M91.3,74.4l-0.2,0.2c0,0-0.1,0-0.2,0l-0.2-0.2c0,0,0-0.1,0-0.2L91,74c0,0,0.1,0,0.2,0l0.2,0.2
			C91.4,74.2,91.4,74.3,91.3,74.4z"/>
		<path fill="#0D0F0F" d="M92.5,70.3l0.2,0.2c0,0,0.1,0,0.2,0l0.2-0.2c0,0,0-0.1,0-0.2l-0.2-0.2c0,0-0.1,0-0.2,0l-0.2,0.2
			C92.5,70.1,92.5,70.2,92.5,70.3z"/>
		<path fill="#0D0F0F" d="M92,70.7l0.2,0.2c0,0,0.1,0,0.2,0l0.2-0.2c0,0,0-0.1,0-0.2l-0.2-0.2c0,0-0.1,0-0.2,0L92,70.6
			C92,70.6,92,70.7,92,70.7z"/>
		<path fill="#0D0F0F" d="M91.5,71.2l0.2,0.2c0,0,0.1,0,0.2,0l0.2-0.2c0,0,0-0.1,0-0.2l-0.2-0.2c0,0-0.1,0-0.2,0l-0.2,0.2
			C91.5,71.1,91.5,71.2,91.5,71.2z"/>
		<path fill="#0D0F0F" d="M91,71.7l0.2,0.2c0,0,0.1,0,0.2,0l0.2-0.2c0,0,0-0.1,0-0.2l-0.2-0.2c0,0-0.1,0-0.2,0L91,71.6
			C91,71.6,91,71.7,91,71.7z"/>
		<path fill="#0D0F0F" d="M90.6,72.2l0.2,0.2c0,0,0.1,0,0.2,0l0.2-0.2c0,0,0-0.1,0-0.2l-0.2-0.2c0,0-0.1,0-0.2,0L90.6,72
			C90.5,72.1,90.5,72.2,90.6,72.2z"/>
		<path fill="#0D0F0F" d="M90.1,72.7l0.2,0.2c0,0,0.1,0,0.2,0l0.2-0.2c0,0,0-0.1,0-0.2l-0.2-0.2c0,0-0.1,0-0.2,0l-0.2,0.2
			C90,72.6,90,72.7,90.1,72.7z"/>
		<path fill="#0D0F0F" d="M92,69.8l0.2,0.2c0,0,0.1,0,0.2,0l0.2-0.2c0,0,0-0.1,0-0.2l-0.2-0.2c0,0-0.1,0-0.2,0L92,69.6
			C92,69.6,92,69.7,92,69.8z"/>
		<path fill="#0D0F0F" d="M91.5,70.2l0.2,0.2c0,0,0.1,0,0.2,0l0.2-0.2c0,0,0-0.1,0-0.2l-0.2-0.2c0,0-0.1,0-0.2,0l-0.2,0.2
			C91.5,70.1,91.5,70.2,91.5,70.2z"/>
		<path fill="#0D0F0F" d="M91.1,70.7l0.2,0.2c0,0,0.1,0,0.2,0l0.2-0.2c0,0,0-0.1,0-0.2l-0.2-0.2c0,0-0.1,0-0.2,0l-0.2,0.2
			C91,70.6,91,70.7,91.1,70.7z"/>
		<path fill="#0D0F0F" d="M90.5,71.2l0.2,0.2c0,0,0.1,0,0.2,0l0.2-0.2c0,0,0-0.1,0-0.2l-0.2-0.2c0,0-0.1,0-0.2,0l-0.2,0.2
			C90.5,71.1,90.5,71.2,90.5,71.2z"/>
		<path fill="#0D0F0F" d="M90.1,71.7l0.2,0.2c0,0,0.1,0,0.2,0l0.2-0.2c0,0,0-0.1,0-0.2l-0.2-0.2c0,0-0.1,0-0.2,0l-0.2,0.2
			C90,71.6,90,71.7,90.1,71.7z"/>
		<path fill="#0D0F0F" d="M89.6,72.2l0.2,0.2c0,0,0.1,0,0.2,0l0.2-0.2c0,0,0-0.1,0-0.2l-0.2-0.2c0,0-0.1,0-0.2,0L89.6,72
			C89.5,72.1,89.5,72.2,89.6,72.2z"/>
		<path fill="#0D0F0F" d="M99.5,79.5v1.3h1.4c0,0,1.3,0,1.3-1.3c0-1.3,0-1.3,0-1.3h-1.4v1.1c0,0,0,0.3-0.3,0.3
			C100.3,79.5,99.5,79.5,99.5,79.5z"/>
		<path fill="#0D0F0F" d="M90,79.5v1.3h-1.4c0,0-1.3,0-1.3-1.3c0-1.3,0-1.3,0-1.3h1.4v1.1c0,0,0,0.3,0.3,0.3S90,79.5,90,79.5z"/>
		<path fill="#0D0F0F" d="M99.5,68.6v-1.3h1.4c0,0,1.3,0,1.3,1.3c0,1.3,0,1.3,0,1.3h-1.4v-1.1c0,0,0-0.3-0.3-0.3
			C100.3,68.6,99.5,68.6,99.5,68.6z"/>
		<path fill="#0D0F0F" d="M90,68.6v-1.3h-1.4c0,0-1.3,0-1.3,1.3c0,1.3,0,1.3,0,1.3h1.4v-1.1c0,0,0-0.3,0.3-0.3S90,68.6,90,68.6z"/>
		<path fill="#0D0F0F" d="M96.2,76.3L96,76.5c0,0-0.1,0-0.2,0l-0.2-0.2c0,0,0-0.1,0-0.2l0.2-0.2c0,0,0.1,0,0.2,0l0.2,0.2
			C96.2,76.2,96.2,76.3,96.2,76.3z"/>
		<path fill="#0D0F0F" d="M90.8,76.8L90.6,77c0,0-0.1,0-0.2,0l-0.2-0.2c0,0,0-0.1,0-0.2l0.2-0.2c0,0,0.1,0,0.2,0l0.2,0.2
			C90.9,76.7,90.9,76.8,90.8,76.8z"/>
		<path fill="#0D0F0F" d="M91.3,76.3l-0.2,0.2c0,0-0.1,0-0.2,0l-0.2-0.2c0,0,0-0.1,0-0.2l0.2-0.2c0,0,0.1,0,0.2,0l0.2,0.2
			C91.4,76.2,91.4,76.3,91.3,76.3z"/>
		<path fill="#0D0F0F" d="M91.8,75.8L91.6,76c0,0-0.1,0-0.2,0l-0.2-0.2c0,0,0-0.1,0-0.2l0.2-0.2c0,0,0.1,0,0.2,0l0.2,0.2
			C91.8,75.7,91.8,75.8,91.8,75.8z"/>
		<path fill="#0D0F0F" d="M108.4,71.4h0.9v5.7c0,0.9-0.7,1.4-1.5,1.4c-0.9,0-1.4-0.5-1.4-1.2c0,0,0-0.3,0.1-0.5c0.3,0,0.6,0,0.8,0
			c-0.1,0.1-0.1,0.3-0.1,0.4c0,0.4,0.3,0.5,0.6,0.5c0.3,0,0.6-0.2,0.6-0.6V71.4z M108.2,70.3c0,0.4,0.3,0.6,0.6,0.6s0.7-0.3,0.7-0.6
			s-0.3-0.7-0.7-0.7S108.2,69.9,108.2,70.3z"/>
		<g>
			<path fill="#0D0F0F" d="M113.7,75.7c-0.2,0.2-0.4,0.4-0.7,0.5c-0.3,0.1-0.6,0.2-0.8,0.2c-0.2,0-0.4,0-0.6-0.1
				c-0.2,0-0.3-0.1-0.5-0.2s-0.3-0.3-0.4-0.4c-0.1-0.2-0.1-0.4-0.1-0.6c0-0.5,0.2-0.9,0.5-1.1c0.3-0.3,0.8-0.4,1.5-0.4
				c0.1,0,0.2,0,0.3,0c0.1,0,0.2,0,0.3,0c0.1,0,0.2,0,0.3,0c0.1,0,0.1,0,0.2,0v-0.2c0-0.3-0.1-0.6-0.3-0.7c-0.2-0.1-0.5-0.2-0.8-0.2
				c-0.3,0-0.6,0-0.8,0.1c-0.2,0.1-0.4,0.2-0.5,0.3l-0.4-0.6c0.1-0.1,0.2-0.1,0.3-0.2c0.1-0.1,0.2-0.1,0.4-0.2
				c0.1-0.1,0.3-0.1,0.5-0.1c0.2,0,0.4-0.1,0.6-0.1c0.6,0,1,0.1,1.4,0.4c0.3,0.3,0.5,0.7,0.5,1.2v2.6c0,0.2,0,0.3,0,0.4h-0.8
				L113.7,75.7z M113.6,74.1c0,0-0.1,0-0.1,0c-0.1,0-0.2,0-0.3,0c-0.1,0-0.2,0-0.3,0c-0.1,0-0.2,0-0.3,0c-0.2,0-0.4,0-0.6,0.1
				c-0.1,0.1-0.3,0.1-0.4,0.2c-0.1,0.1-0.1,0.2-0.2,0.3c0,0.1,0,0.2,0,0.3c0,0.2,0.1,0.4,0.2,0.6c0.2,0.1,0.4,0.2,0.7,0.2
				c0.2,0,0.3,0,0.5-0.1c0.1-0.1,0.3-0.1,0.4-0.2c0.1-0.1,0.2-0.2,0.3-0.3c0.1-0.1,0.1-0.3,0.1-0.4V74.1z"/>
			<path fill="#0D0F0F" d="M116,72.5h-0.8v-0.7h0.8v-1.5h0.9v1.5h1.3v0.7h-1.3v2.2c0,0.4,0.1,0.6,0.2,0.7c0.1,0.1,0.3,0.2,0.5,0.2
				c0.2,0,0.3,0,0.4-0.1c0.1-0.1,0.2-0.1,0.3-0.2l0.4,0.5c-0.2,0.2-0.4,0.3-0.6,0.4c-0.2,0.1-0.4,0.1-0.7,0.1c-0.5,0-0.8-0.1-1-0.4
				c-0.2-0.3-0.3-0.7-0.3-1.2V72.5z"/>
			<path fill="#0D0F0F" d="M122.1,75.7c-0.2,0.2-0.4,0.4-0.7,0.5c-0.3,0.1-0.6,0.2-0.8,0.2c-0.2,0-0.4,0-0.6-0.1
				c-0.2,0-0.3-0.1-0.5-0.2c-0.1-0.1-0.3-0.3-0.4-0.4c-0.1-0.2-0.1-0.4-0.1-0.6c0-0.5,0.2-0.9,0.5-1.1c0.3-0.3,0.8-0.4,1.5-0.4
				c0.1,0,0.2,0,0.3,0c0.1,0,0.2,0,0.3,0c0.1,0,0.2,0,0.3,0c0.1,0,0.1,0,0.2,0v-0.2c0-0.3-0.1-0.6-0.3-0.7c-0.2-0.1-0.5-0.2-0.8-0.2
				c-0.3,0-0.6,0-0.8,0.1c-0.2,0.1-0.4,0.2-0.5,0.3l-0.4-0.6c0.1-0.1,0.2-0.1,0.3-0.2c0.1-0.1,0.2-0.1,0.4-0.2
				c0.1-0.1,0.3-0.1,0.5-0.1c0.2,0,0.4-0.1,0.6-0.1c0.6,0,1,0.1,1.4,0.4c0.3,0.3,0.5,0.7,0.5,1.2v2.6c0,0.2,0,0.3,0,0.4h-0.8
				L122.1,75.7z M122.1,74.1c0,0-0.1,0-0.1,0c-0.1,0-0.2,0-0.3,0c-0.1,0-0.2,0-0.3,0c-0.1,0-0.2,0-0.3,0c-0.2,0-0.4,0-0.6,0.1
				c-0.1,0.1-0.3,0.1-0.4,0.2c-0.1,0.1-0.1,0.2-0.2,0.3c0,0.1,0,0.2,0,0.3c0,0.2,0.1,0.4,0.2,0.6c0.2,0.1,0.4,0.2,0.7,0.2
				c0.2,0,0.3,0,0.5-0.1c0.1-0.1,0.3-0.1,0.4-0.2c0.1-0.1,0.2-0.2,0.3-0.3c0.1-0.1,0.1-0.3,0.1-0.4V74.1z"/>
		</g>
		<path fill="#0D0F0F" d="M126.3,76.1v-4c0-0.1,0-0.3,0-0.4h0.8l0,0.7c0.1-0.1,0.1-0.2,0.2-0.3c0.1-0.1,0.2-0.2,0.3-0.3
			c0.1-0.1,0.3-0.1,0.4-0.2c0.2-0.1,0.3-0.1,0.5-0.1c0.1,0,0.2,0,0.3,0c0.1,0,0.2,0,0.2,0.1l-0.2,0.8c-0.1,0-0.3-0.1-0.4-0.1
			c-0.2,0-0.4,0-0.5,0.1c-0.2,0.1-0.3,0.2-0.4,0.3c-0.1,0.1-0.2,0.3-0.3,0.4c-0.1,0.2-0.1,0.3-0.1,0.5v2.4H126.3z"/>
		<path fill="#0D0F0F" d="M129.8,71.7h0.9v2.6c0,0.4,0.1,0.7,0.3,0.9c0.2,0.2,0.4,0.3,0.7,0.3c0.2,0,0.5-0.1,0.6-0.2
			c0.2-0.1,0.3-0.2,0.4-0.4c0.1-0.2,0.2-0.3,0.2-0.6c0-0.2,0.1-0.4,0.1-0.6v-2.1h0.9v4c0,0.1,0,0.3,0,0.5H133l0-0.7
			c-0.1,0.1-0.1,0.2-0.2,0.2c-0.1,0.1-0.2,0.2-0.3,0.2c-0.1,0.1-0.3,0.1-0.4,0.2c-0.2,0.1-0.3,0.1-0.5,0.1c-0.6,0-1-0.2-1.3-0.5
			c-0.3-0.3-0.4-0.8-0.4-1.4V71.7z"/>
	</g>
	<g>
		<circle fill="#7B4344" cx="124.6" cy="75.2" r="0.7"/>
		<path fill="#4E8090" d="M92.6,77.8c0,0,0.3-0.3,0.3-0.3c0.1-0.1,0.1,0,0.1,0c-0.1-0.1,0.3,0.3,0.3,0.3S93,78.2,92.6,77.8z"/>
		<path fill="#7B4344" d="M96,77.1c-0.3-0.3,0-0.6,0-0.6s0.2,0.2,0.3,0.3c0,0,0,0.1,0,0.1C96.2,76.9,96,77.1,96,77.1z"/>
		<path fill="#4E8090" d="M95.8,76.5c-0.1,0.1-0.2,0.2-0.2,0.2c0,0-0.1,0.1,0,0.1c0,0,0.3,0.3,0.3,0.3
			C95.6,76.8,95.7,76.6,95.8,76.5z"/>
		<path fill="#7B4344" d="M95.8,71.6c0.3,0.3,0,0.6,0,0.6l-0.3-0.3L95.8,71.6z"/>
		<path fill="#4E8090" d="M95.9,71.5c0.4,0.4,0,0.7,0,0.7l0.4-0.4L95.9,71.5z"/>
		<path fill="#4E8090" d="M99.3,73.1c0.3,0.3,0,0.6,0,0.6s-0.2-0.2-0.2-0.2c0,0,0-0.1,0-0.1C99.1,73.3,99.3,73.1,99.3,73.1z"/>
		<path fill="#7B4344" d="M90.6,73.1c-0.3,0.3,0,0.6,0,0.6l0.3-0.3L90.6,73.1z"/>
		<path fill="#7B4344" d="M94.3,70c-0.3-0.3-0.6,0-0.6,0l0.3,0.3L94.3,70z"/>
		<path fill="#4E8090" d="M95.7,74.5l-0.2,0.2c0,0-0.1,0-0.2,0l-0.2-0.2c0,0,0-0.1,0-0.2l0.2-0.2c0,0,0.1,0,0.2,0l0.2,0.2
			C95.7,74.3,95.7,74.4,95.7,74.5z"/>
		<path fill="#4E8090" d="M96.2,74.9L96,75.1c0,0-0.1,0-0.2,0l-0.2-0.2c0,0,0-0.1,0-0.2l0.2-0.2c0,0,0.1,0,0.2,0l0.2,0.2
			C96.2,74.8,96.2,74.9,96.2,74.9z"/>
		<path fill="#4E8090" d="M96.7,74.5l-0.2,0.2c0,0-0.1,0-0.2,0l-0.2-0.2c0,0,0-0.1,0-0.2l0.2-0.2c0,0,0.1,0,0.2,0l0.2,0.2
			C96.7,74.3,96.7,74.4,96.7,74.5z"/>
		<path fill="#4E8090" d="M96.2,74L96,74.2c0,0-0.1,0-0.2,0L95.6,74c0,0,0-0.1,0-0.2l0.2-0.2c0,0,0.1,0,0.2,0l0.2,0.2
			C96.2,73.8,96.2,73.9,96.2,74z"/>
		<path fill="#4E8090" d="M96.7,73.5l-0.2,0.2c0,0-0.1,0-0.2,0l-0.2-0.2c0,0,0-0.1,0-0.2l0.2-0.2c0,0,0.1,0,0.2,0l0.2,0.2
			C96.7,73.3,96.7,73.4,96.7,73.5z"/>
		<path fill="#4E8090" d="M97.2,73L97,73.2c0,0-0.1,0-0.2,0L96.6,73c0,0,0-0.1,0-0.2l0.2-0.2c0,0,0.1,0,0.2,0l0.2,0.2
			C97.2,72.8,97.2,72.9,97.2,73z"/>
		<path fill="#4E8090" d="M96.7,72.5l-0.2,0.2c0,0-0.1,0-0.2,0l-0.2-0.2c0,0,0-0.1,0-0.2l0.2-0.2c0,0,0.1,0,0.2,0l0.2,0.2
			C96.7,72.3,96.7,72.4,96.7,72.5z"/>
		<path fill="#4E8090" d="M96.2,73L96,73.2c0,0-0.1,0-0.2,0L95.6,73c0,0,0-0.1,0-0.2l0.2-0.2c0,0,0.1,0,0.2,0l0.2,0.2
			C96.2,72.8,96.2,72.9,96.2,73z"/>
		<path fill="#4E8090" d="M95.7,73.5l-0.2,0.2c0,0-0.1,0-0.2,0l-0.2-0.2c0,0,0-0.1,0-0.2l0.2-0.2c0,0,0.1,0,0.2,0l0.2,0.2
			C95.7,73.3,95.7,73.4,95.7,73.5z"/>
		<path fill="#4E8090" d="M95.2,74L95,74.2c0,0-0.1,0-0.2,0L94.6,74c0,0,0-0.1,0-0.2l0.2-0.2c0,0,0.1,0,0.2,0l0.2,0.2
			C95.2,73.8,95.2,73.9,95.2,74z"/>
		<path fill="#4E8090" d="M94.7,74.4l-0.2,0.2c0,0-0.1,0-0.2,0l-0.2-0.2c0,0,0-0.1,0-0.2l0.2-0.2c0,0,0.1,0,0.2,0l0.2,0.2
			C94.8,74.3,94.8,74.4,94.7,74.4z"/>
		<path fill="#4E8090" d="M94.2,74.9L94,75.1c0,0-0.1,0-0.2,0l-0.2-0.2c0,0,0-0.1,0-0.2l0.2-0.2c0,0,0.1,0,0.2,0l0.2,0.2
			C94.3,74.8,94.3,74.9,94.2,74.9z"/>
		<path fill="#7B4344" d="M94.7,75.4l-0.2,0.2c0,0-0.1,0-0.2,0l-0.2-0.2c0,0,0-0.1,0-0.2l0.2-0.2c0,0,0.1,0,0.2,0l0.2,0.2
			C94.8,75.3,94.8,75.4,94.7,75.4z"/>
		<path fill="#4E8090" d="M95.2,74.9L95,75.1c0,0-0.1,0-0.2,0l-0.2-0.2c0,0,0-0.1,0-0.2l0.2-0.2c0,0,0.1,0,0.2,0l0.2,0.2
			C95.3,74.8,95.3,74.9,95.2,74.9z"/>
		<path fill="#4E8090" d="M95.7,75.4l-0.2,0.2c0,0-0.1,0-0.2,0l-0.2-0.2c0,0,0-0.1,0-0.2l0.2-0.2c0,0,0.1,0,0.2,0l0.2,0.2
			C95.7,75.3,95.7,75.4,95.7,75.4z"/>
		<path fill="#4E8090" d="M95.2,75.9L95,76.1c0,0-0.1,0-0.2,0l-0.2-0.2c0,0,0-0.1,0-0.2l0.2-0.2c0,0,0.1,0,0.2,0l0.2,0.2
			C95.3,75.8,95.3,75.9,95.2,75.9z"/>
		<path fill="#4E8090" d="M95.7,76.4l-0.2,0.2c0,0-0.1,0-0.2,0l-0.2-0.2c0,0,0-0.1,0-0.2l0.2-0.2c0,0,0.1,0,0.2,0l0.2,0.2
			C95.7,76.3,95.7,76.4,95.7,76.4z"/>
		<path fill="#4E8090" d="M95.2,76.9L95,77.1c0,0-0.1,0-0.2,0l-0.2-0.2c0,0,0-0.1,0-0.2l0.2-0.2c0,0,0.1,0,0.2,0l0.2,0.2
			C95.3,76.8,95.3,76.8,95.2,76.9z"/>
		<path fill="#4E8090" d="M95.7,77.4l-0.2,0.2c0,0-0.1,0-0.2,0l-0.2-0.2c0,0,0-0.1,0-0.2l0.2-0.2c0,0,0.1,0,0.2,0l0.2,0.2
			C95.7,77.3,95.7,77.3,95.7,77.4z"/>
		<path fill="#4E8090" d="M95.2,77.9L95,78.1c0,0-0.1,0-0.2,0l-0.2-0.2c0,0,0-0.1,0-0.2l0.2-0.2c0,0,0.1,0,0.2,0l0.2,0.2
			C95.3,77.7,95.3,77.8,95.2,77.9z"/>
		<path fill="#4E8090" d="M94.7,77.4l-0.2,0.2c0,0-0.1,0-0.2,0l-0.2-0.2c0,0,0-0.1,0-0.2l0.2-0.2c0,0,0.1,0,0.2,0l0.2,0.2
			C94.8,77.3,94.8,77.3,94.7,77.4z"/>
		<path fill="#4E8090" d="M94.7,76.4l-0.2,0.2c0,0-0.1,0-0.2,0l-0.2-0.2c0,0,0-0.1,0-0.2l0.2-0.2c0,0,0.1,0,0.2,0l0.2,0.2
			C94.8,76.3,94.8,76.4,94.7,76.4z"/>
		<path fill="#4E8090" d="M94.2,76.9L94,77.1c0,0-0.1,0-0.2,0l-0.2-0.2c0,0,0-0.1,0-0.2l0.2-0.2c0,0,0.1,0,0.2,0l0.2,0.2
			C94.3,76.8,94.3,76.8,94.2,76.9z"/>
		<path fill="#4E8090" d="M93.7,77.4l-0.2,0.2c0,0-0.1,0-0.2,0l-0.2-0.2c0,0,0-0.1,0-0.2l0.2-0.2c0,0,0.1,0,0.2,0l0.2,0.2
			C93.8,77.3,93.8,77.3,93.7,77.4z"/>
		<path fill="#4E8090" d="M93.3,76.9l-0.2,0.2c0,0-0.1,0-0.2,0l-0.2-0.2c0,0,0-0.1,0-0.2l0.2-0.2c0,0,0.1,0,0.2,0l0.2,0.2
			C93.3,76.8,93.3,76.8,93.3,76.9z"/>
		<path fill="#4E8090" d="M92.5,76.9c0,0,0.3,0.3,0.3,0.3c0.1,0.1,0,0.1,0,0.1c0.1-0.1-0.3,0.3-0.3,0.3S92.1,77.3,92.5,76.9z"/>
		<path fill="#4E8090" d="M91.1,77.3c0,0,0.3-0.3,0.3-0.3c0.1-0.1,0.1,0,0.1,0c-0.1-0.1,0.3,0.3,0.3,0.3S91.5,77.7,91.1,77.3z"/>
		<path fill="#4E8090" d="M91,76.5c0,0,0.3,0.3,0.3,0.3c0.1,0.1,0,0.1,0,0.1c0.1-0.1-0.3,0.3-0.3,0.3S90.7,76.8,91,76.5z"/>
		<path fill="#4E8090" d="M89.6,76.8c0,0,0.3-0.3,0.3-0.3c0.1-0.1,0.1,0,0.1,0c-0.1-0.1,0.3,0.3,0.3,0.3S90,77.2,89.6,76.8z"/>
		<path fill="#4E8090" d="M89.5,75.9c0,0,0.3,0.3,0.3,0.3c0.1,0.1,0,0.1,0,0.1c0.1-0.1-0.3,0.3-0.3,0.3S89.2,76.3,89.5,75.9z"/>
		<path fill="#4E8090" d="M94.1,78.3c0,0,0.3-0.3,0.3-0.3c0.1-0.1,0.1,0,0.1,0c-0.1-0.1,0.3,0.3,0.3,0.3S94.4,78.6,94.1,78.3z"/>
		<path fill="#4E8090" d="M94,77.4c0,0,0.3,0.3,0.3,0.3c0.1,0.1,0,0.1,0,0.1c0.1-0.1-0.3,0.3-0.3,0.3S93.6,77.8,94,77.4z"/>
		<path fill="#4E8090" d="M93.7,76.4l-0.2,0.2c0,0-0.1,0-0.2,0l-0.2-0.2c0,0,0-0.1,0-0.2l0.2-0.2c0,0,0.1,0,0.2,0l0.2,0.2
			C93.8,76.3,93.8,76.4,93.7,76.4z"/>
		<path fill="#4E8090" d="M92.8,76.4l-0.2,0.2c0,0-0.1,0-0.2,0l-0.2-0.2c0,0,0-0.1,0-0.2l0.2-0.2c0,0,0.1,0,0.2,0l0.2,0.2
			C92.8,76.3,92.8,76.3,92.8,76.4z"/>
		<path fill="#4E8090" d="M92.3,76.9l-0.2,0.2c0,0-0.1,0-0.2,0l-0.2-0.2c0,0,0-0.1,0-0.2l0.2-0.2c0,0,0.1,0,0.2,0l0.2,0.2
			C92.3,76.8,92.3,76.8,92.3,76.9z"/>
		<path fill="#4E8090" d="M91.8,76.4l-0.2,0.2c0,0-0.1,0-0.2,0l-0.2-0.2c0,0,0-0.1,0-0.2l0.2-0.2c0,0,0.1,0,0.2,0l0.2,0.2
			C91.8,76.3,91.8,76.3,91.8,76.4z"/>
		<path fill="#4E8090" d="M92.3,75.9l-0.2,0.2c0,0-0.1,0-0.2,0l-0.2-0.2c0,0,0-0.1,0-0.2l0.2-0.2c0,0,0.1,0,0.2,0l0.2,0.2
			C92.3,75.8,92.3,75.9,92.3,75.9z"/>
		<path fill="#4E8090" d="M94.2,75.9L94,76.1c0,0-0.1,0-0.2,0l-0.2-0.2c0,0,0-0.1,0-0.2l0.2-0.2c0,0,0.1,0,0.2,0l0.2,0.2
			C94.3,75.8,94.3,75.9,94.2,75.9z"/>
		<path fill="#4E8090" d="M94.7,75.4l-0.2,0.2c0,0-0.1,0-0.2,0l-0.2-0.2c0,0,0-0.1,0-0.2l0.2-0.2c0,0,0.1,0,0.2,0l0.2,0.2
			C94.8,75.3,94.8,75.4,94.7,75.4z"/>
		<path fill="#4E8090" d="M93.2,75.9L93,76.1c0,0-0.1,0-0.2,0l-0.2-0.2c0,0,0-0.1,0-0.2l0.2-0.2c0,0,0.1,0,0.2,0l0.2,0.2
			C93.3,75.8,93.3,75.9,93.2,75.9z"/>
		<path fill="#4E8090" d="M93.7,75.4l-0.2,0.2c0,0-0.1,0-0.2,0l-0.2-0.2c0,0,0-0.1,0-0.2l0.2-0.2c0,0,0.1,0,0.2,0l0.2,0.2
			C93.8,75.3,93.8,75.4,93.7,75.4z"/>
		<path fill="#4E8090" d="M92.8,75.4l-0.2,0.2c0,0-0.1,0-0.2,0l-0.2-0.2c0,0,0-0.1,0-0.2l0.2-0.2c0,0,0.1,0,0.2,0l0.2,0.2
			C92.8,75.3,92.8,75.4,92.8,75.4z"/>
		<path fill="#4E8090" d="M93.2,74.9L93,75.1c0,0-0.1,0-0.2,0l-0.2-0.2c0,0,0-0.1,0-0.2l0.2-0.2c0,0,0.1,0,0.2,0l0.2,0.2
			C93.3,74.8,93.3,74.9,93.2,74.9z"/>
		<path fill="#4E8090" d="M92.3,74.9l-0.2,0.2c0,0-0.1,0-0.2,0l-0.2-0.2c0,0,0-0.1,0-0.2l0.2-0.2c0,0,0.1,0,0.2,0l0.2,0.2
			C92.3,74.8,92.3,74.9,92.3,74.9z"/>
		<path fill="#4E8090" d="M92.8,74.4l-0.2,0.2c0,0-0.1,0-0.2,0l-0.2-0.2c0,0,0-0.1,0-0.2l0.2-0.2c0,0,0.1,0,0.2,0l0.2,0.2
			C92.8,74.3,92.8,74.4,92.8,74.4z"/>
		<path fill="#4E8090" d="M91.8,74.4l-0.2,0.2c0,0-0.1,0-0.2,0l-0.2-0.2c0,0,0-0.1,0-0.2l0.2-0.2c0,0,0.1,0,0.2,0l0.2,0.2
			C91.8,74.3,91.8,74.4,91.8,74.4z"/>
		<path fill="#4E8090" d="M92.3,74l-0.2,0.2c0,0-0.1,0-0.2,0L91.7,74c0,0,0-0.1,0-0.2l0.2-0.2c0,0,0.1,0,0.2,0l0.2,0.2
			C92.3,73.8,92.3,73.9,92.3,74z"/>
		<path fill="#4E8090" d="M90.3,75.9l-0.2,0.2c0,0-0.1,0-0.2,0l-0.2-0.2c0,0,0-0.1,0-0.2l0.2-0.2c0,0,0.1,0,0.2,0l0.2,0.2
			C90.4,75.8,90.4,75.8,90.3,75.9z"/>
		<path fill="#4E8090" d="M90.8,75.4l-0.2,0.2c0,0-0.1,0-0.2,0l-0.2-0.2c0,0,0-0.1,0-0.2l0.2-0.2c0,0,0.1,0,0.2,0l0.2,0.2
			C90.9,75.3,90.9,75.4,90.8,75.4z"/>
		<path fill="#4E8090" d="M91.3,74.9l-0.2,0.2c0,0-0.1,0-0.2,0l-0.2-0.2c0,0,0-0.1,0-0.2l0.2-0.2c0,0,0.1,0,0.2,0l0.2,0.2
			C91.3,74.8,91.3,74.9,91.3,74.9z"/>
		<path fill="#4E8090" d="M92.8,73.5l-0.2,0.2c0,0-0.1,0-0.2,0l-0.2-0.2c0,0,0-0.1,0-0.2l0.2-0.2c0,0,0.1,0,0.2,0l0.2,0.2
			C92.8,73.3,92.8,73.4,92.8,73.5z"/>
		<path fill="#4E8090" d="M93.7,72.5l-0.2,0.2c0,0-0.1,0-0.2,0l-0.2-0.2c0,0,0-0.1,0-0.2l0.2-0.2c0,0,0.1,0,0.2,0l0.2,0.2
			C93.8,72.4,93.8,72.5,93.7,72.5z"/>
		<path fill="#4E8090" d="M94.2,72L94,72.2c0,0-0.1,0-0.2,0L93.7,72c0,0,0-0.1,0-0.2l0.2-0.2c0,0,0.1,0,0.2,0l0.2,0.2
			C94.3,71.9,94.3,72,94.2,72z"/>
		<path fill="#4E8090" d="M93.2,73L93,73.2c0,0-0.1,0-0.2,0L92.7,73c0,0,0-0.1,0-0.2l0.2-0.2c0,0,0.1,0,0.2,0l0.2,0.2
			C93.3,72.9,93.3,72.9,93.2,73z"/>
		<path fill="#4E8090" d="M96.7,70.5l-0.2,0.2c0,0-0.1,0-0.2,0l-0.2-0.2c0,0,0-0.1,0-0.2l0.2-0.2c0,0,0.1,0,0.2,0l0.2,0.2
			C96.7,70.4,96.7,70.5,96.7,70.5z"/>
		<path fill="#4E8090" d="M97.2,71L97,71.2c0,0-0.1,0-0.2,0L96.6,71c0,0,0-0.1,0-0.2l0.2-0.2c0,0,0.1,0,0.2,0l0.2,0.2
			C97.2,70.9,97.2,71,97.2,71z"/>
		<path fill="#4E8090" d="M97.6,71.5l-0.2,0.2c0,0-0.1,0-0.2,0l-0.2-0.2c0,0,0-0.1,0-0.2l0.2-0.2c0,0,0.1,0,0.2,0l0.2,0.2
			C97.7,71.4,97.7,71.5,97.6,71.5z"/>
		<path fill="#4E8090" d="M96.2,71L96,71.2c0,0-0.1,0-0.2,0L95.6,71c0,0,0-0.1,0-0.2l0.2-0.2c0,0,0.1,0,0.2,0l0.2,0.2
			C96.2,70.9,96.2,71,96.2,71z"/>
		<path fill="#4E8090" d="M96.7,71.5l-0.2,0.2c0,0-0.1,0-0.2,0l-0.2-0.2c0,0,0-0.1,0-0.2l0.2-0.2c0,0,0.1,0,0.2,0l0.2,0.2
			C96.7,71.4,96.7,71.4,96.7,71.5z"/>
		<path fill="#4E8090" d="M97.2,72L97,72.2c0,0-0.1,0-0.2,0L96.6,72c0,0,0-0.1,0-0.2l0.2-0.2c0,0,0.1,0,0.2,0l0.2,0.2
			C97.2,71.9,97.2,71.9,97.2,72z"/>
		<path fill="#4E8090" d="M97.7,72.5l-0.2,0.2c0,0-0.1,0-0.2,0l-0.2-0.2c0,0,0-0.1,0-0.2l0.2-0.2c0,0,0.1,0,0.2,0l0.2,0.2
			C97.7,72.4,97.7,72.4,97.7,72.5z"/>
		<path fill="#4E8090" d="M98.1,73L98,73.2c0,0-0.1,0-0.2,0L97.6,73c0,0,0-0.1,0-0.2l0.2-0.2c0,0,0.1,0,0.2,0l0.2,0.2
			C98.2,72.8,98.2,72.9,98.1,73z"/>
		<path fill="#4E8090" d="M98.6,73.5l-0.2,0.2c0,0-0.1,0-0.2,0l-0.2-0.2c0,0,0-0.1,0-0.2l0.2-0.2c0,0,0.1,0,0.2,0l0.2,0.2
			C98.7,73.3,98.7,73.4,98.6,73.5z"/>
		<path fill="#4E8090" d="M98.2,72L98,72.2c0,0-0.1,0-0.2,0L97.6,72c0,0,0-0.1,0-0.2l0.2-0.2c0,0,0.1,0,0.2,0l0.2,0.2
			C98.2,71.9,98.2,72,98.2,72z"/>
		<path fill="#4E8090" d="M98.6,72.5l-0.2,0.2c0,0-0.1,0-0.2,0l-0.2-0.2c0,0,0-0.1,0-0.2l0.2-0.2c0,0,0.1,0,0.2,0l0.2,0.2
			C98.7,72.4,98.7,72.4,98.6,72.5z"/>
		<path fill="#4E8090" d="M99.1,73l-0.2,0.2c0,0-0.1,0-0.2,0L98.6,73c0,0,0-0.1,0-0.2l0.2-0.2c0,0,0.1,0,0.2,0l0.2,0.2
			C99.2,72.9,99.2,72.9,99.1,73z"/>
		<path fill="#4E8090" d="M99.1,74l-0.2,0.2c0,0-0.1,0-0.2,0L98.6,74c0,0,0-0.1,0-0.2l0.2-0.2c0,0,0.1,0,0.2,0l0.2,0.2
			C99.2,73.8,99.2,73.9,99.1,74z"/>
		<path fill="#4E8090" d="M95.6,70c0.3-0.3,0.6,0,0.6,0S96,70.2,96,70.3c0,0-0.1,0-0.1,0C95.8,70.2,95.6,70,95.6,70z"/>
		<path fill="#4E8090" d="M95.7,70.5l-0.2,0.2c0,0-0.1,0-0.2,0l-0.2-0.2c0,0,0-0.1,0-0.2l0.2-0.2c0,0,0.1,0,0.2,0l0.2,0.2
			C95.7,70.4,95.7,70.5,95.7,70.5z"/>
		<path fill="#4E8090" d="M97.4,69.9l-0.2,0.2c0,0-0.1,0-0.2,0l-0.2-0.2c0,0,0-0.1,0-0.2l0.2-0.2c0,0,0.1,0,0.2,0l0.2,0.2
			C97.5,69.8,97.5,69.9,97.4,69.9z"/>
		<path fill="#4E8090" d="M97.9,70.4l-0.2,0.2c0,0-0.1,0-0.2,0l-0.2-0.2c0,0,0-0.1,0-0.2l0.2-0.2c0,0,0.1,0,0.2,0l0.2,0.2
			C97.9,70.3,97.9,70.4,97.9,70.4z"/>
		<path fill="#4E8090" d="M98.4,70.9l-0.2,0.2c0,0-0.1,0-0.2,0l-0.2-0.2c0,0,0-0.1,0-0.2l0.2-0.2c0,0,0.1,0,0.2,0l0.2,0.2
			C98.4,70.8,98.4,70.8,98.4,70.9z"/>
		<path fill="#4E8090" d="M98.9,71.4l-0.2,0.2c0,0-0.1,0-0.2,0l-0.2-0.2c0,0,0-0.1,0-0.2l0.2-0.2c0,0,0.1,0,0.2,0l0.2,0.2
			C98.9,71.3,98.9,71.3,98.9,71.4z"/>
		<path fill="#4E8090" d="M99.4,71.9l-0.2,0.2c0,0-0.1,0-0.2,0l-0.2-0.2c0,0,0-0.1,0-0.2l0.2-0.2c0,0,0.1,0,0.2,0l0.2,0.2
			C99.4,71.7,99.4,71.8,99.4,71.9z"/>
		<path fill="#4E8090" d="M99.9,72.4l-0.2,0.2c0,0-0.1,0-0.2,0l-0.2-0.2c0,0,0-0.1,0-0.2l0.2-0.2c0,0,0.1,0,0.2,0l0.2,0.2
			C99.9,72.2,99.9,72.3,99.9,72.4z"/>
		<path fill="#4E8090" d="M97.9,69.4l-0.2,0.2c0,0-0.1,0-0.2,0l-0.2-0.2c0,0,0-0.1,0-0.2l0.2-0.2c0,0,0.1,0,0.2,0l0.2,0.2
			C97.9,69.3,97.9,69.4,97.9,69.4z"/>
		<path fill="#4E8090" d="M98.4,69.9l-0.2,0.2c0,0-0.1,0-0.2,0l-0.2-0.2c0,0,0-0.1,0-0.2l0.2-0.2c0,0,0.1,0,0.2,0l0.2,0.2
			C98.4,69.8,98.4,69.8,98.4,69.9z"/>
		<path fill="#4E8090" d="M98.9,70.4l-0.2,0.2c0,0-0.1,0-0.2,0l-0.2-0.2c0,0,0-0.1,0-0.2l0.2-0.2c0,0,0.1,0,0.2,0l0.2,0.2
			C98.9,70.3,98.9,70.3,98.9,70.4z"/>
		<path fill="#4E8090" d="M99.4,70.9l-0.2,0.2c0,0-0.1,0-0.2,0l-0.2-0.2c0,0,0-0.1,0-0.2l0.2-0.2c0,0,0.1,0,0.2,0l0.2,0.2
			C99.4,70.8,99.4,70.8,99.4,70.9z"/>
		<path fill="#4E8090" d="M99.9,71.4l-0.2,0.2c0,0-0.1,0-0.2,0l-0.2-0.2c0,0,0-0.1,0-0.2l0.2-0.2c0,0,0.1,0,0.2,0l0.2,0.2
			C99.9,71.2,99.9,71.3,99.9,71.4z"/>
		<path fill="#4E8090" d="M100.4,71.9l-0.2,0.2c0,0-0.1,0-0.2,0l-0.2-0.2c0,0,0-0.1,0-0.2l0.2-0.2c0,0,0.1,0,0.2,0l0.2,0.2
			C100.4,71.7,100.4,71.8,100.4,71.9z"/>
		<path fill="#7B4344" d="M97.2,77.8c0,0-0.3-0.3-0.3-0.3c-0.1-0.1-0.1,0-0.1,0c0.1-0.1-0.3,0.3-0.3,0.3S96.9,78.1,97.2,77.8z"/>
		<path fill="#7B4344" d="M97.3,76.9c0,0-0.3,0.3-0.3,0.3c-0.1,0.1,0,0.1,0,0.1c-0.1-0.1,0.3,0.3,0.3,0.3S97.7,77.3,97.3,76.9z"/>
		<path fill="#7B4344" d="M98.7,77.3c0,0-0.3-0.3-0.3-0.3c-0.1-0.1-0.1,0-0.1,0c0.1-0.1-0.3,0.3-0.3,0.3S98.4,77.7,98.7,77.3z"/>
		<path fill="#7B4344" d="M98.8,76.4c0,0-0.3,0.3-0.3,0.3c-0.1,0.1,0,0.1,0,0.1c-0.1-0.1,0.3,0.3,0.3,0.3S99.2,76.8,98.8,76.4z"/>
		<path fill="#7B4344" d="M100.2,76.8c0,0-0.3-0.3-0.3-0.3c-0.1-0.1-0.1,0-0.1,0c0.1-0.1-0.3,0.3-0.3,0.3S99.9,77.2,100.2,76.8z"/>
		<path fill="#7B4344" d="M100.3,75.9c0,0-0.3,0.3-0.3,0.3c-0.1,0.1,0,0.1,0,0.1c-0.1-0.1,0.3,0.3,0.3,0.3S100.7,76.3,100.3,75.9z"
			/>
		<path fill="#7B4344" d="M95.8,78.3c0,0-0.3-0.3-0.3-0.3c-0.1-0.1-0.1,0-0.1,0c0.1-0.1-0.3,0.3-0.3,0.3S95.4,78.6,95.8,78.3z"/>
		<path fill="#7B4344" d="M95.9,77.4c0,0-0.3,0.3-0.3,0.3c-0.1,0.1,0,0.1,0,0.1c-0.1-0.1,0.3,0.3,0.3,0.3S96.2,77.8,95.9,77.4z"/>
		<path fill="#7B4344" d="M96.7,77.4l-0.2,0.2c0,0-0.1,0-0.2,0l-0.2-0.2c0,0,0-0.1,0-0.2l0.2-0.2c0,0,0.1,0,0.2,0l0.2,0.2
			C96.7,77.2,96.7,77.3,96.7,77.4z"/>
		<path fill="#7B4344" d="M97.2,76.9L97,77.1c0,0-0.1,0-0.2,0l-0.2-0.2c0,0,0-0.1,0-0.2l0.2-0.2c0,0,0.1,0,0.2,0l0.2,0.2
			C97.2,76.8,97.2,76.8,97.2,76.9z"/>
		<path fill="#7B4344" d="M97.6,76.4l-0.2,0.2c0,0-0.1,0-0.2,0l-0.2-0.2c0,0,0-0.1,0-0.2l0.2-0.2c0,0,0.1,0,0.2,0l0.2,0.2
			C97.7,76.3,97.7,76.3,97.6,76.4z"/>
		<path fill="#7B4344" d="M98.1,75.9l-0.2,0.2c0,0-0.1,0-0.2,0l-0.2-0.2c0,0,0-0.1,0-0.2l0.2-0.2c0,0,0.1,0,0.2,0l0.2,0.2
			C98.2,75.8,98.2,75.9,98.1,75.9z"/>
		<path fill="#7B4344" d="M98.1,76.9l-0.2,0.2c0,0-0.1,0-0.2,0l-0.2-0.2c0,0,0-0.1,0-0.2l0.2-0.2c0,0,0.1,0,0.2,0l0.2,0.2
			C98.2,76.8,98.2,76.8,98.1,76.9z"/>
		<path fill="#7B4344" d="M98.6,76.4l-0.2,0.2c0,0-0.1,0-0.2,0l-0.2-0.2c0,0,0-0.1,0-0.2l0.2-0.2c0,0,0.1,0,0.2,0l0.2,0.2
			C98.7,76.3,98.7,76.4,98.6,76.4z"/>
		<path fill="#7B4344" d="M96.7,76.4c-0.3-0.3-0.6,0-0.6,0s0.2,0.2,0.3,0.3c0,0,0.1,0,0.1,0C96.5,76.6,96.7,76.4,96.7,76.4z"/>
		<path fill="#4E8090" d="M96.1,76.2c0.1-0.1,0.2-0.2,0.2-0.2c0,0,0.1-0.1,0.1,0c0,0,0.3,0.3,0.3,0.3C96.4,76,96.2,76.1,96.1,76.2z"
			/>
		<path fill="#7B4344" d="M96.4,75.7c-0.3-0.3,0-0.6,0-0.6s0.2,0.2,0.3,0.3c0,0,0,0.1,0,0.1C96.7,75.4,96.4,75.7,96.4,75.7z"/>
		<path fill="#4E8090" d="M96.3,75.1c-0.1,0.1-0.2,0.2-0.2,0.2c0,0-0.1,0.1,0,0.1c0,0,0.3,0.3,0.3,0.3
			C96.1,75.4,96.2,75.2,96.3,75.1z"/>
		<path fill="#7B4344" d="M97.2,74.9c-0.3-0.3-0.6,0-0.6,0s0.2,0.2,0.3,0.3c0,0,0.1,0,0.1,0C97,75.2,97.2,74.9,97.2,74.9z"/>
		<path fill="#4E8090" d="M96.6,74.7c0.1-0.1,0.2-0.2,0.2-0.2c0,0,0.1-0.1,0.1,0c0,0,0.3,0.3,0.3,0.3C96.9,74.5,96.7,74.7,96.6,74.7
			z"/>
		<path fill="#7B4344" d="M97,74.2c-0.3-0.3,0-0.6,0-0.6s0.2,0.2,0.3,0.3c0,0,0,0.1,0,0.1C97.2,73.9,97,74.2,97,74.2z"/>
		<path fill="#4E8090" d="M96.8,73.6c-0.1,0.1-0.2,0.2-0.2,0.2c0,0-0.1,0.1,0,0.1c0,0,0.3,0.3,0.3,0.3
			C96.6,73.9,96.7,73.7,96.8,73.6z"/>
		<path fill="#7B4344" d="M97.7,73.4c-0.3-0.3-0.6,0-0.6,0s0.2,0.2,0.3,0.3c0,0,0.1,0,0.1,0C97.5,73.7,97.7,73.4,97.7,73.4z"/>
		<path fill="#4E8090" d="M97.1,73.3c0.1-0.1,0.2-0.2,0.2-0.2c0,0,0.1-0.1,0.1,0c0,0,0.3,0.3,0.3,0.3C97.4,73,97.2,73.2,97.1,73.3z"
			/>
		<path fill="#7B4344" d="M93.7,74.3c-0.3,0.3-0.6,0-0.6,0s0.2-0.2,0.3-0.3c0,0,0.1,0,0.1,0C93.5,74.1,93.7,74.3,93.7,74.3z"/>
		<path fill="#4E8090" d="M93.2,74.5c0.1,0.1,0.2,0.2,0.2,0.2c0,0,0.1,0.1,0.1,0c0,0,0.3-0.3,0.3-0.3C93.5,74.7,93.3,74.6,93.2,74.5
			z"/>
		<path fill="#7B4344" d="M93,73.6c-0.3,0.3,0,0.6,0,0.6s0.2-0.2,0.3-0.3c0,0,0-0.1,0-0.1C93.2,73.8,93,73.6,93,73.6z"/>
		<path fill="#4E8090" d="M92.8,74.1c-0.1-0.1-0.2-0.2-0.2-0.2c0,0-0.1-0.1,0-0.1c0,0,0.3-0.3,0.3-0.3C92.6,73.8,92.8,74,92.8,74.1z
			"/>
		<path fill="#7B4344" d="M94.2,74L94,74.2c0,0-0.1,0-0.2,0L93.7,74c0,0,0-0.1,0-0.2l0.2-0.2c0,0,0.1,0,0.2,0l0.2,0.2
			C94.3,73.8,94.3,73.9,94.2,74z"/>
		<path fill="#7B4344" d="M97.2,75.9L97,76.1c0,0-0.1,0-0.2,0l-0.2-0.2c0,0,0-0.1,0-0.2l0.2-0.2c0,0,0.1,0,0.2,0l0.2,0.2
			C97.2,75.8,97.2,75.9,97.2,75.9z"/>
		<path fill="#7B4344" d="M97.6,75.4l-0.2,0.2c0,0-0.1,0-0.2,0l-0.2-0.2c0,0,0-0.1,0-0.2l0.2-0.2c0,0,0.1,0,0.2,0l0.2,0.2
			C97.7,75.3,97.7,75.4,97.6,75.4z"/>
		<path fill="#7B4344" d="M98.6,75.4l-0.2,0.2c0,0-0.1,0-0.2,0l-0.2-0.2c0,0,0-0.1,0-0.2l0.2-0.2c0,0,0.1,0,0.2,0l0.2,0.2
			C98.7,75.3,98.7,75.4,98.6,75.4z"/>
		<path fill="#7B4344" d="M99.1,74.9l-0.2,0.2c0,0-0.1,0-0.2,0l-0.2-0.2c0,0,0-0.1,0-0.2l0.2-0.2c0,0,0.1,0,0.2,0l0.2,0.2
			C99.2,74.8,99.2,74.9,99.1,74.9z"/>
		<path fill="#7B4344" d="M99.1,75.9l-0.2,0.2c0,0-0.1,0-0.2,0l-0.2-0.2c0,0,0-0.1,0-0.2l0.2-0.2c0,0,0.1,0,0.2,0l0.2,0.2
			C99.2,75.8,99.2,75.9,99.1,75.9z"/>
		<path fill="#7B4344" d="M99.6,75.4l-0.2,0.2c0,0-0.1,0-0.2,0L99,75.4c0,0,0-0.1,0-0.2l0.2-0.2c0,0,0.1,0,0.2,0l0.2,0.2
			C99.7,75.3,99.7,75.4,99.6,75.4z"/>
		<path fill="#7B4344" d="M99.6,76.4l-0.2,0.2c0,0-0.1,0-0.2,0l-0.2-0.2c0,0,0-0.1,0-0.2l0.2-0.2c0,0,0.1,0,0.2,0l0.2,0.2
			C99.7,76.3,99.7,76.3,99.6,76.4z"/>
		<path fill="#7B4344" d="M100.1,75.9l-0.2,0.2c0,0-0.1,0-0.2,0l-0.2-0.2c0,0,0-0.1,0-0.2l0.2-0.2c0,0,0.1,0,0.2,0l0.2,0.2
			C100.2,75.8,100.2,75.9,100.1,75.9z"/>
		<path fill="#7B4344" d="M98.1,74.9l-0.2,0.2c0,0-0.1,0-0.2,0l-0.2-0.2c0,0,0-0.1,0-0.2l0.2-0.2c0,0,0.1,0,0.2,0l0.2,0.2
			C98.2,74.8,98.2,74.9,98.1,74.9z"/>
		<path fill="#7B4344" d="M98.6,74.4l-0.2,0.2c0,0-0.1,0-0.2,0l-0.2-0.2c0,0,0-0.1,0-0.2l0.2-0.2c0,0,0.1,0,0.2,0l0.2,0.2
			C98.7,74.3,98.7,74.4,98.6,74.4z"/>
		<path fill="#7B4344" d="M97.6,74.4l-0.2,0.2c0,0-0.1,0-0.2,0l-0.2-0.2c0,0,0-0.1,0-0.2l0.2-0.2c0,0,0.1,0,0.2,0l0.2,0.2
			C97.7,74.3,97.7,74.4,97.6,74.4z"/>
		<path fill="#7B4344" d="M98.2,74L98,74.1c0,0-0.1,0-0.2,0L97.6,74c0,0,0-0.1,0-0.2l0.2-0.2c0,0,0.1,0,0.2,0l0.2,0.2
			C98.2,73.8,98.2,73.9,98.2,74z"/>
		<path fill="#7B4344" d="M94.7,73.5l-0.2,0.2c0,0-0.1,0-0.2,0l-0.2-0.2c0,0,0-0.1,0-0.2l0.2-0.2c0,0,0.1,0,0.2,0l0.2,0.2
			C94.7,73.3,94.7,73.4,94.7,73.5z"/>
		<path fill="#7B4344" d="M95.2,73L95,73.2c0,0-0.1,0-0.2,0L94.6,73c0,0,0-0.1,0-0.2l0.2-0.2c0,0,0.1,0,0.2,0l0.2,0.2
			C95.2,72.9,95.2,72.9,95.2,73z"/>
		<path fill="#7B4344" d="M95.7,72.5l-0.2,0.2c0,0-0.1,0-0.2,0l-0.2-0.2c0,0,0-0.1,0-0.2l0.2-0.2c0,0,0.1,0,0.2,0l0.2,0.2
			C95.7,72.3,95.7,72.4,95.7,72.5z"/>
		<path fill="#7B4344" d="M93.7,73.5l-0.2,0.2c0,0-0.1,0-0.2,0l-0.2-0.2c0,0,0-0.1,0-0.2l0.2-0.2c0,0,0.1,0,0.2,0l0.2,0.2
			C93.8,73.4,93.8,73.4,93.7,73.5z"/>
		<path fill="#7B4344" d="M94.2,73L94,73.2c0,0-0.1,0-0.2,0L93.6,73c0,0,0-0.1,0-0.2l0.2-0.2c0,0,0.1,0,0.2,0l0.2,0.2
			C94.3,72.9,94.3,72.9,94.2,73z"/>
		<path fill="#7B4344" d="M94.7,72.5l-0.2,0.2c0,0-0.1,0-0.2,0l-0.2-0.2c0,0,0-0.1,0-0.2l0.2-0.2c0,0,0.1,0,0.2,0l0.2,0.2
			C94.8,72.4,94.8,72.5,94.7,72.5z"/>
		<path fill="#7B4344" d="M95.2,72L95,72.2c0,0-0.1,0-0.2,0L94.6,72c0,0,0-0.1,0-0.2l0.2-0.2c0,0,0.1,0,0.2,0l0.2,0.2
			C95.3,71.9,95.3,72,95.2,72z"/>
		<path fill="#7B4344" d="M95.7,71.5l-0.2,0.2c0,0-0.1,0-0.2,0l-0.2-0.2c0,0,0-0.1,0-0.2l0.2-0.2c0,0,0.1,0,0.2,0l0.2,0.2
			C95.7,71.4,95.7,71.4,95.7,71.5z"/>
		<path fill="#7B4344" d="M94.7,71.5l-0.2,0.2c0,0-0.1,0-0.2,0l-0.2-0.2c0,0,0-0.1,0-0.2l0.2-0.2c0,0,0.1,0,0.2,0l0.2,0.2
			C94.8,71.4,94.8,71.5,94.7,71.5z"/>
		<path fill="#7B4344" d="M95.2,71L95,71.2c0,0-0.1,0-0.2,0L94.7,71c0,0,0-0.1,0-0.2l0.2-0.2c0,0,0.1,0,0.2,0l0.2,0.2
			C95.3,70.9,95.3,71,95.2,71z"/>
		<path fill="#7B4344" d="M94.2,71l-0.2,0.2c0,0-0.1,0-0.2,0L93.7,71c0,0,0-0.1,0-0.2l0.2-0.2c0,0,0.1,0,0.2,0l0.2,0.2
			C94.3,70.9,94.3,71,94.2,71z"/>
		<path fill="#7B4344" d="M94.7,70.5l-0.2,0.2c0,0-0.1,0-0.2,0l-0.2-0.2c0,0,0-0.1,0-0.2l0.2-0.2c0,0,0.1,0,0.2,0l0.2,0.2
			C94.8,70.4,94.8,70.5,94.7,70.5z"/>
		<path fill="#7B4344" d="M93.8,70.5l-0.2,0.2c0,0-0.1,0-0.2,0l-0.2-0.2c0,0,0-0.1,0-0.2l0.2-0.2c0,0,0.1,0,0.2,0l0.2,0.2
			C93.8,70.4,93.8,70.5,93.8,70.5z"/>
		<path fill="#7B4344" d="M93.7,71.5l-0.2,0.2c0,0-0.1,0-0.2,0l-0.2-0.2c0,0,0-0.1,0-0.2l0.2-0.2c0,0,0.1,0,0.2,0l0.2,0.2
			C93.8,71.4,93.8,71.5,93.7,71.5z"/>
		<path fill="#7B4344" d="M93.3,71.1l-0.2,0.2c0,0-0.1,0-0.2,0l-0.2-0.2c0,0,0-0.1,0-0.2l0.2-0.2c0,0,0.1,0,0.2,0l0.2,0.2
			C93.3,70.9,93.3,71,93.3,71.1z"/>
		<path fill="#7B4344" d="M93.3,72l-0.2,0.2c0,0-0.1,0-0.2,0L92.7,72c0,0,0-0.1,0-0.2l0.2-0.2c0,0,0.1,0,0.2,0l0.2,0.2
			C93.3,71.9,93.3,72,93.3,72z"/>
		<path fill="#7B4344" d="M92.8,71.5l-0.2,0.2c0,0-0.1,0-0.2,0l-0.2-0.2c0,0,0-0.1,0-0.2l0.2-0.2c0,0,0.1,0,0.2,0l0.2,0.2
			C92.8,71.4,92.8,71.5,92.8,71.5z"/>
		<path fill="#7B4344" d="M92.8,72.5l-0.2,0.2c0,0-0.1,0-0.2,0l-0.2-0.2c0,0,0-0.1,0-0.2l0.2-0.2c0,0,0.1,0,0.2,0l0.2,0.2
			C92.8,72.4,92.8,72.5,92.8,72.5z"/>
		<path fill="#7B4344" d="M92.3,72l-0.2,0.2c0,0-0.1,0-0.2,0L91.7,72c0,0,0-0.1,0-0.2l0.2-0.2c0,0,0.1,0,0.2,0l0.2,0.2
			C92.3,71.9,92.3,72,92.3,72z"/>
		<path fill="#7B4344" d="M92.3,73l-0.2,0.2c0,0-0.1,0-0.2,0L91.7,73c0,0,0-0.1,0-0.2l0.2-0.2c0,0,0.1,0,0.2,0l0.2,0.2
			C92.3,72.9,92.3,73,92.3,73z"/>
		<path fill="#7B4344" d="M91.8,72.5l-0.2,0.2c0,0-0.1,0-0.2,0l-0.2-0.2c0,0,0-0.1,0-0.2l0.2-0.2c0,0,0.1,0,0.2,0l0.2,0.2
			C91.8,72.4,91.8,72.5,91.8,72.5z"/>
		<path fill="#7B4344" d="M91.8,73.5l-0.2,0.2c0,0-0.1,0-0.2,0l-0.2-0.2c0,0,0-0.1,0-0.2l0.2-0.2c0,0,0.1,0,0.2,0l0.2,0.2
			C91.8,73.4,91.8,73.4,91.8,73.5z"/>
		<path fill="#7B4344" d="M91.3,73l-0.2,0.2c0,0-0.1,0-0.2,0L90.7,73c0,0,0-0.1,0-0.2l0.2-0.2c0,0,0.1,0,0.2,0l0.2,0.2
			C91.4,72.9,91.4,73,91.3,73z"/>
		<path fill="#7B4344" d="M91.3,74l-0.2,0.2c0,0-0.1,0-0.2,0L90.7,74c0,0,0-0.1,0-0.2l0.2-0.2c0,0,0.1,0,0.2,0l0.2,0.2
			C91.4,73.8,91.4,73.9,91.3,74z"/>
		<path fill="#7B4344" d="M92.5,69.9l0.2,0.2c0,0,0.1,0,0.2,0l0.2-0.2c0,0,0-0.1,0-0.2l-0.2-0.2c0,0-0.1,0-0.2,0l-0.2,0.2
			C92.5,69.7,92.5,69.8,92.5,69.9z"/>
		<path fill="#7B4344" d="M92,70.3l0.2,0.2c0,0,0.1,0,0.2,0l0.2-0.2c0,0,0-0.1,0-0.2L92.4,70c0,0-0.1,0-0.2,0L92,70.2
			C92,70.2,92,70.3,92,70.3z"/>
		<path fill="#7B4344" d="M91.5,70.8l0.2,0.2c0,0,0.1,0,0.2,0l0.2-0.2c0,0,0-0.1,0-0.2l-0.2-0.2c0,0-0.1,0-0.2,0l-0.2,0.2
			C91.5,70.7,91.5,70.8,91.5,70.8z"/>
		<path fill="#7B4344" d="M91,71.3l0.2,0.2c0,0,0.1,0,0.2,0l0.2-0.2c0,0,0-0.1,0-0.2L91.4,71c0,0-0.1,0-0.2,0L91,71.2
			C91,71.2,91,71.3,91,71.3z"/>
		<path fill="#7B4344" d="M90.6,71.8l0.2,0.2c0,0,0.1,0,0.2,0l0.2-0.2c0,0,0-0.1,0-0.2l-0.2-0.2c0,0-0.1,0-0.2,0l-0.2,0.2
			C90.5,71.7,90.5,71.8,90.6,71.8z"/>
		<path fill="#7B4344" d="M90.1,72.3l0.2,0.2c0,0,0.1,0,0.2,0l0.2-0.2c0,0,0-0.1,0-0.2l-0.2-0.2c0,0-0.1,0-0.2,0l-0.2,0.2
			C90,72.2,90,72.3,90.1,72.3z"/>
		<path fill="#7B4344" d="M92,69.4l0.2,0.2c0,0,0.1,0,0.2,0l0.2-0.2c0,0,0-0.1,0-0.2L92.4,69c0,0-0.1,0-0.2,0L92,69.2
			C92,69.2,92,69.3,92,69.4z"/>
		<path fill="#7B4344" d="M91.5,69.8l0.2,0.2c0,0,0.1,0,0.2,0l0.2-0.2c0,0,0-0.1,0-0.2l-0.2-0.2c0,0-0.1,0-0.2,0l-0.2,0.2
			C91.5,69.7,91.5,69.8,91.5,69.8z"/>
		<path fill="#7B4344" d="M91,70.3l0.2,0.2c0,0,0.1,0,0.2,0l0.2-0.2c0,0,0-0.1,0-0.2L91.4,70c0,0-0.1,0-0.2,0L91,70.2
			C91,70.2,91,70.3,91,70.3z"/>
		<path fill="#7B4344" d="M90.5,70.8l0.2,0.2c0,0,0.1,0,0.2,0l0.2-0.2c0,0,0-0.1,0-0.2l-0.2-0.2c0,0-0.1,0-0.2,0l-0.2,0.2
			C90.5,70.7,90.5,70.8,90.5,70.8z"/>
		<path fill="#7B4344" d="M90.1,71.3l0.2,0.2c0,0,0.1,0,0.2,0l0.2-0.2c0,0,0-0.1,0-0.2l-0.2-0.2c0,0-0.1,0-0.2,0l-0.2,0.2
			C90,71.2,90,71.3,90.1,71.3z"/>
		<path fill="#7B4344" d="M89.6,71.8l0.2,0.2c0,0,0.1,0,0.2,0l0.2-0.2c0,0,0-0.1,0-0.2l-0.2-0.2c0,0-0.1,0-0.2,0l-0.2,0.2
			C89.5,71.7,89.5,71.8,89.6,71.8z"/>
		<path opacity="0.9" fill="#7B4344" d="M99.5,79.1v1.3h1.4c0,0,1.3,0,1.3-1.3c0-1.3,0-1.3,0-1.3h-1.4v1.1c0,0,0,0.3-0.3,0.3
			C100.3,79.1,99.5,79.1,99.5,79.1z"/>
		<path opacity="0.85" fill="#4E8090" d="M90,79.1v1.3h-1.4c0,0-1.3,0-1.3-1.3c0-1.3,0-1.3,0-1.3h1.4v1.1c0,0,0,0.3,0.3,0.3
			S90,79.1,90,79.1z"/>
		<path opacity="0.85" fill="#4E8090" d="M99.5,68.2v-1.3h1.4c0,0,1.3,0,1.3,1.3c0,1.3,0,1.3,0,1.3h-1.4v-1.1c0,0,0-0.3-0.3-0.3
			C100.3,68.2,99.5,68.2,99.5,68.2z"/>
		<path opacity="0.9" fill="#7B4344" d="M90,68.2v-1.3h-1.4c0,0-1.3,0-1.3,1.3c0,1.3,0,1.3,0,1.3h1.4v-1.1c0,0,0-0.3,0.3-0.3
			S90,68.2,90,68.2z"/>
		<path fill="#4E8090" d="M96.2,75.9L96,76.1c0,0-0.1,0-0.2,0l-0.2-0.2c0,0,0-0.1,0-0.2l0.2-0.2c0,0,0.1,0,0.2,0l0.2,0.2
			C96.2,75.8,96.2,75.9,96.2,75.9z"/>
		<path fill="#4E8090" d="M90.8,76.4l-0.2,0.2c0,0-0.1,0-0.2,0l-0.2-0.2c0,0,0-0.1,0-0.2l0.2-0.2c0,0,0.1,0,0.2,0l0.2,0.2
			C90.9,76.3,90.9,76.4,90.8,76.4z"/>
		<path fill="#4E8090" d="M91.3,75.9l-0.2,0.2c0,0-0.1,0-0.2,0l-0.2-0.2c0,0,0-0.1,0-0.2l0.2-0.2c0,0,0.1,0,0.2,0l0.2,0.2
			C91.3,75.8,91.3,75.9,91.3,75.9z"/>
		<path fill="#4E8090" d="M91.8,75.4l-0.2,0.2c0,0-0.1,0-0.2,0l-0.2-0.2c0,0,0-0.1,0-0.2l0.2-0.2c0,0,0.1,0,0.2,0l0.2,0.2
			C91.8,75.3,91.8,75.4,91.8,75.4z"/>
		<path fill="#3A3B4C" d="M108.4,71h0.9v5.7c0,0.9-0.7,1.4-1.5,1.4c-0.9,0-1.4-0.5-1.4-1.2c0,0,0-0.3,0.1-0.5c0.3,0,0.6,0,0.8,0
			c-0.1,0.1-0.1,0.3-0.1,0.4c0,0.4,0.3,0.5,0.6,0.5c0.3,0,0.6-0.2,0.6-0.6V71z M108.2,69.9c0,0.4,0.3,0.6,0.6,0.6s0.7-0.3,0.7-0.6
			s-0.3-0.7-0.7-0.7S108.2,69.5,108.2,69.9z"/>
		<g>
			<path fill="#3A3B4C" d="M113.6,75.3c-0.2,0.2-0.4,0.4-0.7,0.5c-0.3,0.1-0.6,0.2-0.8,0.2c-0.2,0-0.4,0-0.6-0.1
				c-0.2,0-0.3-0.1-0.5-0.2s-0.3-0.3-0.4-0.4c-0.1-0.2-0.1-0.4-0.1-0.6c0-0.5,0.2-0.9,0.5-1.1c0.3-0.3,0.8-0.4,1.5-0.4
				c0.1,0,0.2,0,0.3,0c0.1,0,0.2,0,0.3,0c0.1,0,0.2,0,0.3,0c0.1,0,0.1,0,0.2,0v-0.2c0-0.3-0.1-0.6-0.3-0.7c-0.2-0.1-0.5-0.2-0.8-0.2
				c-0.3,0-0.6,0-0.8,0.1c-0.2,0.1-0.4,0.2-0.5,0.3l-0.4-0.6c0.1-0.1,0.2-0.1,0.3-0.2c0.1-0.1,0.2-0.1,0.4-0.2
				c0.1-0.1,0.3-0.1,0.5-0.1c0.2,0,0.4-0.1,0.6-0.1c0.6,0,1,0.1,1.4,0.4c0.3,0.3,0.5,0.7,0.5,1.2v2.6c0,0.2,0,0.3,0,0.4h-0.8
				L113.6,75.3z M113.6,73.7c0,0-0.1,0-0.1,0c-0.1,0-0.2,0-0.3,0c-0.1,0-0.2,0-0.3,0c-0.1,0-0.2,0-0.3,0c-0.2,0-0.4,0-0.6,0.1
				c-0.1,0.1-0.3,0.1-0.4,0.2c-0.1,0.1-0.1,0.2-0.2,0.3c0,0.1,0,0.2,0,0.3c0,0.2,0.1,0.4,0.2,0.6c0.2,0.1,0.4,0.2,0.7,0.2
				c0.2,0,0.3,0,0.5-0.1c0.1-0.1,0.3-0.1,0.4-0.2c0.1-0.1,0.2-0.2,0.3-0.3c0.1-0.1,0.1-0.3,0.1-0.4V73.7z"/>
			<path fill="#3A3B4C" d="M116,72.1h-0.8v-0.7h0.8v-1.5h0.9v1.5h1.3v0.7h-1.3v2.2c0,0.4,0.1,0.6,0.2,0.7c0.1,0.1,0.3,0.2,0.5,0.2
				c0.2,0,0.3,0,0.4-0.1c0.1-0.1,0.2-0.1,0.3-0.2l0.4,0.5c-0.2,0.2-0.4,0.3-0.6,0.4c-0.2,0.1-0.4,0.1-0.7,0.1c-0.5,0-0.8-0.1-1-0.4
				c-0.2-0.3-0.3-0.7-0.3-1.2V72.1z"/>
			<path fill="#3A3B4C" d="M122.1,75.3c-0.2,0.2-0.4,0.4-0.7,0.5c-0.3,0.1-0.6,0.2-0.8,0.2c-0.2,0-0.4,0-0.6-0.1
				c-0.2,0-0.3-0.1-0.5-0.2c-0.1-0.1-0.3-0.3-0.4-0.4c-0.1-0.2-0.1-0.4-0.1-0.6c0-0.5,0.2-0.9,0.5-1.1c0.3-0.3,0.8-0.4,1.5-0.4
				c0.1,0,0.2,0,0.3,0c0.1,0,0.2,0,0.3,0c0.1,0,0.2,0,0.3,0c0.1,0,0.1,0,0.2,0v-0.2c0-0.3-0.1-0.6-0.3-0.7c-0.2-0.1-0.5-0.2-0.8-0.2
				c-0.3,0-0.6,0-0.8,0.1c-0.2,0.1-0.4,0.2-0.5,0.3l-0.4-0.6c0.1-0.1,0.2-0.1,0.3-0.2c0.1-0.1,0.2-0.1,0.4-0.2
				c0.1-0.1,0.3-0.1,0.5-0.1c0.2,0,0.4-0.1,0.6-0.1c0.6,0,1,0.1,1.4,0.4c0.3,0.3,0.5,0.7,0.5,1.2v2.6c0,0.2,0,0.3,0,0.4h-0.8
				L122.1,75.3z M122.1,73.7c0,0-0.1,0-0.1,0c-0.1,0-0.2,0-0.3,0c-0.1,0-0.2,0-0.3,0c-0.1,0-0.2,0-0.3,0c-0.2,0-0.4,0-0.6,0.1
				c-0.1,0.1-0.3,0.1-0.4,0.2c-0.1,0.1-0.1,0.2-0.2,0.3c0,0.1,0,0.2,0,0.3c0,0.2,0.1,0.4,0.2,0.6c0.2,0.1,0.4,0.2,0.7,0.2
				c0.2,0,0.3,0,0.5-0.1c0.1-0.1,0.3-0.1,0.4-0.2c0.1-0.1,0.2-0.2,0.3-0.3c0.1-0.1,0.1-0.3,0.1-0.4V73.7z"/>
		</g>
		<path fill="#7B4344" d="M126.3,75.7v-4c0-0.1,0-0.3,0-0.4h0.8l0,0.7c0.1-0.1,0.1-0.2,0.2-0.3c0.1-0.1,0.2-0.2,0.3-0.3
			c0.1-0.1,0.3-0.1,0.4-0.2c0.2-0.1,0.3-0.1,0.5-0.1c0.1,0,0.2,0,0.3,0c0.1,0,0.2,0,0.2,0.1l-0.2,0.8c-0.1,0-0.3-0.1-0.4-0.1
			c-0.2,0-0.4,0-0.5,0.1c-0.2,0.1-0.3,0.2-0.4,0.3c-0.1,0.1-0.2,0.3-0.3,0.4c-0.1,0.2-0.1,0.3-0.1,0.5v2.4H126.3z"/>
		<path fill="#7B4344" d="M129.8,71.3h0.9v2.6c0,0.4,0.1,0.7,0.3,0.9c0.2,0.2,0.4,0.3,0.7,0.3c0.2,0,0.5-0.1,0.6-0.2
			c0.2-0.1,0.3-0.2,0.4-0.4c0.1-0.2,0.2-0.3,0.2-0.6c0-0.2,0.1-0.4,0.1-0.6v-2.1h0.9v4c0,0.1,0,0.3,0,0.5H133l0-0.7
			c-0.1,0.1-0.1,0.2-0.2,0.2c-0.1,0.1-0.2,0.2-0.3,0.2c-0.1,0.1-0.3,0.1-0.4,0.2c-0.2,0.1-0.3,0.1-0.5,0.1c-0.6,0-1-0.2-1.3-0.5
			c-0.3-0.3-0.4-0.8-0.4-1.4V71.3z"/>
	</g>
</g>
<g id="XMLID_62_">
	<g>
		<path fill="#343755" d="M204.8,75.9c0,0,5.4,15.1,4.9,39.5c-0.5,24.3-16.7,48.8-16.7,48.8l-2.5-7.9l-23.1-61.1l-2.5-7.7
			L204.8,75.9z"/>
		<path fill="#FFFFFF" d="M167.4,95.2l23.1,61.1c0,0-13.6,5.3-16.8,6.4c-3.2,1-5.6-2-5.6-2l-1.3-3.3l-18.6-48.2
			c-2-5.1,1.1-6.5,1.1-6.5L167.4,95.2z M179.1,150.3c0-2.5-2-4.6-4.6-4.6c-2.5,0-4.6,2-4.6,4.6s2,4.6,4.6,4.6
			C177.1,154.8,179.1,152.8,179.1,150.3z"/>
		<path fill="#F2E07D" d="M174.5,145.7c2.5,0,4.6,2,4.6,4.6c0,0-2.2,2-4.6,2c-2.3,0-4.6-2-4.6-2C170,147.8,172,145.7,174.5,145.7z"
			/>
		<path fill="#D3BF5E" d="M170,150.3c0,0,2.2,2,4.6,2c2.3,0,4.6-2,4.6-2c0,2.5-2,4.6-4.6,4.6C172,154.8,170,152.8,170,150.3z"/>
		<path fill="#F3E5B2" d="M140.8,107l21.7,55.3c-0.2,0.2-0.4,0.4-0.6,0.6c-0.9,1-2.2,2.1-3.5,3.2l-43.1-43h-14.8
			c0,0-0.3,2.7-2.1,10.3c-1.7,7.6-6.6,11.5-9,13.7c-2.1,1.9-6.9,2.7-7.9,2.9c-5-2.8-2-13.3-0.3-17.1c2-4.5,6.8-20.1,6.8-20.1
			c0.7-1,1.6-1.9,2.7-2.7c7.7-5.7,24.7-8.3,24.7-8.3S131,104.6,140.8,107z"/>
		<path fill="#CCBB8F" d="M140.8,107c3.7,0.9,6.5,1.6,7.5,2.2l18.6,48.2c0,0-1.9,2.3-4.3,4.9L140.8,107z"/>
		<path fill="#CCBB8F" d="M117.6,159.4l27.1,26.1c0,0-0.2,1.8-1,3.8l-28.1-27.5c0,0-0.5-0.9,0-1.9
			C116.1,158.8,117.6,159.4,117.6,159.4z"/>
		<path fill="#CCBB8F" d="M105,168.9l25.9,25.4c0,0-0.5,1.3-1.7,2.8l-26.3-25.7c0,0-1-0.8,0-2.1C103.9,168.1,105,168.9,105,168.9z"
			/>
		<path fill="#CCBB8F" d="M104.9,186.5l12.4,12c0,0-0.9,1.4-3.1,2l-8.5-8c0-0.3,0-0.6-0.1-1c-0.1-1.6-0.9-2.9-1.9-3.9L104.9,186.5z"
			/>
		<path fill="#E3D4A1" d="M111.6,200.8c-3.8-0.1-6.6-3-7.2-3.5c0.8-1.3,1.3-2.9,1.3-4.8l8.5,8C113.5,200.7,112.6,200.9,111.6,200.8z
			"/>
		<path fill="#F3E5B2" d="M104.5,197.3c-0.4,0.7-0.9,1.3-1.5,1.8c0,0,0,0,0,0c-0.4,0.1-5.4,1.6-8.9-0.6c-3.6-2.2-4.3-6.8-4.3-7.1
			c2.3-2.8,4.3-5.7,5.3-7.4c0,0,2.2,0.2,4.6,1.1c1.4,0.5,3,1.3,4.1,2.5c1,1,1.8,2.3,1.9,3.9c0,0.3,0.1,0.7,0.1,1
			C105.7,194.4,105.3,196,104.5,197.3z"/>
		<path fill="#CCBB8F" d="M101.4,183.2l3.4,3.3l-1.1,1.1c-1.2-1.1-2.7-1.9-4.1-2.5c-0.5-0.7-0.3-1.4,0.4-2
			C100.7,182.7,101.4,183.2,101.4,183.2z"/>
		<path fill="#E3D4A1" d="M94,198.5c3.5,2.2,8.5,0.7,8.9,0.6c-1.9,1.7-4.7,2.6-7.9,2.7c-6.5,0.3-9.1-6.5-9.1-6.5
			c0.5-0.4,1-0.9,1.5-1.4c0.8-0.8,1.6-1.6,2.3-2.5C89.7,191.7,90.4,196.3,94,198.5z"/>
		<path fill="#F3E5B2" d="M89.7,191.5c-0.7,0.9-1.5,1.7-2.3,2.5l0,0c0,0-5.4,1.1-9.5-2.6c-3.4-3-2.4-9.7-2.4-9.7l6.2-7.5
			c0,0,0.7-0.7,1.8-1.2c1.9-1,5.1-1.9,8.7,0.4c5.9,3.6,3.6,9.4,3.6,9.4s-0.3,0.5-0.8,1.3C94,185.7,92,188.7,89.7,191.5z"/>
		<path fill="#CCBB8F" d="M81.6,150c1-0.2,5.8-1,7.9-2.9c2.4-2.2,7.3-6.1,9-13.7c1.7-7.6,2.1-10.3,2.1-10.3h14.8l43.1,43
			c-2.6,2.1-5.3,4-5.3,4l-41-41.1l-9.4-0.1c0,0,0,1.4-1,5.5c-1,4.1-7.1,15.8-16.6,16.4C83.7,150.7,82.5,150.5,81.6,150z"/>
		<path fill="#F3E5B2" d="M79.6,165.5c4.5,3.5,3.9,7.4,3.9,7.4c-1.2,0.6-1.8,1.2-1.8,1.2l-6.2,7.5l-1,1.2c0,0-4.4,1.9-8.2-1.1
			c-3.7-3-2.4-9-2.3-9.3c0,0,0,0,0,0c0.1-0.2,0.3-0.4,0.4-0.5h0c1.3-1.8,2.5-3,3.7-4.2c0.6-0.6,1.6-1.5,2.9-2.2c0,0,0,0,0,0
			C73.4,164.1,76.7,163.3,79.6,165.5z"/>
		<path fill="#E3D4A1" d="M74.4,183l1-1.2c0,0-1,6.6,2.4,9.7c4.1,3.7,9.5,2.6,9.5,2.6l0,0c-0.5,0.5-1,0.9-1.5,1.4
			c-5.2,4.3-10,2.1-12.2,0c-2-2-1.9-5.2-1.5-7.6c0.3-1.8,0.8-3.2,0.8-3.2L74.4,183z"/>
		<path fill="#CCBB8F" d="M73.7,109.7L54.2,160l-4.7-4.3l0.4-1.1l16.9-43C66.9,111.6,67.9,110.4,73.7,109.7z"/>
		<path fill="#F3E5B2" d="M71,165.5C71,165.5,71,165.5,71,165.5c-1.3,0.7-2.3,1.6-2.9,2.2c-1.2,1.2-2.4,2.5-3.7,4.2h0
			c-0.1,0-2.5,0-6.5-3.3c-4-3.3-1.1-9.9-1.1-9.9c4.4-3.6,9.6-2,11.1-0.4C70.2,160.6,70.9,165.3,71,165.5z"/>
		<path fill="#FFFFFF" d="M66.4,102.6c0,0,3.1,1.4,1.1,6.5L50,154.6l-0.4,1.1l0,0l-1.9,4.9c0,0-2.5,3-5.6,2
			c-3.2-1-16.8-6.4-16.8-6.4l23.1-61.1L66.4,102.6z M45.8,150.3c0-2.5-2-4.6-4.6-4.6c-2.5,0-4.6,2-4.6,4.6s2,4.6,4.6,4.6
			C43.7,154.8,45.8,152.8,45.8,150.3z"/>
		<path fill="#E3D4A1" d="M61.5,176.8c0.2-0.8,0.6-1.5,1-2.2c0.5-0.8,1-1.5,1.4-2.1c-0.1,0.3-1.4,6.4,2.3,9.3c3.8,3,8.2,1.1,8.2,1.1
			l-1.4,1.6c0,0-0.5,1.3-0.8,3.2c0,0-4,1.5-8.1-1.5C60.9,183.8,60.5,180,61.5,176.8z"/>
		<path fill="#E3D4A1" d="M61.5,176.8L61.5,176.8c0,0-13-8.1-6.6-16.2c0.6-0.8,1.2-1.4,1.9-1.9c0,0-2.9,6.6,1.1,9.9
			c3.9,3.3,6.4,3.3,6.5,3.3c-0.1,0.2-0.3,0.4-0.4,0.5c0,0,0,0,0,0c-0.5,0.6-0.9,1.3-1.4,2.1C62.1,175.3,61.7,176,61.5,176.8z"/>
		<path fill="#E3D4A1" d="M54.2,160l19.5-50.3c1.1-0.1,2.3-0.2,3.6-0.3c9-0.6,13.6,0.6,13.6,0.6c-1.1,0.8-2.1,1.7-2.7,2.7
			c0,0-4.8,15.6-6.8,20.1c-1.7,3.8-4.7,14.4,0.3,17.1c0.9,0.5,2,0.7,3.5,0.7c9.5-0.6,15.6-12.3,16.6-16.4c1-4,1-5.5,1-5.5l9.4,0.1
			l41,41.1l0.8,0.8c0,0,3.8,7.2,0,11.6s-9.3,3-9.3,3l-27.1-26.1c0,0-1.5-0.5-2,0.5c-0.5,1.1,0,1.9,0,1.9l28.1,27.5
			c-0.6,1.4-1.5,2.9-2.9,4.1c-3.5,2.9-10,0.9-10,0.9L105,168.9c0,0-1-0.9-2.1,0.4c-1,1.2,0,2.1,0,2.1l26.3,25.7
			c-0.7,0.9-1.7,1.9-3,2.6c-3.2,1.7-8.9-1.2-8.9-1.2l-12.4-12l-3.4-3.3c0,0-0.8-0.5-1.4,0c-0.7,0.5-0.9,1.3-0.4,2
			c-2.4-0.9-4.6-1.1-4.6-1.1c0.5-0.8,0.8-1.3,0.8-1.3s2.3-5.8-3.6-9.4c-3.7-2.2-6.8-1.4-8.7-0.4c0,0,0.6-4-3.9-7.4
			c-2.9-2.3-6.2-1.4-8.7,0c0-0.2-0.8-4.9-3.1-7.2c-1.5-1.6-6.7-3.2-11.1,0.4c-0.7,0.5-1.3,1.2-1.9,1.9L54.2,160z"/>
		<path fill="#343755" d="M50.9,87.6l-2.5,7.7h0l-23.1,61.1h0l-2.5,7.9c0,0-16.2-24.5-16.7-48.8C5.6,91,10.9,75.9,10.9,75.9
			L50.9,87.6z"/>
		<path fill="#F2E07D" d="M45.8,150.3c0,0-2.2,2.1-4.6,2.1c-2.3,0-4.6-2.1-4.6-2.1c0-2.5,2-4.6,4.6-4.6
			C43.7,145.7,45.8,147.8,45.8,150.3z"/>
		<path fill="#D3BF5E" d="M41.2,154.8c-2.5,0-4.6-2-4.6-4.6c0,0,2.2,2.1,4.6,2.1c2.3,0,4.6-2.1,4.6-2.1
			C45.8,152.8,43.7,154.8,41.2,154.8z"/>
	</g>
	<g>
	</g>
</g>
</svg>
