<?xml version="1.0" encoding="utf-8"?>
<!-- Generator: Adobe Illustrator 18.0.0, SVG Export Plug-In . SVG Version: 6.00 Build 0)  -->
<!DOCTYPE svg PUBLIC "-//W3C//DTD SVG 1.1//EN" "http://www.w3.org/Graphics/SVG/1.1/DTD/svg11.dtd">
<svg version="1.1" id="Слой_1" xmlns="http://www.w3.org/2000/svg" xmlns:xlink="http://www.w3.org/1999/xlink" x="0px" y="0px"
	 viewBox="0 0 215 215" enable-background="new 0 0 215 215" xml:space="preserve">
<linearGradient id="SVGID_1_" gradientUnits="userSpaceOnUse" x1="106.987" y1="30.1312" x2="106.987" y2="225.4102">
	<stop  offset="0" style="stop-color:#FFFFFF"/>
	<stop  offset="1" style="stop-color:#5FA297"/>
</linearGradient>
<ellipse fill="url(#SVGID_1_)" cx="107" cy="108" rx="102" ry="101.5"/>
<g>
	<path fill="#C9C9C5" d="M136,145.6c-7.1-0.1-14.4-0.1-21.5-0.2c-30.9-0.3-58.8-0.6-58.8-0.6c-3.2,0-4-3.1-4-3.1v-108
		c0,0-0.3-3.5,2.9-3.5c3.1,0,142.6,0,142.6,0s2.5,0.7,2.5,3.3c0,2.7,0,109.2,0,109.2s-0.1,3.4-3.4,3.4
		C194.9,146.2,166.7,145.9,136,145.6z M194.8,127.2V82.7V37.2h-41h-97v90h6.5h86.6H194.8z"/>
	<polygon fill="#C9C9C5" points="149.9,157 149.9,163.7 99.7,163.7 99.7,157 109.4,157 141.1,157 	"/>
	<path fill="#989899" d="M136,145.6l5.1,11.4h-31.7l5.2-11.6C121.6,145.5,128.9,145.5,136,145.6z"/>
	<rect x="56.8" y="37.2" fill="#FFFFFF" width="138" height="90"/>
	<path fill="#D0DCBB" d="M178.7,123.7H72.3c-6.6,0-12-5.4-12-12V52.8c0-6.6,5.4-12,12-12h106.3c6.6,0,12,5.4,12,12v58.8
		C190.7,118.3,185.3,123.7,178.7,123.7z"/>
	<circle fill="#7FA98B" cx="84.5" cy="64.8" r="2.8"/>
	<path fill="#7FA98B" d="M127.3,66.8H94.1c-1.3,0-2.4-1.1-2.4-2.4l0,0c0-1.3,1.1-2.4,2.4-2.4h33.1c1.3,0,2.4,1.1,2.4,2.4l0,0
		C129.6,65.7,128.6,66.8,127.3,66.8z"/>
	<circle fill="#7FA98B" cx="141.5" cy="64.8" r="2.8"/>
	<path fill="#7FA98B" d="M184.3,66.8h-33.1c-1.3,0-2.4-1.1-2.4-2.4l0,0c0-1.3,1.1-2.4,2.4-2.4h33.1c1.3,0,2.4,1.1,2.4,2.4l0,0
		C186.6,65.7,185.6,66.8,184.3,66.8z"/>
	<circle fill="#7FA98B" cx="84.5" cy="72.8" r="2.8"/>
	<path fill="#7FA98B" d="M127.3,102.4H94.1c-1.3,0-2.4-1.1-2.4-2.4V72.4c0-1.3,1.1-2.4,2.4-2.4h33.1c1.3,0,2.4,1.1,2.4,2.4V100
		C129.6,101.3,128.6,102.4,127.3,102.4z"/>
	<circle fill="#7FA98B" cx="84.5" cy="108.8" r="2.8"/>
	<path fill="#7FA98B" d="M127.3,110.8H94.1c-1.3,0-2.4-1.1-2.4-2.4l0,0c0-1.3,1.1-2.4,2.4-2.4h33.1c1.3,0,2.4,1.1,2.4,2.4l0,0
		C129.6,109.7,128.6,110.8,127.3,110.8z"/>
	<path fill="#7FA98B" d="M184.3,117.2l-33.1,0c-1.3,0-2.4-1.1-2.4-2.4v-6.5c0-1.3,1.1-2.4,2.4-2.4h33.1c1.3,0,2.4,1.1,2.4,2.4v6.5
		C186.6,116.2,185.6,117.2,184.3,117.2z"/>
	<path fill="#7FA98B" d="M183.5,81h-33.1c-1.3,0-2.4-1.1-2.4-2.4v-6.2c0-1.3,1.1-2.4,2.4-2.4h33.1c1.3,0,2.4,1.1,2.4,2.4v6.2
		C185.9,79.9,184.8,81,183.5,81z"/>
	<path fill="#7FA98B" d="M183.5,102.4h-33.1c-1.3,0-2.4-1.1-2.4-2.4V88c0-1.3,1.1-2.4,2.4-2.4h33.1c1.3,0,2.4,1.1,2.4,2.4v12
		C185.9,101.3,184.8,102.4,183.5,102.4z"/>
	<g>
		<circle fill="#7B4344" cx="110" cy="51.7" r="0.5"/>
		<path fill="#4E8090" d="M86.5,53.6c0,0,0.2-0.2,0.2-0.2c0,0,0.1,0,0.1,0c-0.1-0.1,0.2,0.2,0.2,0.2S86.8,53.9,86.5,53.6z"/>
		<path fill="#7B4344" d="M89,53.1c-0.2-0.2,0-0.5,0-0.5s0.2,0.2,0.2,0.2c0,0,0,0.1,0,0.1C89.1,53,89,53.1,89,53.1z"/>
		<path fill="#4E8090" d="M88.8,52.7c-0.1,0.1-0.1,0.1-0.1,0.1c0,0,0,0.1,0,0.1c0,0,0.2,0.2,0.2,0.2C88.7,52.9,88.8,52.8,88.8,52.7z
			"/>
		<path fill="#7B4344" d="M88.9,49.1c0.2,0.2,0,0.5,0,0.5l-0.2-0.2L88.9,49.1z"/>
		<path fill="#4E8090" d="M88.9,49c0.3,0.3,0,0.5,0,0.5l0.3-0.3L88.9,49z"/>
		<path fill="#4E8090" d="M91.4,50.1c0.2,0.2,0,0.5,0,0.5s-0.2-0.2-0.2-0.2c0,0,0-0.1,0-0.1C91.3,50.3,91.4,50.1,91.4,50.1z"/>
		<path fill="#7B4344" d="M85,50.1c-0.2,0.2,0,0.5,0,0.5l0.2-0.2L85,50.1z"/>
		<path fill="#7B4344" d="M87.7,47.9c-0.2-0.2-0.5,0-0.5,0l0.2,0.2L87.7,47.9z"/>
		<path fill="#4E8090" d="M88.8,51.2L88.8,51.2c-0.1,0.1-0.2,0.1-0.3,0.1l-0.1-0.1c0,0,0-0.1,0-0.2l0.1-0.1c0,0,0.1,0,0.2,0l0.1,0.1
			C88.8,51.1,88.8,51.1,88.8,51.2z"/>
		<path fill="#4E8090" d="M89.1,51.5L89.1,51.5c-0.1,0.1-0.2,0.1-0.3,0.1l-0.1-0.1c0,0,0-0.1,0-0.2l0.1-0.1c0,0,0.1,0,0.2,0l0.1,0.1
			C89.2,51.4,89.2,51.5,89.1,51.5z"/>
		<path fill="#4E8090" d="M89.5,51.2L89.5,51.2c-0.1,0.1-0.2,0.1-0.3,0.1l-0.1-0.1c0,0,0-0.1,0-0.2l0.1-0.1c0,0,0.1,0,0.2,0l0.1,0.1
			C89.5,51.1,89.5,51.1,89.5,51.2z"/>
		<path fill="#4E8090" d="M89.1,50.8L89.1,50.8C89,51,88.9,51,88.8,50.9l-0.1-0.1c0,0,0-0.1,0-0.2l0.1-0.1c0,0,0.1,0,0.2,0l0.1,0.1
			C89.2,50.7,89.2,50.8,89.1,50.8z"/>
		<path fill="#4E8090" d="M89.5,50.5L89.5,50.5c-0.1,0.1-0.2,0.1-0.3,0.1l-0.1-0.1c0,0,0-0.1,0-0.2l0.1-0.1c0,0,0.1,0,0.2,0l0.1,0.1
			C89.5,50.3,89.5,50.4,89.5,50.5z"/>
		<path fill="#4E8090" d="M89.8,50.1L89.8,50.1c-0.1,0.1-0.2,0.1-0.3,0.1l-0.1-0.1c0,0,0-0.1,0-0.2l0.1-0.1c0,0,0.1,0,0.2,0l0.1,0.1
			C89.9,50,89.9,50,89.8,50.1z"/>
		<path fill="#4E8090" d="M89.5,49.7L89.5,49.7c-0.1,0.1-0.2,0.1-0.3,0.1l-0.1-0.1c0,0,0-0.1,0-0.2l0.1-0.1c0,0,0.1,0,0.2,0l0.1,0.1
			C89.5,49.6,89.5,49.7,89.5,49.7z"/>
		<path fill="#4E8090" d="M89.1,50.1L89.1,50.1c-0.1,0.1-0.2,0.1-0.3,0.1l-0.1-0.1c0,0,0-0.1,0-0.2l0.1-0.1c0,0,0.1,0,0.2,0l0.1,0.1
			C89.2,50,89.2,50,89.1,50.1z"/>
		<path fill="#4E8090" d="M88.7,50.5L88.7,50.5c-0.1,0.1-0.2,0.1-0.3,0.1l-0.1-0.1c0,0,0-0.1,0-0.2l0.1-0.1c0,0,0.1,0,0.2,0l0.1,0.1
			C88.8,50.3,88.8,50.4,88.7,50.5z"/>
		<path fill="#4E8090" d="M88.4,50.8L88.4,50.8c-0.1,0.1-0.2,0.1-0.3,0.1L88,50.8c0,0,0-0.1,0-0.2l0.1-0.1c0,0,0.1,0,0.2,0l0.1,0.1
			C88.4,50.7,88.4,50.8,88.4,50.8z"/>
		<path fill="#4E8090" d="M88,51.2L88,51.2c-0.1,0.1-0.2,0.1-0.3,0.1l-0.1-0.1c0,0,0-0.1,0-0.2l0.1-0.1c0,0,0.1,0,0.2,0L88,51
			C88.1,51,88.1,51.1,88,51.2z"/>
		<path fill="#4E8090" d="M87.7,51.5L87.7,51.5c-0.1,0.1-0.2,0.1-0.3,0.1l-0.1-0.1c0,0,0-0.1,0-0.2l0.1-0.1c0,0,0.1,0,0.2,0l0.1,0.1
			C87.7,51.4,87.7,51.5,87.7,51.5z"/>
		<path fill="#7B4344" d="M88,51.9L88,51.9C87.9,52,87.8,52,87.8,52l-0.1-0.1c0,0,0-0.1,0-0.2l0.1-0.1c0,0,0.1,0,0.2,0l0.1,0.1
			C88.1,51.8,88.1,51.9,88,51.9z"/>
		<path fill="#4E8090" d="M88.4,51.5L88.4,51.5c-0.1,0.1-0.2,0.1-0.3,0.1L88,51.5c0,0,0-0.1,0-0.2l0.1-0.1c0,0,0.1,0,0.2,0l0.1,0.1
			C88.4,51.4,88.4,51.5,88.4,51.5z"/>
		<path fill="#4E8090" d="M88.8,51.9L88.8,51.9C88.6,52,88.5,52,88.5,52l-0.1-0.1c0,0,0-0.1,0-0.2l0.1-0.1c0,0,0.1,0,0.2,0l0.1,0.1
			C88.8,51.8,88.8,51.9,88.8,51.9z"/>
		<path fill="#4E8090" d="M88.4,52.3L88.4,52.3c-0.1,0.1-0.2,0.1-0.3,0.1L88,52.3c0,0,0-0.1,0-0.2l0.1-0.1c0,0,0.1,0,0.2,0l0.1,0.1
			C88.4,52.1,88.4,52.2,88.4,52.3z"/>
		<path fill="#4E8090" d="M88.7,52.6L88.7,52.6c-0.1,0.1-0.2,0.1-0.3,0.1l-0.1-0.1c0,0,0-0.1,0-0.2l0.1-0.1c0,0,0.1,0,0.2,0l0.1,0.1
			C88.8,52.5,88.8,52.6,88.7,52.6z"/>
		<path fill="#4E8090" d="M88.4,53L88.4,53c-0.1,0.1-0.2,0.1-0.3,0.1L88,53c0,0,0-0.1,0-0.2l0.1-0.1c0,0,0.1,0,0.2,0l0.1,0.1
			C88.4,52.8,88.4,52.9,88.4,53z"/>
		<path fill="#4E8090" d="M88.8,53.3L88.8,53.3c-0.1,0.1-0.2,0.1-0.3,0.1l-0.1-0.1c0,0,0-0.1,0-0.2l0.1-0.1c0,0,0.1,0,0.2,0l0.1,0.1
			C88.8,53.2,88.8,53.3,88.8,53.3z"/>
		<path fill="#4E8090" d="M88.4,53.7L88.4,53.7c-0.1,0.1-0.2,0.1-0.3,0.1L88,53.7c0,0,0-0.1,0-0.2l0.1-0.1c0,0,0.1,0,0.2,0l0.1,0.1
			C88.4,53.6,88.4,53.7,88.4,53.7z"/>
		<path fill="#4E8090" d="M88,53.3L88,53.3c-0.1,0.1-0.2,0.1-0.3,0.1l-0.1-0.1c0,0,0-0.1,0-0.2l0.1-0.1c0,0,0.1,0,0.2,0l0.1,0.1
			C88.1,53.2,88.1,53.3,88,53.3z"/>
		<path fill="#4E8090" d="M88,52.6L88,52.6c-0.1,0.1-0.2,0.1-0.3,0.1l-0.1-0.1c0,0,0-0.1,0-0.2l0.1-0.1c0,0,0.1,0,0.2,0l0.1,0.1
			C88.1,52.5,88.1,52.6,88,52.6z"/>
		<path fill="#4E8090" d="M87.7,53L87.7,53c-0.1,0.1-0.2,0.1-0.3,0.1L87.3,53c0,0,0-0.1,0-0.2l0.1-0.1c0,0,0.1,0,0.2,0l0.1,0.1
			C87.7,52.9,87.7,52.9,87.7,53z"/>
		<path fill="#4E8090" d="M87.3,53.3L87.3,53.3c-0.1,0.1-0.2,0.1-0.3,0.1l-0.1-0.1c0,0,0-0.1,0-0.2l0.1-0.1c0,0,0.1,0,0.2,0l0.1,0.1
			C87.4,53.2,87.4,53.3,87.3,53.3z"/>
		<path fill="#4E8090" d="M87,53L87,53c-0.1,0.1-0.2,0.1-0.3,0.1L86.6,53c0,0,0-0.1,0-0.2l0.1-0.1c0,0,0.1,0,0.2,0l0.1,0.1
			C87,52.8,87,52.9,87,53z"/>
		<path fill="#4E8090" d="M86.4,53c0,0,0.2,0.2,0.2,0.2c0,0,0,0.1,0,0.1c0.1-0.1-0.2,0.2-0.2,0.2S86.2,53.3,86.4,53z"/>
		<path fill="#4E8090" d="M85.4,53.3c0,0,0.2-0.2,0.2-0.2c0,0,0.1,0,0.1,0C85.7,53,86,53.3,86,53.3S85.7,53.5,85.4,53.3z"/>
		<path fill="#4E8090" d="M85.3,52.6c0,0,0.2,0.2,0.2,0.2c0,0,0,0.1,0,0.1c0.1-0.1-0.2,0.2-0.2,0.2S85.1,52.9,85.3,52.6z"/>
		<path fill="#4E8090" d="M84.3,52.9c0,0,0.2-0.2,0.2-0.2c0,0,0.1,0,0.1,0c-0.1-0.1,0.2,0.2,0.2,0.2S84.6,53.2,84.3,52.9z"/>
		<path fill="#4E8090" d="M84.2,52.3c0,0,0.2,0.2,0.2,0.2c0,0,0,0.1,0,0.1c0.1-0.1-0.2,0.2-0.2,0.2S84,52.5,84.2,52.3z"/>
		<path fill="#4E8090" d="M87.6,54c0,0,0.2-0.2,0.2-0.2c0,0,0.1,0,0.1,0c-0.1-0.1,0.2,0.2,0.2,0.2S87.9,54.2,87.6,54z"/>
		<path fill="#4E8090" d="M87.5,53.3c0,0,0.2,0.2,0.2,0.2c0,0,0,0.1,0,0.1c0.1-0.1-0.2,0.2-0.2,0.2S87.2,53.6,87.5,53.3z"/>
		<path fill="#4E8090" d="M87.3,52.6L87.3,52.6c-0.1,0.1-0.2,0.1-0.3,0.1l-0.1-0.1c0,0,0-0.1,0-0.2l0.1-0.1c0,0,0.1,0,0.2,0l0.1,0.1
			C87.4,52.5,87.4,52.6,87.3,52.6z"/>
		<path fill="#4E8090" d="M86.6,52.6L86.6,52.6c-0.1,0.1-0.2,0.1-0.3,0.1l-0.1-0.1c0,0,0-0.1,0-0.2l0.1-0.1c0,0,0.1,0,0.2,0l0.1,0.1
			C86.6,52.5,86.6,52.6,86.6,52.6z"/>
		<path fill="#4E8090" d="M86.2,53L86.2,53c-0.1,0.1-0.2,0.1-0.3,0.1L85.9,53c0,0,0-0.1,0-0.2l0.1-0.1c0,0,0.1,0,0.2,0l0.1,0.1
			C86.3,52.8,86.3,52.9,86.2,53z"/>
		<path fill="#4E8090" d="M85.9,52.6L85.9,52.6c-0.1,0.1-0.2,0.1-0.3,0.1l-0.1-0.1c0,0,0-0.1,0-0.2l0.1-0.1c0,0,0.1,0,0.2,0l0.1,0.1
			C85.9,52.5,85.9,52.6,85.9,52.6z"/>
		<path fill="#4E8090" d="M86.2,52.2L86.2,52.2c-0.1,0.1-0.2,0.1-0.3,0.1l-0.1-0.1c0,0,0-0.1,0-0.2L86,52c0,0,0.1,0,0.2,0l0.1,0.1
			C86.3,52.1,86.3,52.2,86.2,52.2z"/>
		<path fill="#4E8090" d="M87.7,52.3L87.7,52.3c-0.1,0.1-0.2,0.1-0.3,0.1l-0.1-0.1c0,0,0-0.1,0-0.2l0.1-0.1c0,0,0.1,0,0.2,0l0.1,0.1
			C87.7,52.1,87.7,52.2,87.7,52.3z"/>
		<path fill="#4E8090" d="M88,51.9L88,51.9C87.9,52,87.8,52,87.8,52l-0.1-0.1c0,0,0-0.1,0-0.2l0.1-0.1c0,0,0.1,0,0.2,0l0.1,0.1
			C88.1,51.8,88.1,51.9,88,51.9z"/>
		<path fill="#4E8090" d="M86.9,52.3L86.9,52.3c-0.1,0.1-0.2,0.1-0.3,0.1l-0.1-0.1c0,0,0-0.1,0-0.2l0.1-0.1c0,0,0.1,0,0.2,0l0.1,0.1
			C87,52.1,87,52.2,86.9,52.3z"/>
		<path fill="#4E8090" d="M87.3,51.9L87.3,51.9C87.2,52,87.1,52,87,52l-0.1-0.1c0,0,0-0.1,0-0.2l0.1-0.1c0,0,0.1,0,0.2,0l0.1,0.1
			C87.4,51.8,87.4,51.8,87.3,51.9z"/>
		<path fill="#4E8090" d="M86.6,51.9L86.6,51.9C86.4,52,86.4,52,86.3,52l-0.1-0.1c0,0,0-0.1,0-0.2l0.1-0.1c0,0,0.1,0,0.2,0l0.1,0.1
			C86.6,51.8,86.6,51.8,86.6,51.9z"/>
		<path fill="#4E8090" d="M86.9,51.5L86.9,51.5c-0.1,0.1-0.2,0.1-0.3,0.1l-0.1-0.1c0,0,0-0.1,0-0.2l0.1-0.1c0,0,0.1,0,0.2,0l0.1,0.1
			C87,51.4,87,51.5,86.9,51.5z"/>
		<path fill="#4E8090" d="M86.2,51.5L86.2,51.5c-0.1,0.1-0.2,0.1-0.3,0.1l-0.1-0.1c0,0,0-0.1,0-0.2l0.1-0.1c0,0,0.1,0,0.2,0l0.1,0.1
			C86.3,51.4,86.3,51.5,86.2,51.5z"/>
		<path fill="#4E8090" d="M86.6,51.2L86.6,51.2c-0.1,0.1-0.2,0.1-0.3,0.1l-0.1-0.1c0,0,0-0.1,0-0.2l0.1-0.1c0,0,0.1,0,0.2,0l0.1,0.1
			C86.6,51,86.6,51.1,86.6,51.2z"/>
		<path fill="#4E8090" d="M85.9,51.2L85.9,51.2c-0.1,0.1-0.2,0.1-0.3,0.1l-0.1-0.1c0,0,0-0.1,0-0.2l0.1-0.1c0,0,0.1,0,0.2,0l0.1,0.1
			C85.9,51,85.9,51.1,85.9,51.2z"/>
		<path fill="#4E8090" d="M86.2,50.8L86.2,50.8C86.1,51,86,51,86,50.9l-0.1-0.1c0,0,0-0.1,0-0.2l0.1-0.1c0,0,0.1,0,0.2,0l0.1,0.1
			C86.3,50.7,86.3,50.8,86.2,50.8z"/>
		<path fill="#4E8090" d="M84.8,52.2L84.8,52.2c-0.1,0.1-0.2,0.1-0.3,0.1l-0.1-0.1c0,0,0-0.1,0-0.2l0.1-0.1c0,0,0.1,0,0.2,0l0.1,0.1
			C84.8,52.1,84.8,52.2,84.8,52.2z"/>
		<path fill="#4E8090" d="M85.1,51.9L85.1,51.9C85,52,84.9,52,84.9,52l-0.1-0.1c0,0,0-0.1,0-0.2l0.1-0.1c0,0,0.1,0,0.2,0l0.1,0.1
			C85.2,51.8,85.2,51.8,85.1,51.9z"/>
		<path fill="#4E8090" d="M85.5,51.5L85.5,51.5c-0.1,0.1-0.2,0.1-0.3,0.1l-0.1-0.1c0,0,0-0.1,0-0.2l0.1-0.1c0,0,0.1,0,0.2,0l0.1,0.1
			C85.6,51.4,85.6,51.5,85.5,51.5z"/>
		<path fill="#4E8090" d="M86.6,50.5L86.6,50.5c-0.1,0.1-0.2,0.1-0.3,0.1l-0.1-0.1c0,0,0-0.1,0-0.2l0.1-0.1c0,0,0.1,0,0.2,0l0.1,0.1
			C86.6,50.3,86.6,50.4,86.6,50.5z"/>
		<path fill="#4E8090" d="M87.3,49.7L87.3,49.7c-0.1,0.1-0.2,0.1-0.3,0.1l-0.1-0.1c0,0,0-0.1,0-0.2l0.1-0.1c0,0,0.1,0,0.2,0l0.1,0.1
			C87.4,49.6,87.4,49.7,87.3,49.7z"/>
		<path fill="#4E8090" d="M87.7,49.4L87.7,49.4c-0.1,0.1-0.2,0.1-0.3,0.1l-0.1-0.1c0,0,0-0.1,0-0.2l0.1-0.1c0,0,0.1,0,0.2,0l0.1,0.1
			C87.7,49.3,87.7,49.3,87.7,49.4z"/>
		<path fill="#4E8090" d="M86.9,50.1L86.9,50.1c-0.1,0.1-0.2,0.1-0.3,0.1l-0.1-0.1c0,0,0-0.1,0-0.2l0.1-0.1c0,0,0.1,0,0.2,0l0.1,0.1
			C87,50,87,50,86.9,50.1z"/>
		<path fill="#4E8090" d="M89.5,48.3L89.5,48.3c-0.1,0.1-0.2,0.1-0.3,0.1l-0.1-0.1c0,0,0-0.1,0-0.2l0.1-0.1c0,0,0.1,0,0.2,0l0.1,0.1
			C89.5,48.2,89.5,48.2,89.5,48.3z"/>
		<path fill="#4E8090" d="M89.8,48.6L89.8,48.6c-0.1,0.1-0.2,0.1-0.3,0.1l-0.1-0.1c0,0,0-0.1,0-0.2l0.1-0.1c0,0,0.1,0,0.2,0l0.1,0.1
			C89.9,48.5,89.9,48.6,89.8,48.6z"/>
		<path fill="#4E8090" d="M90.2,49L90.2,49c-0.1,0.1-0.2,0.1-0.3,0.1L89.8,49c0,0,0-0.1,0-0.2l0.1-0.1c0,0,0.1,0,0.2,0l0.1,0.1
			C90.2,48.9,90.2,49,90.2,49z"/>
		<path fill="#4E8090" d="M89.1,48.7L89.1,48.7c-0.1,0.1-0.2,0.1-0.3,0.1l-0.1-0.1c0,0,0-0.1,0-0.2l0.1-0.1c0,0,0.1,0,0.2,0l0.1,0.1
			C89.2,48.5,89.2,48.6,89.1,48.7z"/>
		<path fill="#4E8090" d="M89.5,49L89.5,49c-0.1,0.1-0.2,0.1-0.3,0.1L89.1,49c0,0,0-0.1,0-0.2l0.1-0.1c0,0,0.1,0,0.2,0l0.1,0.1
			C89.5,48.9,89.5,49,89.5,49z"/>
		<path fill="#4E8090" d="M89.8,49.4L89.8,49.4c-0.1,0.1-0.2,0.1-0.3,0.1l-0.1-0.1c0,0,0-0.1,0-0.2l0.1-0.1c0,0,0.1,0,0.2,0l0.1,0.1
			C89.9,49.2,89.9,49.3,89.8,49.4z"/>
		<path fill="#4E8090" d="M90.2,49.7L90.2,49.7c-0.1,0.1-0.2,0.1-0.3,0.1l-0.1-0.1c0,0,0-0.1,0-0.2l0.1-0.1c0,0,0.1,0,0.2,0l0.1,0.1
			C90.2,49.6,90.2,49.7,90.2,49.7z"/>
		<path fill="#4E8090" d="M90.6,50.1L90.6,50.1c-0.1,0.1-0.2,0.1-0.3,0.1l-0.1-0.1c0,0,0-0.1,0-0.2l0.1-0.1c0,0,0.1,0,0.2,0l0.1,0.1
			C90.6,50,90.6,50,90.6,50.1z"/>
		<path fill="#4E8090" d="M90.9,50.5L90.9,50.5c-0.1,0.1-0.2,0.1-0.3,0.1l-0.1-0.1c0,0,0-0.1,0-0.2l0.1-0.1c0,0,0.1,0,0.2,0l0.1,0.1
			C91,50.3,91,50.4,90.9,50.5z"/>
		<path fill="#4E8090" d="M90.6,49.4L90.6,49.4c-0.1,0.1-0.2,0.1-0.3,0.1l-0.1-0.1c0,0,0-0.1,0-0.2l0.1-0.1c0,0,0.1,0,0.2,0l0.1,0.1
			C90.6,49.3,90.6,49.3,90.6,49.4z"/>
		<path fill="#4E8090" d="M90.9,49.7L90.9,49.7c-0.1,0.1-0.2,0.1-0.3,0.1l-0.1-0.1c0,0,0-0.1,0-0.2l0.1-0.1c0,0,0.1,0,0.2,0l0.1,0.1
			C91,49.6,91,49.7,90.9,49.7z"/>
		<path fill="#4E8090" d="M91.3,50.1L91.3,50.1c-0.1,0.1-0.2,0.1-0.3,0.1l-0.1-0.1c0,0,0-0.1,0-0.2l0.1-0.1c0,0,0.1,0,0.2,0l0.1,0.1
			C91.3,50,91.3,50,91.3,50.1z"/>
		<path fill="#4E8090" d="M91.3,50.8L91.3,50.8C91.1,51,91,51,91,50.9l-0.1-0.1c0,0,0-0.1,0-0.2l0.1-0.1c0,0,0.1,0,0.2,0l0.1,0.1
			C91.3,50.7,91.3,50.8,91.3,50.8z"/>
		<path fill="#4E8090" d="M88.7,47.9c0.2-0.2,0.5,0,0.5,0S89,48.1,89,48.1c0,0-0.1,0-0.1,0C88.9,48,88.7,47.9,88.7,47.9z"/>
		<path fill="#4E8090" d="M88.8,48.3L88.8,48.3c-0.1,0.1-0.2,0.1-0.3,0.1l-0.1-0.1c0,0,0-0.1,0-0.2l0.1-0.1c0,0,0.1,0,0.2,0l0.1,0.1
			C88.8,48.2,88.8,48.2,88.8,48.3z"/>
		<path fill="#4E8090" d="M90,47.8L90,47.8c-0.1,0.1-0.2,0.1-0.3,0.1l-0.1-0.1c0,0,0-0.1,0-0.2l0.1-0.1c0,0,0.1,0,0.2,0l0.1,0.1
			C90.1,47.7,90.1,47.8,90,47.8z"/>
		<path fill="#4E8090" d="M90.4,48.2L90.4,48.2c-0.1,0.1-0.2,0.1-0.3,0.1L90,48.2c0,0,0-0.1,0-0.2l0.1-0.1c0,0,0.1,0,0.2,0l0.1,0.1
			C90.4,48.1,90.4,48.1,90.4,48.2z"/>
		<path fill="#4E8090" d="M90.7,48.6L90.7,48.6c-0.1,0.1-0.2,0.1-0.3,0.1l-0.1-0.1c0,0,0-0.1,0-0.2l0.1-0.1c0,0,0.1,0,0.2,0l0.1,0.1
			C90.8,48.4,90.8,48.5,90.7,48.6z"/>
		<path fill="#4E8090" d="M91.1,48.9L91.1,48.9c-0.1,0.1-0.2,0.1-0.3,0.1l-0.1-0.1c0,0,0-0.1,0-0.2l0.1-0.1c0,0,0.1,0,0.2,0l0.1,0.1
			C91.1,48.8,91.1,48.9,91.1,48.9z"/>
		<path fill="#4E8090" d="M91.5,49.3L91.5,49.3c-0.1,0.1-0.2,0.1-0.3,0.1l-0.1-0.1c0,0,0-0.1,0-0.2l0.1-0.1c0,0,0.1,0,0.2,0l0.1,0.1
			C91.5,49.2,91.5,49.2,91.5,49.3z"/>
		<path fill="#4E8090" d="M91.8,49.6L91.8,49.6c-0.1,0.1-0.2,0.1-0.3,0.1l-0.1-0.1c0,0,0-0.1,0-0.2l0.1-0.1c0,0,0.1,0,0.2,0l0.1,0.1
			C91.9,49.5,91.9,49.6,91.8,49.6z"/>
		<path fill="#4E8090" d="M90.4,47.5L90.4,47.5c-0.1,0.1-0.2,0.1-0.3,0.1L90,47.5c0,0,0-0.1,0-0.2l0.1-0.1c0,0,0.1,0,0.2,0l0.1,0.1
			C90.4,47.3,90.4,47.4,90.4,47.5z"/>
		<path fill="#4E8090" d="M90.7,47.8L90.7,47.8c-0.1,0.1-0.2,0.1-0.3,0.1l-0.1-0.1c0,0,0-0.1,0-0.2l0.1-0.1c0,0,0.1,0,0.2,0l0.1,0.1
			C90.8,47.7,90.8,47.8,90.7,47.8z"/>
		<path fill="#4E8090" d="M91.1,48.2L91.1,48.2c-0.1,0.1-0.2,0.1-0.3,0.1l-0.1-0.1c0,0,0-0.1,0-0.2l0.1-0.1c0,0,0.1,0,0.2,0l0.1,0.1
			C91.1,48.1,91.1,48.1,91.1,48.2z"/>
		<path fill="#4E8090" d="M91.5,48.6L91.5,48.6c-0.1,0.1-0.2,0.1-0.3,0.1l-0.1-0.1c0,0,0-0.1,0-0.2l0.1-0.1c0,0,0.1,0,0.2,0l0.1,0.1
			C91.5,48.4,91.5,48.5,91.5,48.6z"/>
		<path fill="#4E8090" d="M91.8,48.9L91.8,48.9c-0.1,0.1-0.2,0.1-0.3,0.1l-0.1-0.1c0,0,0-0.1,0-0.2l0.1-0.1c0,0,0.1,0,0.2,0l0.1,0.1
			C91.9,48.8,91.9,48.9,91.8,48.9z"/>
		<path fill="#4E8090" d="M92.2,49.3L92.2,49.3c-0.1,0.1-0.2,0.1-0.3,0.1l-0.1-0.1c0,0,0-0.1,0-0.2l0.1-0.1c0,0,0.1,0,0.2,0l0.1,0.1
			C92.2,49.2,92.2,49.2,92.2,49.3z"/>
		<path fill="#7B4344" d="M89.9,53.6c0,0-0.2-0.2-0.2-0.2c0,0-0.1,0-0.1,0c0.1-0.1-0.2,0.2-0.2,0.2S89.6,53.9,89.9,53.6z"/>
		<path fill="#7B4344" d="M90,53c0,0-0.2,0.2-0.2,0.2c0,0,0,0.1,0,0.1c-0.1-0.1,0.2,0.2,0.2,0.2S90.3,53.2,90,53z"/>
		<path fill="#7B4344" d="M91,53.3c0,0-0.2-0.2-0.2-0.2c0,0-0.1,0-0.1,0c0.1-0.1-0.2,0.2-0.2,0.2S90.7,53.5,91,53.3z"/>
		<path fill="#7B4344" d="M91.1,52.6c0,0-0.2,0.2-0.2,0.2c0,0,0,0.1,0,0.1c-0.1-0.1,0.2,0.2,0.2,0.2S91.3,52.9,91.1,52.6z"/>
		<path fill="#7B4344" d="M92.1,52.9c0,0-0.2-0.2-0.2-0.2c0,0-0.1,0-0.1,0c0.1-0.1-0.2,0.2-0.2,0.2S91.8,53.1,92.1,52.9z"/>
		<path fill="#7B4344" d="M92.2,52.2c0,0-0.2,0.2-0.2,0.2c0,0,0,0.1,0,0.1c-0.1-0.1,0.2,0.2,0.2,0.2S92.4,52.5,92.2,52.2z"/>
		<path fill="#7B4344" d="M88.8,54c0,0-0.2-0.2-0.2-0.2c0,0-0.1,0-0.1,0c0.1-0.1-0.2,0.2-0.2,0.2S88.6,54.2,88.8,54z"/>
		<path fill="#7B4344" d="M88.9,53.3c0,0-0.2,0.2-0.2,0.2c0,0,0,0.1,0,0.1c-0.1-0.1,0.2,0.2,0.2,0.2S89.2,53.6,88.9,53.3z"/>
		<path fill="#7B4344" d="M89.5,53.3L89.5,53.3c-0.1,0.1-0.2,0.1-0.3,0.1l-0.1-0.1c0,0,0-0.1,0-0.2l0.1-0.1c0,0,0.1,0,0.2,0l0.1,0.1
			C89.5,53.2,89.5,53.3,89.5,53.3z"/>
		<path fill="#7B4344" d="M89.8,53L89.8,53c-0.1,0.1-0.2,0.1-0.3,0.1L89.5,53c0,0,0-0.1,0-0.2l0.1-0.1c0,0,0.1,0,0.2,0l0.1,0.1
			C89.9,52.8,89.9,52.9,89.8,53z"/>
		<path fill="#7B4344" d="M90.2,52.6L90.2,52.6c-0.1,0.1-0.2,0.1-0.3,0.1l-0.1-0.1c0,0,0-0.1,0-0.2l0.1-0.1c0,0,0.1,0,0.2,0l0.1,0.1
			C90.2,52.5,90.2,52.6,90.2,52.6z"/>
		<path fill="#7B4344" d="M90.5,52.3L90.5,52.3c-0.1,0.1-0.2,0.1-0.3,0.1l-0.1-0.1c0,0,0-0.1,0-0.2l0.1-0.1c0,0,0.1,0,0.2,0l0.1,0.1
			C90.6,52.1,90.6,52.2,90.5,52.3z"/>
		<path fill="#7B4344" d="M90.5,53L90.5,53c-0.1,0.1-0.2,0.1-0.3,0.1L90.2,53c0,0,0-0.1,0-0.2l0.1-0.1c0,0,0.1,0,0.2,0l0.1,0.1
			C90.6,52.9,90.6,52.9,90.5,53z"/>
		<path fill="#7B4344" d="M90.9,52.6L90.9,52.6c-0.1,0.1-0.2,0.1-0.3,0.1l-0.1-0.1c0,0,0-0.1,0-0.2l0.1-0.1c0,0,0.1,0,0.2,0l0.1,0.1
			C90.9,52.5,90.9,52.6,90.9,52.6z"/>
		<path fill="#7B4344" d="M89.5,52.6c-0.2-0.2-0.5,0-0.5,0s0.2,0.2,0.2,0.2c0,0,0.1,0,0.1,0C89.3,52.8,89.5,52.6,89.5,52.6z"/>
		<path fill="#4E8090" d="M89.1,52.5c0.1-0.1,0.1-0.1,0.1-0.1c0,0,0.1,0,0.1,0c0,0,0.2,0.2,0.2,0.2C89.3,52.3,89.2,52.4,89.1,52.5z"
			/>
		<path fill="#7B4344" d="M89.3,52c-0.2-0.2,0-0.5,0-0.5s0.2,0.2,0.2,0.2c0,0,0,0.1,0,0.1C89.5,51.9,89.3,52,89.3,52z"/>
		<path fill="#4E8090" d="M89.2,51.6c-0.1,0.1-0.1,0.1-0.1,0.1c0,0,0,0.1,0,0.1c0,0,0.2,0.2,0.2,0.2C89,51.8,89.1,51.7,89.2,51.6z"
			/>
		<path fill="#7B4344" d="M89.9,51.5c-0.2-0.2-0.5,0-0.5,0s0.2,0.2,0.2,0.2c0,0,0.1,0,0.1,0C89.7,51.7,89.9,51.5,89.9,51.5z"/>
		<path fill="#4E8090" d="M89.4,51.4c0.1-0.1,0.1-0.1,0.1-0.1c0,0,0.1,0,0.1,0c0,0,0.2,0.2,0.2,0.2C89.7,51.2,89.5,51.3,89.4,51.4z"
			/>
		<path fill="#7B4344" d="M89.7,51c-0.2-0.2,0-0.5,0-0.5s0.2,0.2,0.2,0.2c0,0,0,0.1,0,0.1C89.9,50.8,89.7,51,89.7,51z"/>
		<path fill="#4E8090" d="M89.6,50.5c-0.1,0.1-0.1,0.1-0.1,0.1c0,0,0,0.1,0,0.1c0,0,0.2,0.2,0.2,0.2C89.4,50.8,89.5,50.6,89.6,50.5z
			"/>
		<path fill="#7B4344" d="M90.3,50.4c-0.2-0.2-0.5,0-0.5,0s0.2,0.2,0.2,0.2c0,0,0.1,0,0.1,0C90.1,50.6,90.3,50.4,90.3,50.4z"/>
		<path fill="#4E8090" d="M89.8,50.3c0.1-0.1,0.1-0.1,0.1-0.1c0,0,0.1,0,0.1,0c0,0,0.2,0.2,0.2,0.2C90,50.1,89.9,50.2,89.8,50.3z"/>
		<path fill="#7B4344" d="M87.3,51c-0.2,0.2-0.5,0-0.5,0s0.2-0.2,0.2-0.2c0,0,0.1,0,0.1,0C87.2,50.9,87.3,51,87.3,51z"/>
		<path fill="#4E8090" d="M86.9,51.2c0.1,0.1,0.1,0.1,0.1,0.1c0,0,0.1,0,0.1,0c0,0,0.2-0.2,0.2-0.2C87.1,51.3,87,51.2,86.9,51.2z"/>
		<path fill="#7B4344" d="M86.8,50.5c-0.2,0.2,0,0.5,0,0.5s0.2-0.2,0.2-0.2c0,0,0-0.1,0-0.1C87,50.7,86.8,50.5,86.8,50.5z"/>
		<path fill="#4E8090" d="M86.7,50.9c-0.1-0.1-0.1-0.1-0.1-0.1c0,0,0-0.1,0-0.1c0,0,0.2-0.2,0.2-0.2C86.5,50.7,86.6,50.9,86.7,50.9z
			"/>
		<path fill="#7B4344" d="M87.7,50.8L87.7,50.8c-0.1,0.1-0.2,0.1-0.3,0.1l-0.1-0.1c0,0,0-0.1,0-0.2l0.1-0.1c0,0,0.1,0,0.2,0l0.1,0.1
			C87.7,50.7,87.7,50.8,87.7,50.8z"/>
		<path fill="#7B4344" d="M89.8,52.3L89.8,52.3c-0.1,0.1-0.2,0.1-0.3,0.1l-0.1-0.1c0,0,0-0.1,0-0.2l0.1-0.1c0,0,0.1,0,0.2,0l0.1,0.1
			C89.9,52.1,89.9,52.2,89.8,52.3z"/>
		<path fill="#7B4344" d="M90.2,51.9L90.2,51.9C90,52,90,52,89.9,52l-0.1-0.1c0,0,0-0.1,0-0.2l0.1-0.1c0,0,0.1,0,0.2,0l0.1,0.1
			C90.2,51.8,90.2,51.9,90.2,51.9z"/>
		<path fill="#7B4344" d="M90.9,51.9L90.9,51.9C90.8,52,90.7,52,90.6,52l-0.1-0.1c0,0,0-0.1,0-0.2l0.1-0.1c0,0,0.1,0,0.2,0l0.1,0.1
			C91,51.8,91,51.8,90.9,51.9z"/>
		<path fill="#7B4344" d="M91.3,51.5L91.3,51.5c-0.1,0.1-0.2,0.1-0.3,0.1l-0.1-0.1c0,0,0-0.1,0-0.2l0.1-0.1c0,0,0.1,0,0.2,0l0.1,0.1
			C91.3,51.4,91.3,51.5,91.3,51.5z"/>
		<path fill="#7B4344" d="M91.3,52.2L91.3,52.2c-0.1,0.1-0.2,0.1-0.3,0.1l-0.1-0.1c0,0,0-0.1,0-0.2L91,52c0,0,0.1,0,0.2,0l0.1,0.1
			C91.3,52.1,91.3,52.2,91.3,52.2z"/>
		<path fill="#7B4344" d="M91.6,51.9L91.6,51.9C91.5,52,91.4,52,91.4,52l-0.1-0.1c0,0,0-0.1,0-0.2l0.1-0.1c0,0,0.1,0,0.2,0l0.1,0.1
			C91.7,51.8,91.7,51.8,91.6,51.9z"/>
		<path fill="#7B4344" d="M91.6,52.6L91.6,52.6c-0.1,0.1-0.2,0.1-0.3,0.1l-0.1-0.1c0,0,0-0.1,0-0.2l0.1-0.1c0,0,0.1,0,0.2,0l0.1,0.1
			C91.7,52.5,91.7,52.6,91.6,52.6z"/>
		<path fill="#7B4344" d="M92,52.3L92,52.3c-0.1,0.1-0.2,0.1-0.3,0.1l-0.1-0.1c0,0,0-0.1,0-0.2l0.1-0.1c0,0,0.1,0,0.2,0l0.1,0.1
			C92,52.1,92,52.2,92,52.3z"/>
		<path fill="#7B4344" d="M90.5,51.5L90.5,51.5c-0.1,0.1-0.2,0.1-0.3,0.1l-0.1-0.1c0,0,0-0.1,0-0.2l0.1-0.1c0,0,0.1,0,0.2,0l0.1,0.1
			C90.6,51.4,90.6,51.5,90.5,51.5z"/>
		<path fill="#7B4344" d="M90.9,51.2L90.9,51.2c-0.1,0.1-0.2,0.1-0.3,0.1l-0.1-0.1c0,0,0-0.1,0-0.2l0.1-0.1c0,0,0.1,0,0.2,0l0.1,0.1
			C91,51,91,51.1,90.9,51.2z"/>
		<path fill="#7B4344" d="M90.2,51.2L90.2,51.2c-0.1,0.1-0.2,0.1-0.3,0.1l-0.1-0.1c0,0,0-0.1,0-0.2l0.1-0.1c0,0,0.1,0,0.2,0l0.1,0.1
			C90.2,51,90.2,51.1,90.2,51.2z"/>
		<path fill="#7B4344" d="M90.6,50.8L90.6,50.8c-0.1,0.1-0.2,0.1-0.3,0.1l-0.1-0.1c0,0,0-0.1,0-0.2l0.1-0.1c0,0,0.1,0,0.2,0l0.1,0.1
			C90.6,50.7,90.6,50.8,90.6,50.8z"/>
		<path fill="#7B4344" d="M88,50.5L88,50.5c-0.1,0.1-0.2,0.1-0.3,0.1l-0.1-0.1c0,0,0-0.1,0-0.2l0.1-0.1c0,0,0.1,0,0.2,0l0.1,0.1
			C88.1,50.3,88.1,50.4,88,50.5z"/>
		<path fill="#7B4344" d="M88.4,50.1L88.4,50.1c-0.1,0.1-0.2,0.1-0.3,0.1L88,50.1c0,0,0-0.1,0-0.2l0.1-0.1c0,0,0.1,0,0.2,0l0.1,0.1
			C88.4,50,88.4,50,88.4,50.1z"/>
		<path fill="#7B4344" d="M88.8,49.7L88.8,49.7c-0.1,0.1-0.2,0.1-0.3,0.1l-0.1-0.1c0,0,0-0.1,0-0.2l0.1-0.1c0,0,0.1,0,0.2,0l0.1,0.1
			C88.8,49.6,88.8,49.7,88.8,49.7z"/>
		<path fill="#7B4344" d="M87.3,50.5L87.3,50.5c-0.1,0.1-0.2,0.1-0.3,0.1l-0.1-0.1c0,0,0-0.1,0-0.2l0.1-0.1c0,0,0.1,0,0.2,0l0.1,0.1
			C87.4,50.3,87.4,50.4,87.3,50.5z"/>
		<path fill="#7B4344" d="M87.7,50.1L87.7,50.1c-0.1,0.1-0.2,0.1-0.3,0.1l-0.1-0.1c0,0,0-0.1,0-0.2l0.1-0.1c0,0,0.1,0,0.2,0l0.1,0.1
			C87.7,50,87.7,50.1,87.7,50.1z"/>
		<path fill="#7B4344" d="M88,49.8L88,49.8c-0.1,0.1-0.2,0.1-0.3,0.1l-0.1-0.1c0,0,0-0.1,0-0.2l0.1-0.1c0,0,0.1,0,0.2,0l0.1,0.1
			C88.1,49.6,88.1,49.7,88,49.8z"/>
		<path fill="#7B4344" d="M88.4,49.4L88.4,49.4c-0.1,0.1-0.2,0.1-0.3,0.1L88,49.4c0,0,0-0.1,0-0.2l0.1-0.1c0,0,0.1,0,0.2,0l0.1,0.1
			C88.4,49.3,88.4,49.3,88.4,49.4z"/>
		<path fill="#7B4344" d="M88.8,49L88.8,49c-0.1,0.1-0.2,0.1-0.3,0.1L88.4,49c0,0,0-0.1,0-0.2l0.1-0.1c0,0,0.1,0,0.2,0l0.1,0.1
			C88.8,48.9,88.8,49,88.8,49z"/>
		<path fill="#7B4344" d="M88,49L88,49c-0.1,0.1-0.2,0.1-0.3,0.1L87.7,49c0,0,0-0.1,0-0.2l0.1-0.1c0,0,0.1,0,0.2,0l0.1,0.1
			C88.1,48.9,88.1,49,88,49z"/>
		<path fill="#7B4344" d="M88.4,48.7L88.4,48.7c-0.1,0.1-0.2,0.1-0.3,0.1L88,48.7c0,0,0-0.1,0-0.2l0.1-0.1c0,0,0.1,0,0.2,0l0.1,0.1
			C88.5,48.5,88.5,48.6,88.4,48.7z"/>
		<path fill="#7B4344" d="M87.7,48.7L87.7,48.7c-0.1,0.1-0.2,0.1-0.3,0.1l-0.1-0.1c0,0,0-0.1,0-0.2l0.1-0.1c0,0,0.1,0,0.2,0l0.1,0.1
			C87.7,48.5,87.7,48.6,87.7,48.7z"/>
		<path fill="#7B4344" d="M88,48.3L88,48.3c-0.1,0.1-0.2,0.1-0.3,0.1l-0.1-0.1c0,0,0-0.1,0-0.2l0.1-0.1c0,0,0.1,0,0.2,0l0.1,0.1
			C88.1,48.2,88.1,48.3,88,48.3z"/>
		<path fill="#7B4344" d="M87.3,48.3L87.3,48.3c-0.1,0.1-0.2,0.1-0.3,0.1L87,48.3c0,0,0-0.1,0-0.2l0.1-0.1c0,0,0.1,0,0.2,0l0.1,0.1
			C87.4,48.2,87.4,48.3,87.3,48.3z"/>
		<path fill="#7B4344" d="M87.3,49L87.3,49c-0.1,0.1-0.2,0.1-0.3,0.1L86.9,49c0,0,0-0.1,0-0.2l0.1-0.1c0,0,0.1,0,0.2,0l0.1,0.1
			C87.4,48.9,87.4,49,87.3,49z"/>
		<path fill="#7B4344" d="M87,48.7L87,48.7c-0.1,0.1-0.2,0.1-0.3,0.1l-0.1-0.1c0,0,0-0.1,0-0.2l0.1-0.1c0,0,0.1,0,0.2,0l0.1,0.1
			C87,48.6,87,48.6,87,48.7z"/>
		<path fill="#7B4344" d="M87,49.4L87,49.4c-0.1,0.1-0.2,0.1-0.3,0.1l-0.1-0.1c0,0,0-0.1,0-0.2l0.1-0.1c0,0,0.1,0,0.2,0l0.1,0.1
			C87,49.3,87,49.4,87,49.4z"/>
		<path fill="#7B4344" d="M86.6,49L86.6,49c-0.1,0.1-0.2,0.1-0.3,0.1L86.2,49c0,0,0-0.1,0-0.2l0.1-0.1c0,0,0.1,0,0.2,0l0.1,0.1
			C86.6,48.9,86.6,49,86.6,49z"/>
		<path fill="#7B4344" d="M86.6,49.8L86.6,49.8c-0.1,0.1-0.2,0.1-0.3,0.1l-0.1-0.1c0,0,0-0.1,0-0.2l0.1-0.1c0,0,0.1,0,0.2,0l0.1,0.1
			C86.6,49.6,86.6,49.7,86.6,49.8z"/>
		<path fill="#7B4344" d="M86.2,49.4L86.2,49.4c-0.1,0.1-0.2,0.1-0.3,0.1l-0.1-0.1c0,0,0-0.1,0-0.2l0.1-0.1c0,0,0.1,0,0.2,0l0.1,0.1
			C86.3,49.3,86.3,49.3,86.2,49.4z"/>
		<path fill="#7B4344" d="M86.2,50.1L86.2,50.1c-0.1,0.1-0.2,0.1-0.3,0.1l-0.1-0.1c0,0,0-0.1,0-0.2l0.1-0.1c0,0,0.1,0,0.2,0l0.1,0.1
			C86.3,50,86.3,50.1,86.2,50.1z"/>
		<path fill="#7B4344" d="M85.9,49.8L85.9,49.8c-0.1,0.1-0.2,0.1-0.3,0.1l-0.1-0.1c0,0,0-0.1,0-0.2l0.1-0.1c0,0,0.1,0,0.2,0l0.1,0.1
			C85.9,49.6,85.9,49.7,85.9,49.8z"/>
		<path fill="#7B4344" d="M85.9,50.5L85.9,50.5c-0.1,0.1-0.2,0.1-0.3,0.1l-0.1-0.1c0,0,0-0.1,0-0.2l0.1-0.1c0,0,0.1,0,0.2,0l0.1,0.1
			C85.9,50.3,85.9,50.4,85.9,50.5z"/>
		<path fill="#7B4344" d="M85.5,50.1L85.5,50.1c-0.1,0.1-0.2,0.1-0.3,0.1l-0.1-0.1c0,0,0-0.1,0-0.2l0.1-0.1c0,0,0.1,0,0.2,0l0.1,0.1
			C85.6,50,85.6,50.1,85.5,50.1z"/>
		<path fill="#7B4344" d="M85.5,50.8L85.5,50.8c-0.1,0.1-0.2,0.1-0.3,0.1l-0.1-0.1c0,0,0-0.1,0-0.2l0.1-0.1c0,0,0.1,0,0.2,0l0.1,0.1
			C85.6,50.7,85.6,50.8,85.5,50.8z"/>
		<path fill="#7B4344" d="M86.5,47.8L86.5,47.8c0.1,0.1,0.2,0.1,0.3,0.1l0.1-0.1c0,0,0-0.1,0-0.2l-0.1-0.1c0,0-0.1,0-0.2,0l-0.1,0.1
			C86.4,47.7,86.4,47.7,86.5,47.8z"/>
		<path fill="#7B4344" d="M86.1,48.2L86.1,48.2c0.1,0.1,0.2,0.1,0.3,0.1l0.1-0.1c0,0,0-0.1,0-0.2l-0.1-0.1c0,0-0.1,0-0.2,0L86.1,48
			C86.1,48,86.1,48.1,86.1,48.2z"/>
		<path fill="#7B4344" d="M85.7,48.5L85.7,48.5c0.1,0.1,0.2,0.1,0.3,0.1l0.1-0.1c0,0,0-0.1,0-0.2L86,48.2c0,0-0.1,0-0.2,0l-0.1,0.1
			C85.7,48.4,85.7,48.5,85.7,48.5z"/>
		<path fill="#7B4344" d="M85.4,48.9L85.4,48.9c0.1,0.1,0.2,0.1,0.3,0.1l0.1-0.1c0,0,0-0.1,0-0.2l-0.1-0.1c0,0-0.1,0-0.2,0l-0.1,0.1
			C85.3,48.8,85.3,48.8,85.4,48.9z"/>
		<path fill="#7B4344" d="M85,49.2L85,49.2c0.1,0.1,0.2,0.1,0.3,0.1l0.1-0.1c0,0,0-0.1,0-0.2L85.3,49c0,0-0.1,0-0.2,0L85,49.1
			C85,49.1,85,49.2,85,49.2z"/>
		<path fill="#7B4344" d="M84.7,49.6L84.7,49.6c0.1,0.1,0.2,0.1,0.3,0.1l0.1-0.1c0,0,0-0.1,0-0.2l-0.1-0.1c0,0-0.1,0-0.2,0l-0.1,0.1
			C84.6,49.5,84.6,49.6,84.7,49.6z"/>
		<path fill="#7B4344" d="M86.1,47.4L86.1,47.4c0.1,0.1,0.2,0.1,0.3,0.1l0.1-0.1c0,0,0-0.1,0-0.2l-0.1-0.1c0,0-0.1,0-0.2,0l-0.1,0.1
			C86,47.3,86,47.4,86.1,47.4z"/>
		<path fill="#7B4344" d="M85.7,47.8L85.7,47.8c0.1,0.1,0.2,0.1,0.3,0.1l0.1-0.1c0,0,0-0.1,0-0.2L86,47.5c0,0-0.1,0-0.2,0l-0.1,0.1
			C85.7,47.7,85.7,47.7,85.7,47.8z"/>
		<path fill="#7B4344" d="M85.4,48.1L85.4,48.1c0.1,0.1,0.2,0.1,0.3,0.1l0.1-0.1c0,0,0-0.1,0-0.2l-0.1-0.1c0,0-0.1,0-0.2,0L85.4,48
			C85.3,48,85.3,48.1,85.4,48.1z"/>
		<path fill="#7B4344" d="M85,48.5L85,48.5c0.1,0.1,0.2,0.1,0.3,0.1l0.1-0.1c0,0,0-0.1,0-0.2l-0.1-0.1c0,0-0.1,0-0.2,0L85,48.3
			C85,48.4,85,48.5,85,48.5z"/>
		<path fill="#7B4344" d="M84.6,48.9L84.6,48.9c0.1,0.1,0.2,0.1,0.3,0.1l0.1-0.1c0,0,0-0.1,0-0.2l-0.1-0.1c0,0-0.1,0-0.2,0l-0.1,0.1
			C84.6,48.7,84.6,48.8,84.6,48.9z"/>
		<path fill="#7B4344" d="M84.3,49.2L84.3,49.2c0.1,0.1,0.2,0.1,0.3,0.1l0.1-0.1c0,0,0-0.1,0-0.2L84.6,49c0,0-0.1,0-0.2,0l-0.1,0.1
			C84.2,49.1,84.2,49.2,84.3,49.2z"/>
		<path opacity="0.9" fill="#7B4344" d="M91.6,54.6v1h1c0,0,1,0,1-1c0-1,0-1,0-1h-1v0.8c0,0,0,0.2-0.2,0.2
			C92.2,54.6,91.6,54.6,91.6,54.6z"/>
		<path opacity="0.85" fill="#4E8090" d="M84.6,54.6v1h-1c0,0-1,0-1-1c0-1,0-1,0-1h1v0.8c0,0,0,0.2,0.2,0.2
			C84,54.6,84.6,54.6,84.6,54.6z"/>
		<path opacity="0.85" fill="#4E8090" d="M91.6,46.6v-1h1c0,0,1,0,1,1c0,1,0,1,0,1h-1v-0.8c0,0,0-0.2-0.2-0.2
			C92.2,46.6,91.6,46.6,91.6,46.6z"/>
		<path opacity="0.9" fill="#7B4344" d="M84.6,46.6v-1h-1c0,0-1,0-1,1c0,1,0,1,0,1h1v-0.8c0,0,0-0.2,0.2-0.2
			C84,46.6,84.6,46.6,84.6,46.6z"/>
		<path fill="#4E8090" d="M89.1,52.3L89.1,52.3c-0.1,0.1-0.2,0.1-0.3,0.1l-0.1-0.1c0,0,0-0.1,0-0.2l0.1-0.1c0,0,0.1,0,0.2,0l0.1,0.1
			C89.2,52.1,89.2,52.2,89.1,52.3z"/>
		<path fill="#4E8090" d="M85.1,52.6L85.1,52.6c-0.1,0.1-0.2,0.1-0.3,0.1l-0.1-0.1c0,0,0-0.1,0-0.2l0.1-0.1c0,0,0.1,0,0.2,0l0.1,0.1
			C85.2,52.5,85.2,52.6,85.1,52.6z"/>
		<path fill="#4E8090" d="M85.5,52.3L85.5,52.3c-0.1,0.1-0.2,0.1-0.3,0.1l-0.1-0.1c0,0,0-0.1,0-0.2l0.1-0.1c0,0,0.1,0,0.2,0l0.1,0.1
			C85.6,52.1,85.6,52.2,85.5,52.3z"/>
		<path fill="#4E8090" d="M85.9,51.9L85.9,51.9C85.7,52,85.6,52,85.6,52l-0.1-0.1c0,0,0-0.1,0-0.2l0.1-0.1c0,0,0.1,0,0.2,0l0.1,0.1
			C85.9,51.8,85.9,51.9,85.9,51.9z"/>
		<path fill="#3A3B4C" d="M98.1,48.6h0.7v4.2c0,0.7-0.5,1-1.1,1c-0.7,0-1.1-0.4-1.1-0.9c0,0,0-0.2,0.1-0.4c0.2,0,0.4,0,0.6,0
			c0,0.1-0.1,0.2-0.1,0.3c0,0.3,0.2,0.4,0.4,0.4c0.2,0,0.4-0.1,0.4-0.4V48.6z M98,47.8c0,0.3,0.2,0.5,0.5,0.5c0.3,0,0.5-0.2,0.5-0.5
			c0-0.3-0.2-0.5-0.5-0.5C98.2,47.3,98,47.5,98,47.8z"/>
		<g>
			<path fill="#3A3B4C" d="M102,51.8c-0.1,0.2-0.3,0.3-0.5,0.4c-0.2,0.1-0.4,0.1-0.6,0.1c-0.1,0-0.3,0-0.4-0.1
				c-0.1,0-0.3-0.1-0.4-0.2s-0.2-0.2-0.3-0.3c-0.1-0.1-0.1-0.3-0.1-0.5c0-0.4,0.1-0.6,0.4-0.8c0.2-0.2,0.6-0.3,1.1-0.3
				c0.1,0,0.2,0,0.2,0c0.1,0,0.2,0,0.2,0c0.1,0,0.1,0,0.2,0c0.1,0,0.1,0,0.1,0V50c0-0.2-0.1-0.4-0.2-0.5c-0.1-0.1-0.3-0.2-0.6-0.2
				c-0.2,0-0.4,0-0.6,0.1c-0.1,0.1-0.3,0.1-0.4,0.2l-0.3-0.4c0.1,0,0.1-0.1,0.2-0.1c0.1,0,0.2-0.1,0.3-0.1c0.1,0,0.2-0.1,0.4-0.1
				c0.1,0,0.3,0,0.5,0c0.4,0,0.8,0.1,1,0.3c0.2,0.2,0.4,0.5,0.4,0.9v1.9c0,0.1,0,0.2,0,0.3H102L102,51.8z M102,50.6c0,0-0.1,0-0.1,0
				c-0.1,0-0.1,0-0.2,0c-0.1,0-0.1,0-0.2,0c-0.1,0-0.2,0-0.2,0c-0.2,0-0.3,0-0.4,0.1c-0.1,0-0.2,0.1-0.3,0.2
				c-0.1,0.1-0.1,0.1-0.1,0.2c0,0.1,0,0.2,0,0.2c0,0.2,0.1,0.3,0.2,0.4c0.1,0.1,0.3,0.1,0.5,0.1c0.1,0,0.2,0,0.3-0.1
				c0.1,0,0.2-0.1,0.3-0.2c0.1-0.1,0.2-0.2,0.2-0.2c0.1-0.1,0.1-0.2,0.1-0.3V50.6z"/>
			<path fill="#3A3B4C" d="M103.7,49.4h-0.6v-0.5h0.6v-1.1h0.6v1.1h1v0.5h-1V51c0,0.3,0,0.4,0.1,0.5c0.1,0.1,0.2,0.1,0.3,0.1
				c0.1,0,0.2,0,0.3-0.1c0.1,0,0.2-0.1,0.2-0.2l0.3,0.4c-0.1,0.1-0.3,0.2-0.4,0.3c-0.1,0.1-0.3,0.1-0.5,0.1c-0.3,0-0.6-0.1-0.8-0.3
				c-0.2-0.2-0.2-0.5-0.2-0.9V49.4z"/>
			<path fill="#3A3B4C" d="M108.2,51.8c-0.1,0.2-0.3,0.3-0.5,0.4c-0.2,0.1-0.4,0.1-0.6,0.1c-0.1,0-0.3,0-0.4-0.1
				c-0.1,0-0.3-0.1-0.4-0.2c-0.1-0.1-0.2-0.2-0.3-0.3c-0.1-0.1-0.1-0.3-0.1-0.5c0-0.4,0.1-0.6,0.4-0.8c0.2-0.2,0.6-0.3,1.1-0.3
				c0.1,0,0.2,0,0.2,0c0.1,0,0.2,0,0.2,0c0.1,0,0.1,0,0.2,0c0.1,0,0.1,0,0.1,0V50c0-0.2-0.1-0.4-0.2-0.5c-0.1-0.1-0.3-0.2-0.6-0.2
				c-0.2,0-0.4,0-0.6,0.1c-0.1,0.1-0.3,0.1-0.4,0.2l-0.3-0.4c0.1,0,0.1-0.1,0.2-0.1c0.1,0,0.2-0.1,0.3-0.1c0.1,0,0.2-0.1,0.4-0.1
				c0.1,0,0.3,0,0.5,0c0.4,0,0.8,0.1,1,0.3c0.2,0.2,0.4,0.5,0.4,0.9v1.9c0,0.1,0,0.2,0,0.3h-0.6L108.2,51.8z M108.2,50.6
				c0,0-0.1,0-0.1,0c-0.1,0-0.1,0-0.2,0c-0.1,0-0.1,0-0.2,0c-0.1,0-0.2,0-0.2,0c-0.2,0-0.3,0-0.4,0.1c-0.1,0-0.2,0.1-0.3,0.2
				c-0.1,0.1-0.1,0.1-0.1,0.2c0,0.1,0,0.2,0,0.2c0,0.2,0.1,0.3,0.2,0.4c0.1,0.1,0.3,0.1,0.5,0.1c0.1,0,0.2,0,0.3-0.1
				c0.1,0,0.2-0.1,0.3-0.2c0.1-0.1,0.2-0.2,0.2-0.2c0.1-0.1,0.1-0.2,0.1-0.3V50.6z"/>
		</g>
		<path fill="#7B4344" d="M111.3,52.1v-3c0-0.1,0-0.2,0-0.3h0.6l0,0.5c0-0.1,0.1-0.1,0.1-0.2c0.1-0.1,0.1-0.1,0.2-0.2
			c0.1-0.1,0.2-0.1,0.3-0.1c0.1,0,0.2-0.1,0.4-0.1c0.1,0,0.1,0,0.2,0c0.1,0,0.1,0,0.2,0l-0.1,0.6c-0.1,0-0.2,0-0.3,0
			c-0.1,0-0.3,0-0.4,0.1c-0.1,0.1-0.2,0.1-0.3,0.2c-0.1,0.1-0.2,0.2-0.2,0.3s-0.1,0.3-0.1,0.4v1.7H111.3z"/>
		<path fill="#7B4344" d="M113.9,48.8h0.6v1.9c0,0.3,0.1,0.5,0.2,0.7c0.1,0.1,0.3,0.2,0.6,0.2c0.2,0,0.3,0,0.5-0.1
			c0.1-0.1,0.2-0.2,0.3-0.3c0.1-0.1,0.1-0.3,0.2-0.4c0-0.2,0-0.3,0-0.5v-1.5h0.6v3c0,0.1,0,0.2,0,0.3h-0.6l0-0.5
			c0,0.1-0.1,0.1-0.2,0.2c-0.1,0.1-0.1,0.1-0.2,0.2s-0.2,0.1-0.3,0.1c-0.1,0-0.3,0.1-0.4,0.1c-0.4,0-0.7-0.1-0.9-0.4
			c-0.2-0.2-0.3-0.6-0.3-1V48.8z"/>
	</g>
</g>
<g>
	<g id="XMLID_32_">
		<g>
			<path fill="#FFFFFF" d="M59.6,84.9h31.9v102.5H60.3H27.6V84.9H59.6z M81,124.5c0-11.9-9.6-21.5-21.5-21.5s-21.5,9.6-21.5,21.5
				c0,11.9,9.6,21.5,21.5,21.5S81,136.4,81,124.5z"/>
			<path fill="#F0EEEE" d="M59.6,80.2h-15c-1.3,0-2.3-1-2.3-2.3v0c0-1.3,1-2.3,2.3-2.3h15h15.9c1.3,0,2.3,1,2.3,2.3v0
				c0,1.3-1,2.3-2.3,2.3H59.6z"/>
			<path fill="#FFFFFF" d="M71.2,116.6c0.7,2.5,0.2,7.9-4,12.9c-4.1,5-9.2,8.3-12.1,8.2c-2.9-0.1-5.9-2.1-6.9-3.5
				c-1-1.4,0-2.7,0-2.7s3.2-3,4.3-3.7c1.1-0.7,2.7,0.8,2.7,0.8l-3.5,4.3l4.5-3.2c0,0,0.3,0.9,1.9,1.2c1.5,0.4,8-7.1,8-8.7
				c0-1.6-1.5-2.1-2.4-2.7c-0.8-0.6-0.6-1.8-0.6-1.8s0.4-3,1.7-4.8c1.3-1.9,2.2-1.3,2.2-1.3l1.9,1l-3,4.8l3.8-3.9
				C69.4,113.8,70.5,114.1,71.2,116.6z"/>
			<path fill="#F0EEEE" d="M69.2,191.7c1.5,0,2.7,1.2,2.7,2.7c0,1.5-1.2,2.7-2.7,2.7c-1.5,0-2.7-1.2-2.7-2.7
				C66.5,192.9,67.7,191.7,69.2,191.7z"/>
			<path fill="#4A6489" d="M65.3,194.6c0-2.8-2.2-5.2-5-5.4v0v-1.5v-0.4h31.2V84.9H59.6v-4.6h15.9c1.3,0,2.3-1,2.3-2.3v0
				c0-1.3-1-2.3-2.3-2.3H59.6v-4.5v-0.4c12.8,0,25.6,0,29.5,0c8.5,0,8.4,8.5,8.4,8.5s0,110.3,0,115.9s-6.3,7.1-6.3,7.1
				s-15.8,0-31.6,0v-1.9l0-0.4c0.1,0,0.2,0,0.3,0C62.9,200,65.3,197.6,65.3,194.6z M66.5,194.4c0,1.5,1.2,2.7,2.7,2.7
				c1.5,0,2.7-1.2,2.7-2.7c0-1.5-1.2-2.7-2.7-2.7C67.7,191.7,66.5,192.9,66.5,194.4z"/>
			<path fill="#F0EEEE" d="M60.3,189.3c2.8,0.2,5,2.5,5,5.4c0,3-2.4,5.4-5.4,5.4c-0.1,0-0.2,0-0.3,0c-2.8-0.2-5-2.5-5-5.4
				c0-3,2.4-5.4,5.4-5.4C60.1,189.2,60.2,189.3,60.3,189.3z"/>
			<path fill="#A64E45" d="M69.4,113.8l-3.8,3.9l3-4.8l-1.9-1c0,0-0.9-0.6-2.2,1.3c-1.3,1.9-1.7,4.8-1.7,4.8s-0.2,1.2,0.6,1.8
				c0.8,0.6,2.4,1.1,2.4,2.7c0,1.6-6.5,9-8,8.7c-1.6-0.4-1.9-1.2-1.9-1.2l-4.5,3.2l3.5-4.3c0,0-1.6-1.5-2.7-0.8
				c-1,0.7-4.3,3.7-4.3,3.7s-1,1.3,0,2.7c1.1,1.4,4,3.4,6.9,3.5c2.9,0.1,8-3.2,12.1-8.2c4.1-5,4.6-10.4,4-12.9
				C70.5,114.1,69.4,113.8,69.4,113.8z M59.4,103c11.9,0,21.5,9.6,21.5,21.5c0,11.9-9.6,21.5-21.5,21.5s-21.5-9.7-21.5-21.5
				C37.9,112.6,47.5,103,59.4,103z"/>
			<path fill="#5D92C1" d="M50.6,197c1.5,0,2.7-1.2,2.7-2.7c0-1.5-1.2-2.7-2.7-2.7c-1.5,0-2.7,1.2-2.7,2.7
				C47.9,195.8,49.1,197,50.6,197z M60.3,189.2L60.3,189.2c-0.1,0-0.2,0-0.4,0c-3,0-5.4,2.4-5.4,5.4c0,2.9,2.2,5.2,5,5.4l0,0.4v1.9
				c-13.5,0-27,0-30.3,0c-7.1,0-7.6-6.3-7.6-6.3V77.1c0-5.4,7.1-6.3,7.1-6.3s15.4,0,30.8,0v0.4v4.5h-15c-1.3,0-2.3,1-2.3,2.3v0
				c0,1.3,1,2.3,2.3,2.3h15v4.6H27.6v102.5h32.7v0.4V189.2z"/>
			<path fill="#F0EEEE" d="M53.3,194.4c0,1.5-1.2,2.7-2.7,2.7c-1.5,0-2.7-1.2-2.7-2.7c0-1.5,1.2-2.7,2.7-2.7
				C52.1,191.7,53.3,192.9,53.3,194.4z"/>
		</g>
		<g>
		</g>
	</g>
	<g>
		<path fill="#A64E45" d="M45.5,154.9h2.3v8.1c0,3.4-1.7,4.6-4.1,4.6c-0.6,0-1.4-0.1-1.9-0.3l0.3-1.8c0.4,0.1,0.9,0.2,1.4,0.2
			c1.3,0,2.1-0.6,2.1-2.8V154.9z"/>
		<path fill="#A64E45" d="M52.8,163.8l-1.1,3.5h-2.3l4-12.4h2.9l4,12.4h-2.4l-1.1-3.5H52.8z M56.4,162.1l-1-3.1
			c-0.2-0.8-0.4-1.6-0.6-2.3h0c-0.2,0.7-0.4,1.6-0.6,2.3l-1,3.1H56.4z"/>
		<path fill="#A64E45" d="M62.9,156.8h-3.5v-1.9h9.4v1.9h-3.6v10.5h-2.3V156.8z"/>
		<path fill="#A64E45" d="M71.4,163.8l-1.1,3.5H68l4-12.4h2.9l4,12.4h-2.4l-1.1-3.5H71.4z M75,162.1l-1-3.1
			c-0.2-0.8-0.4-1.6-0.6-2.3h0c-0.2,0.7-0.4,1.6-0.6,2.3l-1,3.1H75z"/>
	</g>
</g>
</svg>
