<?xml version="1.0" encoding="utf-8"?>
<!-- Generator: Adobe Illustrator 18.0.0, SVG Export Plug-In . SVG Version: 6.00 Build 0)  -->
<!DOCTYPE svg PUBLIC "-//W3C//DTD SVG 1.1//EN" "http://www.w3.org/Graphics/SVG/1.1/DTD/svg11.dtd">
<svg version="1.1" id="Слой_1" xmlns="http://www.w3.org/2000/svg" xmlns:xlink="http://www.w3.org/1999/xlink" x="0px" y="0px"
	 viewBox="0 0 50 50" enable-background="new 0 0 50 50" xml:space="preserve">
<g>
	<path fill="#4D8692" d="M34.5,34.9v-6.4H36c-1.4-0.6-2.5-1-2.5-1c-3.2-1.1-3.2-2.3-3.2-2.3c-6.3,12.5-11.1,0-11.1,0
		c-0.3,1.2-3.6,2.5-5.5,3.2h1.7v6.4H7.7c-1.2,4.3-1.4,9.4-1.4,9.4c0,2.1,0.9,2.3,0.9,2.3c6.5,2.9,16.6,3.4,16.6,3.4
		c10.4,0.2,18-3,18-3c1.1-0.7,1.1-1.2,1.1-1.2c0.5-3.9-0.5-8.1-1.4-10.9H34.5z"/>
	<path fill="#4D8692" d="M17.5,18.7c0.5,4,3.9,8.2,7.1,8.2c3.6,0,7-4.4,7.6-8.2c0.2-0.1,0.5-0.5,0.7-1.3c0,0,0.8-2.7-0.2-2.5
		c0.4-1.1,1.5-5.2-0.7-7.8c0,0-1.1-1.5-3.7-2.2c-0.1-0.1-0.2-0.2-0.3-0.2c0,0,0.1,0.1,0.1,0.2c-0.1,0-0.3-0.1-0.5-0.1
		c-0.1-0.1-0.3-0.3-0.5-0.5c0,0,0.2,0.2,0.3,0.4c-0.1,0-0.1,0-0.2,0c-0.1-0.2-0.3-0.4-0.4-0.6c0,0,0.1,0.1,0.2,0.4
		c-0.5-0.4-1.4-1.2-1.4-2.1c0,0-0.6,0.3-1,0.8c0.1-0.4,0.4-0.8,0.7-1.1c0,0-0.4,0.2-0.8,0.6c-0.3,0.2-0.9,0.6-1.1,1.4L23.1,4
		c0.1-0.2,0.2-0.5,0.4-0.7c0,0-0.3,0.3-0.5,0.6l-0.4-0.2c0.1-0.2,0.3-0.5,0.5-0.7c0,0-0.2,0.2-0.5,0.5c0.1-0.3,0.1-0.6-0.8,0.3
		c0,0-3.8,1.6-4.9,5c0,0-0.6,1.5,0.2,6.1c-1.2-0.6-0.4,2.4-0.4,2.4C16.9,18.2,17.3,18.5,17.5,18.7z M24.4,2.9
		c-0.2,0.3-0.3,0.6-0.4,1l-0.1,0C23.9,3.5,24.1,3.2,24.4,2.9z"/>
	<polygon fill="#4D8692" points="8.9,4 13.2,4 13.2,1.2 6.1,1.2 6.1,8.3 8.9,8.3 	"/>
	<polygon fill="#4D8692" points="36,1.2 36,4 40.3,4 40.3,8.3 43.1,8.3 43.1,1.2 	"/>
	<polygon fill="#4D8692" points="13.2,30.3 8.9,30.3 8.9,26 6.1,26 6.1,33.1 13.2,33.1 	"/>
	<polygon fill="#4D8692" points="40.3,30.3 36,30.3 36,33.1 43.1,33.1 43.1,26 40.3,26 	"/>
</g>
</svg>
