<?xml version="1.0" encoding="utf-8"?>
<!-- Generator: Adobe Illustrator 18.0.0, SVG Export Plug-In . SVG Version: 6.00 Build 0)  -->
<!DOCTYPE svg PUBLIC "-//W3C//DTD SVG 1.1//EN" "http://www.w3.org/Graphics/SVG/1.1/DTD/svg11.dtd">
<svg version="1.1" id="Слой_1" xmlns="http://www.w3.org/2000/svg" xmlns:xlink="http://www.w3.org/1999/xlink" x="0px" y="0px"
	 viewBox="0 0 50 50" enable-background="new 0 0 50 50" xml:space="preserve">
<path fill="#B74F45" d="M47.3,24.7c0,5.9-1.6,10.8-5.2,15c0,0,0,0,0,0c-2,1.3-3.3,1.9-4.8,1.6c1.6-1.2,3.1-2.7,4.3-4.3c0,0,0,0,0,0
	c2.5-3.4,4-7.6,4-12.2C45.6,13.3,36.3,4,24.9,4C13.4,4,4.1,13.3,4.1,24.7s9.3,20.7,20.7,20.7c3.8,0,7.5-1.1,10.5-2.9
	c0,0,0.6,2.3-3.8,3.8c0,0,0,0,0,0c-2.1,0.6-4.3,1.1-6.6,1.1c-13,0-22.8-9.7-22.8-22.7S11.9,2.1,24.9,2.1
	C37.9,2.1,47.3,11.7,47.3,24.7z"/>
<path fill="#B74F45" d="M41.6,36.9c-1.2,1.6-2.6,3.1-4.3,4.3c-2.5-0.6-4-2.5-4-2.5s-1.7,1-5.8-0.4C23.4,36.8,15,27.5,13.4,20.2
	c-1.7-7.5,4.4-9.7,6.2-9.7c2.6,0,6.2,4.4,6,6.9c-0.2,2.5-3.3,1.3-3.4,4.9c-0.1,3.6,2.9,6.7,5,7.1c2.1,0.4,2.9-2.2,4.7-2.1
	c1.8,0.1,4.9,5.2,4.8,7.8c0,2.2-1.4,2.7-1.4,2.7S38.2,41.5,41.6,36.9z M34.7,35.6c0.6-2-2-6-3.1-6.3c-1.1-0.3-1.5,1.1-3.5,1.5
	c-2,0.4-3.3-0.2-5.5-2.5c-2.2-2.3-2.8-5.4-2.7-7.5c0.1-2.1,3.7-2.4,3.7-3.8c0-1.4-2.8-4.8-4.1-4.8s-5.1,2.4-4.4,6.5
	c1.5,9.5,10.1,17,12.8,18C30.6,37.7,34.1,37.6,34.7,35.6z"/>
</svg>
