<?xml version="1.0" encoding="utf-8"?>
<!-- Generator: Adobe Illustrator 18.0.0, SVG Export Plug-In . SVG Version: 6.00 Build 0)  -->
<!DOCTYPE svg PUBLIC "-//W3C//DTD SVG 1.1//EN" "http://www.w3.org/Graphics/SVG/1.1/DTD/svg11.dtd">
<svg version="1.1" id="Слой_1" xmlns="http://www.w3.org/2000/svg" xmlns:xlink="http://www.w3.org/1999/xlink" x="0px" y="0px"
	 viewBox="0 0 50 50" enable-background="new 0 0 50 50" xml:space="preserve">
<g>
	<path fill="#FFFFFF" d="M27.6,20.2c0.4-0.9,0.6-2,0.6-3c0-4.8-3.9-8.6-8.6-8.6c-4.8,0-8.6,3.9-8.6,8.6c0,0.9,0.2,1.8,0.4,2.7
		c0.6,2,6.4,17.6,7.5,20.5l-0.1,0.2l0.3,0.3c0,0,0,0.1,0,0.1s0,0,0,0l0.2,0.2l0.7-0.8l-0.4-0.4C21.1,36,26.6,23,27.6,20.2z M14,17.2
		c0-3,2.5-5.5,5.5-5.5c3,0,5.5,2.5,5.5,5.5c0,3-2.5,5.5-5.5,5.5C16.5,22.7,14,20.2,14,17.2z"/>
	<path fill="#FFFFFF" d="M23.6,17.2c0-2.2-1.8-4-4-4c-2.2,0-4,1.8-4,4c0,2.2,1.8,4,4,4C21.8,21.2,23.6,19.4,23.6,17.2z"/>
	<path fill="#FFFFFF" d="M38.2,13.3c0-2.4-1.9-4.3-4.3-4.3c-2.4,0-4.3,1.9-4.3,4.3c0,0.5,0.1,0.9,0.2,1.3c0.3,0.9,2.9,8,3.7,10
		l-0.1-0.1l-0.9,1l0.5,0.4l0.8-0.8c0,0,0,0,0,0s0,0,0-0.1l0.1-0.1l0,0c0.6-1.4,3.7-8.6,4.2-10.1C38.1,14.4,38.2,13.9,38.2,13.3z
		 M33.8,16.1c-1.5,0-2.8-1.2-2.8-2.8c0-1.5,1.2-2.8,2.8-2.8c1.5,0,2.8,1.2,2.8,2.8C36.6,14.9,35.4,16.1,33.8,16.1z"/>
	<circle fill="#FFFFFF" cx="33.8" cy="13.3" r="2"/>
	
		<rect x="27.6" y="30.2" transform="matrix(-0.7387 -0.674 0.674 -0.7387 27.7276 72.4651)" fill="#FFFFFF" width="0.7" height="1.3"/>
	
		<rect x="26.3" y="31.5" transform="matrix(-0.738 -0.6748 0.6748 -0.738 24.6062 73.994)" fill="#FFFFFF" width="0.7" height="1.4"/>
	
		<rect x="20.1" y="38.3" transform="matrix(-0.7389 -0.6738 0.6738 -0.7389 9.2441 81.6555)" fill="#FFFFFF" width="0.7" height="1.4"/>
	
		<rect x="25.1" y="32.9" transform="matrix(-0.7366 -0.6764 0.6764 -0.7366 21.3384 75.5579)" fill="#FFFFFF" width="0.7" height="1.4"/>
	
		<rect x="23.8" y="34.4" transform="matrix(-0.7352 -0.6779 0.6779 -0.7352 18.2134 77.0518)" fill="#FFFFFF" width="0.7" height="1.2"/>
	
		<rect x="28.8" y="28.8" transform="matrix(-0.7368 -0.6761 0.6761 -0.7368 30.7093 70.9331)" fill="#FFFFFF" width="0.7" height="1.4"/>
	
		<rect x="21.4" y="36.9" transform="matrix(-0.7387 -0.674 0.674 -0.7387 12.4132 80.0724)" fill="#FFFFFF" width="0.7" height="1.4"/>
	
		<rect x="22.6" y="35.6" transform="matrix(-0.7366 -0.6764 0.6764 -0.7366 15.3571 78.5173)" fill="#FFFFFF" width="0.7" height="1.3"/>
	
		<rect x="30.1" y="27.4" transform="matrix(-0.736 -0.677 0.677 -0.736 33.8575 69.3502)" fill="#FFFFFF" width="0.7" height="1.4"/>
	<polygon fill="#FFFFFF" points="31,27 31.5,27.4 32.5,26.4 32,25.9 	"/>
</g>
</svg>
