<?xml version="1.0" encoding="utf-8"?>
<!-- Generator: Adobe Illustrator 18.0.0, SVG Export Plug-In . SVG Version: 6.00 Build 0)  -->
<!DOCTYPE svg PUBLIC "-//W3C//DTD SVG 1.1//EN" "http://www.w3.org/Graphics/SVG/1.1/DTD/svg11.dtd">
<svg version="1.1" id="Слой_1" xmlns="http://www.w3.org/2000/svg" xmlns:xlink="http://www.w3.org/1999/xlink" x="0px" y="0px"
	 viewBox="0 0 50 50" enable-background="new 0 0 50 50" xml:space="preserve">
<g>
	<path fill="#FFFFFF" d="M39.4,28.8c0,0,5.3-2,5.3-2.3v-4.2c0-0.3-5.3-2.2-5.3-2.2l-1-2.3c0,0,2.3-5.1,2.1-5.3l-3-2.9
		c-0.2-0.2-5.3,2.1-5.3,2.1l-2.4-1c0,0-2.1-5.2-2.4-5.2h-4.2c-0.3,0-2.2,5.2-2.2,5.2l-2.4,1c0,0-5.2-2.2-5.4-2l-3,2.9
		c-0.2,0.2,2.2,5.2,2.2,5.2l-1,2.3c0,0-5.3,2-5.3,2.3v4.2c0,0.3,5.3,2.2,5.3,2.2l1,2.3c0,0-2.3,5.1-2.1,5.3l3,2.9
		c0.2,0.2,5.3-2.1,5.3-2.1l2.4,1c0,0,2.1,5.2,2.4,5.2h4.2c0.3,0,2.2-5.2,2.2-5.2l2.4-1c0,0,5.2,2.2,5.4,2l3-2.9
		c0.2-0.2-2.2-5.2-2.2-5.2L39.4,28.8z M25.4,30.5c-3.4,0-6.2-2.7-6.2-6.1c0-3.3,2.8-6.1,6.2-6.1c3.4,0,6.2,2.7,6.2,6.1
		C31.6,27.8,28.8,30.5,25.4,30.5z"/>
	<circle fill="#FFFFFF" cx="25.4" cy="24.4" r="3.8"/>
</g>
</svg>
