<?xml version="1.0" encoding="utf-8"?>
<!-- Generator: Adobe Illustrator 18.0.0, SVG Export Plug-In . SVG Version: 6.00 Build 0)  -->
<!DOCTYPE svg PUBLIC "-//W3C//DTD SVG 1.1//EN" "http://www.w3.org/Graphics/SVG/1.1/DTD/svg11.dtd">
<svg version="1.1" id="Слой_1" xmlns="http://www.w3.org/2000/svg" xmlns:xlink="http://www.w3.org/1999/xlink" x="0px" y="0px"
	 viewBox="0 0 50 50" enable-background="new 0 0 50 50" xml:space="preserve">
<g>
	<path fill="#FFFFFF" d="M30,28.7c0,0,4.7-1.8,4.7-2.1V23c0-0.3-4.7-1.9-4.7-1.9l-0.9-2c0,0,2-4.5,1.8-4.7l-2.7-2.6
		c-0.2-0.2-4.7,1.9-4.7,1.9l-2.1-0.8c0,0-1.8-4.6-2.1-4.6h-3.7c-0.3,0-2,4.6-2,4.6l-2.1,0.8c0,0-4.6-2-4.8-1.8l-2.7,2.6
		C4,14.6,6.1,19,6.1,19l-0.9,2c0,0-4.7,1.8-4.7,2v3.7c0,0.3,4.7,1.9,4.7,1.9l0.9,2c0,0-2,4.5-1.8,4.7L7,38.1
		c0.2,0.2,4.7-1.9,4.7-1.9l2.1,0.8c0,0,1.8,4.6,2.1,4.6h3.7c0.3,0,2-4.6,2-4.6l2.1-0.8c0,0,4.6,2,4.8,1.8l2.7-2.6
		c0.2-0.2-1.9-4.6-1.9-4.6L30,28.7z M17.7,30.3c-3,0-5.5-2.4-5.5-5.4c0-3,2.5-5.4,5.5-5.4c3,0,5.5,2.4,5.5,5.4
		C23.1,27.9,20.7,30.3,17.7,30.3z"/>
	<path fill="#FFFFFF" d="M46.7,32.6l-0.2-1.1c0,0,1.4-1.9,1.4-2L47,28c-0.1-0.1-2.4,0.4-2.4,0.4l-0.8-0.6c0,0-0.3-2.4-0.4-2.4
		l-1.7-0.4c-0.1,0-1.4,2-1.4,2l-1,0.2c0,0-1.9-1.4-2-1.4l-1.5,0.9c-0.1,0.1,0.3,2.4,0.3,2.4l-0.6,0.9c0,0-2.3,0.3-2.4,0.4L32.7,32
		c0,0.1,1.9,1.4,1.9,1.4l0.2,1.1c0,0-1.4,1.9-1.4,2l0.9,1.5c0.1,0.1,2.4-0.4,2.4-0.4l0.8,0.6c0,0,0.3,2.4,0.4,2.4l1.7,0.4
		c0.1,0,1.4-2,1.4-2l1-0.2c0,0,1.9,1.4,2,1.4l1.5-0.9c0.1-0.1-0.3-2.4-0.3-2.4l0.6-0.9c0,0,2.3-0.3,2.4-0.4l0.4-1.7
		C48.6,33.9,46.7,32.6,46.7,32.6z M43.1,33.6c-0.3,1.4-1.7,2.3-3.1,1.9c-1.4-0.3-2.2-1.8-1.9-3.1c0.3-1.4,1.7-2.3,3.1-1.9
		C42.6,30.8,43.5,32.2,43.1,33.6z"/>
	<circle fill="#FFFFFF" cx="17.7" cy="24.9" r="2.9"/>
</g>
</svg>
