<?xml version="1.0" encoding="utf-8"?>
<!-- Generator: Adobe Illustrator 18.0.0, SVG Export Plug-In . SVG Version: 6.00 Build 0)  -->
<!DOCTYPE svg PUBLIC "-//W3C//DTD SVG 1.1//EN" "http://www.w3.org/Graphics/SVG/1.1/DTD/svg11.dtd">
<svg version="1.1" id="Слой_1" xmlns="http://www.w3.org/2000/svg" xmlns:xlink="http://www.w3.org/1999/xlink" x="0px" y="0px"
	 viewBox="0 0 50 50" enable-background="new 0 0 50 50" xml:space="preserve">
<g>
	<path fill-rule="evenodd" clip-rule="evenodd" fill="#FFFFFF" d="M39.2,21.7H39c0,0-1.7-6.6-1.9-6.8c-1.3-2.2-3-2.1-3-2.1l-18.5,0
		c-2.3-0.1-3,1.7-3,1.7l-1.5,7.2h-0.3c-0.8,0-1.5,0.7-1.5,1.5v7.8c0,0.8,0.7,1.5,1.5,1.5h1v3.7c0,0.8,0.7,1.5,1.5,1.5h2.1
		c0.8,0,1.5-0.7,1.5-1.5v-3.7h16.8v3.7c0,0.8,0.7,1.5,1.5,1.5h2.1c0.8,0,1.5-0.7,1.5-1.5v-3.7h0.5c0.8,0,1.5-0.7,1.5-1.5v-7.8
		C40.7,22.3,40.1,21.7,39.2,21.7z M13.5,15.3c0,0,0.6-1.5,2.5-1.5h17.4c0,0,1.6-0.2,2.5,1.4c0.1,0.2,1.6,6.1,1.6,6.1H12.7L13.5,15.3
		z M14.9,28.7c-1.1,0-2.1-0.9-2.1-2.1c0-1.1,0.9-2.1,2.1-2.1c1.1,0,2.1,0.9,2.1,2.1C17,27.8,16.1,28.7,14.9,28.7z M28.4,28.7H22
		c-1.1,0-1.9-0.9-1.9-1.9c0-1.1,0.9-1.9,1.9-1.9h6.4c1.1,0,1.9,0.9,1.9,1.9C30.3,27.9,29.4,28.7,28.4,28.7z M35.5,28.7
		c-1.1,0-2.1-0.9-2.1-2.1c0-1.1,0.9-2.1,2.1-2.1c1.1,0,2.1,0.9,2.1,2.1C37.6,27.8,36.6,28.7,35.5,28.7z"/>
	<path fill-rule="evenodd" clip-rule="evenodd" fill="#FFFFFF" d="M14.9,25.2c-0.8,0-1.5,0.7-1.5,1.5c0,0.6,0.4,1.2,0.9,1.4
		c-0.4-0.2-0.7-0.7-0.7-1.2c0-0.8,0.6-1.4,1.4-1.4c0.5,0,0.9,0.3,1.2,0.7C16,25.6,15.5,25.2,14.9,25.2z"/>
	<path fill-rule="evenodd" clip-rule="evenodd" fill="#FFFFFF" d="M35.4,25.2c-0.6,0-1.2,0.4-1.4,0.9c0.2-0.4,0.7-0.7,1.2-0.7
		c0.8,0,1.4,0.6,1.4,1.4c0,0.5-0.3,0.9-0.7,1.2c0.6-0.2,0.9-0.7,0.9-1.4C36.9,25.8,36.2,25.2,35.4,25.2z"/>
</g>
</svg>
